<svg xmlns="http://www.w3.org/2000/svg" width="944.101" height="512.484" xmlns:xlink="http://www.w3.org/1999/xlink">
  <defs>
    <linearGradient id="a">
      <stop offset="0" stop-color="#e2a2b3"/>
      <stop offset=".563" stop-color="#e2a2b3" stop-opacity="0"/>
      <stop offset="1" stop-color="#866758" stop-opacity="0"/>
    </linearGradient>
    <linearGradient id="b">
      <stop offset="0" stop-color="#ddcabe" stop-opacity="0"/>
      <stop offset=".163" stop-color="#a89585" stop-opacity=".795"/>
      <stop offset=".371" stop-color="#73604d"/>
      <stop offset="1" stop-color="#806040"/>
    </linearGradient>
    <linearGradient id="d" x1="334.192" x2="338.584" y1="51.255" y2="417.536" xlink:href="#a" gradientUnits="userSpaceOnUse" gradientTransform="translate(40 42)"/>
    <linearGradient id="c" x1="271.608" x2="213.495" y1="401.858" y2="43.858" xlink:href="#b" gradientUnits="userSpaceOnUse"/>
  </defs>
  <g fill-rule="evenodd">
    <path fill="url(#c)" d="M224.76 19.604s-30.783-6.32-113.866 41.255C52.17 94.485 30.774 95.75-6.446 118.376c-25.487 15.493-50.965 13.153-71.946 53.196 0 0 39.104 43.44 103.945 87.68 70.628 48.193 108.303 76.472 162.153 104.372 49.126 24.823 28.035 5.086 82.936 9.013 36.108 2.582 48.853-12.184 48.853-12.184l-36.77-128.694z" transform="translate(78.392 -12.177)"/>
    <path fill="url(#d)" d="M287.488 42.374c-3.717 1.27-37.76 19.704-41.283 21.29l54.256 198.58 27.212 95.24c34.22 13.77 102.65 5.916 102.65 5.916s14.096-91.11 15.557-134.35c2.454-72.67-3.583-216.873-3.583-216.873-68.522 1.173-117.97 17.69-154.81 30.197z" transform="translate(78.392 -12.177)"/>
  </g>
  <g fill="none" stroke="#fff" stroke-opacity=".605" stroke-width="10" stroke-linecap="round" stroke-linejoin="round">
    <path d="M31.22 436.752s44.082-38.403 140.503-25.17c168.125 23.07 279.2 127.187 523.64 43.715 126.97-43.36 152.196-169.08 148.443-251.29-3.4-74.497-10.152-137.473 74.326-172.745"/>
    <path d="M52.123 457.083s44.082-38.402 140.503-25.17c168.125 23.07 279.2 127.187 523.64 43.715 126.97-43.36 152.196-169.08 148.443-251.29-3.402-74.497-10.153-137.473 74.325-172.745" stroke-dasharray="10 30"/>
  </g>
  <g transform="translate(78.392 -12.177)">
    <circle cx="630" cy="374" r="120" fill="#f2b042"/>
    <g fill="#fff" style="line-height:125%" font-size="40" font-family="Source Han Code JP" letter-spacing="0" word-spacing="0" font-weight="500">
      <path d="M540.077 429.333l37.956-3.182v-11.923h-13.416c-2.58 0-5.676.358-8.385.715 11.03-18.482 19.414-33.863 19.414-49.007 0-15.5-11.543-25.99-20.83-25.99-10.886 0-16.108 9.366-20.43 17.594l4.257 7.75c2.774-5.247 7.95-13.754 15.205-14.136 8.457-.446 14.51 6.435 14.51 15.497 0 13.236-13.77 31.085-28.28 54.455zM605.654 424.7c10.615 0 22.81-7.458 22.81-32.807 0-25.564-12.195-45.594-22.81-45.594-10.614 0-21.497 13.37-21.497 38.933 0 25.35 10.883 39.468 21.497 39.468zm0-68.454c5.875 0 15.667 14.682 15.667 35.647 0 20.857-9.79 22.86-15.666 22.86-5.875 0-14.354-8.663-14.354-29.52 0-20.965 8.48-28.987 14.354-28.987zm0 36.688c2.737 0 5.007-3.102 5.007-8.236s-2.27-8.343-5.006-8.343c-2.737 0-5.007 3.21-5.007 8.343 0 5.134 2.27 8.236 5.007 8.236zM649.698 414.585l3.535-72.736h-5.61c-3.097 3.1-6.58 5.365-11.61 6.796v8.823l7.235 1.75-1.16 55.365h-8.978v11.566h31.475v-11.565zM692.382 416.85c-8.793 0-13.66-6.916-14.627-22.178 3.483-7.393 11.466-10.255 14.69-10.255 5.484 0 8.58 5.366 8.58 15.86 0 10.492-1.245 16.573-8.643 16.573zm14.963-67.13c-3.03-5.248-7.48-9.42-13.35-9.42-9.998 0-23.593 13.473-23.593 46.383 0 28.02 6.37 41.018 22.11 41.018 10.07 0 15.672-10.73 15.672-27.424 0-17.528-5.934-26.113-14.19-26.113-4.192 0-12.95 3.815-16.497 10.254.387-24.205 10.37-32.67 17.013-32.67 3.29 0 6.514 2.74 8.707 6.438z" style="-inkscape-font-specification:'Source Han Code JP Medium'"/>
    </g>
    <circle cx="182" cy="384" r="94" fill="#e8e2dc"/>
    <circle cx="442" cy="392" r="86" fill="#e8e2dc"/>
    <circle cx="312" cy="396" r="76" fill="#e8e2dc"/>
    <g fill="#f2b042" style="line-height:125%" font-size="90" font-family="Nasu" letter-spacing="0" word-spacing="0">
      <path d="M167.315 401.29l1.735 13.55c-14.382 4.878-27.524 9.258-39.427 13.143l-2.107-13.922c3.967-1.157 9.63-2.934 16.985-5.33v-21.235h-9.91v-8.927h9.91v-20.524h-15.745V342.24h39.427v15.804h-14.63v20.524h9.59v8.927h-9.59v18.383zm20.62-38.398v11.242h14.343v-11.242zm0-18.68v10.993h14.343V344.21zm37.367 10.993V344.21h-14.84v10.995zm0 18.93V362.89h-14.84v11.242zm-14.097 47.096h33.6v15.68H163.1v-15.68h38.558v-10.356h-28.764v-8.555h28.764v-14.88h-27.276v-56.536h64.47v56.537h-27.647v14.88h29.508v8.554h-29.508zM355.29 382.075h-34.483c4.628 14.547 11.158 16.11 19.59 26.69 8.43 10.58 18.556 18.31 30.375 23.186-2.893 2.728-15.248 5.704-17.067 8.928-22.895-10.828-18.257-11.782-42.085-38.86-15.44 25.34-17.592 30.042-43.96 42.11-1.736-3.224-13.84-9.078-16.817-11.06 26.45-11.573 42.9-21.237 49.346-50.993h-34.743v-9.67l35.354.25c.325-11.44.617-19.903.782-36.517l18.917.5c-.167 15.292-1 20.754-1.157 35.766h35.946zM401.718 411.764l15.548 6.1c-3.058 4.96-6.943 9.837-11.654 14.632-4.712 4.71-3.537 4.83-8.496 8.137-2.48-2.728-11.292-8.127-13.937-9.697 10.827-6.2 13-9.997 18.538-19.172zm87.583-6.095h-35.298v31.537c0 2.728-.372 4.794-1.116 6.2-.744 1.404-2.108 2.437-4.092 3.1-2.727.99-18.427 1.487-29.42 1.487-.58-3.06-1.612-6.034-3.1-8.927 8.183.248 15.04.29 18.1.124 1.074-.082 1.777-.29 2.107-.62.332-.247.497-.743.497-1.487V405.67H392.47v-6.38h96.83v6.38zm-28.64 14.303l11.192-6.583c4.794 3.637 9.712 7.77 14.754 12.398 5.042 4.63 3.23 1.92 5.874 5.31l-11.687 7.202c-2.563-3.39-.667-.762-5.626-5.557-4.877-4.794-9.712-9.05-14.506-12.77zm-57.404-57.71c-2.48 2.892-4.753 5.29-6.82 7.19 7.357 4.96 12.647 8.844 15.87 11.654 2.894-2.893 5.25-5.62 7.068-8.183-4.38-3.306-9.753-6.86-16.118-10.662zm26.285-8.06h-19.713c-.248.413-.66.95-1.24 1.61-.495.663-.867 1.2-1.115 1.613 7.108 4.133 12.357 7.398 15.746 9.795 2.893-4.71 5-9.05 6.323-13.017zm55.89-6.44l6.322 3.968c-5.95 11.986-10.055 21.36-19.313 30.12 7.852 7.357 6.897 7.073 17.643 10.462-2.232 2.232-4.257 7.543-6.076 10.684-10.497-3.885-9.46-3.93-17.395-11.453v3.326h-49.346v-6.572c-8.844 8.514-9.713 9.47-21.698 14.18-1.322-2.644-3.058-5.124-5.207-7.438 9.672-3.224 8.846-2.444 16.616-8.973-4.133-3.72-9.34-7.81-15.622-12.275-2.15 1.82-4.05 3.306-5.704 4.464-1.653-2.398-8.315-7.25-10.795-8.904 6.695-4.546 12.564-9.712 17.606-15.498 5.125-5.87 9.093-11.696 11.903-17.482l13.77 4.44c-.908 1.653-2.148 3.844-3.718 6.57h18.473l1.612-.37 5.827 2.603c-4.05 14.052-11.076 26.285-21.077 36.7h40.884c-10.58-10.994-18.39-25.46-23.433-43.395l12.306-2.108c3.885 14.052 9.754 25.665 17.606 34.84 5.786-5.62 7.063-8.197 11.61-16.215h-25.914l3.89-12.177 27.495 1z" style="-inkscape-font-specification:Nasu"/>
    </g>
  </g>
  <g fill="#7da92f" fill-opacity=".941">
    <path d="M151.12 147.823v18.787c38.66 0 70 35.817 70 80-.022 3.345-.228 29.077-.615 32.392h19.437V167.788h30.807v-19.965z"/>
    <path d="M269.907 147.823v85h.076a42.5 42.5 0 0 0-.076 2.13 42.5 42.5 0 0 0 42.5 42.5 42.5 42.5 0 0 0 42.5-42.5 42.5 42.5 0 0 0-.108-2.13h.107v-85h-18.952v85.11h-.01a23.644 23.644 0 0 1 .106 2.02 23.644 23.644 0 0 1-23.643 23.646 23.644 23.644 0 0 1-23.645-23.646 23.644 23.644 0 0 1 .1-2.02h-.002v-85.11h-18.953zM402.107 142.547a44.405 40.21 3.998 0 0-35.805 46.28 44.405 40.21 3.998 0 0 45.667 33.554l.02.1a24.704 22.37 3.998 0 1 22.367 18.594 24.704 22.37 3.998 0 1-19.92 25.747 24.704 22.37 3.998 0 1-28.683-18.412 24.704 22.37 3.998 0 1-.067-.47L366.3 250.86a44.405 40.21 3.998 0 0 .074.47 44.405 40.21 3.998 0 0 51.558 33.096 44.405 40.21 3.998 0 0 35.804-46.28 44.405 40.21 3.998 0 0-44.426-33.593 24.704 22.37 3.998 0 1-23.627-18.654 24.704 22.37 3.998 0 1 19.918-25.745 24.704 22.37 3.998 0 1 28.685 18.413 24.704 22.37 3.998 0 1 .2 1.412l19.403-2.928a44.405 40.21 3.998 0 0-.224-1.408 44.405 40.21 3.998 0 0-51.557-33.097zM648.286 212.884c.395 55.912-18.57 65.133-42.04 65.3-23.472.164-42.573-10.16-42.958-64.7-.39-55.247 18.568-65.132 42.04-65.298 23.47-.166 42.564 9.002 42.958 64.698zM510.242 148.003c-26.165 0-47.377 26.047-47.377 85.99 0 26.966 21.212 48.825 47.377 48.825 25.01 0 45.477-19.974 47.238-45.285l-19.668-1.54c-3.77 11.986-14.684 20.656-27.57 20.656-16.007 0-28.985-13.376-28.985-29.872 0-36.672 12.978-52.606 28.985-52.606 4.153 0 15.598 1.084 19.17 3.313l10.734-19.083c-7.738-8.407-19.69-10.4-29.904-10.4zM660.2 154.987c2.314-2.225 6.286-3.398 6.286-3.398h91.44s5.893.027 8.692 2.717c3 2.884 3.182 9.515 3.182 9.515v111.46h-20.06s.643-67.57.218-98.517c-.074-5.344-8.253-2.984-11.407 0-20.923 19.79-12.002 69.683-25.318 69.683-14.72 0-4.195-49.837-24.99-69.683-2.674-2.553-9.676-4.544-9.697 0-.164 36.12-.467 98.517-.467 98.517h-21.415v-111.8s.62-5.692 3.536-8.495z"/>
  </g>
  <g fill="#9c4c64" style="line-height:125%" font-size="40" font-family="Yu Gothic UI" letter-spacing="30" word-spacing="0">
    <path d="M563.638 70.713c-.273 6.368 1.212 12.932-.793 16.442-2.46 4.386-9.347 6.014-15.408 8.133l-1.47-2.102c5.31-1.87 9.103-4.575 11.382-8.118 2.266-3.52 3.405-7.243 3.417-13.293H544.43V68.37h16.764c-.16-.386-.24-.842-.24-1.366 0-1.162.428-2.13 1.283-2.905.752-.673 1.63-1.01 2.63-1.01 1.164 0 2.132.428 2.907 1.282.672.752 1.008 1.63 1.008 2.632 0 1.162-.427 2.136-1.282 2.923-.752.672-1.63 1.008-2.632 1.008-.432 0-.843-.074-1.23-.222zm1.23-6.118c-.73 0-1.333.262-1.81.786-.4.456-.6.998-.6 1.624 0 .73.263 1.333.787 1.812.444.41.985.615 1.623.615.73 0 1.333-.26 1.812-.785.4-.456.598-1.003.598-1.64 0-.73-.262-1.328-.786-1.795-.444-.41-.986-.615-1.624-.615zM589.416 94.113V69.076h18.27v25.037zm12.387-5.717l3.182-15.193H593.85v18.552zM649.587 68.845c-.695-1.925-1.395-3.53-2.102-4.82l1.795-.7c.672 1.174 1.532 3.145 2.58 5.914l-1.4.563 1.127 1.47c-1.185 7.074-1.485 15.383-4.79 19.268-2.574 3.043-8.062 2.64-12.574 4.453l-1.538-1.88c4.956-1.97 8.693-4.734 11.21-8.29 2.428-3.416 2.57-6.406 3.423-12.09h-8.36c-1.64 3.918-3.79 5.71-6.444 8.503l-3.687-2.788c3.737-3.965 6.255-8.82 7.554-14.56l4.457 1.676c-.24.9-.575 1.994-1.008 3.28zm2-5.622l1.743-.632c.89 1.482 1.72 3.396 2.495 5.743l-1.83.735c-.74-2.313-1.542-4.26-2.408-5.845zM672.605 66.795h15.86v3.755h-15.86zm-2.136 7.45h19.772c-.262 6.666.053 13.578-2.944 16.848-2.37 2.597-7.897 2.544-12.694 3.73l-1.264-2c4.796-1.174 8.328-3.185 10.595-6.033 2.063-2.586 2.136-5.987 2.34-10.203l-15.806 1.75zM711.97 70.01l1.25-3.643c5.093.832 9.514 1.892 13.262 3.18l-1.488 4c-3.578-1.503-7.92-2.682-13.023-3.537zm-1.262 8.44l1.043-2.24c4.433.776 8.637 1.847 12.613 3.214l-1.672 3.927c-3.93-1.606-7.63-4.182-11.982-4.9zm-.598 10.92l1.043-2.204c6.05 1.242 12.03.647 16.885 2.812l-1.76 4.776c-5.185-2.484-10.574-4.278-16.168-5.384zM747.786 68.755c3.292 1.777 6.033 3.515 8.22 5.212l-3.45 4.353c-2.108-1.8-3.79-4.868-7.05-6.702zm17.637 1.743l4.4 1.088c-1.038 5.98-5.135 14.487-8.44 18.178-3.394 3.794-7.89 2.99-13.802 4.574l-1.196-2.375c10.95-2.7 17.295-9.855 19.04-21.465z" style="-inkscape-font-specification:'Yu Gothic UI'" letter-spacing="25"/>
    <path d="M806.258 71.823c-.364-2.015-.787-3.715-1.27-5.103l1.888-.39c.467 1.268.986 3.355 1.558 6.26l-1.476.322.867 1.637c-2.348 6.778-5.483 15.032-9.39 18.312-3.045 2.57-6.935 1.146-11.686 2.18l-1.204-2.11c5.215-1.117 9.36-3.218 12.436-6.303 2.963-2.966 4.294-5.878 6.085-11.342l-8.927-1.467c-2.272 3.59-4.7 5.063-7.782 7.372l-3.215-2.225c4.346-3.286 7.638-7.652 9.877-13.097l4.158 1.258c-.386.848-.9 1.87-1.54 3.067zm2.91-5.21l1.824-.333c.63 1.608 1.13 3.634 1.502 6.078l-1.925.42c-.346-2.405-.813-4.46-1.402-6.166zM575.588 116.167h5.622v3.95h-5.622v1.023c0 5.743.012 11.897-2.437 14.574-1.96 2.154-6.375 1.82-10.773 2.892l-1.418-2c4.488-.956 6.178-2.59 7.944-4.904 1.743-2.29 2.614-5.702 2.614-10.237v-1.348h-6.374v7.67h-3.604v-7.67h-5.35v-3.95h5.35v-6.92h3.604v6.92h6.374v-6.99h4.07zM602.71 121.465h30.352v7.124s-4.11.125-6.16 0c-4.318-.267-24.192-1.592-24.192-1.592zM667.57 116.295c-1.64 3.92-3.787 5.9-6.442 8.69l-4.21-2.598c3.738-3.965 6.256-8.818 7.555-14.56l4.978 1.487c-.238.9-.574 1.994-1.007 3.28h12.133c-1.093 8.045-.67 17.003-4.03 21.22-2.61 3.268-8.946 3.026-13.71 4.93l-1.537-1.88c4.955-1.972 8.692-4.735 11.21-8.29 2.427-3.417 2.653-6.594 3.508-12.28zM716.84 135.166c4.072-2.11 7.555-5.733 10.45-10.873l1.505 2.537c-1.83 2.84-2.898 7.53-5.162 9.564-2.264 2.033-5.724 1.412-8.423 2.64l-2.518-1.092 3.217-27.033 3.763.447zm-4.594-24.452c-.783 6.584-1.462 11.323-2.035 14.215-.483 2.42-1.042 4.326-1.678 5.72-1.26 2.764-3.247 5.057-5.965 6.88l-2.972-1.955c2.393-1.31 4.245-3.425 5.556-6.344.603-1.396 1.175-3.743 1.717-7.04.418-2.555.95-6.53 1.59-11.927z" style="-inkscape-font-specification:'Yu Gothic UI';text-align:start" font-size="35"/>
  </g>
</svg>
