<?xml version="1.0" encoding="UTF-8" standalone="no"?>
<!-- Created with Inkscape (http://www.inkscape.org/) -->

<svg
   xmlns:dc="http://purl.org/dc/elements/1.1/"
   xmlns:cc="http://creativecommons.org/ns#"
   xmlns:rdf="http://www.w3.org/1999/02/22-rdf-syntax-ns#"
   xmlns:svg="http://www.w3.org/2000/svg"
   xmlns="http://www.w3.org/2000/svg"
   xmlns:xlink="http://www.w3.org/1999/xlink"
   xmlns:sodipodi="http://sodipodi.sourceforge.net/DTD/sodipodi-0.dtd"
   xmlns:inkscape="http://www.inkscape.org/namespaces/inkscape"
   width="800"
   height="600"
   id="svg4138"
   version="1.1"
   inkscape:version="0.91 r13725"
   viewBox="0 0 800 600"
   sodipodi:docname="logo.svg">
  <defs
     id="defs4140">
    <linearGradient
       inkscape:collect="always"
       id="linearGradient4257-9-8">
      <stop
         id="stop4342"
         offset="0"
         style="stop-color:#e2a2b3;stop-opacity:1" />
      <stop
         style="stop-color:#e2a2b3;stop-opacity:0"
         offset="0.56338322"
         id="stop4344" />
      <stop
         id="stop4346"
         offset="1"
         style="stop-color:#866758;stop-opacity:0" />
    </linearGradient>
    <linearGradient
       id="linearGradient4257-9"
       inkscape:collect="always">
      <stop
         style="stop-color:#ddcabe;stop-opacity:0"
         offset="0"
         id="stop4279" />
      <stop
         id="stop4363"
         offset="0.16315417"
         style="stop-color:#a89585;stop-opacity:0.79512197" />
      <stop
         style="stop-color:#73604d;stop-opacity:1"
         offset="0.37070492"
         id="stop4348" />
      <stop
         id="stop4269"
         offset="1"
         style="stop-color:#806040;stop-opacity:1" />
    </linearGradient>
    <linearGradient
       inkscape:collect="always"
       xlink:href="#linearGradient4257-9-8"
       id="linearGradient4338"
       x1="334.19177"
       y1="51.254578"
       x2="338.58377"
       y2="417.53589"
       gradientUnits="userSpaceOnUse"
       gradientTransform="translate(40,42)" />
    <linearGradient
       inkscape:collect="always"
       xlink:href="#linearGradient4257-9"
       id="linearGradient4389"
       x1="271.60809"
       y1="401.85791"
       x2="213.49451"
       y2="43.85788"
       gradientUnits="userSpaceOnUse" />
  </defs>
  <sodipodi:namedview
     id="base"
     pagecolor="#ffffff"
     bordercolor="#666666"
     borderopacity="1.0"
     inkscape:pageopacity="0.0"
     inkscape:pageshadow="2"
     inkscape:zoom="0.35355339"
     inkscape:cx="117.33321"
     inkscape:cy="579.64963"
     inkscape:current-layer="layer3"
     inkscape:document-units="px"
     showgrid="false"
     showguides="true"
     inkscape:window-width="1474"
     inkscape:window-height="841"
     inkscape:window-x="54"
     inkscape:window-y="-8"
     inkscape:window-maximized="1"
     inkscape:snap-object-midpoints="false"
     inkscape:snap-center="false"
     inkscape:snap-grids="false"
     inkscape:snap-to-guides="false">
    <inkscape:grid
       type="xygrid"
       id="grid4686" />
  </sodipodi:namedview>
  <metadata
     id="metadata4143">
    <rdf:RDF>
      <cc:Work
         rdf:about="">
        <dc:format>image/svg+xml</dc:format>
        <dc:type
           rdf:resource="http://purl.org/dc/dcmitype/StillImage" />
        <dc:title />
      </cc:Work>
    </rdf:RDF>
  </metadata>
  <g
     inkscape:groupmode="layer"
     inkscape:label="background3"
     id="g4159"
     style="display:none">
    <rect
       y="-60.653931"
       x="-145.84839"
       height="1141.3079"
       width="1559.6968"
       id="rect4161"
       style="fill:#dccdd4;fill-opacity:1;stroke:none;stroke-width:20;stroke-linecap:round;stroke-linejoin:round;stroke-miterlimit:4;stroke-dasharray:none;stroke-opacity:1" />
  </g>
  <g
     id="layer1"
     inkscape:label="background2"
     inkscape:groupmode="layer"
     style="display:none">
    <rect
       style="fill:#cfbbb7;fill-opacity:1;stroke:none;stroke-width:20;stroke-linecap:round;stroke-linejoin:round;stroke-miterlimit:4;stroke-dasharray:none;stroke-opacity:1"
       id="rect4141-8"
       width="1559.6968"
       height="1141.3079"
       x="-145.84839"
       y="-60.653931" />
  </g>
  <g
     inkscape:groupmode="layer"
     id="layer3"
     inkscape:label="background"
     style="display:none">
    <rect
       style="fill:#d5d5d5;fill-opacity:1;stroke:none;stroke-width:20;stroke-linecap:round;stroke-linejoin:round;stroke-miterlimit:4;stroke-dasharray:none;stroke-opacity:1"
       id="rect4141"
       width="1559.6968"
       height="1141.3079"
       x="-201.98694"
       y="-47.727058" />
  </g>
  <g
     inkscape:groupmode="layer"
     id="layer7"
     inkscape:label="doritos">
    <path
       style="fill:url(#linearGradient4389);fill-opacity:1;fill-rule:evenodd;stroke:none;stroke-width:1px;stroke-linecap:butt;stroke-linejoin:miter;stroke-opacity:1"
       d="m 224.75945,19.603896 c 0,0 -30.78244,-6.321174 -113.86501,41.254834 -58.723052,33.62689 -80.119748,34.890428 -117.3416619,57.51829 -25.4853911,15.49302 -50.9641571,13.15256 -71.9446981,53.19596 0,0 39.103546,43.43859 103.944702,87.68124 70.628618,48.19156 108.303258,76.471 162.152848,104.3711 49.12633,24.82256 28.0349,5.08569 82.93607,9.0122 36.10783,2.58242 48.85282,-12.18377 48.85282,-12.18377 L 282.72496,231.76032 Z"
       id="path4255"
       inkscape:connector-curvature="0"
       sodipodi:nodetypes="csacscsccc" />
  </g>
  <g
     inkscape:groupmode="layer"
     id="layer8"
     inkscape:label="doritos 2"
     style="display:inline">
    <path
       style="fill:url(#linearGradient4338);fill-opacity:1;fill-rule:evenodd;stroke:none;stroke-width:1px;stroke-linecap:butt;stroke-linejoin:miter;stroke-opacity:1"
       d="m 287.48799,42.374169 c -3.71658,1.270114 -37.75966,19.703735 -41.28254,21.290875 l 54.25586,198.580076 27.21093,95.24024 c 34.22041,13.76923 102.65003,5.91503 102.65003,5.91503 0,0 14.09592,-91.10961 15.55664,-134.35156 2.45475,-72.66848 -3.58204,-216.872305 -3.58203,-216.872305 -68.52189,1.173858 -117.97123,17.691974 -154.80889,30.197644 z"
       id="path4301"
       inkscape:connector-curvature="0"
       sodipodi:nodetypes="cccccscc" />
  </g>
  <g
     inkscape:groupmode="layer"
     id="layer11"
     inkscape:label="path">
    <path
       style="fill:none;fill-rule:evenodd;stroke:#ffffff;stroke-width:10;stroke-linecap:round;stroke-linejoin:round;stroke-miterlimit:4;stroke-dasharray:none;stroke-dashoffset:0;stroke-opacity:0.60487809"
       d="m -47.171574,448.92893 c 0,0 44.0819364,-38.40296 140.502518,-25.17157 C 261.45585,446.82843 372.53147,550.94541 616.97056,467.47309 743.94179,424.1143 769.16692,298.39418 765.41421,216.18376 762.01359,141.68675 755.26198,78.710677 839.74011,43.438595"
       id="path4482"
       inkscape:connector-curvature="0"
       sodipodi:nodetypes="csssc" />
    <path
       style="fill:none;fill-rule:evenodd;stroke:#ffffff;stroke-width:10;stroke-linecap:round;stroke-linejoin:round;stroke-miterlimit:4;stroke-dasharray:10, 30;stroke-dashoffset:0;stroke-opacity:0.60487809"
       d="m -26.268805,469.25999 c 0,0 44.08193,-38.40296 140.502525,-25.17157 168.1249,23.07107 279.20052,127.18805 523.6396,43.71573 126.9712,-43.35879 152.1964,-169.07891 148.4437,-251.28933 -3.4007,-74.49701 -10.1523,-137.473076 74.3259,-172.745157"
       id="path4482-1"
       inkscape:connector-curvature="0"
       sodipodi:nodetypes="csssc" />
  </g>
  <g
     inkscape:groupmode="layer"
     id="layer6"
     inkscape:label="2016">
    <circle
       style="fill:#f2b042;fill-opacity:1;stroke:none;stroke-width:20;stroke-linecap:round;stroke-linejoin:round;stroke-miterlimit:4;stroke-dasharray:none;stroke-opacity:1"
       id="path4231"
       cx="630"
       cy="374"
       r="120" />
    <g
       transform="matrix(1.6124514,0,0,2.9809667,-696.38436,-392.57903)"
       style="font-style:normal;font-weight:normal;font-size:40px;line-height:125%;font-family:sans-serif;letter-spacing:0px;word-spacing:0px;fill:#000000;fill-opacity:1;stroke:none;stroke-width:1px;stroke-linecap:butt;stroke-linejoin:miter;stroke-opacity:1"
       id="flowRoot4233">
      <path
         d="m 766.82066,275.71991 23.53934,-1.06743 0,-4 -8.32,0 c -1.6,0 -3.52,0.12 -5.2,0.24 6.84,-6.2 12.04,-11.36 12.04,-16.44 0,-5.2 -7.1586,-8.7186 -12.9186,-8.7186 -6.75117,0 -9.9897,3.14184 -12.6697,5.90184 l 2.64,2.6 c 1.72,-1.76 4.93055,-4.6135 9.4297,-4.74184 5.24493,-0.14962 8.9986,2.1586 8.9986,5.1986 0,4.44 -8.53934,10.42743 -17.53934,18.26743 z"
         style="font-style:normal;font-variant:normal;font-weight:500;font-stretch:normal;font-family:'Source Han Code JP';-inkscape-font-specification:'Source Han Code JP Medium';fill:#ffffff;fill-opacity:1"
         id="path4246"
         inkscape:connector-curvature="0"
         sodipodi:nodetypes="cccscssccsscc" />
      <path
         d="m 807.4901,274.1661 c 6.58287,0 14.14584,-2.5021 14.14584,-11.00592 0,-8.57558 -7.56297,-15.29493 -14.14584,-15.29493 -6.58286,0 -13.33204,4.48514 -13.33204,13.06072 0,8.50382 6.74918,13.24013 13.33204,13.24013 z m 0,-22.96391 c 3.64335,0 9.71586,4.92529 9.71586,11.95799 0,6.99681 -6.07251,7.66897 -9.71586,7.66897 -3.64334,0 -8.90206,-2.90637 -8.90206,-9.90318 0,-7.0327 5.25872,-9.72378 8.90206,-9.72378 z m 0,12.30722 c 1.69747,0 3.10513,-1.04055 3.10513,-2.76285 0,-1.72229 -1.40766,-2.79872 -3.10513,-2.79872 -1.69746,0 -3.10512,1.07643 -3.10512,2.79872 0,1.7223 1.40766,2.76285 3.10512,2.76285 z"
         style="font-style:normal;font-variant:normal;font-weight:500;font-stretch:normal;font-family:'Source Han Code JP';-inkscape-font-specification:'Source Han Code JP Medium';fill:#ffffff;fill-opacity:1"
         id="path4248"
         inkscape:connector-curvature="0"
         sodipodi:nodetypes="sssssssssssssss" />
      <path
         d="m 834.80485,270.77248 2.19265,-24.4 -3.48,0 c -1.92,1.04 -4.08,1.8 -7.2,2.28 l 0,2.96 4.48709,0.58706 -0.71974,18.57294 -5.56735,0 0,3.88 19.52,0 0,-3.88 z"
         style="font-style:normal;font-variant:normal;font-weight:500;font-stretch:normal;font-family:'Source Han Code JP';-inkscape-font-specification:'Source Han Code JP Medium';fill:#ffffff;fill-opacity:1"
         id="path4250"
         inkscape:connector-curvature="0"
         sodipodi:nodetypes="cccccccccccc" />
      <path
         d="m 861.27625,271.53248 c -5.45309,0 -8.47117,-2.32 -9.07117,-7.44 2.16,-2.48 7.11117,-3.44 9.11117,-3.44 3.4,0 5.32,1.8 5.32,5.32 0,3.52 -0.77204,5.56 -5.36,5.56 z m 9.28,-22.52 c -1.88,-1.76 -4.64,-3.16 -8.28,-3.16 -6.2,0 -14.63117,4.52 -14.63117,15.56 0,9.4 3.95013,13.76 13.71117,13.76 6.2453,0 9.72,-3.6 9.72,-9.2 0,-5.88 -3.68,-8.76 -8.8,-8.76 -2.6,0 -8.03117,1.28 -10.23117,3.44 0.24,-8.12 6.43117,-10.96 10.55117,-10.96 2.04,0 4.04,0.92 5.4,2.16 z"
         style="font-style:normal;font-variant:normal;font-weight:500;font-stretch:normal;font-family:'Source Han Code JP';-inkscape-font-specification:'Source Han Code JP Medium';fill:#ffffff;fill-opacity:1"
         id="path4252"
         inkscape:connector-curvature="0"
         sodipodi:nodetypes="scssscssssscscc" />
    </g>
  </g>
  <g
     inkscape:groupmode="layer"
     id="layer9"
     inkscape:label="ridaisai back">
    <circle
       style="fill:#e8e2dc;fill-opacity:1;stroke:none;stroke-width:20;stroke-linecap:round;stroke-linejoin:round;stroke-miterlimit:4;stroke-dasharray:none;stroke-opacity:1"
       id="path4392"
       cx="182"
       cy="384"
       r="94" />
    <circle
       style="fill:#e8e2dc;fill-opacity:1;stroke:none;stroke-width:20;stroke-linecap:round;stroke-linejoin:round;stroke-miterlimit:4;stroke-dasharray:none;stroke-opacity:1"
       id="path4392-7"
       cx="442"
       cy="392"
       r="86" />
    <circle
       style="fill:#e8e2dc;fill-opacity:1;stroke:none;stroke-width:20;stroke-linecap:round;stroke-linejoin:round;stroke-miterlimit:4;stroke-dasharray:none;stroke-opacity:1"
       id="path4392-9"
       cx="312"
       cy="396"
       r="76" />
  </g>
  <g
     inkscape:groupmode="layer"
     id="layer5"
     inkscape:label="ridaisai">
    <g
       transform="matrix(1.4106629,0,0,1.4106629,9.7032319,-106.7452)"
       style="font-style:normal;font-weight:normal;font-size:40px;line-height:125%;font-family:sans-serif;letter-spacing:0px;word-spacing:0px;fill:#f2b042;fill-opacity:1;stroke:none;stroke-width:1px;stroke-linecap:butt;stroke-linejoin:miter;stroke-opacity:1"
       id="flowRoot4222">
      <path
         d="m 111.72852,360.13945 1.23046,9.60601 c -10.19531,3.45703 -19.511714,6.56249 -27.949214,9.3164 l -1.494141,-9.86967 c 2.8125,-0.82031 6.826172,-2.08008 12.041016,-3.7793 l 0,-15.05272 -7.025024,0 0,-6.32813 7.025024,0 0,-14.54951 -11.16211,0 0,-11.20244 27.949219,0 0,11.20244 -10.37109,0 0,14.54951 6.79707,0 0,6.32813 -6.79707,0 0,13.03124 z m 14.61864,-27.22016 0,7.96924 10.16651,0 0,-7.96924 z m 0,-13.24268 0,7.79346 10.16651,0 0,-7.79346 z m 26.48824,7.79346 0,-7.79346 -10.52095,0 0,7.79346 z m 0,13.41846 0,-7.96924 -10.52095,0 0,7.96924 z m -9.9936,33.38691 23.81836,0 0,11.11455 -57.91993,0 0,-11.11455 27.33399,0 0,-7.34248 -20.39063,0 0,-6.06446 20.39063,0 0,-10.54687 -19.33594,0 0,-40.07813 45.70313,0 0,40.07813 -19.59961,0 0,10.54687 20.91797,0 0,6.06446 -20.91797,0 z"
         style="font-style:normal;font-variant:normal;font-weight:normal;font-stretch:normal;font-size:90px;font-family:Nasu;-inkscape-font-specification:Nasu;fill:#f2b042;fill-opacity:1"
         id="path4351"
         inkscape:connector-curvature="0"
         sodipodi:nodetypes="cccccccccccccccccccccccccccccccccccccccccccccccccccccccccccccc" />
      <path
         d="m 244.98081,346.51782 -24.4437,0 c 3.28125,10.3125 7.91015,11.421 13.88672,18.921 5.97656,7.5 13.15429,12.97851 21.5332,16.43554 -2.05078,1.93359 -10.80957,4.04297 -12.09863,6.32813 -16.23047,-7.67578 -12.94253,-8.35157 -29.83384,-27.54727 -10.94453,17.96236 -12.47088,21.29646 -31.16229,29.85115 -1.23047,-2.28516 -9.81203,-6.43474 -11.9214,-7.84099 18.75,-8.20313 30.41016,-15.05381 34.98047,-36.14756 l -24.62813,0 0,-6.85547 25.06182,0.17722 c 0.23005,-8.10898 0.4367,-14.1081 0.55389,-25.88544 l 13.40978,0.35444 c -0.11718,10.83984 -0.70756,14.7123 -0.81899,25.35378 l 25.4811,0 z"
         style="font-style:normal;font-variant:normal;font-weight:normal;font-stretch:normal;font-size:90px;font-family:Nasu;-inkscape-font-specification:Nasu;fill:#f2b042;fill-opacity:1"
         id="path4353"
         inkscape:connector-curvature="0"
         sodipodi:nodetypes="ccscccccccccccccc" />
      <path
         d="m 277.89368,367.56404 11.02234,4.32536 c -2.16797,3.51563 -4.92188,6.97266 -8.26172,10.3711 -3.33985,3.33984 -2.50689,3.42471 -6.02251,5.76847 -1.75782,-1.9336 -8.00476,-5.76092 -9.87976,-6.8742 7.67578,-4.39453 9.21587,-7.08682 13.14165,-13.59073 z m 62.08679,-4.32023 -25.02333,0 0,22.35653 c 0,1.93359 -0.26367,3.39844 -0.79102,4.39453 -0.52735,0.99609 -1.49414,1.72852 -2.90039,2.19727 -1.93359,0.70312 -13.0626,1.05468 -20.85557,1.05468 -0.41016,-2.16797 -1.14258,-4.27734 -2.19727,-6.32812 5.80078,0.17578 10.66236,0.20508 12.83033,0.0879 0.76171,-0.0586 1.25976,-0.20508 1.49414,-0.43945 0.23437,-0.17578 0.35156,-0.52734 0.35156,-1.05469 l 0,-22.26864 -31.55103,0 0,-4.52325 68.64258,0 0,4.52325 z m -20.30274,10.13973 7.93321,-4.66684 c 3.39844,2.57813 6.88477,5.50781 10.45898,8.78906 3.57422,3.28125 2.28876,1.36109 4.16376,3.76343 l -8.28477,5.1063 c -1.81641,-2.40235 -0.47235,-0.54078 -3.98797,-3.93921 -3.45703,-3.39844 -6.88477,-6.41602 -10.28321,-9.05274 z M 278.98437,332.4726 c -1.75781,2.05078 -3.36913,3.75 -4.83398,5.09766 5.21485,3.51563 8.96485,6.26953 11.25,8.26172 2.05078,-2.05078 3.7207,-3.98437 5.00977,-5.80078 -3.10547,-2.34375 -6.91407,-4.86329 -11.42579,-7.5586 z m 18.63282,-5.71289 -13.97461,0 c -0.17578,0.29297 -0.46875,0.67383 -0.87891,1.14258 -0.35156,0.46875 -0.61523,0.84961 -0.79101,1.14258 5.03906,2.92969 8.75976,5.24414 11.16211,6.94336 2.05078,-3.33985 3.54492,-6.41602 4.48242,-9.22852 z m 39.61851,-4.56455 4.48242,2.8125 c -4.21875,8.49609 -7.12828,15.14072 -13.69078,21.35166 5.56641,5.21485 4.88995,5.01337 12.50714,7.41571 -1.58203,1.58204 -3.01757,5.34716 -4.30664,7.57372 -7.44141,-2.7539 -6.70636,-2.7868 -12.33136,-8.11883 l 0,2.35792 -34.98046,0 0,-4.65821 c -6.26953,6.03516 -6.88536,6.71259 -15.38145,10.05243 -0.9375,-1.875 -2.16797,-3.63281 -3.69141,-5.27343 6.85547,-2.28516 6.27012,-1.73212 11.77793,-6.36103 -2.92969,-2.63672 -6.62109,-5.53711 -11.07422,-8.70117 -1.52343,1.28906 -2.87109,2.34375 -4.04296,3.16406 -1.17188,-1.69922 -5.89491,-5.1398 -7.65272,-6.31167 4.7461,-3.22265 8.90626,-6.88476 12.48047,-10.98633 3.63281,-4.16015 6.44531,-8.29101 8.4375,-12.39257 l 9.76209,3.1476 c -0.64453,1.17188 -1.52344,2.72462 -2.63672,4.65821 l 13.0957,0 1.14258,-0.26367 4.13086,1.8457 c -2.87109,9.96093 -7.85156,18.63281 -14.9414,26.01562 l 28.9823,0 c -7.5,-7.79297 -13.03711,-18.04687 -16.61133,-30.76172 l 8.72278,-1.49414 c 2.7539,9.96094 6.91405,18.19336 12.48046,24.69727 4.10157,-3.98437 5.00676,-5.81081 8.22941,-11.4944 l -18.36914,0 2.75692,-8.63255 19.49156,0.70889 z"
         style="font-style:normal;font-variant:normal;font-weight:normal;font-stretch:normal;font-size:90px;font-family:Nasu;-inkscape-font-specification:Nasu;fill:#f2b042;fill-opacity:1"
         id="path4355"
         inkscape:connector-curvature="0"
         sodipodi:nodetypes="ccccccccsscccccsccccscccsccccccccccccccccccccccccccccccccccccccccccccccc" />
    </g>
  </g>
  <g
     inkscape:groupmode="layer"
     id="layer2"
     inkscape:label="TUSCOM"
     style="display:inline">
    <path
       style="fill:#7da92f;fill-opacity:0.94117647;stroke:none;stroke-width:20;stroke-linecap:round;stroke-linejoin:round;stroke-miterlimit:4;stroke-dasharray:none;stroke-opacity:1"
       d="m 72.727922,160 0,18.7868 c 38.659928,0 69.999998,35.81722 69.999998,80 -0.022,3.34475 -0.22743,29.07636 -0.61523,32.39171 l 19.4375,0 0,-111.21407 30.80683,0 0,-19.96444 z"
       id="rect4689"
       inkscape:connector-curvature="0"
       sodipodi:nodetypes="ccccccccc" />
    <path
       style="fill:#7da92f;fill-opacity:0.94117647;stroke:none;stroke-width:20;stroke-linecap:round;stroke-linejoin:round;stroke-miterlimit:4;stroke-dasharray:none;stroke-opacity:1"
       d="m 191.51472,160 0,85 0.0762,0 a 42.5,42.5 0 0 0 -0.0762,2.13086 42.5,42.5 0 0 0 42.5,42.5 42.5,42.5 0 0 0 42.5,-42.5 A 42.5,42.5 0 0 0 276.4073,245 l 0.10742,0 0,-85 -18.95117,0 0,85.10938 -0.0117,0 a 23.643818,23.643818 0 0 1 0.10742,2.02148 23.643818,23.643818 0 0 1 -23.64453,23.64453 23.643818,23.643818 0 0 1 -23.64453,-23.64453 23.643818,23.643818 0 0 1 0.0996,-2.02148 l -0.002,0 0,-85.10938 -18.95312,0 z"
       id="path4734"
       inkscape:connector-curvature="0" />
    <path
       style="fill:#7da92f;fill-opacity:0.94117647;stroke:none;stroke-width:20;stroke-linecap:round;stroke-linejoin:round;stroke-miterlimit:4;stroke-dasharray:none;stroke-opacity:1"
       d="m 323.71474,154.72344 a 44.404955,40.209992 3.9980059 0 0 -35.8047,46.279 44.404955,40.209992 3.9980059 0 0 45.66717,33.55532 l 0.02,0.10023 a 24.703593,22.369829 3.9980058 0 1 22.36771,18.59216 24.703593,22.369829 3.9980058 0 1 -19.91966,25.74695 24.703593,22.369829 3.9980058 0 1 -28.68359,-18.41306 24.703593,22.369829 3.9980058 0 1 -0.0666,-0.47087 l -19.3875,2.92547 a 44.404955,40.209992 3.9980059 0 0 0.0746,0.46965 44.404955,40.209992 3.9980059 0 0 51.55748,33.09667 44.404955,40.209992 3.9980059 0 0 35.80469,-46.279 44.404955,40.209992 3.9980059 0 0 -44.42609,-33.59418 24.703593,22.369829 3.9980058 0 1 -23.62668,-18.65389 24.703593,22.369829 3.9980058 0 1 19.91763,-25.74666 24.703593,22.369829 3.9980058 0 1 28.68361,18.41307 24.703593,22.369829 3.9980058 0 1 0.1997,1.41258 l 19.40355,-2.92786 a 44.404955,40.209992 3.9980059 0 0 -0.22379,-1.40893 44.404955,40.209992 3.9980059 0 0 -51.55748,-33.09668 z"
       id="path4734-7-5"
       inkscape:connector-curvature="0" />
    <path
       style="fill:#7da92f;fill-opacity:0.94117647;stroke:none;stroke-width:20;stroke-linecap:round;stroke-linejoin:round;stroke-miterlimit:4;stroke-dasharray:none;stroke-opacity:1"
       d="m 569.89384,225.06065 c 0.39478,55.91183 -18.56848,65.13272 -42.03999,65.29846 -23.47152,0.16573 -42.57278,-10.15774 -42.9579,-64.6983 -0.3901,-55.24764 18.56847,-65.13272 42.03999,-65.29846 23.47151,-0.16573 42.56462,9.00219 42.9579,64.6983 z"
       id="path4734-7-6"
       inkscape:connector-curvature="0"
       sodipodi:nodetypes="sssss" />
    <path
       style="fill:#7da92f;fill-opacity:0.94117647;stroke:none;stroke-width:20;stroke-linecap:round;stroke-linejoin:round;stroke-miterlimit:4;stroke-dasharray:none;stroke-opacity:1"
       d="m 431.8499,160.17969 c -26.16513,0 -47.37695,26.04715 -47.37695,85.99083 0,26.9652 21.21182,48.82362 47.37695,48.82362 25.00897,0 45.47687,-19.97398 47.23828,-45.28504 l -19.66797,-1.53982 c -3.76905,11.98593 -14.68439,20.65583 -27.57031,20.65583 -16.00709,0 -28.98439,-13.37409 -28.98437,-29.87064 0,-36.67185 12.97728,-52.60575 28.98437,-52.60575 4.15322,0 15.59858,1.08387 19.16992,3.31314 l 10.73438,-19.08303 c -7.73767,-8.40727 -19.68919,-10.39914 -29.9043,-10.39914 z"
       id="path4175"
       inkscape:connector-curvature="0"
       sodipodi:nodetypes="sssccsssccs" />
    <path
       style="fill:#7da92f;fill-opacity:0.94117647;stroke:none;stroke-width:20;stroke-linecap:round;stroke-linejoin:round;stroke-miterlimit:4;stroke-dasharray:none;stroke-opacity:1"
       d="m 581.80673,167.16354 c 2.31524,-2.22529 6.2872,-3.39817 6.2872,-3.39817 l 46.74581,0 44.69453,0 c 0,0 5.8933,0.0286 8.69203,2.71854 3,2.88344 3.18198,9.51487 3.18198,9.51487 l 0,111.46002 -20.05916,0 c 0,0 0.64227,-67.57164 0.21684,-98.51767 -0.0735,-5.3439 -8.25239,-2.98381 -11.40709,0 -20.92401,19.79054 -12.00302,69.68323 -25.31913,69.68323 -14.71865,0 -4.19452,-49.83644 -24.98892,-69.68323 -2.67436,-2.55249 -9.67701,-4.54385 -9.69769,0 -0.16434,36.11938 -0.46692,98.51767 -0.46692,98.51767 l -21.41501,0 0,-111.79984 c 0,0 0.61887,-5.69207 3.53553,-8.49542 z"
       id="rect4213"
       inkscape:connector-curvature="0"
       sodipodi:nodetypes="scccscccssssscccs" />
  </g>
  <g
     inkscape:groupmode="layer"
     id="layer10"
     inkscape:label="programming">
    <g
       transform="translate(-38,46)"
       style="font-style:normal;font-weight:normal;font-size:40px;line-height:125%;font-family:sans-serif;letter-spacing:30px;word-spacing:0px;display:inline;fill:#9c4c64;fill-opacity:1;stroke:none;stroke-width:1px;stroke-linecap:butt;stroke-linejoin:miter;stroke-opacity:1"
       id="flowRoot4415">
      <path
         d="m 523.24607,36.889208 c -0.27344,6.368815 1.21224,12.93278 -0.79297,16.441895 -2.46094,4.386393 -9.34701,6.01416 -15.40821,8.133301 l -1.46972,-2.102051 c 5.30924,-1.86849 9.10318,-4.574382 11.38183,-8.117676 2.26725,-3.520508 3.40658,-7.243164 3.41797,-13.292969 l -16.33789,0 0,-3.403808 16.76514,0 c -0.15951,-0.38737 -0.23926,-0.843099 -0.23926,-1.367188 0,-1.162109 0.42725,-2.130534 1.28174,-2.905273 0.75195,-0.672201 1.62923,-1.008301 2.63183,-1.008301 1.16211,0 2.13054,0.427246 2.90528,1.281738 0.6722,0.751953 1.0083,1.629232 1.0083,2.631836 0,1.162109 -0.42725,2.13623 -1.28174,2.922363 -0.75195,0.672201 -1.62923,1.008301 -2.63184,1.008301 -0.43294,0 -0.84309,-0.07406 -1.23046,-0.222168 z m 1.23046,-6.118164 c -0.72917,0 -1.33301,0.262044 -1.81152,0.786133 -0.39876,0.455729 -0.59814,0.996908 -0.59814,1.623535 0,0.729167 0.26204,1.333008 0.78613,1.811524 0.44433,0.410156 0.98551,0.615234 1.62353,0.615234 0.72917,0 1.33301,-0.262044 1.81153,-0.786133 0.39876,-0.455729 0.59814,-1.002604 0.59814,-1.640625 0,-0.729167 -0.26204,-1.327311 -0.78613,-1.794433 -0.44433,-0.410157 -0.98551,-0.615235 -1.62354,-0.615235 z"
         style="font-style:normal;font-variant:normal;font-weight:normal;font-stretch:normal;font-family:'Yu Gothic UI';-inkscape-font-specification:'Yu Gothic UI';letter-spacing:25px;fill:#9c4c64;fill-opacity:1"
         id="path4435"
         inkscape:connector-curvature="0"
         sodipodi:nodetypes="cccccccccscscscscscscscscs" />
      <path
         d="m 549.02431,60.289599 0,-25.036621 18.26904,0 0,25.036621 z m 12.38686,-5.717156 3.18198,-15.1933 -11.13506,0 0,18.552057 z"
         style="font-style:normal;font-variant:normal;font-weight:normal;font-stretch:normal;font-family:'Yu Gothic UI';-inkscape-font-specification:'Yu Gothic UI';letter-spacing:25px;fill:#9c4c64;fill-opacity:1"
         id="path4437"
         inkscape:connector-curvature="0"
         sodipodi:nodetypes="cccccccccc" />
      <path
         d="m 609.19528,35.022021 c -0.69499,-1.925456 -1.39567,-3.531901 -2.10205,-4.819336 l 1.79444,-0.700684 c 0.6722,1.173503 1.53239,3.144531 2.58056,5.913086 l -1.40136,0.563965 1.12793,1.469727 c -1.1849,7.075195 -1.48482,15.383765 -4.78886,19.268856 -2.57487,3.041992 -8.06271,2.640323 -12.57443,4.451847 l -1.53808,-1.879883 c 4.95605,-1.971029 8.69303,-4.733887 11.21094,-8.288574 2.42675,-3.417969 2.56738,-6.407065 3.42187,-12.092286 l -8.36084,0 c -1.64063,3.919271 -3.78825,5.712077 -6.44287,8.503418 l -3.68701,-2.788086 c 3.73698,-3.964843 6.25488,-8.818359 7.55371,-14.560546 l 4.45605,1.677246 c -0.23925,0.900065 -0.57535,1.993815 -1.0083,3.28125 z m 1.99952,-5.622559 1.74316,-0.632324 c 0.88867,1.48112 1.72038,3.395182 2.49512,5.742187 l -1.82862,0.734864 c -0.74056,-2.312826 -1.54378,-4.261068 -2.40966,-5.844727 z"
         style="font-style:normal;font-variant:normal;font-weight:normal;font-stretch:normal;font-family:'Yu Gothic UI';-inkscape-font-specification:'Yu Gothic UI';letter-spacing:25px;fill:#9c4c64;fill-opacity:1"
         id="path4439"
         inkscape:connector-curvature="0"
         sodipodi:nodetypes="ccccccccccccccccccccccc" />
      <path
         d="m 632.21297,32.971239 15.85937,0 0,3.755523 -15.85937,0 z m -2.13623,7.451172 19.77295,0 c -0.26205,6.665039 0.0533,13.577031 -2.94316,16.846888 -2.36979,2.597656 -7.8975,2.544388 -12.69405,3.729284 l -1.26465,-1.999512 c 4.79655,-1.173502 8.32845,-3.184407 10.5957,-6.032714 2.06217,-2.586263 2.13514,-5.987142 2.34022,-10.202637 l -15.80701,1.75 z"
         style="font-style:normal;font-variant:normal;font-weight:normal;font-stretch:normal;font-family:'Yu Gothic UI';-inkscape-font-specification:'Yu Gothic UI';letter-spacing:25px;fill:#9c4c64;fill-opacity:1"
         id="path4441"
         inkscape:connector-curvature="0"
         sodipodi:nodetypes="cccccccccccccc" />
      <path
         d="m 671.57931,36.186962 1.2493,-3.642969 c 5.09277,0.831706 9.51335,1.891276 13.26172,3.178711 l -1.48856,4.001855 c -3.57747,-1.503906 -7.91829,-2.683105 -13.02246,-3.537597 z m -1.2629,8.439551 1.04248,-2.23877 c 4.43197,0.77474 8.63607,1.845704 12.6123,3.212891 l -1.67241,3.926421 c -3.93066,-1.606445 -7.63016,-4.182769 -11.98237,-4.900542 z m -0.59815,10.92041 1.04248,-2.20459 c 6.04981,1.241862 12.0318,0.647053 16.88531,2.811766 l -1.7608,4.776125 C 680.70133,58.4465 675.31233,56.652066 669.71826,55.546923 Z"
         style="font-style:normal;font-variant:normal;font-weight:normal;font-stretch:normal;font-family:'Yu Gothic UI';-inkscape-font-specification:'Yu Gothic UI';letter-spacing:25px;fill:#9c4c64;fill-opacity:1"
         id="path4443"
         inkscape:connector-curvature="0"
         sodipodi:nodetypes="ccccccccccccccc" />
      <path
         d="m 707.3939,34.931238 c 3.29265,1.777343 6.03272,3.514811 8.22022,5.212402 l -3.45028,4.352624 c -2.10775,-1.80013 -3.79085,-4.86735 -7.04932,-6.70166 z m 17.63672,1.743164 4.39961,1.087871 c -1.03679,5.981445 -5.13398,14.487289 -8.43802,18.178696 -3.39518,3.793945 -7.8903,2.990106 -13.80339,4.573765 l -1.19629,-2.375488 c 10.94889,-2.700195 17.29492,-9.855143 19.03809,-21.464844 z"
         style="font-style:normal;font-variant:normal;font-weight:normal;font-stretch:normal;font-family:'Yu Gothic UI';-inkscape-font-specification:'Yu Gothic UI';letter-spacing:25px;fill:#9c4c64;fill-opacity:1"
         id="path4445"
         inkscape:connector-curvature="0"
         sodipodi:nodetypes="ccccccccccc" />
      <path
         d="m 765.86639,37.999308 c -0.36415,-2.014396 -0.7871,-3.715198 -1.26888,-5.102409 l 1.88617,-0.391606 c 0.46707,1.269174 0.9865,3.356055 1.55827,6.260644 l -1.47579,0.322357 0.86702,1.637253 c -2.34826,6.778498 -5.483,15.033437 -9.38869,18.313094 -3.04614,2.569969 -6.93676,1.145949 -11.68741,2.179668 l -1.20303,-2.110067 c 5.21536,-1.116887 9.36078,-3.217822 12.43625,-6.302806 2.96279,-2.965383 4.29387,-5.877405 6.08454,-11.3405 l -8.92724,-1.46775 c -2.27129,3.590768 -4.69825,5.061925 -7.78121,7.371453 l -3.215,-2.225011 c 4.34588,-3.286086 7.63796,-7.651711 9.87624,-13.096869 l 4.15852,1.257983 c -0.386,0.84756 -0.8998,1.869939 -1.5414,3.067139 z m 2.90921,-5.210349 1.8242,-0.332756 c 0.62921,1.608584 1.13006,3.634548 1.50253,6.077889 l -1.92556,0.419607 c -0.34448,-2.403941 -0.81153,-4.458854 -1.40117,-6.16474 z"
         style="font-style:normal;font-variant:normal;font-weight:normal;font-stretch:normal;font-size:35px;font-family:'Yu Gothic UI';-inkscape-font-specification:'Yu Gothic UI';text-align:start;letter-spacing:30px;text-anchor:start;fill:#9c4c64;fill-opacity:1"
         id="path4447"
         inkscape:connector-curvature="0"
         sodipodi:nodetypes="ccccccccccccccccccccccc" />
      <path
         d="m 535.19573,82.343798 5.62256,0 0,3.949388 -5.62256,0 0,1.023757 c 0,5.742187 0.0127,11.896529 -2.43688,14.573937 -1.95964,2.15332 -6.37578,1.82092 -10.77357,2.89188 l -1.41846,-1.99951 c 4.48893,-0.95703 6.17888,-2.59196 7.94483,-4.904784 1.74316,-2.290039 2.61474,-5.702311 2.61474,-10.236816 l 0,-1.348464 -6.37441,0 0,7.671706 -3.6041,0 0,-7.671706 -5.34912,0 0,-3.949388 5.34912,0 0,-6.921387 3.6041,0 0,6.921387 6.37441,0 0,-6.989746 4.06934,0 z"
         style="font-style:normal;font-variant:normal;font-weight:normal;font-stretch:normal;font-size:35px;font-family:'Yu Gothic UI';-inkscape-font-specification:'Yu Gothic UI';text-align:start;letter-spacing:30px;text-anchor:start;fill:#9c4c64;fill-opacity:1"
         id="path4449"
         inkscape:connector-curvature="0"
         sodipodi:nodetypes="ccccsccccsccccccccccccccc" />
      <path
         d="m 562.31798,87.641048 30.35179,0 0,7.124306 c 0,0 -4.11073,0.126127 -6.16028,0 -4.31707,-0.265666 -24.19151,-1.59099 -24.19151,-1.59099 z"
         style="font-style:normal;font-variant:normal;font-weight:normal;font-stretch:normal;font-size:35px;font-family:'Yu Gothic UI';-inkscape-font-specification:'Yu Gothic UI';text-align:start;letter-spacing:30px;text-anchor:start;fill:#9c4c64;fill-opacity:1"
         id="path4451"
         inkscape:connector-curvature="0"
         sodipodi:nodetypes="cccscc" />
      <path
         d="m 627.1792,82.471239 c -1.64063,3.919271 -3.78825,5.899577 -6.44287,8.690918 l -4.20922,-2.598746 c 3.73698,-3.964843 6.25488,-8.818359 7.55371,-14.560546 l 4.97826,1.487906 c -0.23925,0.900065 -0.57535,1.993815 -1.0083,3.28125 l 12.13379,0 c -1.09375,8.043619 -0.66947,17.001604 -4.03048,21.217099 -2.60905,3.26986 -8.94641,3.02769 -13.70878,4.93036 l -1.53808,-1.87988 c 4.95605,-1.97103 8.69303,-4.733885 11.21093,-8.288575 2.42676,-3.417969 2.65318,-6.594565 3.50767,-12.279786 z"
         style="font-style:normal;font-variant:normal;font-weight:normal;font-stretch:normal;font-size:35px;font-family:'Yu Gothic UI';-inkscape-font-specification:'Yu Gothic UI';text-align:start;letter-spacing:30px;text-anchor:start;fill:#9c4c64;fill-opacity:1"
         id="path4453"
         inkscape:connector-curvature="0"
         sodipodi:nodetypes="ccccccccccccc" />
      <path
         d="m 676.4485,101.34236 c 4.0716,-2.108572 7.5548,-5.732834 10.44961,-10.872779 l 1.50523,2.536921 c -1.82948,2.840035 -2.89819,7.529678 -5.16241,9.563588 -2.26422,2.03392 -5.72396,1.41212 -8.42292,2.63993 l -2.5176,-1.09124 3.21651,-27.033426 3.76446,0.447906 z m -4.59437,-24.45187 c -0.78343,6.584415 -1.46193,11.322594 -2.0355,14.214536 -0.48308,2.420818 -1.0427,4.327692 -1.67885,5.720619 -1.2583,2.764578 -3.24648,5.057945 -5.96452,6.880105 l -2.97267,-1.95427 c 2.39323,-1.31008 4.24538,-3.424574 5.55646,-6.343496 0.60222,-1.396966 1.17407,-3.744117 1.71555,-7.041452 0.4187,-2.554688 0.94909,-6.530285 1.59118,-11.926791 z"
         style="font-style:normal;font-variant:normal;font-weight:normal;font-stretch:normal;font-size:35px;font-family:'Yu Gothic UI';-inkscape-font-specification:'Yu Gothic UI';text-align:start;letter-spacing:30px;text-anchor:start;fill:#9c4c64;fill-opacity:1"
         id="path4455"
         inkscape:connector-curvature="0"
         sodipodi:nodetypes="cccscccccccccccccc" />
    </g>
  </g>
  <g
     inkscape:groupmode="layer"
     id="layer4"
     inkscape:label="parts"
     style="display:none">
    <circle
       style="display:inline;fill:#cb6285;fill-opacity:1;stroke:none;stroke-width:20;stroke-linecap:round;stroke-linejoin:round;stroke-miterlimit:4;stroke-dasharray:none;stroke-opacity:1"
       id="path4734-7"
       cx="344.60577"
       cy="383.49661"
       r="42.5" />
    <circle
       style="display:inline;fill:#a02c2c;fill-opacity:1;stroke:none;stroke-width:20;stroke-linecap:round;stroke-linejoin:round;stroke-miterlimit:4;stroke-dasharray:none;stroke-opacity:1"
       id="path4734-2-3"
       cx="425.02182"
       cy="384.97845"
       r="23.643818" />
  </g>
</svg>
