<svg xmlns="http://www.w3.org/2000/svg" width="222.97701mm" height="95.26297mm" viewBox="0 0 790.076 337.546">
  <path fill="#dc371e" stroke="#562114" stroke-width="5" d="M337.882 280.104c-41.393-4.607-75.51-8.647-75.817-8.976-.55-.59-70.438-232.986-71.18-236.69-.362-1.817-.21-1.933 3.08-2.37 1.903-.25 46.305-7.09 98.67-15.194 52.363-8.106 95.373-14.572 95.576-14.37.305.304 25.277 285.778 25.013 285.93-.046.027-33.95-3.722-75.34-8.33z" stroke-linecap="round" stroke-linejoin="round"/>
  <path fill="#dc371e" stroke="#562114" stroke-width="5" d="M337.882 280.104c-41.393-4.607-75.51-8.647-75.817-8.976-.55-.59-70.438-232.986-71.18-236.69-.362-1.817-.21-1.933 3.08-2.37 1.903-.25 46.305-7.09 98.67-15.194 52.363-8.106 95.373-14.572 95.576-14.37.305.304 25.277 285.778 25.013 285.93-.046.027-33.95-3.722-75.34-8.33z" stroke-linecap="round" stroke-linejoin="round"/>
  <path fill="#cb6285" d="M337.882 280.104c-41.393-4.607-75.51-8.647-75.817-8.976-.55-.59-70.438-232.986-71.18-236.69-.362-1.817-.21-1.933 3.08-2.37 1.903-.25 46.305-7.09 98.67-15.194 52.363-8.106 95.373-14.572 95.576-14.37.305.304 25.277 285.778 25.013 285.93-.046.027-33.95-3.722-75.34-8.33z"/>
  <g fill="#576722">
    <path stroke="#1f0e04" stroke-width="5" d="M161.383 243.314C74.423 211.434 2.93 185 2.506 184.572c-1.073-1.09 136.395-159.22 138.417-159.22 1.69 0 267.603 219.324 267.764 220.85.072.685-85.956 54-88.482 54.837-.393.13-71.863-25.847-158.822-57.726z" stroke-linecap="round" stroke-linejoin="round"/>
    <path stroke="#1f0e04" stroke-width="5" d="M161.383 243.314C74.423 211.434 2.93 185 2.506 184.572c-1.073-1.09 136.395-159.22 138.417-159.22 1.69 0 267.603 219.324 267.764 220.85.072.685-85.956 54-88.482 54.837-.393.13-71.863-25.847-158.822-57.726z" stroke-linecap="round" stroke-linejoin="round"/>
    <path d="M161.383 243.314C74.423 211.434 2.93 185 2.506 184.572c-1.073-1.09 136.395-159.22 138.417-159.22 1.69 0 267.603 219.324 267.764 220.85.072.685-85.956 54-88.482 54.837-.393.13-71.863-25.847-158.822-57.726z"/>
  </g>
  <g stroke="#1f0e04" word-spacing="0px" stroke-linejoin="round">
    <g fill="#2a4743" stroke-width="18.95137405" style="line-height:125%;text-align:end" font-size="40px" font-family="sans-serif" letter-spacing="-2.64577842px" text-anchor="end" font-weight="bold">
      <path d="M-65.934 614.17q1.25 0 2.03-.78.783-.783.783-2.033t-.783-2.03q-.78-.782-2.03-.782-1.25 0-2.032.78-.78.782-.78 2.032t.78 2.032q.78.78 2.03.78zm0 1.562q-1.875 0-3.125-1.25t-1.25-3.125q0-1.875 1.25-3.125t3.126-1.25q1.875 0 3.125 1.25t1.25 3.125q0 1.875-1.25 3.125t-3.124 1.25zm-27.97 2.032v-3.438h23.126l4.063 2.97q-.78 18.905-21.406 24.686l-2.814-3.437q19.53-4.53 20.47-20.78h-23.44zM-30.767 638.39h-3.594v-1.72h-17.345v2.5h-3.593v-24.375h24.53v23.594zm-20.938-20.158v15h17.344v-15h-17.345zM5.493 619.64q-2.968 17.03-19.53 24.374l-2.813-2.97q15.312-6.25 18.437-21.562h-12.5q-3.594 5.938-7.5 9.532l-3.125-2.032q8.125-7.343 10.47-17.187l3.593 1.25q.937.47-.313.937-.625 2.032-1.72 4.063h11.25l1.408-.78 2.812 2.81q1.094 1.095-.47 1.564zm.938-3.75q-2.5-3.595-4.843-5.47l2.03-1.72q2.658 2.345 5 5.47l-2.186 1.72zm4.532-1.876q-2.5-3.125-4.53-5l1.874-1.875q2.344 2.186 4.53 5l-1.874 1.874zM23.785 641.2q15.156-3.905 17.03-16.405h-23.75v-3.438h23.907l1.407-.468 2.81 1.717q.94.782-.31 1.407-2.5 15.625-18.283 20.312l-2.812-3.125zm17.656-25.31H19.88v-3.44h21.56v3.44zM77.39 630.89q-6.563-2.814-17.657-4.533l.47-3.75q9.686 1.094 18.28 4.375l-1.094 3.907zm1.874 11.405q-12.03-4.53-21.406-5.78l.78-4.064q12.19 1.72 21.72 5.626l-1.094 4.22zm-19.687-30q12.812 1.406 18.437 3.594l-.937 4.06q-7.813-2.81-17.97-3.593l.47-4.062zM123.337 622.92q-8.28 17.187-27.812 18.125-.782 2.03-1.563.312l-1.25-4.062q20.313-.47 27.344-16.72l3.28 2.345zm-22.03 0q-4.22-3.906-7.97-6.406l2.656-3.282q3.282 2.032 8.282 6.72l-2.97 2.968zM154.91 619.64q-2.97 17.03-19.53 24.374l-2.814-2.97q15.313-6.25 18.438-21.562h-12.5q-3.594 5.938-7.5 9.532l-3.125-2.032q8.124-7.343 10.468-17.187l3.593 1.25q.94.47-.31.937-.626 2.032-1.72 4.063h11.25l1.406-.78 2.813 2.81q1.093 1.095-.47 1.564zm.938-3.75q-2.5-3.595-4.844-5.47l2.03-1.72q2.657 2.345 5 5.47l-2.186 1.72zm4.53-1.876q-2.5-3.125-4.53-5l1.875-1.875q2.343 2.186 4.53 5l-1.874 1.874zM39.722 670.264h9.22v3.437h-9.063v2.97q0 11.72-12.345 16.72l-2.5-2.814q11.25-3.75 11.25-13.594v-3.28H25.972l.157 7.968h-3.44l-.155-7.97h-8.75v-3.436h8.75l-.156-8.282h3.28q1.562.157.156 1.563l.156 6.72H36.13v-9.533h3.436q1.563.157.156 1.563v7.97zM51.295 678.232v-3.437H86.14v3.437H51.294zM117.556 669.64q-2.97 17.03-19.53 24.374l-2.814-2.97q15.313-6.25 18.438-21.562h-12.5q-3.594 5.938-7.5 9.532l-3.125-2.032q8.125-7.343 10.468-17.187l3.594 1.25q.938.47-.312.937-.625 2.032-1.72 4.063h11.25l1.407-.78 2.813 2.81q1.093 1.095-.47 1.564zM146.94 686.514q6.876-2.657 12.658-10.625l2.187 2.967q-5.937 8.125-15 11.72l-1.25.624-2.5-1.874.313-.78v-25.157h3.28q1.407.31.313 1.25v21.874zm-20.936 4.218q7.812-7.5 7.812-18.593v-7.033h3.282q1.406.313.312 1.25v5.625q0 13.125-8.28 20.782l-3.126-2.032z" style="-inkscape-font-specification:'sans-serif Bold'" transform="matrix(.693 -.106 0 .904 142.136 -305.085)"/>
    </g>
    <g fill="#562114" stroke-width="4.86052704" style="line-height:125%" font-size="40px" font-family="NasuM" letter-spacing="0px">
      <path d="M13.88 482.277v-26.21H6.847v-3.204h17.734v3.203H17.59v26.21h-3.71zM35.715 482.746q-7.617 0-7.617-9.492v-20.39h3.75v20.507q0 6.173 3.867 6.173 4.14 0 4.14-6.172v-20.507h3.594v20.39q0 5-2.11 7.266-2.11 2.226-5.625 2.226zM55.402 482.746q-4.804 0-8.242-4.297l2.383-2.54q2.695 3.594 5.86 3.594 1.952 0 3.124-1.133 1.21-1.17 1.21-3.046 0-1.992-1.014-3.36-.977-1.366-2.852-2.577l-2.93-1.914q-2.303-1.485-3.514-3.204-1.21-1.758-1.21-4.454 0-3.203 2.07-5.312 2.11-2.11 5.43-2.11 3.983 0 7.147 3.633l-2.07 2.422q-2.54-2.813-5.04-2.813-1.64 0-2.733 1.093-1.094 1.055-1.094 2.774 0 1.758.86 2.93.86 1.132 3.046 2.54l2.852 1.835q2.343 1.522 3.554 3.32 1.25 1.796 1.25 4.725 0 3.4-2.226 5.664-2.227 2.226-5.86 2.226zM77.316 482.746q-4.375 0-7.187-3.828-2.814-3.828-2.814-11.29 0-7.42 2.852-11.327 2.89-3.906 7.266-3.906 3.632 0 6.328 3.204l-2.188 2.304q-1.797-2.265-4.023-2.265-2.734 0-4.57 3.007-1.796 3.008-1.796 8.868 0 6.015 1.757 9.023 1.798 2.97 4.728 2.97 2.422 0 4.375-2.58l2.187 2.227q-2.93 3.594-6.914 3.594zM100.363 478.84q-2.304 3.906-6.21 3.906-3.907 0-6.212-3.906-2.303-3.906-2.303-11.406 0-7.422 2.304-11.21 2.306-3.83 6.212-3.83 3.907 0 6.21 3.83 2.306 3.788 2.306 11.21 0 7.5-2.305 11.406zm-10.937-11.406q0 12.07 4.726 12.07 4.727 0 4.727-12.07 0-11.797-4.728-11.797-4.726 0-4.726 11.797zM106.34 482.277v-29.414h3.71l2.97 11.875 1.054 4.883h.156l1.094-4.882 2.93-11.875h3.75v29.414h-3.086v-16.6q0-1.447.312-5.197.313-3.75.313-3.79h-.156l-1.407 6.212-2.89 11.094h-1.953l-2.852-11.094-1.523-6.21h-.157q.04.507.352 4.062.352 3.515.352 4.922v16.6h-2.97z" style="-inkscape-font-specification:NasuM" transform="matrix(3.708 -.676 0 3.698 97.623 -1543.522)"/>
    </g>
    <g fill="none" fill-opacity="0" stroke-width="20" style="line-height:125%" font-size="115.79232788px" font-family="Yu Gothic UI" letter-spacing="0px" stroke-linecap="round" font-weight="bold">
      <path d="M171.835 568.896l-16.113.226q-.905 0-1.13-.226-.17-.226-.17-1.018v-8.255q0-.848.17-1.017.225-.226 1.13-.226l16.113.226h17.584V547.24h-7.18l-14.928.227q-.96 0-1.13-.226-.17-.225-.17-1.016v-8.03q0-.904.226-1.073.226-.17 1.074-.17l14.927.227h7.18V527.17h-7.52l-15.04.226q-1.018 0-1.244-.226-.17-.17-.17-.905l.227-12.89v-25.67l-.227-12.608q0-.96.227-1.13.282-.17 1.187-.17l15.04.226h27.534l15.152-.226q.905 0 1.13.226.17.226.17 1.074l-.225 12.608v25.67l.227 12.89q0 1.13-1.3 1.13l-15.153-.225h-8.424v10.007h8.763l14.983-.226q.905 0 1.074.227.17.226.17 1.018v8.03q0 .847-.226 1.073-.17.17-1.018.17l-14.983-.227h-8.763v11.366h13.286l16-.226q.905 0 1.075.226.17.226.17 1.017v8.255q0 .848-.225 1.018-.17.226-1.018.226l-16-.226h-42.462zm42.8-51.45v-12.383H201.01v12.382h13.625zm0-33.585H201.01v11.704h13.625V483.86zm-38.05 33.585h12.834v-12.382h-12.835v12.382zm0-21.88h12.834V483.86h-12.835v11.704zm-13.91 36.354q-.112 1.64-.112 3.56 0 1.867.113 3.96.056 1.13.056 1.64 0 1.582-.452 2.147-.396.565-2.488 1.81-10.63 5.597-25.046 11.08-3.167 1.358-3.562 1.754-1.018.792-1.866.792-.905 0-1.527-1.526-1.3-3.845-2.882-10.856 4.353-.735 10.912-2.77l3.336-1.13v-25.16l-10.177.225q-.906 0-1.132-.226-.17-.227-.17-1.02v-8.367q0-.96.226-1.187.226-.17 1.075-.17l10.176.227v-20.41h-.68l-10.91.282q-.793 0-1.02-.226-.112-.228-.112-1.076v-8.48q0-.962.226-1.188.17-.17.905-.17l10.912.227h12.043l10.855-.227q.962 0 1.13.283.17.225.17 1.073v8.48q0 .906-.225 1.132-.226.17-1.075.17l-10.742-.283v20.41l9.272-.225q.85 0 1.018.226.113.226.113 1.13v8.368q0 .906-.17 1.075-.17.17-.96.17l-9.273-.226v20.636q7.35-3.393 12.043-5.937zM259.02 510.378l-14.7.226q-.963 0-1.132-.283-.17-.225-.17-1.13v-9.498q0-.905.226-1.074.226-.17 1.075-.17l14.7.226h26.516q.34-4.806.565-15.66v-2.715q0-5.825-.564-10.687 9.16.283 13.286.905 2.092.452 2.092 1.64 0 1.017-.678 2.43-.905 1.583-1.074 8.086-.227 10.912-.68 16h29.854l14.757-.226q.904 0 1.074.226.17.226.17 1.018v9.498q0 1.018-.227 1.244-.226.17-1.017.17l-14.757-.226h-27.648q5.937 18.77 18.602 32.114 11.703 12.27 27.704 18.375-4.014 3.845-6.728 8.707-1.527 2.884-2.432 2.884-.508 0-2.657-1.188-29.118-15.548-41.217-46.757-1.64 5.597-4.41 11.138-11.478 23.578-37.033 36.13-2.205.904-2.77.904-.962 0-2.658-2.657-2.49-3.732-6.616-7.294 26.517-10.234 37.542-31.888 4.353-8.764 6.22-20.467h-25.217zM464.595 518.576q-2.26 2.657-4.353 8.028-1.018 3.11-1.98 3.11-.338 0-2.543-.79-13.797-6.334-24.822-17.53v8.143q0 .905-.226 1.074-.226.17-1.13.17l-11.59-.225h-15.89l-11.533.226q-.906 0-1.132-.225-.17-.226-.17-1.018v-4.975q-10.516 9.272-24.99 16.113-2.26.905-2.77.905-.792 0-2.092-2.77-1.753-3.562-4.297-6.39 9.724-3.618 17.81-8.82-2.828-3.618-6.22-6.784-.566-.566-.566-.905 0-.45 1.018-1.186l4.184-3.11q.848-.678 1.13-.678.453 0 1.188.678 3.618 2.884 6.558 6.446 2.94-2.375 5.372-4.976-2.94-3.336-6.39-6.445-.565-.51-.565-.85 0-.395 1.017-1.243l3.732-3.166q.847-.734 1.3-.734.395 0 1.13.508 3.392 2.545 5.767 5.145 3.957-5.202 6.615-10.234h-14.587q-8.2 10.064-18.658 17.697-2.262 1.526-2.658 1.526-.68 0-2.206-2.545-1.81-2.884-4.523-5.202 14.645-8.424 23.86-23.01 1.584-2.602 3.224-7.295 5.145.848 9.95 2.15 1.64.508 1.64 1.412 0 .453-1.244 1.753-.79.735-2.77 4.184h9.61q2.602 0 3.11-.396 1.358-.45 1.584-.45 1.414 0 4.523 3.108 1.527 1.527 1.98 2.092-1.697-4.41-2.658-7.972-.17-.565-.17-.848 0-.678 1.073-.904l7.577-1.697q.678-.17.96-.17.68 0 .962 1.074 4.806 15.66 14.7 27.082 5.88-5.654 10.347-12.72h-5.938l-9.95.225q-.905 0-1.075-.225-.17-.226-.17-1.074v-7.123q0-1.018.227-1.244.226-.17 1.017-.17l9.952.227h8.368q1.98 0 2.884-.34.904-.452 1.526-.452 1.696 0 4.976 3.223 3.222 3.054 3.222 4.524 0 1.074-1.413 2.092-.34.226-3.9 5.088-5.203 7.633-12.61 15.38 10.29 8.65 23.69 13.512zm-53.6-33.076q-.45.283-4.748 7.972-5.09 9.273-12.72 16.906 1.864.113 8.536.113h15.888l11.817-.225q-11.025-11.534-17.47-26.404-.17.962-1.3 1.64zm-26.63 54.56l-15.886.227q-.906 0-1.076-.226-.17-.225-.17-1.017V530.9q0-.903.227-1.073.227-.17 1.02-.17l15.886.227h52.073l15.886-.226q.905 0 1.075.226.17.226.17 1.017v8.143q0 .848-.226 1.074-.17.17-1.018.17l-15.887-.226h-20.13v9.047l.34 13.287q0 6.22-3.73 8.82-2.998 2.092-16.06 2.092-2.882 0-3.334-.396-.51-.452-.85-2.6-.79-4.807-2.77-8.934 4.694.68 9.952.68 2.827 0 3.732-.963.678-.79.678-2.713v-18.32h-19.902zm75.99 19.676q-3.11 3.054-5.484 7.294-1.243 2.43-2.26 2.43-.85 0-2.602-1.017-13.456-7.237-22.276-18.884-.453-.566-.453-.85 0-.45 1.074-1.13l6.163-3.844q.96-.566 1.413-.566.34 0 1.018.68 8.14 8.763 23.407 15.886zm-77.968-16.34q2.94 1.188 9.612 5.09 1.412.678 1.412 1.865 0 .962-1.526 1.867-1.074.51-2.884 2.544-7.067 8.086-18.43 14.023-1.698 1.017-2.546 1.017-1.017 0-2.544-2.544-2.43-4.014-5.315-6.276 11.026-4.806 18.545-12.156 2.318-2.318 3.675-5.427zM523.848 565.05h-50.885v-6.275q0-3.844 1.074-7.18 1.075-3.393 2.884-6.333 1.81-2.996 4.24-5.597 2.433-2.657 5.203-5.088 2.77-2.488 5.654-4.75 2.883-2.318 5.654-4.636 2.602-2.204 4.75-4.296 2.15-2.148 3.675-4.41 1.527-2.262 2.375-4.75.848-2.544.848-5.484 0-3.222-1.018-5.597-.96-2.43-2.77-4.014-1.753-1.64-4.184-2.432-2.43-.85-5.315-.85-4.974 0-10.12 2.32-5.144 2.318-9.894 6.954v-12.608q2.488-1.866 5.032-3.223 2.545-1.413 5.258-2.317 2.714-.96 5.71-1.414 2.997-.453 6.39-.453 5.484 0 9.95 1.47 4.467 1.413 7.634 4.24 3.166 2.77 4.862 6.955 1.753 4.184 1.753 9.61 0 4.92-1.244 8.878-1.187 3.9-3.448 7.294-2.205 3.392-5.37 6.445-3.168 3.052-7.07 6.275-3.278 2.657-6.557 5.202-3.223 2.487-5.824 4.918-2.6 2.375-4.24 4.806-1.582 2.376-1.582 4.807v.283h36.58v11.25zM562.917 566.408q-12.665 0-19.79-10.347-7.066-10.345-7.066-29.908 0-21.485 7.408-32.51 7.406-11.025 21.37-11.025 26.744 0 26.744 41.556 0 20.58-7.576 31.436-7.52 10.798-21.09 10.798zm1.3-73.33q-14.756 0-14.756 32.51 0 30.417 14.475 30.417 14.248 0 14.248-30.927 0-32-13.966-32zM630.65 482.165v82.886h-13.116v-66.828q-3.562 2.544-7.69 4.353-4.07 1.753-9.328 3.11V494.49q3.28-1.074 6.332-2.26 3.053-1.19 5.993-2.66 2.998-1.47 5.994-3.278 3.054-1.81 6.276-4.127h5.54zM702.682 538.987q0 6.106-2.035 11.138-1.98 5.032-5.54 8.707-3.563 3.618-8.482 5.654-4.862 1.98-10.573 1.98-6.106 0-11.25-2.376-5.09-2.375-8.82-7.067-3.676-4.693-5.712-11.647-2.035-7.01-2.035-16.227 0-11.253 2.657-19.96 2.714-8.707 7.407-14.587 4.692-5.88 11.024-8.933 6.332-3.053 13.682-3.053 4.58 0 8.312.622 3.788.62 6.05 1.695v11.817q-2.884-1.47-6.163-2.488-3.28-1.018-7.52-1.018-4.75 0-8.764 1.923-4.013 1.92-6.953 5.653-2.884 3.675-4.58 9.16-1.64 5.427-1.696 12.55h.34q2.6-4.014 7.01-6.332 4.468-2.317 10.46-2.317 5.316 0 9.556 1.753 4.297 1.696 7.294 4.975 3.053 3.224 4.692 7.917 1.64 4.636 1.64 10.46zm-13.23 1.074q0-3.505-.848-6.388-.792-2.884-2.488-4.92-1.64-2.09-4.184-3.222-2.488-1.13-5.88-1.13t-5.993 1.243q-2.545 1.188-4.298 3.167-1.753 1.978-2.657 4.523-.848 2.544-.848 5.2 0 2.885.79 5.938.85 2.997 2.545 5.485 1.697 2.488 4.297 4.128 2.657 1.583 6.275 1.583 3.223 0 5.71-1.188 2.488-1.187 4.128-3.28 1.696-2.09 2.544-4.918.905-2.883.905-6.22z" style="-inkscape-font-specification:'Yu Gothic UI Bold'" transform="matrix(.867 -.166 0 1.153 170.87 -308.167)"/>
    </g>
  </g>
  <g stroke="#f9f7ec" word-spacing="0px">
    <g fill="#2a4743" stroke-width="7.58054924" style="line-height:125%;text-align:end" font-size="40px" font-family="sans-serif" letter-spacing="-2.64577842px" text-anchor="end" font-weight="bold">
      <path d="M-65.934 614.17q1.25 0 2.03-.78.783-.783.783-2.033t-.783-2.03q-.78-.782-2.03-.782-1.25 0-2.032.78-.78.782-.78 2.032t.78 2.032q.78.78 2.03.78zm0 1.562q-1.875 0-3.125-1.25t-1.25-3.125q0-1.875 1.25-3.125t3.126-1.25q1.875 0 3.125 1.25t1.25 3.125q0 1.875-1.25 3.125t-3.124 1.25zm-27.97 2.032v-3.438h23.126l4.063 2.97q-.78 18.905-21.406 24.686l-2.814-3.437q19.53-4.53 20.47-20.78h-23.44zM-30.767 638.39h-3.594v-1.72h-17.345v2.5h-3.593v-24.375h24.53v23.594zm-20.938-20.158v15h17.344v-15h-17.345zM5.493 619.64q-2.968 17.03-19.53 24.374l-2.813-2.97q15.312-6.25 18.437-21.562h-12.5q-3.594 5.938-7.5 9.532l-3.125-2.032q8.125-7.343 10.47-17.187l3.593 1.25q.937.47-.313.937-.625 2.032-1.72 4.063h11.25l1.408-.78 2.812 2.81q1.094 1.095-.47 1.564zm.938-3.75q-2.5-3.595-4.843-5.47l2.03-1.72q2.658 2.345 5 5.47l-2.186 1.72zm4.532-1.876q-2.5-3.125-4.53-5l1.874-1.875q2.344 2.186 4.53 5l-1.874 1.874zM23.785 641.2q15.156-3.905 17.03-16.405h-23.75v-3.438h23.907l1.407-.468 2.81 1.717q.94.782-.31 1.407-2.5 15.625-18.283 20.312l-2.812-3.125zm17.656-25.31H19.88v-3.44h21.56v3.44zM77.39 630.89q-6.563-2.814-17.657-4.533l.47-3.75q9.686 1.094 18.28 4.375l-1.094 3.907zm1.874 11.405q-12.03-4.53-21.406-5.78l.78-4.064q12.19 1.72 21.72 5.626l-1.094 4.22zm-19.687-30q12.812 1.406 18.437 3.594l-.937 4.06q-7.813-2.81-17.97-3.593l.47-4.062zM123.337 622.92q-8.28 17.187-27.812 18.125-.782 2.03-1.563.312l-1.25-4.062q20.313-.47 27.344-16.72l3.28 2.345zm-22.03 0q-4.22-3.906-7.97-6.406l2.656-3.282q3.282 2.032 8.282 6.72l-2.97 2.968zM154.91 619.64q-2.97 17.03-19.53 24.374l-2.814-2.97q15.313-6.25 18.438-21.562h-12.5q-3.594 5.938-7.5 9.532l-3.125-2.032q8.124-7.343 10.468-17.187l3.593 1.25q.94.47-.31.937-.626 2.032-1.72 4.063h11.25l1.406-.78 2.813 2.81q1.093 1.095-.47 1.564zm.938-3.75q-2.5-3.595-4.844-5.47l2.03-1.72q2.657 2.345 5 5.47l-2.186 1.72zm4.53-1.876q-2.5-3.125-4.53-5l1.875-1.875q2.343 2.186 4.53 5l-1.874 1.874zM39.722 670.264h9.22v3.437h-9.063v2.97q0 11.72-12.345 16.72l-2.5-2.814q11.25-3.75 11.25-13.594v-3.28H25.972l.157 7.968h-3.44l-.155-7.97h-8.75v-3.436h8.75l-.156-8.282h3.28q1.562.157.156 1.563l.156 6.72H36.13v-9.533h3.436q1.563.157.156 1.563v7.97zM51.295 678.232v-3.437H86.14v3.437H51.294zM117.556 669.64q-2.97 17.03-19.53 24.374l-2.814-2.97q15.313-6.25 18.438-21.562h-12.5q-3.594 5.938-7.5 9.532l-3.125-2.032q8.125-7.343 10.468-17.187l3.594 1.25q.938.47-.312.937-.625 2.032-1.72 4.063h11.25l1.407-.78 2.813 2.81q1.093 1.095-.47 1.564zM146.94 686.514q6.876-2.657 12.658-10.625l2.187 2.967q-5.937 8.125-15 11.72l-1.25.624-2.5-1.874.313-.78v-25.157h3.28q1.407.31.313 1.25v21.874zm-20.936 4.218q7.812-7.5 7.812-18.593v-7.033h3.282q1.406.313.312 1.25v5.625q0 13.125-8.28 20.782l-3.126-2.032z" style="-inkscape-font-specification:'sans-serif Bold'" transform="matrix(.693 -.106 0 .904 142.136 -305.085)"/>
    </g>
    <g fill="#562114" stroke-width="4.05043936" style="line-height:125%" font-size="40px" font-family="NasuM" letter-spacing="0px" stroke-linejoin="round">
      <path d="M13.88 482.277v-26.21H6.847v-3.204h17.734v3.203H17.59v26.21h-3.71zM35.715 482.746q-7.617 0-7.617-9.492v-20.39h3.75v20.507q0 6.173 3.867 6.173 4.14 0 4.14-6.172v-20.507h3.594v20.39q0 5-2.11 7.266-2.11 2.226-5.625 2.226zM55.402 482.746q-4.804 0-8.242-4.297l2.383-2.54q2.695 3.594 5.86 3.594 1.952 0 3.124-1.133 1.21-1.17 1.21-3.046 0-1.992-1.014-3.36-.977-1.366-2.852-2.577l-2.93-1.914q-2.303-1.485-3.514-3.204-1.21-1.758-1.21-4.454 0-3.203 2.07-5.312 2.11-2.11 5.43-2.11 3.983 0 7.147 3.633l-2.07 2.422q-2.54-2.813-5.04-2.813-1.64 0-2.733 1.093-1.094 1.055-1.094 2.774 0 1.758.86 2.93.86 1.132 3.046 2.54l2.852 1.835q2.343 1.522 3.554 3.32 1.25 1.796 1.25 4.725 0 3.4-2.226 5.664-2.227 2.226-5.86 2.226zM77.316 482.746q-4.375 0-7.187-3.828-2.814-3.828-2.814-11.29 0-7.42 2.852-11.327 2.89-3.906 7.266-3.906 3.632 0 6.328 3.204l-2.188 2.304q-1.797-2.265-4.023-2.265-2.734 0-4.57 3.007-1.796 3.008-1.796 8.868 0 6.015 1.757 9.023 1.798 2.97 4.728 2.97 2.422 0 4.375-2.58l2.187 2.227q-2.93 3.594-6.914 3.594zM100.363 478.84q-2.304 3.906-6.21 3.906-3.907 0-6.212-3.906-2.303-3.906-2.303-11.406 0-7.422 2.304-11.21 2.306-3.83 6.212-3.83 3.907 0 6.21 3.83 2.306 3.788 2.306 11.21 0 7.5-2.305 11.406zm-10.937-11.406q0 12.07 4.726 12.07 4.727 0 4.727-12.07 0-11.797-4.728-11.797-4.726 0-4.726 11.797zM106.34 482.277v-29.414h3.71l2.97 11.875 1.054 4.883h.156l1.094-4.882 2.93-11.875h3.75v29.414h-3.086v-16.6q0-1.447.312-5.197.313-3.75.313-3.79h-.156l-1.407 6.212-2.89 11.094h-1.953l-2.852-11.094-1.523-6.21h-.157q.04.507.352 4.062.352 3.515.352 4.922v16.6h-2.97z" style="-inkscape-font-specification:NasuM" transform="matrix(3.708 -.676 0 3.698 97.623 -1543.522)"/>
    </g>
    <g fill="none" fill-opacity="0" stroke-width="15" style="line-height:125%" font-size="115.79232788px" font-family="Yu Gothic UI" letter-spacing="0px" stroke-linecap="round" stroke-linejoin="round" font-weight="bold">
      <path d="M171.835 568.896l-16.113.226q-.905 0-1.13-.226-.17-.226-.17-1.018v-8.255q0-.848.17-1.017.225-.226 1.13-.226l16.113.226h17.584V547.24h-7.18l-14.928.227q-.96 0-1.13-.226-.17-.225-.17-1.016v-8.03q0-.904.226-1.073.226-.17 1.074-.17l14.927.227h7.18V527.17h-7.52l-15.04.226q-1.018 0-1.244-.226-.17-.17-.17-.905l.227-12.89v-25.67l-.227-12.608q0-.96.227-1.13.282-.17 1.187-.17l15.04.226h27.534l15.152-.226q.905 0 1.13.226.17.226.17 1.074l-.225 12.608v25.67l.227 12.89q0 1.13-1.3 1.13l-15.153-.225h-8.424v10.007h8.763l14.983-.226q.905 0 1.074.227.17.226.17 1.018v8.03q0 .847-.226 1.073-.17.17-1.018.17l-14.983-.227h-8.763v11.366h13.286l16-.226q.905 0 1.075.226.17.226.17 1.017v8.255q0 .848-.225 1.018-.17.226-1.018.226l-16-.226h-42.462zm42.8-51.45v-12.383H201.01v12.382h13.625zm0-33.585H201.01v11.704h13.625V483.86zm-38.05 33.585h12.834v-12.382h-12.835v12.382zm0-21.88h12.834V483.86h-12.835v11.704zm-13.91 36.354q-.112 1.64-.112 3.56 0 1.867.113 3.96.056 1.13.056 1.64 0 1.582-.452 2.147-.396.565-2.488 1.81-10.63 5.597-25.046 11.08-3.167 1.358-3.562 1.754-1.018.792-1.866.792-.905 0-1.527-1.526-1.3-3.845-2.882-10.856 4.353-.735 10.912-2.77l3.336-1.13v-25.16l-10.177.225q-.906 0-1.132-.226-.17-.227-.17-1.02v-8.367q0-.96.226-1.187.226-.17 1.075-.17l10.176.227v-20.41h-.68l-10.91.282q-.793 0-1.02-.226-.112-.228-.112-1.076v-8.48q0-.962.226-1.188.17-.17.905-.17l10.912.227h12.043l10.855-.227q.962 0 1.13.283.17.225.17 1.073v8.48q0 .906-.225 1.132-.226.17-1.075.17l-10.742-.283v20.41l9.272-.225q.85 0 1.018.226.113.226.113 1.13v8.368q0 .906-.17 1.075-.17.17-.96.17l-9.273-.226v20.636q7.35-3.393 12.043-5.937zM259.02 510.378l-14.7.226q-.963 0-1.132-.283-.17-.225-.17-1.13v-9.498q0-.905.226-1.074.226-.17 1.075-.17l14.7.226h26.516q.34-4.806.565-15.66v-2.715q0-5.825-.564-10.687 9.16.283 13.286.905 2.092.452 2.092 1.64 0 1.017-.678 2.43-.905 1.583-1.074 8.086-.227 10.912-.68 16h29.854l14.757-.226q.904 0 1.074.226.17.226.17 1.018v9.498q0 1.018-.227 1.244-.226.17-1.017.17l-14.757-.226h-27.648q5.937 18.77 18.602 32.114 11.703 12.27 27.704 18.375-4.014 3.845-6.728 8.707-1.527 2.884-2.432 2.884-.508 0-2.657-1.188-29.118-15.548-41.217-46.757-1.64 5.597-4.41 11.138-11.478 23.578-37.033 36.13-2.205.904-2.77.904-.962 0-2.658-2.657-2.49-3.732-6.616-7.294 26.517-10.234 37.542-31.888 4.353-8.764 6.22-20.467h-25.217zM464.595 518.576q-2.26 2.657-4.353 8.028-1.018 3.11-1.98 3.11-.338 0-2.543-.79-13.797-6.334-24.822-17.53v8.143q0 .905-.226 1.074-.226.17-1.13.17l-11.59-.225h-15.89l-11.533.226q-.906 0-1.132-.225-.17-.226-.17-1.018v-4.975q-10.516 9.272-24.99 16.113-2.26.905-2.77.905-.792 0-2.092-2.77-1.753-3.562-4.297-6.39 9.724-3.618 17.81-8.82-2.828-3.618-6.22-6.784-.566-.566-.566-.905 0-.45 1.018-1.186l4.184-3.11q.848-.678 1.13-.678.453 0 1.188.678 3.618 2.884 6.558 6.446 2.94-2.375 5.372-4.976-2.94-3.336-6.39-6.445-.565-.51-.565-.85 0-.395 1.017-1.243l3.732-3.166q.847-.734 1.3-.734.395 0 1.13.508 3.392 2.545 5.767 5.145 3.957-5.202 6.615-10.234h-14.587q-8.2 10.064-18.658 17.697-2.262 1.526-2.658 1.526-.68 0-2.206-2.545-1.81-2.884-4.523-5.202 14.645-8.424 23.86-23.01 1.584-2.602 3.224-7.295 5.145.848 9.95 2.15 1.64.508 1.64 1.412 0 .453-1.244 1.753-.79.735-2.77 4.184h9.61q2.602 0 3.11-.396 1.358-.45 1.584-.45 1.414 0 4.523 3.108 1.527 1.527 1.98 2.092-1.697-4.41-2.658-7.972-.17-.565-.17-.848 0-.678 1.073-.904l7.577-1.697q.678-.17.96-.17.68 0 .962 1.074 4.806 15.66 14.7 27.082 5.88-5.654 10.347-12.72h-5.938l-9.95.225q-.905 0-1.075-.225-.17-.226-.17-1.074v-7.123q0-1.018.227-1.244.226-.17 1.017-.17l9.952.227h8.368q1.98 0 2.884-.34.904-.452 1.526-.452 1.696 0 4.976 3.223 3.222 3.054 3.222 4.524 0 1.074-1.413 2.092-.34.226-3.9 5.088-5.203 7.633-12.61 15.38 10.29 8.65 23.69 13.512zm-53.6-33.076q-.45.283-4.748 7.972-5.09 9.273-12.72 16.906 1.864.113 8.536.113h15.888l11.817-.225q-11.025-11.534-17.47-26.404-.17.962-1.3 1.64zm-26.63 54.56l-15.886.227q-.906 0-1.076-.226-.17-.225-.17-1.017V530.9q0-.903.227-1.073.227-.17 1.02-.17l15.886.227h52.073l15.886-.226q.905 0 1.075.226.17.226.17 1.017v8.143q0 .848-.226 1.074-.17.17-1.018.17l-15.887-.226h-20.13v9.047l.34 13.287q0 6.22-3.73 8.82-2.998 2.092-16.06 2.092-2.882 0-3.334-.396-.51-.452-.85-2.6-.79-4.807-2.77-8.934 4.694.68 9.952.68 2.827 0 3.732-.963.678-.79.678-2.713v-18.32h-19.902zm75.99 19.676q-3.11 3.054-5.484 7.294-1.243 2.43-2.26 2.43-.85 0-2.602-1.017-13.456-7.237-22.276-18.884-.453-.566-.453-.85 0-.45 1.074-1.13l6.163-3.844q.96-.566 1.413-.566.34 0 1.018.68 8.14 8.763 23.407 15.886zm-77.968-16.34q2.94 1.188 9.612 5.09 1.412.678 1.412 1.865 0 .962-1.526 1.867-1.074.51-2.884 2.544-7.067 8.086-18.43 14.023-1.698 1.017-2.546 1.017-1.017 0-2.544-2.544-2.43-4.014-5.315-6.276 11.026-4.806 18.545-12.156 2.318-2.318 3.675-5.427zM523.848 565.05h-50.885v-6.275q0-3.844 1.074-7.18 1.075-3.393 2.884-6.333 1.81-2.996 4.24-5.597 2.433-2.657 5.203-5.088 2.77-2.488 5.654-4.75 2.883-2.318 5.654-4.636 2.602-2.204 4.75-4.296 2.15-2.148 3.675-4.41 1.527-2.262 2.375-4.75.848-2.544.848-5.484 0-3.222-1.018-5.597-.96-2.43-2.77-4.014-1.753-1.64-4.184-2.432-2.43-.85-5.315-.85-4.974 0-10.12 2.32-5.144 2.318-9.894 6.954v-12.608q2.488-1.866 5.032-3.223 2.545-1.413 5.258-2.317 2.714-.96 5.71-1.414 2.997-.453 6.39-.453 5.484 0 9.95 1.47 4.467 1.413 7.634 4.24 3.166 2.77 4.862 6.955 1.753 4.184 1.753 9.61 0 4.92-1.244 8.878-1.187 3.9-3.448 7.294-2.205 3.392-5.37 6.445-3.168 3.052-7.07 6.275-3.278 2.657-6.557 5.202-3.223 2.487-5.824 4.918-2.6 2.375-4.24 4.806-1.582 2.376-1.582 4.807v.283h36.58v11.25zM562.917 566.408q-12.665 0-19.79-10.347-7.066-10.345-7.066-29.908 0-21.485 7.408-32.51 7.406-11.025 21.37-11.025 26.744 0 26.744 41.556 0 20.58-7.576 31.436-7.52 10.798-21.09 10.798zm1.3-73.33q-14.756 0-14.756 32.51 0 30.417 14.475 30.417 14.248 0 14.248-30.927 0-32-13.966-32zM630.65 482.165v82.886h-13.116v-66.828q-3.562 2.544-7.69 4.353-4.07 1.753-9.328 3.11V494.49q3.28-1.074 6.332-2.26 3.053-1.19 5.993-2.66 2.998-1.47 5.994-3.278 3.054-1.81 6.276-4.127h5.54zM702.682 538.987q0 6.106-2.035 11.138-1.98 5.032-5.54 8.707-3.563 3.618-8.482 5.654-4.862 1.98-10.573 1.98-6.106 0-11.25-2.376-5.09-2.375-8.82-7.067-3.676-4.693-5.712-11.647-2.035-7.01-2.035-16.227 0-11.253 2.657-19.96 2.714-8.707 7.407-14.587 4.692-5.88 11.024-8.933 6.332-3.053 13.682-3.053 4.58 0 8.312.622 3.788.62 6.05 1.695v11.817q-2.884-1.47-6.163-2.488-3.28-1.018-7.52-1.018-4.75 0-8.764 1.923-4.013 1.92-6.953 5.653-2.884 3.675-4.58 9.16-1.64 5.427-1.696 12.55h.34q2.6-4.014 7.01-6.332 4.468-2.317 10.46-2.317 5.316 0 9.556 1.753 4.297 1.696 7.294 4.975 3.053 3.224 4.692 7.917 1.64 4.636 1.64 10.46zm-13.23 1.074q0-3.505-.848-6.388-.792-2.884-2.488-4.92-1.64-2.09-4.184-3.222-2.488-1.13-5.88-1.13t-5.993 1.243q-2.545 1.188-4.298 3.167-1.753 1.978-2.657 4.523-.848 2.544-.848 5.2 0 2.885.79 5.938.85 2.997 2.545 5.485 1.697 2.488 4.297 4.128 2.657 1.583 6.275 1.583 3.223 0 5.71-1.188 2.488-1.187 4.128-3.28 1.696-2.09 2.544-4.918.905-2.883.905-6.22z" style="-inkscape-font-specification:'Yu Gothic UI Bold'" transform="matrix(.867 -.166 0 1.153 170.87 -308.167)"/>
    </g>
    <g fill="#2a4743" stroke-width="7.58054924" style="line-height:125%;text-align:end" font-size="40px" font-family="sans-serif" letter-spacing="-2.64577842px" text-anchor="end" font-weight="bold">
      <path d="M-65.934 614.17q1.25 0 2.03-.78.783-.783.783-2.033t-.783-2.03q-.78-.782-2.03-.782-1.25 0-2.032.78-.78.782-.78 2.032t.78 2.032q.78.78 2.03.78zm0 1.562q-1.875 0-3.125-1.25t-1.25-3.125q0-1.875 1.25-3.125t3.126-1.25q1.875 0 3.125 1.25t1.25 3.125q0 1.875-1.25 3.125t-3.124 1.25zm-27.97 2.032v-3.438h23.126l4.063 2.97q-.78 18.905-21.406 24.686l-2.814-3.437q19.53-4.53 20.47-20.78h-23.44zM-30.767 638.39h-3.594v-1.72h-17.345v2.5h-3.593v-24.375h24.53v23.594zm-20.938-20.158v15h17.344v-15h-17.345zM5.493 619.64q-2.968 17.03-19.53 24.374l-2.813-2.97q15.312-6.25 18.437-21.562h-12.5q-3.594 5.938-7.5 9.532l-3.125-2.032q8.125-7.343 10.47-17.187l3.593 1.25q.937.47-.313.937-.625 2.032-1.72 4.063h11.25l1.408-.78 2.812 2.81q1.094 1.095-.47 1.564zm.938-3.75q-2.5-3.595-4.843-5.47l2.03-1.72q2.658 2.345 5 5.47l-2.186 1.72zm4.532-1.876q-2.5-3.125-4.53-5l1.874-1.875q2.344 2.186 4.53 5l-1.874 1.874zM23.785 641.2q15.156-3.905 17.03-16.405h-23.75v-3.438h23.907l1.407-.468 2.81 1.717q.94.782-.31 1.407-2.5 15.625-18.283 20.312l-2.812-3.125zm17.656-25.31H19.88v-3.44h21.56v3.44zM77.39 630.89q-6.563-2.814-17.657-4.533l.47-3.75q9.686 1.094 18.28 4.375l-1.094 3.907zm1.874 11.405q-12.03-4.53-21.406-5.78l.78-4.064q12.19 1.72 21.72 5.626l-1.094 4.22zm-19.687-30q12.812 1.406 18.437 3.594l-.937 4.06q-7.813-2.81-17.97-3.593l.47-4.062zM123.337 622.92q-8.28 17.187-27.812 18.125-.782 2.03-1.563.312l-1.25-4.062q20.313-.47 27.344-16.72l3.28 2.345zm-22.03 0q-4.22-3.906-7.97-6.406l2.656-3.282q3.282 2.032 8.282 6.72l-2.97 2.968zM154.91 619.64q-2.97 17.03-19.53 24.374l-2.814-2.97q15.313-6.25 18.438-21.562h-12.5q-3.594 5.938-7.5 9.532l-3.125-2.032q8.124-7.343 10.468-17.187l3.593 1.25q.94.47-.31.937-.626 2.032-1.72 4.063h11.25l1.406-.78 2.813 2.81q1.093 1.095-.47 1.564zm.938-3.75q-2.5-3.595-4.844-5.47l2.03-1.72q2.657 2.345 5 5.47l-2.186 1.72zm4.53-1.876q-2.5-3.125-4.53-5l1.875-1.875q2.343 2.186 4.53 5l-1.874 1.874zM39.722 670.264h9.22v3.437h-9.063v2.97q0 11.72-12.345 16.72l-2.5-2.814q11.25-3.75 11.25-13.594v-3.28H25.972l.157 7.968h-3.44l-.155-7.97h-8.75v-3.436h8.75l-.156-8.282h3.28q1.562.157.156 1.563l.156 6.72H36.13v-9.533h3.436q1.563.157.156 1.563v7.97zM51.295 678.232v-3.437H86.14v3.437H51.294zM117.556 669.64q-2.97 17.03-19.53 24.374l-2.814-2.97q15.313-6.25 18.438-21.562h-12.5q-3.594 5.938-7.5 9.532l-3.125-2.032q8.125-7.343 10.468-17.187l3.594 1.25q.938.47-.312.937-.625 2.032-1.72 4.063h11.25l1.407-.78 2.813 2.81q1.093 1.095-.47 1.564zM146.94 686.514q6.876-2.657 12.658-10.625l2.187 2.967q-5.937 8.125-15 11.72l-1.25.624-2.5-1.874.313-.78v-25.157h3.28q1.407.31.313 1.25v21.874zm-20.936 4.218q7.812-7.5 7.812-18.593v-7.033h3.282q1.406.313.312 1.25v5.625q0 13.125-8.28 20.782l-3.126-2.032z" style="-inkscape-font-specification:'sans-serif Bold'" transform="matrix(.693 -.106 0 .904 142.136 -305.085)"/>
    </g>
    <g fill="#562114" stroke-width="4.05043936" style="line-height:125%" font-size="40px" font-family="NasuM" letter-spacing="0px" stroke-linejoin="round">
      <path d="M13.88 482.277v-26.21H6.847v-3.204h17.734v3.203H17.59v26.21h-3.71zM35.715 482.746q-7.617 0-7.617-9.492v-20.39h3.75v20.507q0 6.173 3.867 6.173 4.14 0 4.14-6.172v-20.507h3.594v20.39q0 5-2.11 7.266-2.11 2.226-5.625 2.226zM55.402 482.746q-4.804 0-8.242-4.297l2.383-2.54q2.695 3.594 5.86 3.594 1.952 0 3.124-1.133 1.21-1.17 1.21-3.046 0-1.992-1.014-3.36-.977-1.366-2.852-2.577l-2.93-1.914q-2.303-1.485-3.514-3.204-1.21-1.758-1.21-4.454 0-3.203 2.07-5.312 2.11-2.11 5.43-2.11 3.983 0 7.147 3.633l-2.07 2.422q-2.54-2.813-5.04-2.813-1.64 0-2.733 1.093-1.094 1.055-1.094 2.774 0 1.758.86 2.93.86 1.132 3.046 2.54l2.852 1.835q2.343 1.522 3.554 3.32 1.25 1.796 1.25 4.725 0 3.4-2.226 5.664-2.227 2.226-5.86 2.226zM77.316 482.746q-4.375 0-7.187-3.828-2.814-3.828-2.814-11.29 0-7.42 2.852-11.327 2.89-3.906 7.266-3.906 3.632 0 6.328 3.204l-2.188 2.304q-1.797-2.265-4.023-2.265-2.734 0-4.57 3.007-1.796 3.008-1.796 8.868 0 6.015 1.757 9.023 1.798 2.97 4.728 2.97 2.422 0 4.375-2.58l2.187 2.227q-2.93 3.594-6.914 3.594zM100.363 478.84q-2.304 3.906-6.21 3.906-3.907 0-6.212-3.906-2.303-3.906-2.303-11.406 0-7.422 2.304-11.21 2.306-3.83 6.212-3.83 3.907 0 6.21 3.83 2.306 3.788 2.306 11.21 0 7.5-2.305 11.406zm-10.937-11.406q0 12.07 4.726 12.07 4.727 0 4.727-12.07 0-11.797-4.728-11.797-4.726 0-4.726 11.797zM106.34 482.277v-29.414h3.71l2.97 11.875 1.054 4.883h.156l1.094-4.882 2.93-11.875h3.75v29.414h-3.086v-16.6q0-1.447.312-5.197.313-3.75.313-3.79h-.156l-1.407 6.212-2.89 11.094h-1.953l-2.852-11.094-1.523-6.21h-.157q.04.507.352 4.062.352 3.515.352 4.922v16.6h-2.97z" style="-inkscape-font-specification:NasuM" transform="matrix(3.708 -.676 0 3.698 97.623 -1543.522)"/>
    </g>
    <g fill="none" fill-opacity="0" stroke-width="15" style="line-height:125%" font-size="115.79232788px" font-family="Yu Gothic UI" letter-spacing="0px" stroke-linecap="round" stroke-linejoin="round" font-weight="bold">
      <path d="M171.835 568.896l-16.113.226q-.905 0-1.13-.226-.17-.226-.17-1.018v-8.255q0-.848.17-1.017.225-.226 1.13-.226l16.113.226h17.584V547.24h-7.18l-14.928.227q-.96 0-1.13-.226-.17-.225-.17-1.016v-8.03q0-.904.226-1.073.226-.17 1.074-.17l14.927.227h7.18V527.17h-7.52l-15.04.226q-1.018 0-1.244-.226-.17-.17-.17-.905l.227-12.89v-25.67l-.227-12.608q0-.96.227-1.13.282-.17 1.187-.17l15.04.226h27.534l15.152-.226q.905 0 1.13.226.17.226.17 1.074l-.225 12.608v25.67l.227 12.89q0 1.13-1.3 1.13l-15.153-.225h-8.424v10.007h8.763l14.983-.226q.905 0 1.074.227.17.226.17 1.018v8.03q0 .847-.226 1.073-.17.17-1.018.17l-14.983-.227h-8.763v11.366h13.286l16-.226q.905 0 1.075.226.17.226.17 1.017v8.255q0 .848-.225 1.018-.17.226-1.018.226l-16-.226h-42.462zm42.8-51.45v-12.383H201.01v12.382h13.625zm0-33.585H201.01v11.704h13.625V483.86zm-38.05 33.585h12.834v-12.382h-12.835v12.382zm0-21.88h12.834V483.86h-12.835v11.704zm-13.91 36.354q-.112 1.64-.112 3.56 0 1.867.113 3.96.056 1.13.056 1.64 0 1.582-.452 2.147-.396.565-2.488 1.81-10.63 5.597-25.046 11.08-3.167 1.358-3.562 1.754-1.018.792-1.866.792-.905 0-1.527-1.526-1.3-3.845-2.882-10.856 4.353-.735 10.912-2.77l3.336-1.13v-25.16l-10.177.225q-.906 0-1.132-.226-.17-.227-.17-1.02v-8.367q0-.96.226-1.187.226-.17 1.075-.17l10.176.227v-20.41h-.68l-10.91.282q-.793 0-1.02-.226-.112-.228-.112-1.076v-8.48q0-.962.226-1.188.17-.17.905-.17l10.912.227h12.043l10.855-.227q.962 0 1.13.283.17.225.17 1.073v8.48q0 .906-.225 1.132-.226.17-1.075.17l-10.742-.283v20.41l9.272-.225q.85 0 1.018.226.113.226.113 1.13v8.368q0 .906-.17 1.075-.17.17-.96.17l-9.273-.226v20.636q7.35-3.393 12.043-5.937zM259.02 510.378l-14.7.226q-.963 0-1.132-.283-.17-.225-.17-1.13v-9.498q0-.905.226-1.074.226-.17 1.075-.17l14.7.226h26.516q.34-4.806.565-15.66v-2.715q0-5.825-.564-10.687 9.16.283 13.286.905 2.092.452 2.092 1.64 0 1.017-.678 2.43-.905 1.583-1.074 8.086-.227 10.912-.68 16h29.854l14.757-.226q.904 0 1.074.226.17.226.17 1.018v9.498q0 1.018-.227 1.244-.226.17-1.017.17l-14.757-.226h-27.648q5.937 18.77 18.602 32.114 11.703 12.27 27.704 18.375-4.014 3.845-6.728 8.707-1.527 2.884-2.432 2.884-.508 0-2.657-1.188-29.118-15.548-41.217-46.757-1.64 5.597-4.41 11.138-11.478 23.578-37.033 36.13-2.205.904-2.77.904-.962 0-2.658-2.657-2.49-3.732-6.616-7.294 26.517-10.234 37.542-31.888 4.353-8.764 6.22-20.467h-25.217zM464.595 518.576q-2.26 2.657-4.353 8.028-1.018 3.11-1.98 3.11-.338 0-2.543-.79-13.797-6.334-24.822-17.53v8.143q0 .905-.226 1.074-.226.17-1.13.17l-11.59-.225h-15.89l-11.533.226q-.906 0-1.132-.225-.17-.226-.17-1.018v-4.975q-10.516 9.272-24.99 16.113-2.26.905-2.77.905-.792 0-2.092-2.77-1.753-3.562-4.297-6.39 9.724-3.618 17.81-8.82-2.828-3.618-6.22-6.784-.566-.566-.566-.905 0-.45 1.018-1.186l4.184-3.11q.848-.678 1.13-.678.453 0 1.188.678 3.618 2.884 6.558 6.446 2.94-2.375 5.372-4.976-2.94-3.336-6.39-6.445-.565-.51-.565-.85 0-.395 1.017-1.243l3.732-3.166q.847-.734 1.3-.734.395 0 1.13.508 3.392 2.545 5.767 5.145 3.957-5.202 6.615-10.234h-14.587q-8.2 10.064-18.658 17.697-2.262 1.526-2.658 1.526-.68 0-2.206-2.545-1.81-2.884-4.523-5.202 14.645-8.424 23.86-23.01 1.584-2.602 3.224-7.295 5.145.848 9.95 2.15 1.64.508 1.64 1.412 0 .453-1.244 1.753-.79.735-2.77 4.184h9.61q2.602 0 3.11-.396 1.358-.45 1.584-.45 1.414 0 4.523 3.108 1.527 1.527 1.98 2.092-1.697-4.41-2.658-7.972-.17-.565-.17-.848 0-.678 1.073-.904l7.577-1.697q.678-.17.96-.17.68 0 .962 1.074 4.806 15.66 14.7 27.082 5.88-5.654 10.347-12.72h-5.938l-9.95.225q-.905 0-1.075-.225-.17-.226-.17-1.074v-7.123q0-1.018.227-1.244.226-.17 1.017-.17l9.952.227h8.368q1.98 0 2.884-.34.904-.452 1.526-.452 1.696 0 4.976 3.223 3.222 3.054 3.222 4.524 0 1.074-1.413 2.092-.34.226-3.9 5.088-5.203 7.633-12.61 15.38 10.29 8.65 23.69 13.512zm-53.6-33.076q-.45.283-4.748 7.972-5.09 9.273-12.72 16.906 1.864.113 8.536.113h15.888l11.817-.225q-11.025-11.534-17.47-26.404-.17.962-1.3 1.64zm-26.63 54.56l-15.886.227q-.906 0-1.076-.226-.17-.225-.17-1.017V530.9q0-.903.227-1.073.227-.17 1.02-.17l15.886.227h52.073l15.886-.226q.905 0 1.075.226.17.226.17 1.017v8.143q0 .848-.226 1.074-.17.17-1.018.17l-15.887-.226h-20.13v9.047l.34 13.287q0 6.22-3.73 8.82-2.998 2.092-16.06 2.092-2.882 0-3.334-.396-.51-.452-.85-2.6-.79-4.807-2.77-8.934 4.694.68 9.952.68 2.827 0 3.732-.963.678-.79.678-2.713v-18.32h-19.902zm75.99 19.676q-3.11 3.054-5.484 7.294-1.243 2.43-2.26 2.43-.85 0-2.602-1.017-13.456-7.237-22.276-18.884-.453-.566-.453-.85 0-.45 1.074-1.13l6.163-3.844q.96-.566 1.413-.566.34 0 1.018.68 8.14 8.763 23.407 15.886zm-77.968-16.34q2.94 1.188 9.612 5.09 1.412.678 1.412 1.865 0 .962-1.526 1.867-1.074.51-2.884 2.544-7.067 8.086-18.43 14.023-1.698 1.017-2.546 1.017-1.017 0-2.544-2.544-2.43-4.014-5.315-6.276 11.026-4.806 18.545-12.156 2.318-2.318 3.675-5.427zM523.848 565.05h-50.885v-6.275q0-3.844 1.074-7.18 1.075-3.393 2.884-6.333 1.81-2.996 4.24-5.597 2.433-2.657 5.203-5.088 2.77-2.488 5.654-4.75 2.883-2.318 5.654-4.636 2.602-2.204 4.75-4.296 2.15-2.148 3.675-4.41 1.527-2.262 2.375-4.75.848-2.544.848-5.484 0-3.222-1.018-5.597-.96-2.43-2.77-4.014-1.753-1.64-4.184-2.432-2.43-.85-5.315-.85-4.974 0-10.12 2.32-5.144 2.318-9.894 6.954v-12.608q2.488-1.866 5.032-3.223 2.545-1.413 5.258-2.317 2.714-.96 5.71-1.414 2.997-.453 6.39-.453 5.484 0 9.95 1.47 4.467 1.413 7.634 4.24 3.166 2.77 4.862 6.955 1.753 4.184 1.753 9.61 0 4.92-1.244 8.878-1.187 3.9-3.448 7.294-2.205 3.392-5.37 6.445-3.168 3.052-7.07 6.275-3.278 2.657-6.557 5.202-3.223 2.487-5.824 4.918-2.6 2.375-4.24 4.806-1.582 2.376-1.582 4.807v.283h36.58v11.25zM562.917 566.408q-12.665 0-19.79-10.347-7.066-10.345-7.066-29.908 0-21.485 7.408-32.51 7.406-11.025 21.37-11.025 26.744 0 26.744 41.556 0 20.58-7.576 31.436-7.52 10.798-21.09 10.798zm1.3-73.33q-14.756 0-14.756 32.51 0 30.417 14.475 30.417 14.248 0 14.248-30.927 0-32-13.966-32zM630.65 482.165v82.886h-13.116v-66.828q-3.562 2.544-7.69 4.353-4.07 1.753-9.328 3.11V494.49q3.28-1.074 6.332-2.26 3.053-1.19 5.993-2.66 2.998-1.47 5.994-3.278 3.054-1.81 6.276-4.127h5.54zM702.682 538.987q0 6.106-2.035 11.138-1.98 5.032-5.54 8.707-3.563 3.618-8.482 5.654-4.862 1.98-10.573 1.98-6.106 0-11.25-2.376-5.09-2.375-8.82-7.067-3.676-4.693-5.712-11.647-2.035-7.01-2.035-16.227 0-11.253 2.657-19.96 2.714-8.707 7.407-14.587 4.692-5.88 11.024-8.933 6.332-3.053 13.682-3.053 4.58 0 8.312.622 3.788.62 6.05 1.695v11.817q-2.884-1.47-6.163-2.488-3.28-1.018-7.52-1.018-4.75 0-8.764 1.923-4.013 1.92-6.953 5.653-2.884 3.675-4.58 9.16-1.64 5.427-1.696 12.55h.34q2.6-4.014 7.01-6.332 4.468-2.317 10.46-2.317 5.316 0 9.556 1.753 4.297 1.696 7.294 4.975 3.053 3.224 4.692 7.917 1.64 4.636 1.64 10.46zm-13.23 1.074q0-3.505-.848-6.388-.792-2.884-2.488-4.92-1.64-2.09-4.184-3.222-2.488-1.13-5.88-1.13t-5.993 1.243q-2.545 1.188-4.298 3.167-1.753 1.978-2.657 4.523-.848 2.544-.848 5.2 0 2.885.79 5.938.85 2.997 2.545 5.485 1.697 2.488 4.297 4.128 2.657 1.583 6.275 1.583 3.223 0 5.71-1.188 2.488-1.187 4.128-3.28 1.696-2.09 2.544-4.918.905-2.883.905-6.22z" style="-inkscape-font-specification:'Yu Gothic UI Bold'" transform="matrix(.867 -.166 0 1.153 170.87 -308.167)"/>
    </g>
    <g fill="#2a4743" stroke-width="12.63424873" style="line-height:125%;text-align:end" font-size="40px" font-family="sans-serif" letter-spacing="-2.64577842px" text-anchor="end" stroke-linejoin="round" font-weight="bold">
      <path d="M-65.934 614.17q1.25 0 2.03-.78.783-.783.783-2.033t-.783-2.03q-.78-.782-2.03-.782-1.25 0-2.032.78-.78.782-.78 2.032t.78 2.032q.78.78 2.03.78zm0 1.562q-1.875 0-3.125-1.25t-1.25-3.125q0-1.875 1.25-3.125t3.126-1.25q1.875 0 3.125 1.25t1.25 3.125q0 1.875-1.25 3.125t-3.124 1.25zm-27.97 2.032v-3.438h23.126l4.063 2.97q-.78 18.905-21.406 24.686l-2.814-3.437q19.53-4.53 20.47-20.78h-23.44zM-30.767 638.39h-3.594v-1.72h-17.345v2.5h-3.593v-24.375h24.53v23.594zm-20.938-20.158v15h17.344v-15h-17.345zM5.493 619.64q-2.968 17.03-19.53 24.374l-2.813-2.97q15.312-6.25 18.437-21.562h-12.5q-3.594 5.938-7.5 9.532l-3.125-2.032q8.125-7.343 10.47-17.187l3.593 1.25q.937.47-.313.937-.625 2.032-1.72 4.063h11.25l1.408-.78 2.812 2.81q1.094 1.095-.47 1.564zm.938-3.75q-2.5-3.595-4.843-5.47l2.03-1.72q2.658 2.345 5 5.47l-2.186 1.72zm4.532-1.876q-2.5-3.125-4.53-5l1.874-1.875q2.344 2.186 4.53 5l-1.874 1.874zM23.785 641.2q15.156-3.905 17.03-16.405h-23.75v-3.438h23.907l1.407-.468 2.81 1.717q.94.782-.31 1.407-2.5 15.625-18.283 20.312l-2.812-3.125zm17.656-25.31H19.88v-3.44h21.56v3.44zM77.39 630.89q-6.563-2.814-17.657-4.533l.47-3.75q9.686 1.094 18.28 4.375l-1.094 3.907zm1.874 11.405q-12.03-4.53-21.406-5.78l.78-4.064q12.19 1.72 21.72 5.626l-1.094 4.22zm-19.687-30q12.812 1.406 18.437 3.594l-.937 4.06q-7.813-2.81-17.97-3.593l.47-4.062zM123.337 622.92q-8.28 17.187-27.812 18.125-.782 2.03-1.563.312l-1.25-4.062q20.313-.47 27.344-16.72l3.28 2.345zm-22.03 0q-4.22-3.906-7.97-6.406l2.656-3.282q3.282 2.032 8.282 6.72l-2.97 2.968zM154.91 619.64q-2.97 17.03-19.53 24.374l-2.814-2.97q15.313-6.25 18.438-21.562h-12.5q-3.594 5.938-7.5 9.532l-3.125-2.032q8.124-7.343 10.468-17.187l3.593 1.25q.94.47-.31.937-.626 2.032-1.72 4.063h11.25l1.406-.78 2.813 2.81q1.093 1.095-.47 1.564zm.938-3.75q-2.5-3.595-4.844-5.47l2.03-1.72q2.657 2.345 5 5.47l-2.186 1.72zm4.53-1.876q-2.5-3.125-4.53-5l1.875-1.875q2.343 2.186 4.53 5l-1.874 1.874zM39.722 670.264h9.22v3.437h-9.063v2.97q0 11.72-12.345 16.72l-2.5-2.814q11.25-3.75 11.25-13.594v-3.28H25.972l.157 7.968h-3.44l-.155-7.97h-8.75v-3.436h8.75l-.156-8.282h3.28q1.562.157.156 1.563l.156 6.72H36.13v-9.533h3.436q1.563.157.156 1.563v7.97zM51.295 678.232v-3.437H86.14v3.437H51.294zM117.556 669.64q-2.97 17.03-19.53 24.374l-2.814-2.97q15.313-6.25 18.438-21.562h-12.5q-3.594 5.938-7.5 9.532l-3.125-2.032q8.125-7.343 10.468-17.187l3.594 1.25q.938.47-.312.937-.625 2.032-1.72 4.063h11.25l1.407-.78 2.813 2.81q1.093 1.095-.47 1.564zM146.94 686.514q6.876-2.657 12.658-10.625l2.187 2.967q-5.937 8.125-15 11.72l-1.25.624-2.5-1.874.313-.78v-25.157h3.28q1.407.31.313 1.25v21.874zm-20.936 4.218q7.812-7.5 7.812-18.593v-7.033h3.282q1.406.313.312 1.25v5.625q0 13.125-8.28 20.782l-3.126-2.032z" style="-inkscape-font-specification:'sans-serif Bold'" transform="matrix(.693 -.106 0 .904 142.136 -305.085)"/>
    </g>
    <g fill="#562114" stroke-width="4.05043936" style="line-height:125%" font-size="40px" font-family="NasuM" letter-spacing="0px" stroke-linejoin="round">
      <path d="M13.88 482.277v-26.21H6.847v-3.204h17.734v3.203H17.59v26.21h-3.71zM35.715 482.746q-7.617 0-7.617-9.492v-20.39h3.75v20.507q0 6.173 3.867 6.173 4.14 0 4.14-6.172v-20.507h3.594v20.39q0 5-2.11 7.266-2.11 2.226-5.625 2.226zM55.402 482.746q-4.804 0-8.242-4.297l2.383-2.54q2.695 3.594 5.86 3.594 1.952 0 3.124-1.133 1.21-1.17 1.21-3.046 0-1.992-1.014-3.36-.977-1.366-2.852-2.577l-2.93-1.914q-2.303-1.485-3.514-3.204-1.21-1.758-1.21-4.454 0-3.203 2.07-5.312 2.11-2.11 5.43-2.11 3.983 0 7.147 3.633l-2.07 2.422q-2.54-2.813-5.04-2.813-1.64 0-2.733 1.093-1.094 1.055-1.094 2.774 0 1.758.86 2.93.86 1.132 3.046 2.54l2.852 1.835q2.343 1.522 3.554 3.32 1.25 1.796 1.25 4.725 0 3.4-2.226 5.664-2.227 2.226-5.86 2.226zM77.316 482.746q-4.375 0-7.187-3.828-2.814-3.828-2.814-11.29 0-7.42 2.852-11.327 2.89-3.906 7.266-3.906 3.632 0 6.328 3.204l-2.188 2.304q-1.797-2.265-4.023-2.265-2.734 0-4.57 3.007-1.796 3.008-1.796 8.868 0 6.015 1.757 9.023 1.798 2.97 4.728 2.97 2.422 0 4.375-2.58l2.187 2.227q-2.93 3.594-6.914 3.594zM100.363 478.84q-2.304 3.906-6.21 3.906-3.907 0-6.212-3.906-2.303-3.906-2.303-11.406 0-7.422 2.304-11.21 2.306-3.83 6.212-3.83 3.907 0 6.21 3.83 2.306 3.788 2.306 11.21 0 7.5-2.305 11.406zm-10.937-11.406q0 12.07 4.726 12.07 4.727 0 4.727-12.07 0-11.797-4.728-11.797-4.726 0-4.726 11.797zM106.34 482.277v-29.414h3.71l2.97 11.875 1.054 4.883h.156l1.094-4.882 2.93-11.875h3.75v29.414h-3.086v-16.6q0-1.447.312-5.197.313-3.75.313-3.79h-.156l-1.407 6.212-2.89 11.094h-1.953l-2.852-11.094-1.523-6.21h-.157q.04.507.352 4.062.352 3.515.352 4.922v16.6h-2.97z" style="-inkscape-font-specification:NasuM" transform="matrix(3.708 -.676 0 3.698 97.623 -1543.522)"/>
    </g>
    <g fill="none" fill-opacity="0" stroke-width="18" style="line-height:125%" font-size="115.79232788px" font-family="Yu Gothic UI" letter-spacing="0px" stroke-linecap="round" stroke-linejoin="round" font-weight="bold">
      <path d="M171.835 568.896l-16.113.226q-.905 0-1.13-.226-.17-.226-.17-1.018v-8.255q0-.848.17-1.017.225-.226 1.13-.226l16.113.226h17.584V547.24h-7.18l-14.928.227q-.96 0-1.13-.226-.17-.225-.17-1.016v-8.03q0-.904.226-1.073.226-.17 1.074-.17l14.927.227h7.18V527.17h-7.52l-15.04.226q-1.018 0-1.244-.226-.17-.17-.17-.905l.227-12.89v-25.67l-.227-12.608q0-.96.227-1.13.282-.17 1.187-.17l15.04.226h27.534l15.152-.226q.905 0 1.13.226.17.226.17 1.074l-.225 12.608v25.67l.227 12.89q0 1.13-1.3 1.13l-15.153-.225h-8.424v10.007h8.763l14.983-.226q.905 0 1.074.227.17.226.17 1.018v8.03q0 .847-.226 1.073-.17.17-1.018.17l-14.983-.227h-8.763v11.366h13.286l16-.226q.905 0 1.075.226.17.226.17 1.017v8.255q0 .848-.225 1.018-.17.226-1.018.226l-16-.226h-42.462zm42.8-51.45v-12.383H201.01v12.382h13.625zm0-33.585H201.01v11.704h13.625V483.86zm-38.05 33.585h12.834v-12.382h-12.835v12.382zm0-21.88h12.834V483.86h-12.835v11.704zm-13.91 36.354q-.112 1.64-.112 3.56 0 1.867.113 3.96.056 1.13.056 1.64 0 1.582-.452 2.147-.396.565-2.488 1.81-10.63 5.597-25.046 11.08-3.167 1.358-3.562 1.754-1.018.792-1.866.792-.905 0-1.527-1.526-1.3-3.845-2.882-10.856 4.353-.735 10.912-2.77l3.336-1.13v-25.16l-10.177.225q-.906 0-1.132-.226-.17-.227-.17-1.02v-8.367q0-.96.226-1.187.226-.17 1.075-.17l10.176.227v-20.41h-.68l-10.91.282q-.793 0-1.02-.226-.112-.228-.112-1.076v-8.48q0-.962.226-1.188.17-.17.905-.17l10.912.227h12.043l10.855-.227q.962 0 1.13.283.17.225.17 1.073v8.48q0 .906-.225 1.132-.226.17-1.075.17l-10.742-.283v20.41l9.272-.225q.85 0 1.018.226.113.226.113 1.13v8.368q0 .906-.17 1.075-.17.17-.96.17l-9.273-.226v20.636q7.35-3.393 12.043-5.937zM259.02 510.378l-14.7.226q-.963 0-1.132-.283-.17-.225-.17-1.13v-9.498q0-.905.226-1.074.226-.17 1.075-.17l14.7.226h26.516q.34-4.806.565-15.66v-2.715q0-5.825-.564-10.687 9.16.283 13.286.905 2.092.452 2.092 1.64 0 1.017-.678 2.43-.905 1.583-1.074 8.086-.227 10.912-.68 16h29.854l14.757-.226q.904 0 1.074.226.17.226.17 1.018v9.498q0 1.018-.227 1.244-.226.17-1.017.17l-14.757-.226h-27.648q5.937 18.77 18.602 32.114 11.703 12.27 27.704 18.375-4.014 3.845-6.728 8.707-1.527 2.884-2.432 2.884-.508 0-2.657-1.188-29.118-15.548-41.217-46.757-1.64 5.597-4.41 11.138-11.478 23.578-37.033 36.13-2.205.904-2.77.904-.962 0-2.658-2.657-2.49-3.732-6.616-7.294 26.517-10.234 37.542-31.888 4.353-8.764 6.22-20.467h-25.217zM464.595 518.576q-2.26 2.657-4.353 8.028-1.018 3.11-1.98 3.11-.338 0-2.543-.79-13.797-6.334-24.822-17.53v8.143q0 .905-.226 1.074-.226.17-1.13.17l-11.59-.225h-15.89l-11.533.226q-.906 0-1.132-.225-.17-.226-.17-1.018v-4.975q-10.516 9.272-24.99 16.113-2.26.905-2.77.905-.792 0-2.092-2.77-1.753-3.562-4.297-6.39 9.724-3.618 17.81-8.82-2.828-3.618-6.22-6.784-.566-.566-.566-.905 0-.45 1.018-1.186l4.184-3.11q.848-.678 1.13-.678.453 0 1.188.678 3.618 2.884 6.558 6.446 2.94-2.375 5.372-4.976-2.94-3.336-6.39-6.445-.565-.51-.565-.85 0-.395 1.017-1.243l3.732-3.166q.847-.734 1.3-.734.395 0 1.13.508 3.392 2.545 5.767 5.145 3.957-5.202 6.615-10.234h-14.587q-8.2 10.064-18.658 17.697-2.262 1.526-2.658 1.526-.68 0-2.206-2.545-1.81-2.884-4.523-5.202 14.645-8.424 23.86-23.01 1.584-2.602 3.224-7.295 5.145.848 9.95 2.15 1.64.508 1.64 1.412 0 .453-1.244 1.753-.79.735-2.77 4.184h9.61q2.602 0 3.11-.396 1.358-.45 1.584-.45 1.414 0 4.523 3.108 1.527 1.527 1.98 2.092-1.697-4.41-2.658-7.972-.17-.565-.17-.848 0-.678 1.073-.904l7.577-1.697q.678-.17.96-.17.68 0 .962 1.074 4.806 15.66 14.7 27.082 5.88-5.654 10.347-12.72h-5.938l-9.95.225q-.905 0-1.075-.225-.17-.226-.17-1.074v-7.123q0-1.018.227-1.244.226-.17 1.017-.17l9.952.227h8.368q1.98 0 2.884-.34.904-.452 1.526-.452 1.696 0 4.976 3.223 3.222 3.054 3.222 4.524 0 1.074-1.413 2.092-.34.226-3.9 5.088-5.203 7.633-12.61 15.38 10.29 8.65 23.69 13.512zm-53.6-33.076q-.45.283-4.748 7.972-5.09 9.273-12.72 16.906 1.864.113 8.536.113h15.888l11.817-.225q-11.025-11.534-17.47-26.404-.17.962-1.3 1.64zm-26.63 54.56l-15.886.227q-.906 0-1.076-.226-.17-.225-.17-1.017V530.9q0-.903.227-1.073.227-.17 1.02-.17l15.886.227h52.073l15.886-.226q.905 0 1.075.226.17.226.17 1.017v8.143q0 .848-.226 1.074-.17.17-1.018.17l-15.887-.226h-20.13v9.047l.34 13.287q0 6.22-3.73 8.82-2.998 2.092-16.06 2.092-2.882 0-3.334-.396-.51-.452-.85-2.6-.79-4.807-2.77-8.934 4.694.68 9.952.68 2.827 0 3.732-.963.678-.79.678-2.713v-18.32h-19.902zm75.99 19.676q-3.11 3.054-5.484 7.294-1.243 2.43-2.26 2.43-.85 0-2.602-1.017-13.456-7.237-22.276-18.884-.453-.566-.453-.85 0-.45 1.074-1.13l6.163-3.844q.96-.566 1.413-.566.34 0 1.018.68 8.14 8.763 23.407 15.886zm-77.968-16.34q2.94 1.188 9.612 5.09 1.412.678 1.412 1.865 0 .962-1.526 1.867-1.074.51-2.884 2.544-7.067 8.086-18.43 14.023-1.698 1.017-2.546 1.017-1.017 0-2.544-2.544-2.43-4.014-5.315-6.276 11.026-4.806 18.545-12.156 2.318-2.318 3.675-5.427zM523.848 565.05h-50.885v-6.275q0-3.844 1.074-7.18 1.075-3.393 2.884-6.333 1.81-2.996 4.24-5.597 2.433-2.657 5.203-5.088 2.77-2.488 5.654-4.75 2.883-2.318 5.654-4.636 2.602-2.204 4.75-4.296 2.15-2.148 3.675-4.41 1.527-2.262 2.375-4.75.848-2.544.848-5.484 0-3.222-1.018-5.597-.96-2.43-2.77-4.014-1.753-1.64-4.184-2.432-2.43-.85-5.315-.85-4.974 0-10.12 2.32-5.144 2.318-9.894 6.954v-12.608q2.488-1.866 5.032-3.223 2.545-1.413 5.258-2.317 2.714-.96 5.71-1.414 2.997-.453 6.39-.453 5.484 0 9.95 1.47 4.467 1.413 7.634 4.24 3.166 2.77 4.862 6.955 1.753 4.184 1.753 9.61 0 4.92-1.244 8.878-1.187 3.9-3.448 7.294-2.205 3.392-5.37 6.445-3.168 3.052-7.07 6.275-3.278 2.657-6.557 5.202-3.223 2.487-5.824 4.918-2.6 2.375-4.24 4.806-1.582 2.376-1.582 4.807v.283h36.58v11.25zM562.917 566.408q-12.665 0-19.79-10.347-7.066-10.345-7.066-29.908 0-21.485 7.408-32.51 7.406-11.025 21.37-11.025 26.744 0 26.744 41.556 0 20.58-7.576 31.436-7.52 10.798-21.09 10.798zm1.3-73.33q-14.756 0-14.756 32.51 0 30.417 14.475 30.417 14.248 0 14.248-30.927 0-32-13.966-32zM630.65 482.165v82.886h-13.116v-66.828q-3.562 2.544-7.69 4.353-4.07 1.753-9.328 3.11V494.49q3.28-1.074 6.332-2.26 3.053-1.19 5.993-2.66 2.998-1.47 5.994-3.278 3.054-1.81 6.276-4.127h5.54zM702.682 538.987q0 6.106-2.035 11.138-1.98 5.032-5.54 8.707-3.563 3.618-8.482 5.654-4.862 1.98-10.573 1.98-6.106 0-11.25-2.376-5.09-2.375-8.82-7.067-3.676-4.693-5.712-11.647-2.035-7.01-2.035-16.227 0-11.253 2.657-19.96 2.714-8.707 7.407-14.587 4.692-5.88 11.024-8.933 6.332-3.053 13.682-3.053 4.58 0 8.312.622 3.788.62 6.05 1.695v11.817q-2.884-1.47-6.163-2.488-3.28-1.018-7.52-1.018-4.75 0-8.764 1.923-4.013 1.92-6.953 5.653-2.884 3.675-4.58 9.16-1.64 5.427-1.696 12.55h.34q2.6-4.014 7.01-6.332 4.468-2.317 10.46-2.317 5.316 0 9.556 1.753 4.297 1.696 7.294 4.975 3.053 3.224 4.692 7.917 1.64 4.636 1.64 10.46zm-13.23 1.074q0-3.505-.848-6.388-.792-2.884-2.488-4.92-1.64-2.09-4.184-3.222-2.488-1.13-5.88-1.13t-5.993 1.243q-2.545 1.188-4.298 3.167-1.753 1.978-2.657 4.523-.848 2.544-.848 5.2 0 2.885.79 5.938.85 2.997 2.545 5.485 1.697 2.488 4.297 4.128 2.657 1.583 6.275 1.583 3.223 0 5.71-1.188 2.488-1.187 4.128-3.28 1.696-2.09 2.544-4.918.905-2.883.905-6.22z" style="-inkscape-font-specification:'Yu Gothic UI Bold'" transform="matrix(.867 -.166 0 1.153 170.87 -308.167)"/>
    </g>
  </g>
  <g word-spacing="0px">
    <g fill="#ec9727" stroke-width="4" style="line-height:125%" font-size="115.79232788px" font-family="Yu Gothic UI" letter-spacing="0px" stroke-linecap="round" stroke-linejoin="round" font-weight="bold">
      <path d="M316.67 314.787l-13.97 2.935q-.785.15-.98-.073-.148-.234-.148-1.147v-9.52q0-.98.147-1.203.195-.298.98-.448l13.97-2.414 15.244-2.92v-13.107l-6.225 1.193-12.942 2.738q-.833.16-.98-.072-.147-.233-.147-1.146v-9.26q0-1.043.197-1.277.196-.233.93-.374l12.942-2.215 6.224-1.192V263.74l-6.52 1.248-13.038 2.757q-.882.17-1.078-.054-.147-.167-.147-1.014l.197-14.907V222.16l-.196-14.505q0-1.11.197-1.342.245-.243 1.03-.393l13.038-2.236 23.872-4.57 13.137-2.776q.784-.15.98.073.147.233.147 1.21l-.195 14.582v29.607l.196 14.83q0 1.306-1.126 1.52l-13.137 2.256-7.304 1.398v11.543l7.598-1.456 12.99-2.747q.785-.15.932.082.147.232.147 1.145v9.26q0 .978-.197 1.277-.147.224-.882.364l-12.99 2.227-7.597 1.454v13.108l11.52-2.205 13.87-2.917q.786-.15.933.083.147.232.147 1.145v9.523q0 .978-.196 1.21-.147.29-.883.43l-13.872 2.396-36.812 7.047zm37.106-66.45v-14.282l-11.813 2.262V250.6l11.813-2.263zm0-38.737l-11.813 2.262v13.5l11.813-2.263v-13.5zm-32.99 45.053l11.128-2.13V238.24l-11.127 2.13v14.283zm0-25.238l11.128-2.13v-13.5l-11.127 2.13v13.5zm-12.057 44.242q-.1 1.91-.1 4.127 0 2.152.1 4.546.048 1.295.048 1.882 0 1.826-.392 2.553-.344.718-2.157 2.5-9.217 8.22-21.716 16.94-2.745 2.09-3.088 2.613-.883 1.08-1.618 1.222-.784.15-1.323-1.507-1.128-4.22-2.5-12.043 3.774-1.57 9.46-5.006l2.892-1.858v-29.02l-8.823 1.95q-.784.15-.98-.074-.147-.233-.147-1.146v-9.65q0-1.11.196-1.408.196-.234.93-.374l8.824-1.43v-23.54l-.588.11-9.46 2.14q-.688.13-.884-.093-.098-.24-.098-1.22v-9.782q0-1.108.196-1.407.147-.222.785-.344l9.46-1.55 10.44-2 9.41-2.062q.835-.16.982.138.147.233.147 1.21v9.783q0 1.043-.197 1.342-.196.233-.932.374l-9.312 1.458v23.542l8.04-1.8q.734-.14.88.092.1.242.1 1.286v9.65q0 1.045-.148 1.27-.147.222-.833.354l-8.04 1.278v23.803q6.373-5.133 10.442-8.846zM392.256 232.82l-12.745 2.7q-.832.16-.98-.14-.147-.232-.147-1.275V223.15q0-1.044.196-1.278.196-.233.93-.374l12.746-2.18 22.99-4.4q.293-5.6.49-18.158v-3.13q0-6.718-.49-12.232 7.94-1.195 11.518-1.162 1.814.174 1.814 1.544 0 1.173-.588 2.916-.785 1.977-.932 9.504-.196 12.624-.588 18.57l25.882-4.956 12.793-2.71q.785-.15.932.082.147.233.147 1.146v10.956q0 1.173-.196 1.472-.196.233-.883.364l-12.793 2.19-23.97 4.588q5.147 20.666 16.127 33.954 10.146 12.21 24.018 16.597-3.48 5.1-5.834 11.16-1.323 3.58-2.107 3.73-.44.083-2.304-.93-25.244-13.1-35.734-47.09-1.423 6.728-3.825 13.58-9.95 29.098-32.107 47.818-1.91 1.41-2.4 1.504-.835.16-2.305-2.624-2.157-3.89-5.735-7.315 22.99-16.205 32.548-43.012 3.774-10.83 5.392-24.64l-21.862 4.186zM570.485 208.152q-1.96 3.44-3.774 9.983-.882 3.756-1.715 3.915-.294.057-2.206-.49-11.96-5.015-21.52-16.097v9.39q0 1.044-.196 1.277-.196.234-.98.384l-10.05 1.663-13.773 2.637-9.998 2.175q-.785.15-.98-.074-.148-.233-.148-1.146v-5.738q-9.117 12.44-21.666 22.734-1.96 1.42-2.402 1.503-.686.13-1.813-2.85-1.52-3.817-3.726-6.655 8.43-5.788 15.44-13.13-2.45-3.704-5.39-6.793-.49-.56-.49-.95 0-.522.88-1.538l3.628-4.282q.736-.923.98-.97.393-.075 1.03.586 3.137 2.725 5.686 6.345 2.55-3.227 4.658-6.63-2.55-3.36-5.54-6.374-.49-.494-.49-.885 0-.457.883-1.604l3.236-4.27q.736-.99 1.128-1.064.343-.066.98.4 2.94 2.37 5 4.976 3.43-6.656 5.735-12.9l-12.648 2.42q-7.107 12.97-16.176 23.51-1.96 2.135-2.303 2.2-.59.113-1.912-2.568-1.568-3.025-3.92-5.25 12.695-12.146 20.685-30.5 1.372-3.264 2.794-8.95 4.46.125 8.626.828 1.422.314 1.422 1.358 0 .52-1.08 2.228-.685.98-2.4 5.286l8.332-1.596q2.255-.432 2.696-.973 1.177-.746 1.373-.784 1.224-.234 3.92 2.837 1.324 1.507 1.716 2.084-1.47-4.804-2.304-8.753-.147-.624-.147-.95 0-.782.93-1.22l6.57-3.215q.588-.31.833-.356.588-.112.834 1.08 4.166 17.267 12.744 28.798 5.098-7.498 8.97-16.39l-5.146.984-8.628 1.913q-.784.15-.93-.082-.148-.232-.148-1.21v-8.218q0-1.173.196-1.472.196-.233.882-.364l8.628-1.39 7.254-1.39q1.716-.33 2.5-.87.785-.672 1.324-.775 1.47-.283 4.313 2.89 2.795 2.987 2.795 4.682 0 1.24-1.225 2.648-.294.317-3.382 6.517-4.51 9.667-10.93 19.83 8.92 8.27 20.537 11.655zm-46.47-29.254q-.39.4-4.116 9.984-4.413 11.54-11.03 21.61 1.617-.18 7.4-1.286l13.775-2.637 10.245-2.224q-9.558-11.473-15.147-27.555-.147 1.138-1.127 2.108zM500.93 246.25l-13.776 2.898q-.784.15-.93-.082-.148-.233-.148-1.146v-9.39q0-1.044.196-1.277.196-.234.882-.365l13.775-2.376 45.144-8.644 13.774-2.898q.785-.15.932.083.147.233.147 1.146v9.39q0 .978-.196 1.276-.146.224-.882.365l-13.774 2.377-17.45 3.34v10.435l.294 15.27q0 7.173-3.235 10.792-2.598 2.91-13.92 5.078-2.5.48-2.894.098-.442-.438-.736-2.86-.686-5.41-2.402-9.844 4.07.004 8.628-.87 2.45-.468 3.235-1.727.588-1.026.588-3.244v-21.13l-17.254 3.304zm65.88 10.082q-2.697 4.038-4.756 9.323-1.078 3.01-1.96 3.18-.736.14-2.255-.743-11.668-6.114-19.315-18.084-.392-.577-.392-.903 0-.522.932-1.482l5.343-5.458q.833-.812 1.225-.887.294-.056.882.614 7.06 8.757 20.294 14.44zm-67.597-5.906q2.55.882 8.333 4.274 1.225.548 1.225 1.918 0 1.108-1.322 2.405-.93.765-2.5 3.414-6.127 10.498-15.98 19.232-1.47 1.455-2.206 1.595-.882.17-2.205-2.512-2.108-4.227-4.608-6.357 9.557-7.373 16.077-17.1 2.01-3.058 3.186-6.87zM621.856 251.923l-44.116 8.446v-7.24q0-4.434.93-8.46.933-4.09 2.5-7.783 1.57-3.756 3.677-7.16 2.108-3.468 4.51-6.732 2.402-3.33 4.902-6.417 2.5-3.152 4.9-6.286 2.256-2.975 4.118-5.745 1.863-2.834 3.186-5.696 1.324-2.86 2.06-5.872.734-3.075.734-6.466 0-3.717-.882-6.287-.833-2.645-2.402-4.17-1.52-1.6-3.627-2.11-2.108-.575-4.608-.097-4.314.826-8.775 4.354-4.46 3.528-8.578 9.664v-14.543q2.157-2.565 4.362-4.553 2.205-2.052 4.558-3.546 2.353-1.56 4.95-2.578 2.6-1.02 5.54-1.582 4.755-.91 8.627.043 3.873.89 6.618 3.625 2.745 2.67 4.215 7.214 1.52 4.535 1.52 10.795 0 5.675-1.08 10.446-1.028 4.697-2.99 8.986-1.91 4.278-4.656 8.326-2.745 4.047-6.127 8.41-2.843 3.61-5.686 7.09-2.795 3.404-5.05 6.64-2.255 3.17-3.676 6.247-1.373 3.002-1.373 5.806v.327l31.716-6.072v12.978zM655.728 247.003q-10.98 2.103-17.157-8.65-6.126-10.76-6.126-33.325 0-24.78 6.42-38.727 6.423-13.945 18.53-16.263 23.186-4.44 23.186 43.493 0 23.738-6.57 37.517-6.518 13.704-18.282 15.956zm1.127-84.8q-12.794 2.45-12.794 39.95 0 35.084 12.55 32.682 12.352-2.365 12.352-38.037 0-36.912-12.107-34.594zM714.45 138.59v95.605l-11.37 2.178V159.29q-3.09 3.525-6.667 6.297-3.53 2.697-8.088 5.135V157.81q2.843-1.784 5.49-3.66 2.647-1.876 5.196-4.06 2.598-2.193 5.196-4.777 2.647-2.594 5.44-5.802l4.805-.92zM776.9 192.175q0 7.044-1.764 13.185-1.716 6.133-4.804 10.963-3.088 4.765-7.353 7.93-4.216 3.09-9.167 4.037-5.294 1.013-9.755-.872-4.412-1.894-7.647-6.687-3.185-4.802-4.95-12.486-1.764-7.75-1.764-18.378 0-12.978 2.304-23.462 2.353-10.494 6.42-18.055 4.07-7.562 9.56-12.135 5.49-4.573 11.862-5.793 3.97-.76 7.206-.662 3.284.09 5.244.953v13.63q-2.5-1.218-5.342-1.847-2.844-.63-6.52.074-4.117.788-7.598 3.672-3.48 2.884-6.03 7.676-2.5 4.717-3.97 11.325-1.42 6.532-1.47 14.76l.294-.057q2.255-5.062 6.078-8.468 3.873-3.415 9.07-4.41 4.606-.882 8.283.436 3.725 1.243 6.323 4.528 2.647 3.21 4.07 8.35 1.42 5.076 1.42 11.793zm-11.47 3.435q0-4.043-.735-7.228-.687-3.195-2.157-5.26-1.422-2.14-3.627-3.023-2.156-.893-5.097-.33-2.94.563-5.196 2.43-2.206 1.792-3.726 4.365-1.518 2.573-2.302 5.658-.736 3.076-.736 6.14 0 3.327.687 6.717.734 3.315 2.204 5.903 1.47 2.588 3.726 4.048 2.304 1.386 5.44.785 2.795-.535 4.952-2.317 2.156-1.783 3.578-4.468 1.47-2.694 2.206-6.096.784-3.476.784-7.324z" style="-inkscape-font-specification:'Yu Gothic UI Bold'"/>
    </g>
    <g fill="#cb5d6a" stroke="#cb5d6a" stroke-width="0.99936908" style="line-height:125%;text-align:end" font-size="40px" font-family="sans-serif" letter-spacing="-2.64577842px" text-anchor="end" font-weight="bold" stroke-linejoin="round">
      <path d="M-65.934 614.17q1.25 0 2.03-.78.783-.783.783-2.033t-.783-2.03q-.78-.782-2.03-.782-1.25 0-2.032.78-.78.782-.78 2.032t.78 2.032q.78.78 2.03.78zm0 1.562q-1.875 0-3.125-1.25t-1.25-3.125q0-1.875 1.25-3.125t3.126-1.25q1.875 0 3.125 1.25t1.25 3.125q0 1.875-1.25 3.125t-3.124 1.25zm-27.97 2.032v-3.438h23.126l4.063 2.97q-.78 18.905-21.406 24.686l-2.814-3.437q19.53-4.53 20.47-20.78h-23.44zM-30.767 638.39h-3.594v-1.72h-17.345v2.5h-3.593v-24.375h24.53v23.594zm-20.938-20.158v15h17.344v-15h-17.345zM5.493 619.64q-2.968 17.03-19.53 24.374l-2.813-2.97q15.312-6.25 18.437-21.562h-12.5q-3.594 5.938-7.5 9.532l-3.125-2.032q8.125-7.343 10.47-17.187l3.593 1.25q.937.47-.313.937-.625 2.032-1.72 4.063h11.25l1.408-.78 2.812 2.81q1.094 1.095-.47 1.564zm.938-3.75q-2.5-3.595-4.843-5.47l2.03-1.72q2.658 2.345 5 5.47l-2.186 1.72zm4.532-1.876q-2.5-3.125-4.53-5l1.874-1.875q2.344 2.186 4.53 5l-1.874 1.874zM23.785 641.2q15.156-3.905 17.03-16.405h-23.75v-3.438h23.907l1.407-.468 2.81 1.717q.94.782-.31 1.407-2.5 15.625-18.283 20.312l-2.812-3.125zm17.656-25.31H19.88v-3.44h21.56v3.44zM77.39 630.89q-6.563-2.814-17.657-4.533l.47-3.75q9.686 1.094 18.28 4.375l-1.094 3.907zm1.874 11.405q-12.03-4.53-21.406-5.78l.78-4.064q12.19 1.72 21.72 5.626l-1.094 4.22zm-19.687-30q12.812 1.406 18.437 3.594l-.937 4.06q-7.813-2.81-17.97-3.593l.47-4.062zM123.337 622.92q-8.28 17.187-27.812 18.125-.782 2.03-1.563.312l-1.25-4.062q20.313-.47 27.344-16.72l3.28 2.345zm-22.03 0q-4.22-3.906-7.97-6.406l2.656-3.282q3.282 2.032 8.282 6.72l-2.97 2.968zM154.91 619.64q-2.97 17.03-19.53 24.374l-2.814-2.97q15.313-6.25 18.438-21.562h-12.5q-3.594 5.938-7.5 9.532l-3.125-2.032q8.124-7.343 10.468-17.187l3.593 1.25q.94.47-.31.937-.626 2.032-1.72 4.063h11.25l1.406-.78 2.813 2.81q1.093 1.095-.47 1.564zm.938-3.75q-2.5-3.595-4.844-5.47l2.03-1.72q2.657 2.345 5 5.47l-2.186 1.72zm4.53-1.876q-2.5-3.125-4.53-5l1.875-1.875q2.343 2.186 4.53 5l-1.874 1.874zM39.722 670.264h9.22v3.437h-9.063v2.97q0 11.72-12.345 16.72l-2.5-2.814q11.25-3.75 11.25-13.594v-3.28H25.972l.157 7.968h-3.44l-.155-7.97h-8.75v-3.436h8.75l-.156-8.282h3.28q1.562.157.156 1.563l.156 6.72H36.13v-9.533h3.436q1.563.157.156 1.563v7.97zM51.295 678.232v-3.437H86.14v3.437H51.294zM117.556 669.64q-2.97 17.03-19.53 24.374l-2.814-2.97q15.313-6.25 18.438-21.562h-12.5q-3.594 5.938-7.5 9.532l-3.125-2.032q8.125-7.343 10.468-17.187l3.594 1.25q.938.47-.312.937-.625 2.032-1.72 4.063h11.25l1.407-.78 2.813 2.81q1.093 1.095-.47 1.564zM146.94 686.514q6.876-2.657 12.658-10.625l2.187 2.967q-5.937 8.125-15 11.72l-1.25.624-2.5-1.874.313-.78v-25.157h3.28q1.407.31.313 1.25v21.874zm-20.936 4.218q7.812-7.5 7.812-18.593v-7.033h3.282q1.406.313.312 1.25v5.625q0 13.125-8.28 20.782l-3.126-2.032z" style="-inkscape-font-specification:'sans-serif Bold'" transform="matrix(.693 -.106 0 .904 142.177 -305.588)"/>
    </g>
    <g fill="#3fb8ec" stroke-width="1px" style="line-height:125%" font-size="40px" font-family="NasuM" letter-spacing="0px">
      <path d="M147.458 229.025V132.09l-26.074 4.752v-11.846l65.764-11.99v11.847l-25.93 4.727v96.936l-13.76 2.51zM228.432 215.997q-28.247 5.15-28.247-29.955v-75.41l13.907-2.536v75.844q0 22.825 14.34 20.21 15.355-2.798 15.355-25.623v-75.845l13.327-2.43v75.412q0 18.49-7.823 28.296-7.82 9.66-20.858 12.037zM301.44 202.69q-17.818 3.247-30.565-10.32l8.836-11.002q9.996 11.47 21.73 9.33 7.242-1.32 11.588-6.302 4.49-5.153 4.49-12.087 0-7.37-3.766-11.738-3.62-4.396-10.574-7.607l-10.864-5.1q-8.547-3.93-13.037-9.468-4.49-5.683-4.49-15.65 0-11.847 7.676-21.047 7.823-9.228 20.135-11.472 14.776-2.693 26.51 8.603l-7.678 10.357q-9.416-8.685-18.687-6.995-6.084 1.11-10.14 5.894-4.056 4.64-4.056 10.996 0 6.5 3.187 10.254 3.187 3.61 11.3 7.33l10.573 4.863q8.692 4.048 13.182 9.875 4.635 5.8 4.635 16.636 0 12.57-8.257 22.453-8.257 9.74-21.73 12.196zM382.704 187.875q-16.224 2.957-26.654-9.3-10.43-12.256-10.43-39.848 0-27.45 10.575-43.823 10.72-16.4 26.943-19.358 13.472-2.456 23.467 7.568l-8.112 10.003q-6.664-7.165-14.92-5.66-10.14 1.85-16.948 14.214-6.664 12.34-6.664 34.01 0 22.247 6.52 32.182 6.663 9.765 17.527 7.784 8.98-1.637 16.224-12.492l8.113 6.756q-10.864 15.27-25.64 17.965zM468.168 157.848q-8.546 16.005-23.032 18.646-14.485 2.64-23.032-10.248-8.546-12.89-8.546-40.626 0-27.45 8.546-43.02 8.547-15.715 23.032-18.356 14.486-2.64 23.032 9.96 8.547 12.454 8.547 39.903 0 27.737-8.547 43.74zm-40.56-34.79q0 44.64 17.528 41.445 17.528-3.195 17.528-47.835 0-43.628-17.528-40.433-17.527 3.195-17.527 46.823zM490.33 166.52V57.74l13.763-2.51 11.01 41.91 3.91 17.346.58-.105 4.055-18.797 10.864-45.898 13.906-2.535v108.782l-11.443 2.086V96.62q0-5.344 1.16-19.424 1.158-14.08 1.158-14.225l-.58.107-5.215 23.92-10.72 42.983-7.242 1.32-10.574-39.1-5.65-21.94-.58.105q.146 1.852 1.305 14.787 1.303 12.764 1.303 17.965v61.397l-11.01 2.007z" style="-inkscape-font-specification:NasuM"/>
    </g>
    <g fill="#ec9727" stroke-width="4" style="line-height:125%" font-size="115.79232788px" font-family="Yu Gothic UI" letter-spacing="0px" stroke-linecap="round" stroke-linejoin="round" font-weight="bold">
      <path d="M316.67 314.787l-13.97 2.935q-.785.15-.98-.073-.148-.234-.148-1.147v-9.52q0-.98.147-1.203.195-.298.98-.448l13.97-2.414 15.244-2.92v-13.107l-6.225 1.193-12.942 2.738q-.833.16-.98-.072-.147-.233-.147-1.146v-9.26q0-1.043.197-1.277.196-.233.93-.374l12.942-2.215 6.224-1.192V263.74l-6.52 1.248-13.038 2.757q-.882.17-1.078-.054-.147-.167-.147-1.014l.197-14.907V222.16l-.196-14.505q0-1.11.197-1.342.245-.243 1.03-.393l13.038-2.236 23.872-4.57 13.137-2.776q.784-.15.98.073.147.233.147 1.21l-.195 14.582v29.607l.196 14.83q0 1.306-1.126 1.52l-13.137 2.256-7.304 1.398v11.543l7.598-1.456 12.99-2.747q.785-.15.932.082.147.232.147 1.145v9.26q0 .978-.197 1.277-.147.224-.882.364l-12.99 2.227-7.597 1.454v13.108l11.52-2.205 13.87-2.917q.786-.15.933.083.147.232.147 1.145v9.523q0 .978-.196 1.21-.147.29-.883.43l-13.872 2.396-36.812 7.047zm37.106-66.45v-14.282l-11.813 2.262V250.6l11.813-2.263zm0-38.737l-11.813 2.262v13.5l11.813-2.263v-13.5zm-32.99 45.053l11.128-2.13V238.24l-11.127 2.13v14.283zm0-25.238l11.128-2.13v-13.5l-11.127 2.13v13.5zm-12.057 44.242q-.1 1.91-.1 4.127 0 2.152.1 4.546.048 1.295.048 1.882 0 1.826-.392 2.553-.344.718-2.157 2.5-9.217 8.22-21.716 16.94-2.745 2.09-3.088 2.613-.883 1.08-1.618 1.222-.784.15-1.323-1.507-1.128-4.22-2.5-12.043 3.774-1.57 9.46-5.006l2.892-1.858v-29.02l-8.823 1.95q-.784.15-.98-.074-.147-.233-.147-1.146v-9.65q0-1.11.196-1.408.196-.234.93-.374l8.824-1.43v-23.54l-.588.11-9.46 2.14q-.688.13-.884-.093-.098-.24-.098-1.22v-9.782q0-1.108.196-1.407.147-.222.785-.344l9.46-1.55 10.44-2 9.41-2.062q.835-.16.982.138.147.233.147 1.21v9.783q0 1.043-.197 1.342-.196.233-.932.374l-9.312 1.458v23.542l8.04-1.8q.734-.14.88.092.1.242.1 1.286v9.65q0 1.045-.148 1.27-.147.222-.833.354l-8.04 1.278v23.803q6.373-5.133 10.442-8.846zM392.256 232.82l-12.745 2.7q-.832.16-.98-.14-.147-.232-.147-1.275V223.15q0-1.044.196-1.278.196-.233.93-.374l12.746-2.18 22.99-4.4q.293-5.6.49-18.158v-3.13q0-6.718-.49-12.232 7.94-1.195 11.518-1.162 1.814.174 1.814 1.544 0 1.173-.588 2.916-.785 1.977-.932 9.504-.196 12.624-.588 18.57l25.882-4.956 12.793-2.71q.785-.15.932.082.147.233.147 1.146v10.956q0 1.173-.196 1.472-.196.233-.883.364l-12.793 2.19-23.97 4.588q5.147 20.666 16.127 33.954 10.146 12.21 24.018 16.597-3.48 5.1-5.834 11.16-1.323 3.58-2.107 3.73-.44.083-2.304-.93-25.244-13.1-35.734-47.09-1.423 6.728-3.825 13.58-9.95 29.098-32.107 47.818-1.91 1.41-2.4 1.504-.835.16-2.305-2.624-2.157-3.89-5.735-7.315 22.99-16.205 32.548-43.012 3.774-10.83 5.392-24.64l-21.862 4.186zM570.485 208.152q-1.96 3.44-3.774 9.983-.882 3.756-1.715 3.915-.294.057-2.206-.49-11.96-5.015-21.52-16.097v9.39q0 1.044-.196 1.277-.196.234-.98.384l-10.05 1.663-13.773 2.637-9.998 2.175q-.785.15-.98-.074-.148-.233-.148-1.146v-5.738q-9.117 12.44-21.666 22.734-1.96 1.42-2.402 1.503-.686.13-1.813-2.85-1.52-3.817-3.726-6.655 8.43-5.788 15.44-13.13-2.45-3.704-5.39-6.793-.49-.56-.49-.95 0-.522.88-1.538l3.628-4.282q.736-.923.98-.97.393-.075 1.03.586 3.137 2.725 5.686 6.345 2.55-3.227 4.658-6.63-2.55-3.36-5.54-6.374-.49-.494-.49-.885 0-.457.883-1.604l3.236-4.27q.736-.99 1.128-1.064.343-.066.98.4 2.94 2.37 5 4.976 3.43-6.656 5.735-12.9l-12.648 2.42q-7.107 12.97-16.176 23.51-1.96 2.135-2.303 2.2-.59.113-1.912-2.568-1.568-3.025-3.92-5.25 12.695-12.146 20.685-30.5 1.372-3.264 2.794-8.95 4.46.125 8.626.828 1.422.314 1.422 1.358 0 .52-1.08 2.228-.685.98-2.4 5.286l8.332-1.596q2.255-.432 2.696-.973 1.177-.746 1.373-.784 1.224-.234 3.92 2.837 1.324 1.507 1.716 2.084-1.47-4.804-2.304-8.753-.147-.624-.147-.95 0-.782.93-1.22l6.57-3.215q.588-.31.833-.356.588-.112.834 1.08 4.166 17.267 12.744 28.798 5.098-7.498 8.97-16.39l-5.146.984-8.628 1.913q-.784.15-.93-.082-.148-.232-.148-1.21v-8.218q0-1.173.196-1.472.196-.233.882-.364l8.628-1.39 7.254-1.39q1.716-.33 2.5-.87.785-.672 1.324-.775 1.47-.283 4.313 2.89 2.795 2.987 2.795 4.682 0 1.24-1.225 2.648-.294.317-3.382 6.517-4.51 9.667-10.93 19.83 8.92 8.27 20.537 11.655zm-46.47-29.254q-.39.4-4.116 9.984-4.413 11.54-11.03 21.61 1.617-.18 7.4-1.286l13.775-2.637 10.245-2.224q-9.558-11.473-15.147-27.555-.147 1.138-1.127 2.108zM500.93 246.25l-13.776 2.898q-.784.15-.93-.082-.148-.233-.148-1.146v-9.39q0-1.044.196-1.277.196-.234.882-.365l13.775-2.376 45.144-8.644 13.774-2.898q.785-.15.932.083.147.233.147 1.146v9.39q0 .978-.196 1.276-.146.224-.882.365l-13.774 2.377-17.45 3.34v10.435l.294 15.27q0 7.173-3.235 10.792-2.598 2.91-13.92 5.078-2.5.48-2.894.098-.442-.438-.736-2.86-.686-5.41-2.402-9.844 4.07.004 8.628-.87 2.45-.468 3.235-1.727.588-1.026.588-3.244v-21.13l-17.254 3.304zm65.88 10.082q-2.697 4.038-4.756 9.323-1.078 3.01-1.96 3.18-.736.14-2.255-.743-11.668-6.114-19.315-18.084-.392-.577-.392-.903 0-.522.932-1.482l5.343-5.458q.833-.812 1.225-.887.294-.056.882.614 7.06 8.757 20.294 14.44zm-67.597-5.906q2.55.882 8.333 4.274 1.225.548 1.225 1.918 0 1.108-1.322 2.405-.93.765-2.5 3.414-6.127 10.498-15.98 19.232-1.47 1.455-2.206 1.595-.882.17-2.205-2.512-2.108-4.227-4.608-6.357 9.557-7.373 16.077-17.1 2.01-3.058 3.186-6.87zM621.856 251.923l-44.116 8.446v-7.24q0-4.434.93-8.46.933-4.09 2.5-7.783 1.57-3.756 3.677-7.16 2.108-3.468 4.51-6.732 2.402-3.33 4.902-6.417 2.5-3.152 4.9-6.286 2.256-2.975 4.118-5.745 1.863-2.834 3.186-5.696 1.324-2.86 2.06-5.872.734-3.075.734-6.466 0-3.717-.882-6.287-.833-2.645-2.402-4.17-1.52-1.6-3.627-2.11-2.108-.575-4.608-.097-4.314.826-8.775 4.354-4.46 3.528-8.578 9.664v-14.543q2.157-2.565 4.362-4.553 2.205-2.052 4.558-3.546 2.353-1.56 4.95-2.578 2.6-1.02 5.54-1.582 4.755-.91 8.627.043 3.873.89 6.618 3.625 2.745 2.67 4.215 7.214 1.52 4.535 1.52 10.795 0 5.675-1.08 10.446-1.028 4.697-2.99 8.986-1.91 4.278-4.656 8.326-2.745 4.047-6.127 8.41-2.843 3.61-5.686 7.09-2.795 3.404-5.05 6.64-2.255 3.17-3.676 6.247-1.373 3.002-1.373 5.806v.327l31.716-6.072v12.978zM655.728 247.003q-10.98 2.103-17.157-8.65-6.126-10.76-6.126-33.325 0-24.78 6.42-38.727 6.423-13.945 18.53-16.263 23.186-4.44 23.186 43.493 0 23.738-6.57 37.517-6.518 13.704-18.282 15.956zm1.127-84.8q-12.794 2.45-12.794 39.95 0 35.084 12.55 32.682 12.352-2.365 12.352-38.037 0-36.912-12.107-34.594zM714.45 138.59v95.605l-11.37 2.178V159.29q-3.09 3.525-6.667 6.297-3.53 2.697-8.088 5.135V157.81q2.843-1.784 5.49-3.66 2.647-1.876 5.196-4.06 2.598-2.193 5.196-4.777 2.647-2.594 5.44-5.802l4.805-.92zM776.9 192.175q0 7.044-1.764 13.185-1.716 6.133-4.804 10.963-3.088 4.765-7.353 7.93-4.216 3.09-9.167 4.037-5.294 1.013-9.755-.872-4.412-1.894-7.647-6.687-3.185-4.802-4.95-12.486-1.764-7.75-1.764-18.378 0-12.978 2.304-23.462 2.353-10.494 6.42-18.055 4.07-7.562 9.56-12.135 5.49-4.573 11.862-5.793 3.97-.76 7.206-.662 3.284.09 5.244.953v13.63q-2.5-1.218-5.342-1.847-2.844-.63-6.52.074-4.117.788-7.598 3.672-3.48 2.884-6.03 7.676-2.5 4.717-3.97 11.325-1.42 6.532-1.47 14.76l.294-.057q2.255-5.062 6.078-8.468 3.873-3.415 9.07-4.41 4.606-.882 8.283.436 3.725 1.243 6.323 4.528 2.647 3.21 4.07 8.35 1.42 5.076 1.42 11.793zm-11.47 3.435q0-4.043-.735-7.228-.687-3.195-2.157-5.26-1.422-2.14-3.627-3.023-2.156-.893-5.097-.33-2.94.563-5.196 2.43-2.206 1.792-3.726 4.365-1.518 2.573-2.302 5.658-.736 3.076-.736 6.14 0 3.327.687 6.717.734 3.315 2.204 5.903 1.47 2.588 3.726 4.048 2.304 1.386 5.44.785 2.795-.535 4.952-2.317 2.156-1.783 3.578-4.468 1.47-2.694 2.206-6.096.784-3.476.784-7.324z" style="-inkscape-font-specification:'Yu Gothic UI Bold'"/>
    </g>
    <g fill="#cb5d6a" stroke="#cb5d6a" stroke-width="0.99936908" style="line-height:125%;text-align:end" font-size="40px" font-family="sans-serif" letter-spacing="-2.64577842px" text-anchor="end" font-weight="bold" stroke-linejoin="round">
      <path d="M-65.934 614.17q1.25 0 2.03-.78.783-.783.783-2.033t-.783-2.03q-.78-.782-2.03-.782-1.25 0-2.032.78-.78.782-.78 2.032t.78 2.032q.78.78 2.03.78zm0 1.562q-1.875 0-3.125-1.25t-1.25-3.125q0-1.875 1.25-3.125t3.126-1.25q1.875 0 3.125 1.25t1.25 3.125q0 1.875-1.25 3.125t-3.124 1.25zm-27.97 2.032v-3.438h23.126l4.063 2.97q-.78 18.905-21.406 24.686l-2.814-3.437q19.53-4.53 20.47-20.78h-23.44zM-30.767 638.39h-3.594v-1.72h-17.345v2.5h-3.593v-24.375h24.53v23.594zm-20.938-20.158v15h17.344v-15h-17.345zM5.493 619.64q-2.968 17.03-19.53 24.374l-2.813-2.97q15.312-6.25 18.437-21.562h-12.5q-3.594 5.938-7.5 9.532l-3.125-2.032q8.125-7.343 10.47-17.187l3.593 1.25q.937.47-.313.937-.625 2.032-1.72 4.063h11.25l1.408-.78 2.812 2.81q1.094 1.095-.47 1.564zm.938-3.75q-2.5-3.595-4.843-5.47l2.03-1.72q2.658 2.345 5 5.47l-2.186 1.72zm4.532-1.876q-2.5-3.125-4.53-5l1.874-1.875q2.344 2.186 4.53 5l-1.874 1.874zM23.785 641.2q15.156-3.905 17.03-16.405h-23.75v-3.438h23.907l1.407-.468 2.81 1.717q.94.782-.31 1.407-2.5 15.625-18.283 20.312l-2.812-3.125zm17.656-25.31H19.88v-3.44h21.56v3.44zM77.39 630.89q-6.563-2.814-17.657-4.533l.47-3.75q9.686 1.094 18.28 4.375l-1.094 3.907zm1.874 11.405q-12.03-4.53-21.406-5.78l.78-4.064q12.19 1.72 21.72 5.626l-1.094 4.22zm-19.687-30q12.812 1.406 18.437 3.594l-.937 4.06q-7.813-2.81-17.97-3.593l.47-4.062zM123.337 622.92q-8.28 17.187-27.812 18.125-.782 2.03-1.563.312l-1.25-4.062q20.313-.47 27.344-16.72l3.28 2.345zm-22.03 0q-4.22-3.906-7.97-6.406l2.656-3.282q3.282 2.032 8.282 6.72l-2.97 2.968zM154.91 619.64q-2.97 17.03-19.53 24.374l-2.814-2.97q15.313-6.25 18.438-21.562h-12.5q-3.594 5.938-7.5 9.532l-3.125-2.032q8.124-7.343 10.468-17.187l3.593 1.25q.94.47-.31.937-.626 2.032-1.72 4.063h11.25l1.406-.78 2.813 2.81q1.093 1.095-.47 1.564zm.938-3.75q-2.5-3.595-4.844-5.47l2.03-1.72q2.657 2.345 5 5.47l-2.186 1.72zm4.53-1.876q-2.5-3.125-4.53-5l1.875-1.875q2.343 2.186 4.53 5l-1.874 1.874zM39.722 670.264h9.22v3.437h-9.063v2.97q0 11.72-12.345 16.72l-2.5-2.814q11.25-3.75 11.25-13.594v-3.28H25.972l.157 7.968h-3.44l-.155-7.97h-8.75v-3.436h8.75l-.156-8.282h3.28q1.562.157.156 1.563l.156 6.72H36.13v-9.533h3.436q1.563.157.156 1.563v7.97zM51.295 678.232v-3.437H86.14v3.437H51.294zM117.556 669.64q-2.97 17.03-19.53 24.374l-2.814-2.97q15.313-6.25 18.438-21.562h-12.5q-3.594 5.938-7.5 9.532l-3.125-2.032q8.125-7.343 10.468-17.187l3.594 1.25q.938.47-.312.937-.625 2.032-1.72 4.063h11.25l1.407-.78 2.813 2.81q1.093 1.095-.47 1.564zM146.94 686.514q6.876-2.657 12.658-10.625l2.187 2.967q-5.937 8.125-15 11.72l-1.25.624-2.5-1.874.313-.78v-25.157h3.28q1.407.31.313 1.25v21.874zm-20.936 4.218q7.812-7.5 7.812-18.593v-7.033h3.282q1.406.313.312 1.25v5.625q0 13.125-8.28 20.782l-3.126-2.032z" style="-inkscape-font-specification:'sans-serif Bold'" transform="matrix(.693 -.106 0 .904 142.177 -305.588)"/>
    </g>
    <g fill="#3fb8ec" stroke-width="1px" style="line-height:125%" font-size="40px" font-family="NasuM" letter-spacing="0px">
      <path d="M147.458 229.025V132.09l-26.074 4.752v-11.846l65.764-11.99v11.847l-25.93 4.727v96.936l-13.76 2.51zM228.432 215.997q-28.247 5.15-28.247-29.955v-75.41l13.907-2.536v75.844q0 22.825 14.34 20.21 15.355-2.798 15.355-25.623v-75.845l13.327-2.43v75.412q0 18.49-7.823 28.296-7.82 9.66-20.858 12.037zM301.44 202.69q-17.818 3.247-30.565-10.32l8.836-11.002q9.996 11.47 21.73 9.33 7.242-1.32 11.588-6.302 4.49-5.153 4.49-12.087 0-7.37-3.766-11.738-3.62-4.396-10.574-7.607l-10.864-5.1q-8.547-3.93-13.037-9.468-4.49-5.683-4.49-15.65 0-11.847 7.676-21.047 7.823-9.228 20.135-11.472 14.776-2.693 26.51 8.603l-7.678 10.357q-9.416-8.685-18.687-6.995-6.084 1.11-10.14 5.894-4.056 4.64-4.056 10.996 0 6.5 3.187 10.254 3.187 3.61 11.3 7.33l10.573 4.863q8.692 4.048 13.182 9.875 4.635 5.8 4.635 16.636 0 12.57-8.257 22.453-8.257 9.74-21.73 12.196zM382.704 187.875q-16.224 2.957-26.654-9.3-10.43-12.256-10.43-39.848 0-27.45 10.575-43.823 10.72-16.4 26.943-19.358 13.472-2.456 23.467 7.568l-8.112 10.003q-6.664-7.165-14.92-5.66-10.14 1.85-16.948 14.214-6.664 12.34-6.664 34.01 0 22.247 6.52 32.182 6.663 9.765 17.527 7.784 8.98-1.637 16.224-12.492l8.113 6.756q-10.864 15.27-25.64 17.965zM468.168 157.848q-8.546 16.005-23.032 18.646-14.485 2.64-23.032-10.248-8.546-12.89-8.546-40.626 0-27.45 8.546-43.02 8.547-15.715 23.032-18.356 14.486-2.64 23.032 9.96 8.547 12.454 8.547 39.903 0 27.737-8.547 43.74zm-40.56-34.79q0 44.64 17.528 41.445 17.528-3.195 17.528-47.835 0-43.628-17.528-40.433-17.527 3.195-17.527 46.823zM490.33 166.52V57.74l13.763-2.51 11.01 41.91 3.91 17.346.58-.105 4.055-18.797 10.864-45.898 13.906-2.535v108.782l-11.443 2.086V96.62q0-5.344 1.16-19.424 1.158-14.08 1.158-14.225l-.58.107-5.215 23.92-10.72 42.983-7.242 1.32-10.574-39.1-5.65-21.94-.58.105q.146 1.852 1.305 14.787 1.303 12.764 1.303 17.965v61.397l-11.01 2.007z" style="-inkscape-font-specification:NasuM"/>
    </g>
    <g fill="#ec9727" stroke-width="4" style="line-height:125%" font-size="115.79232788px" font-family="Yu Gothic UI" letter-spacing="0px" stroke-linecap="round" stroke-linejoin="round" font-weight="bold">
      <path d="M316.67 314.787l-13.97 2.935q-.785.15-.98-.073-.148-.234-.148-1.147v-9.52q0-.98.147-1.203.195-.298.98-.448l13.97-2.414 15.244-2.92v-13.107l-6.225 1.193-12.942 2.738q-.833.16-.98-.072-.147-.233-.147-1.146v-9.26q0-1.043.197-1.277.196-.233.93-.374l12.942-2.215 6.224-1.192V263.74l-6.52 1.248-13.038 2.757q-.882.17-1.078-.054-.147-.167-.147-1.014l.197-14.907V222.16l-.196-14.505q0-1.11.197-1.342.245-.243 1.03-.393l13.038-2.236 23.872-4.57 13.137-2.776q.784-.15.98.073.147.233.147 1.21l-.195 14.582v29.607l.196 14.83q0 1.306-1.126 1.52l-13.137 2.256-7.304 1.398v11.543l7.598-1.456 12.99-2.747q.785-.15.932.082.147.232.147 1.145v9.26q0 .978-.197 1.277-.147.224-.882.364l-12.99 2.227-7.597 1.454v13.108l11.52-2.205 13.87-2.917q.786-.15.933.083.147.232.147 1.145v9.523q0 .978-.196 1.21-.147.29-.883.43l-13.872 2.396-36.812 7.047zm37.106-66.45v-14.282l-11.813 2.262V250.6l11.813-2.263zm0-38.737l-11.813 2.262v13.5l11.813-2.263v-13.5zm-32.99 45.053l11.128-2.13V238.24l-11.127 2.13v14.283zm0-25.238l11.128-2.13v-13.5l-11.127 2.13v13.5zm-12.057 44.242q-.1 1.91-.1 4.127 0 2.152.1 4.546.048 1.295.048 1.882 0 1.826-.392 2.553-.344.718-2.157 2.5-9.217 8.22-21.716 16.94-2.745 2.09-3.088 2.613-.883 1.08-1.618 1.222-.784.15-1.323-1.507-1.128-4.22-2.5-12.043 3.774-1.57 9.46-5.006l2.892-1.858v-29.02l-8.823 1.95q-.784.15-.98-.074-.147-.233-.147-1.146v-9.65q0-1.11.196-1.408.196-.234.93-.374l8.824-1.43v-23.54l-.588.11-9.46 2.14q-.688.13-.884-.093-.098-.24-.098-1.22v-9.782q0-1.108.196-1.407.147-.222.785-.344l9.46-1.55 10.44-2 9.41-2.062q.835-.16.982.138.147.233.147 1.21v9.783q0 1.043-.197 1.342-.196.233-.932.374l-9.312 1.458v23.542l8.04-1.8q.734-.14.88.092.1.242.1 1.286v9.65q0 1.045-.148 1.27-.147.222-.833.354l-8.04 1.278v23.803q6.373-5.133 10.442-8.846zM392.256 232.82l-12.745 2.7q-.832.16-.98-.14-.147-.232-.147-1.275V223.15q0-1.044.196-1.278.196-.233.93-.374l12.746-2.18 22.99-4.4q.293-5.6.49-18.158v-3.13q0-6.718-.49-12.232 7.94-1.195 11.518-1.162 1.814.174 1.814 1.544 0 1.173-.588 2.916-.785 1.977-.932 9.504-.196 12.624-.588 18.57l25.882-4.956 12.793-2.71q.785-.15.932.082.147.233.147 1.146v10.956q0 1.173-.196 1.472-.196.233-.883.364l-12.793 2.19-23.97 4.588q5.147 20.666 16.127 33.954 10.146 12.21 24.018 16.597-3.48 5.1-5.834 11.16-1.323 3.58-2.107 3.73-.44.083-2.304-.93-25.244-13.1-35.734-47.09-1.423 6.728-3.825 13.58-9.95 29.098-32.107 47.818-1.91 1.41-2.4 1.504-.835.16-2.305-2.624-2.157-3.89-5.735-7.315 22.99-16.205 32.548-43.012 3.774-10.83 5.392-24.64l-21.862 4.186zM570.485 208.152q-1.96 3.44-3.774 9.983-.882 3.756-1.715 3.915-.294.057-2.206-.49-11.96-5.015-21.52-16.097v9.39q0 1.044-.196 1.277-.196.234-.98.384l-10.05 1.663-13.773 2.637-9.998 2.175q-.785.15-.98-.074-.148-.233-.148-1.146v-5.738q-9.117 12.44-21.666 22.734-1.96 1.42-2.402 1.503-.686.13-1.813-2.85-1.52-3.817-3.726-6.655 8.43-5.788 15.44-13.13-2.45-3.704-5.39-6.793-.49-.56-.49-.95 0-.522.88-1.538l3.628-4.282q.736-.923.98-.97.393-.075 1.03.586 3.137 2.725 5.686 6.345 2.55-3.227 4.658-6.63-2.55-3.36-5.54-6.374-.49-.494-.49-.885 0-.457.883-1.604l3.236-4.27q.736-.99 1.128-1.064.343-.066.98.4 2.94 2.37 5 4.976 3.43-6.656 5.735-12.9l-12.648 2.42q-7.107 12.97-16.176 23.51-1.96 2.135-2.303 2.2-.59.113-1.912-2.568-1.568-3.025-3.92-5.25 12.695-12.146 20.685-30.5 1.372-3.264 2.794-8.95 4.46.125 8.626.828 1.422.314 1.422 1.358 0 .52-1.08 2.228-.685.98-2.4 5.286l8.332-1.596q2.255-.432 2.696-.973 1.177-.746 1.373-.784 1.224-.234 3.92 2.837 1.324 1.507 1.716 2.084-1.47-4.804-2.304-8.753-.147-.624-.147-.95 0-.782.93-1.22l6.57-3.215q.588-.31.833-.356.588-.112.834 1.08 4.166 17.267 12.744 28.798 5.098-7.498 8.97-16.39l-5.146.984-8.628 1.913q-.784.15-.93-.082-.148-.232-.148-1.21v-8.218q0-1.173.196-1.472.196-.233.882-.364l8.628-1.39 7.254-1.39q1.716-.33 2.5-.87.785-.672 1.324-.775 1.47-.283 4.313 2.89 2.795 2.987 2.795 4.682 0 1.24-1.225 2.648-.294.317-3.382 6.517-4.51 9.667-10.93 19.83 8.92 8.27 20.537 11.655zm-46.47-29.254q-.39.4-4.116 9.984-4.413 11.54-11.03 21.61 1.617-.18 7.4-1.286l13.775-2.637 10.245-2.224q-9.558-11.473-15.147-27.555-.147 1.138-1.127 2.108zM500.93 246.25l-13.776 2.898q-.784.15-.93-.082-.148-.233-.148-1.146v-9.39q0-1.044.196-1.277.196-.234.882-.365l13.775-2.376 45.144-8.644 13.774-2.898q.785-.15.932.083.147.233.147 1.146v9.39q0 .978-.196 1.276-.146.224-.882.365l-13.774 2.377-17.45 3.34v10.435l.294 15.27q0 7.173-3.235 10.792-2.598 2.91-13.92 5.078-2.5.48-2.894.098-.442-.438-.736-2.86-.686-5.41-2.402-9.844 4.07.004 8.628-.87 2.45-.468 3.235-1.727.588-1.026.588-3.244v-21.13l-17.254 3.304zm65.88 10.082q-2.697 4.038-4.756 9.323-1.078 3.01-1.96 3.18-.736.14-2.255-.743-11.668-6.114-19.315-18.084-.392-.577-.392-.903 0-.522.932-1.482l5.343-5.458q.833-.812 1.225-.887.294-.056.882.614 7.06 8.757 20.294 14.44zm-67.597-5.906q2.55.882 8.333 4.274 1.225.548 1.225 1.918 0 1.108-1.322 2.405-.93.765-2.5 3.414-6.127 10.498-15.98 19.232-1.47 1.455-2.206 1.595-.882.17-2.205-2.512-2.108-4.227-4.608-6.357 9.557-7.373 16.077-17.1 2.01-3.058 3.186-6.87zM621.856 251.923l-44.116 8.446v-7.24q0-4.434.93-8.46.933-4.09 2.5-7.783 1.57-3.756 3.677-7.16 2.108-3.468 4.51-6.732 2.402-3.33 4.902-6.417 2.5-3.152 4.9-6.286 2.256-2.975 4.118-5.745 1.863-2.834 3.186-5.696 1.324-2.86 2.06-5.872.734-3.075.734-6.466 0-3.717-.882-6.287-.833-2.645-2.402-4.17-1.52-1.6-3.627-2.11-2.108-.575-4.608-.097-4.314.826-8.775 4.354-4.46 3.528-8.578 9.664v-14.543q2.157-2.565 4.362-4.553 2.205-2.052 4.558-3.546 2.353-1.56 4.95-2.578 2.6-1.02 5.54-1.582 4.755-.91 8.627.043 3.873.89 6.618 3.625 2.745 2.67 4.215 7.214 1.52 4.535 1.52 10.795 0 5.675-1.08 10.446-1.028 4.697-2.99 8.986-1.91 4.278-4.656 8.326-2.745 4.047-6.127 8.41-2.843 3.61-5.686 7.09-2.795 3.404-5.05 6.64-2.255 3.17-3.676 6.247-1.373 3.002-1.373 5.806v.327l31.716-6.072v12.978zM655.728 247.003q-10.98 2.103-17.157-8.65-6.126-10.76-6.126-33.325 0-24.78 6.42-38.727 6.423-13.945 18.53-16.263 23.186-4.44 23.186 43.493 0 23.738-6.57 37.517-6.518 13.704-18.282 15.956zm1.127-84.8q-12.794 2.45-12.794 39.95 0 35.084 12.55 32.682 12.352-2.365 12.352-38.037 0-36.912-12.107-34.594zM714.45 138.59v95.605l-11.37 2.178V159.29q-3.09 3.525-6.667 6.297-3.53 2.697-8.088 5.135V157.81q2.843-1.784 5.49-3.66 2.647-1.876 5.196-4.06 2.598-2.193 5.196-4.777 2.647-2.594 5.44-5.802l4.805-.92zM776.9 192.175q0 7.044-1.764 13.185-1.716 6.133-4.804 10.963-3.088 4.765-7.353 7.93-4.216 3.09-9.167 4.037-5.294 1.013-9.755-.872-4.412-1.894-7.647-6.687-3.185-4.802-4.95-12.486-1.764-7.75-1.764-18.378 0-12.978 2.304-23.462 2.353-10.494 6.42-18.055 4.07-7.562 9.56-12.135 5.49-4.573 11.862-5.793 3.97-.76 7.206-.662 3.284.09 5.244.953v13.63q-2.5-1.218-5.342-1.847-2.844-.63-6.52.074-4.117.788-7.598 3.672-3.48 2.884-6.03 7.676-2.5 4.717-3.97 11.325-1.42 6.532-1.47 14.76l.294-.057q2.255-5.062 6.078-8.468 3.873-3.415 9.07-4.41 4.606-.882 8.283.436 3.725 1.243 6.323 4.528 2.647 3.21 4.07 8.35 1.42 5.076 1.42 11.793zm-11.47 3.435q0-4.043-.735-7.228-.687-3.195-2.157-5.26-1.422-2.14-3.627-3.023-2.156-.893-5.097-.33-2.94.563-5.196 2.43-2.206 1.792-3.726 4.365-1.518 2.573-2.302 5.658-.736 3.076-.736 6.14 0 3.327.687 6.717.734 3.315 2.204 5.903 1.47 2.588 3.726 4.048 2.304 1.386 5.44.785 2.795-.535 4.952-2.317 2.156-1.783 3.578-4.468 1.47-2.694 2.206-6.096.784-3.476.784-7.324z" style="-inkscape-font-specification:'Yu Gothic UI Bold'"/>
    </g>
    <g fill="#cb5d6a" stroke="#cb5d6a" stroke-width="0.99936908" style="line-height:125%;text-align:end" font-size="40px" font-family="sans-serif" letter-spacing="-2.64577842px" text-anchor="end" font-weight="bold" stroke-linejoin="round">
      <path d="M-65.934 614.17q1.25 0 2.03-.78.783-.783.783-2.033t-.783-2.03q-.78-.782-2.03-.782-1.25 0-2.032.78-.78.782-.78 2.032t.78 2.032q.78.78 2.03.78zm0 1.562q-1.875 0-3.125-1.25t-1.25-3.125q0-1.875 1.25-3.125t3.126-1.25q1.875 0 3.125 1.25t1.25 3.125q0 1.875-1.25 3.125t-3.124 1.25zm-27.97 2.032v-3.438h23.126l4.063 2.97q-.78 18.905-21.406 24.686l-2.814-3.437q19.53-4.53 20.47-20.78h-23.44zM-30.767 638.39h-3.594v-1.72h-17.345v2.5h-3.593v-24.375h24.53v23.594zm-20.938-20.158v15h17.344v-15h-17.345zM5.493 619.64q-2.968 17.03-19.53 24.374l-2.813-2.97q15.312-6.25 18.437-21.562h-12.5q-3.594 5.938-7.5 9.532l-3.125-2.032q8.125-7.343 10.47-17.187l3.593 1.25q.937.47-.313.937-.625 2.032-1.72 4.063h11.25l1.408-.78 2.812 2.81q1.094 1.095-.47 1.564zm.938-3.75q-2.5-3.595-4.843-5.47l2.03-1.72q2.658 2.345 5 5.47l-2.186 1.72zm4.532-1.876q-2.5-3.125-4.53-5l1.874-1.875q2.344 2.186 4.53 5l-1.874 1.874zM23.785 641.2q15.156-3.905 17.03-16.405h-23.75v-3.438h23.907l1.407-.468 2.81 1.717q.94.782-.31 1.407-2.5 15.625-18.283 20.312l-2.812-3.125zm17.656-25.31H19.88v-3.44h21.56v3.44zM77.39 630.89q-6.563-2.814-17.657-4.533l.47-3.75q9.686 1.094 18.28 4.375l-1.094 3.907zm1.874 11.405q-12.03-4.53-21.406-5.78l.78-4.064q12.19 1.72 21.72 5.626l-1.094 4.22zm-19.687-30q12.812 1.406 18.437 3.594l-.937 4.06q-7.813-2.81-17.97-3.593l.47-4.062zM123.337 622.92q-8.28 17.187-27.812 18.125-.782 2.03-1.563.312l-1.25-4.062q20.313-.47 27.344-16.72l3.28 2.345zm-22.03 0q-4.22-3.906-7.97-6.406l2.656-3.282q3.282 2.032 8.282 6.72l-2.97 2.968zM154.91 619.64q-2.97 17.03-19.53 24.374l-2.814-2.97q15.313-6.25 18.438-21.562h-12.5q-3.594 5.938-7.5 9.532l-3.125-2.032q8.124-7.343 10.468-17.187l3.593 1.25q.94.47-.31.937-.626 2.032-1.72 4.063h11.25l1.406-.78 2.813 2.81q1.093 1.095-.47 1.564zm.938-3.75q-2.5-3.595-4.844-5.47l2.03-1.72q2.657 2.345 5 5.47l-2.186 1.72zm4.53-1.876q-2.5-3.125-4.53-5l1.875-1.875q2.343 2.186 4.53 5l-1.874 1.874zM39.722 670.264h9.22v3.437h-9.063v2.97q0 11.72-12.345 16.72l-2.5-2.814q11.25-3.75 11.25-13.594v-3.28H25.972l.157 7.968h-3.44l-.155-7.97h-8.75v-3.436h8.75l-.156-8.282h3.28q1.562.157.156 1.563l.156 6.72H36.13v-9.533h3.436q1.563.157.156 1.563v7.97zM51.295 678.232v-3.437H86.14v3.437H51.294zM117.556 669.64q-2.97 17.03-19.53 24.374l-2.814-2.97q15.313-6.25 18.438-21.562h-12.5q-3.594 5.938-7.5 9.532l-3.125-2.032q8.125-7.343 10.468-17.187l3.594 1.25q.938.47-.312.937-.625 2.032-1.72 4.063h11.25l1.407-.78 2.813 2.81q1.093 1.095-.47 1.564zM146.94 686.514q6.876-2.657 12.658-10.625l2.187 2.967q-5.937 8.125-15 11.72l-1.25.624-2.5-1.874.313-.78v-25.157h3.28q1.407.31.313 1.25v21.874zm-20.936 4.218q7.812-7.5 7.812-18.593v-7.033h3.282q1.406.313.312 1.25v5.625q0 13.125-8.28 20.782l-3.126-2.032z" style="-inkscape-font-specification:'sans-serif Bold'" transform="matrix(.693 -.106 0 .904 142.177 -305.588)"/>
    </g>
    <g fill="#3fb8ec" stroke-width="1px" style="line-height:125%" font-size="40px" font-family="NasuM" letter-spacing="0px">
      <path d="M147.458 229.025V132.09l-26.074 4.752v-11.846l65.764-11.99v11.847l-25.93 4.727v96.936l-13.76 2.51zM228.432 215.997q-28.247 5.15-28.247-29.955v-75.41l13.907-2.536v75.844q0 22.825 14.34 20.21 15.355-2.798 15.355-25.623v-75.845l13.327-2.43v75.412q0 18.49-7.823 28.296-7.82 9.66-20.858 12.037zM301.44 202.69q-17.818 3.247-30.565-10.32l8.836-11.002q9.996 11.47 21.73 9.33 7.242-1.32 11.588-6.302 4.49-5.153 4.49-12.087 0-7.37-3.766-11.738-3.62-4.396-10.574-7.607l-10.864-5.1q-8.547-3.93-13.037-9.468-4.49-5.683-4.49-15.65 0-11.847 7.676-21.047 7.823-9.228 20.135-11.472 14.776-2.693 26.51 8.603l-7.678 10.357q-9.416-8.685-18.687-6.995-6.084 1.11-10.14 5.894-4.056 4.64-4.056 10.996 0 6.5 3.187 10.254 3.187 3.61 11.3 7.33l10.573 4.863q8.692 4.048 13.182 9.875 4.635 5.8 4.635 16.636 0 12.57-8.257 22.453-8.257 9.74-21.73 12.196zM382.704 187.875q-16.224 2.957-26.654-9.3-10.43-12.256-10.43-39.848 0-27.45 10.575-43.823 10.72-16.4 26.943-19.358 13.472-2.456 23.467 7.568l-8.112 10.003q-6.664-7.165-14.92-5.66-10.14 1.85-16.948 14.214-6.664 12.34-6.664 34.01 0 22.247 6.52 32.182 6.663 9.765 17.527 7.784 8.98-1.637 16.224-12.492l8.113 6.756q-10.864 15.27-25.64 17.965zM468.168 157.848q-8.546 16.005-23.032 18.646-14.485 2.64-23.032-10.248-8.546-12.89-8.546-40.626 0-27.45 8.546-43.02 8.547-15.715 23.032-18.356 14.486-2.64 23.032 9.96 8.547 12.454 8.547 39.903 0 27.737-8.547 43.74zm-40.56-34.79q0 44.64 17.528 41.445 17.528-3.195 17.528-47.835 0-43.628-17.528-40.433-17.527 3.195-17.527 46.823zM490.33 166.52V57.74l13.763-2.51 11.01 41.91 3.91 17.346.58-.105 4.055-18.797 10.864-45.898 13.906-2.535v108.782l-11.443 2.086V96.62q0-5.344 1.16-19.424 1.158-14.08 1.158-14.225l-.58.107-5.215 23.92-10.72 42.983-7.242 1.32-10.574-39.1-5.65-21.94-.58.105q.146 1.852 1.305 14.787 1.303 12.764 1.303 17.965v61.397l-11.01 2.007z" style="-inkscape-font-specification:NasuM"/>
    </g>
  </g>
</svg>
