<?xml version="1.0" encoding="UTF-8" standalone="no"?>
<!-- Created with Inkscape (http://www.inkscape.org/) -->

<svg
   xmlns:dc="http://purl.org/dc/elements/1.1/"
   xmlns:cc="http://creativecommons.org/ns#"
   xmlns:rdf="http://www.w3.org/1999/02/22-rdf-syntax-ns#"
   xmlns:svg="http://www.w3.org/2000/svg"
   xmlns="http://www.w3.org/2000/svg"
   xmlns:sodipodi="http://sodipodi.sourceforge.net/DTD/sodipodi-0.dtd"
   xmlns:inkscape="http://www.inkscape.org/namespaces/inkscape"
   width="800"
   height="600"
   id="svg4138"
   version="1.1"
   inkscape:version="0.91 r13725"
   viewBox="0 0 800 600"
   sodipodi:docname="logo.svg">
  <defs
     id="defs4140" />
  <sodipodi:namedview
     id="base"
     pagecolor="#ffffff"
     bordercolor="#666666"
     borderopacity="1.0"
     inkscape:pageopacity="0.0"
     inkscape:pageshadow="2"
     inkscape:zoom="0.70710678"
     inkscape:cx="406.34825"
     inkscape:cy="101.24658"
     inkscape:current-layer="layer2"
     inkscape:document-units="px"
     showgrid="true"
     showguides="false"
     inkscape:window-width="1474"
     inkscape:window-height="841"
     inkscape:window-x="54"
     inkscape:window-y="-8"
     inkscape:window-maximized="1"
     inkscape:snap-object-midpoints="false"
     inkscape:snap-center="false"
     inkscape:snap-grids="false"
     inkscape:snap-to-guides="false">
    <inkscape:grid
       type="xygrid"
       id="grid4686" />
  </sodipodi:namedview>
  <metadata
     id="metadata4143">
    <rdf:RDF>
      <cc:Work
         rdf:about="">
        <dc:format>image/svg+xml</dc:format>
        <dc:type
           rdf:resource="http://purl.org/dc/dcmitype/StillImage" />
        <dc:title></dc:title>
      </cc:Work>
    </rdf:RDF>
  </metadata>
  <g
     id="layer1"
     inkscape:label="Layer 1"
     inkscape:groupmode="layer" />
  <g
     inkscape:groupmode="layer"
     id="layer2"
     inkscape:label="TUSCOM">
    <path
       style="fill:#cb6285;fill-opacity:1;stroke:none;stroke-width:20;stroke-linecap:round;stroke-linejoin:round;stroke-miterlimit:4;stroke-dasharray:none;stroke-opacity:1"
       d="m 60,160 0,18.7868 c 38.659932,0 70,35.81722 70,80 -0.022,3.34475 -0.22743,29.07636 -0.61523,32.39171 l 19.4375,0 0,-111.21407 43.53475,0 0,-19.96444 z"
       id="rect4689"
       inkscape:connector-curvature="0"
       sodipodi:nodetypes="ccccccccc" />
    <path
       style="fill:#cb6285;fill-opacity:1;stroke:none;stroke-width:20;stroke-linecap:round;stroke-linejoin:round;stroke-miterlimit:4;stroke-dasharray:none;stroke-opacity:1"
       d="M 200 160 L 200 245 L 200.07617 245 A 42.5 42.5 0 0 0 200 247.13086 A 42.5 42.5 0 0 0 242.5 289.63086 A 42.5 42.5 0 0 0 285 247.13086 A 42.5 42.5 0 0 0 284.89258 245 L 285 245 L 285 160 L 266.04883 160 L 266.04883 245.10938 L 266.03711 245.10938 A 23.643818 23.643818 0 0 1 266.14453 247.13086 A 23.643818 23.643818 0 0 1 242.5 270.77539 A 23.643818 23.643818 0 0 1 218.85547 247.13086 A 23.643818 23.643818 0 0 1 218.95508 245.10938 L 218.95312 245.10938 L 218.95312 160 L 200 160 z "
       id="path4734" />
    <circle
       style="fill:#cb6285;fill-opacity:1;stroke:none;stroke-width:20;stroke-linecap:round;stroke-linejoin:round;stroke-miterlimit:4;stroke-dasharray:none;stroke-opacity:1"
       id="path4734-7"
       cx="344.60577"
       cy="383.49661"
       r="42.5" />
    <circle
       style="fill:#a02c2c;fill-opacity:1;stroke:none;stroke-width:20;stroke-linecap:round;stroke-linejoin:round;stroke-miterlimit:4;stroke-dasharray:none;stroke-opacity:1"
       id="path4734-2-3"
       cx="425.02182"
       cy="384.97845"
       r="23.643818" />
    <path
       style="fill:#cb6285;fill-opacity:1;stroke:none;stroke-width:20;stroke-linecap:round;stroke-linejoin:round;stroke-miterlimit:4;stroke-dasharray:none;stroke-opacity:1"
       d="m 335.34216,154.72344 a 44.404955,40.209992 3.9980059 0 0 -35.8047,46.279 44.404955,40.209992 3.9980059 0 0 45.66717,33.55532 l 0.02,0.10023 a 24.703593,22.369829 3.9980058 0 1 22.36771,18.59216 24.703593,22.369829 3.9980058 0 1 -19.91966,25.74695 24.703593,22.369829 3.9980058 0 1 -28.68359,-18.41306 24.703593,22.369829 3.9980058 0 1 -0.0666,-0.47087 l -19.3875,2.92547 a 44.404955,40.209992 3.9980059 0 0 0.0746,0.46965 44.404955,40.209992 3.9980059 0 0 51.55748,33.09667 44.404955,40.209992 3.9980059 0 0 35.80469,-46.279 44.404955,40.209992 3.9980059 0 0 -44.42609,-33.59418 24.703593,22.369829 3.9980058 0 1 -23.62668,-18.65389 24.703593,22.369829 3.9980058 0 1 19.91763,-25.74666 24.703593,22.369829 3.9980058 0 1 28.68361,18.41307 24.703593,22.369829 3.9980058 0 1 0.1997,1.41258 l 19.40355,-2.92786 a 44.404955,40.209992 3.9980059 0 0 -0.22379,-1.40893 44.404955,40.209992 3.9980059 0 0 -51.55748,-33.09668 z"
       id="path4734-7-5"
       inkscape:connector-curvature="0" />
  </g>
</svg>
