<?xml version="1.0" encoding="UTF-8" standalone="no"?>
<svg
   xmlns:dc="http://purl.org/dc/elements/1.1/"
   xmlns:cc="http://creativecommons.org/ns#"
   xmlns:rdf="http://www.w3.org/1999/02/22-rdf-syntax-ns#"
   xmlns:svg="http://www.w3.org/2000/svg"
   xmlns="http://www.w3.org/2000/svg"
   xmlns:sodipodi="http://sodipodi.sourceforge.net/DTD/sodipodi-0.dtd"
   xmlns:inkscape="http://www.inkscape.org/namespaces/inkscape"
   viewBox="0 0 1700.375 139.8"
   id="svg2"
   version="1.1"
   inkscape:version="0.91 r13725"
   sodipodi:docname="code-1.svg"
   width="1700.375"
   height="139.8">
  <metadata
     id="metadata24">
    <rdf:RDF>
      <cc:Work
         rdf:about="">
        <dc:format>image/svg+xml</dc:format>
        <dc:type
           rdf:resource="http://purl.org/dc/dcmitype/StillImage" />
        <dc:title></dc:title>
      </cc:Work>
    </rdf:RDF>
  </metadata>
  <defs
     id="defs22" />
  <sodipodi:namedview
     pagecolor="#ffffff"
     bordercolor="#666666"
     borderopacity="1"
     objecttolerance="10"
     gridtolerance="10"
     guidetolerance="10"
     inkscape:pageopacity="0"
     inkscape:pageshadow="2"
     inkscape:window-width="1474"
     inkscape:window-height="841"
     id="namedview20"
     showgrid="false"
     fit-margin-left="600"
     fit-margin-top="0"
     fit-margin-right="68"
     fit-margin-bottom="0"
     inkscape:zoom="0.5143475"
     inkscape:cx="1116.188"
     inkscape:cy="69.899995"
     inkscape:window-x="54"
     inkscape:window-y="-8"
     inkscape:window-maximized="1"
     inkscape:current-layer="svg2" />
  <g
     id="g4"
     style="fill:#ffffff;fill-opacity:0.78399999"
     transform="translate(600,0)">
    <g
       style="font-weight:bold;font-size:40px;line-height:125%;font-family:'Source Han Code JP';letter-spacing:0;word-spacing:0"
       font-size="40"
       letter-spacing="0"
       word-spacing="0"
       font-weight="bold"
       id="g6">
      <path
         d="m 22.12,2.52 c -1.88,-0.68 -4.16,-1.2 -6.56,-1.2 -6.76,0 -9.68,3.88 -9.68,9 l 0,0.76 -5.88,0.28 0,4.48 5.88,0 0,17.2 6.04,0 0,-17.2 7.84,0 0,-4.76 -7.84,0 0,-0.8 c 0,-2.84 1.36,-4.2 4.32,-4.2 1.72,0 3.24,0.32 4.68,0.88 l 1.2,-4.44 z m 3,19.56 c 0,7.28 5.32,11.48 11.12,11.48 5.8,0 11.12,-4.2 11.12,-11.48 0,-7.32 -5.32,-11.52 -11.12,-11.52 -5.8,0 -11.12,4.2 -11.12,11.52 z m 6.2,0 c 0,-4 1.72,-6.64 4.92,-6.64 3.2,0 4.92,2.64 4.92,6.64 0,4 -1.72,6.6 -4.92,6.6 -3.2,0 -4.92,-2.6 -4.92,-6.6 z m 23.677,10.96 6.04,0 0,-11.64 c 2,-4.08 4.88,-5.52 7.68,-5.52 1.6,0 2.52,0.24 3.92,0.68 l 1.24,-5.12 c -1.28,-0.56 -2.36,-0.88 -4.24,-0.88 -3.6,0 -6.88,1.84 -9.04,5.4 l -0.16,0 -0.48,-4.88 -4.96,0 0,21.96 z m 65.798,7.92 3.36,-2.72 c -5.44,-5.12 -7.76,-10.48 -7.76,-17.56 0,-7.08 2.32,-12.4 7.76,-17.52 l -3.36,-2.72 c -5.84,5.04 -9.48,11.88 -9.48,20.24 0,8.4 3.64,15.24 9.48,20.28 z"
         style="-inkscape-font-specification:'Source Han Code JP Bold'"
         id="path8"
         inkscape:connector-curvature="0" />
      <path
         d="m 133.354,15.84 9.08,0 0,17.2 6.04,0 0,-21.96 -15.12,0 0,4.76 z m 11.8,-8.2 c 2.36,0 4.08,-1.48 4.08,-3.76 0,-2.28 -1.72,-3.88 -4.08,-3.88 -2.4,0 -4.12,1.6 -4.12,3.88 0,2.28 1.72,3.76 4.12,3.76 z m 14.718,25.4 6.04,0 0,-14.76 c 1.72,-1.68 2.96,-2.56 4.88,-2.56 2.56,0 3.52,1.4 3.52,4.56 l 0,12.76 6.04,0 0,-13.56 c 0,-5.6 -2.24,-8.92 -7.2,-8.92 -3.32,0 -5.76,1.64 -7.72,3.6 l -0.16,0 -0.48,-3.08 -4.92,0 0,21.96 z m 31.358,-9 c 0,5.68 2.4,9.52 9.24,9.52 2.76,0 5.2,-0.56 7.16,-1.2 L 206.51,28 c -1.36,0.48 -2.8,0.8 -4.52,0.8 -3.36,0 -4.72,-1.4 -4.72,-4.84 l 0,-8.12 9.52,0 0,-4.76 -9.52,0 0,-5.88 -5.04,0 -0.76,5.88 -5.88,0.28 0,4.48 5.64,0 0,8.2 z"
         style="-inkscape-font-specification:'Source Han Code JP Bold';fill:#909060"
         id="path10"
         inkscape:connector-curvature="0" />
      <path
         d="m 240.23,15.84 9.08,0 0,17.2 6.04,0 0,-21.96 -15.12,0 0,4.76 z m 11.8,-8.2 c 2.36,0 4.08,-1.48 4.08,-3.76 0,-2.28 -1.72,-3.88 -4.08,-3.88 -2.4,0 -4.12,1.6 -4.12,3.88 0,2.28 1.72,3.76 4.12,3.76 z m 41.316,7.8 20.16,0 0,-4.32 -20.16,0 0,4.32 z m 0,10.2 20.16,0 0,-4.32 -20.16,0 0,4.32 z m 63.518,7.92 c 6.48,0 10.72,-5.2 10.72,-14.76 0,-9.56 -4.24,-14.52 -10.72,-14.52 -6.48,0 -10.72,4.96 -10.72,14.52 0,9.56 4.24,14.76 10.72,14.76 z m 0,-24.6 c 3,0 5.32,2.36 5.32,9.84 0,7.48 -2.32,10.08 -5.32,10.08 -3,0 -5.32,-2.6 -5.32,-10.08 0,-7.48 2.32,-9.84 5.32,-9.84 z m 0,13.04 c 1.8,0 3.24,-1.28 3.24,-3.32 0,-2 -1.44,-3.28 -3.24,-3.28 -1.8,0 -3.24,1.28 -3.24,3.28 0,2.04 1.44,3.32 3.24,3.32 z m 26.718,-3.04 c 2.88,0 4.88,-2.16 4.88,-4.96 0,-2.8 -2,-4.96 -4.88,-4.96 -2.88,0 -4.88,2.16 -4.88,4.96 0,2.8 2,4.96 4.88,4.96 z m -3.6,23.68 c 5.92,-1.88 9.12,-5.84 9.12,-11.4 0,-4.56 -1.84,-7.28 -5.28,-7.28 -2.64,0 -4.76,1.68 -4.76,4.32 0,2.84 2.16,4.4 4.6,4.4 0.16,0 0.36,0 0.52,-0.04 -0.04,2.88 -1.92,5.04 -5.72,6.44 l 1.52,3.56 z m 47.278,-26.8 9.08,0 0,17.2 6.04,0 0,-21.96 -15.12,0 0,4.76 z m 11.8,-8.2 c 2.36,0 4.08,-1.48 4.08,-3.76 0,-2.28 -1.72,-3.88 -4.08,-3.88 -2.4,0 -4.12,1.6 -4.12,3.88 0,2.28 1.72,3.76 4.12,3.76 z m 43.277,12.76 17.04,11.12 0,-5.52 -12.04,-7.6 0,-0.2 12.04,-7.6 0,-5.52 -17.04,11.12 0,4.2 z"
         style="-inkscape-font-specification:'Source Han Code JP Bold'"
         id="path12"
         inkscape:connector-curvature="0" />
      <path
         d="m 532.335,33.04 5.72,0 0,-15 c 0.68,-1.56 1.32,-2.32 2.24,-2.32 0.96,0 1.48,0.76 1.48,2.32 l 0,15 4.64,0 0,-15 c 0.68,-1.56 1.44,-2.32 2.36,-2.32 1,0 1.4,0.76 1.4,2.32 l 0,15 5.72,0 0,-15.44 c 0,-4.4 -1.8,-7.04 -4.88,-7.04 -2.44,0 -4,1.6 -4.88,3.6 -0.48,-2.36 -1.92,-3.6 -3.88,-3.6 -2.52,0 -3.84,1.44 -4.76,3.32 l -0.16,0 -0.44,-2.8 -4.56,0 0,21.96 z M 560.175,27 c 0,3.76 2.84,6.56 7.24,6.56 2.88,0 5.68,-1.4 7.92,-3.08 l 0.16,0 0.44,2.56 4.96,0 0,-12.72 c 0,-6.52 -3.6,-9.76 -9.72,-9.76 -3.76,0 -7.32,1.28 -10.2,3 l 2.16,3.96 c 2.4,-1.24 4.64,-2.12 6.84,-2.12 3.16,0 4.68,1.4 4.88,3.52 -10.52,0.72 -14.68,3.16 -14.68,8.08 z m 5.8,-0.44 c 0,-2.08 1.92,-3.52 8.88,-3.92 l 0,3.96 c -1.72,1.32 -3.52,2.28 -5.56,2.28 -1.96,0 -3.32,-0.76 -3.32,-2.32 z m 19.877,6.48 6.36,0 2.4,-3.84 c 0.68,-1.32 1.44,-2.6 2.16,-3.88 l 0.16,0 c 0.84,1.24 1.76,2.64 2.6,3.84 l 2.72,3.88 6.52,0 -7.76,-10.72 7.28,-11.24 -6.36,0 -2.12,3.76 c -0.64,1.2 -1.36,2.52 -1.96,3.76 l -0.2,0 c -0.72,-1.24 -1.64,-2.52 -2.28,-3.76 l -2.48,-3.76 -6.52,0 7.2,10.56 -7.72,11.4 z"
         style="-inkscape-font-specification:'Source Han Code JP Bold';fill:#c09090"
         id="path14"
         inkscape:connector-curvature="0" />
      <path
         d="m 624.05,18.96 c 2.88,0 4.88,-2.16 4.88,-4.96 0,-2.8 -2,-4.96 -4.88,-4.96 -2.88,0 -4.88,2.16 -4.88,4.96 0,2.8 2,4.96 4.88,4.96 z m -3.6,23.68 c 5.92,-1.88 9.12,-5.84 9.12,-11.4 0,-4.56 -1.84,-7.28 -5.28,-7.28 -2.64,0 -4.76,1.68 -4.76,4.32 0,2.84 2.16,4.4 4.6,4.4 0.16,0 0.36,0 0.52,-0.04 -0.04,2.88 -1.92,5.04 -5.72,6.44 l 1.52,3.56 z m 47.28,-26.8 9.08,0 0,17.2 6.04,0 0,-21.96 -15.12,0 0,4.76 z m 11.8,-8.2 c 2.36,0 4.08,-1.48 4.08,-3.76 0,-2.28 -1.72,-3.88 -4.08,-3.88 -2.4,0 -4.12,1.6 -4.12,3.88 0,2.28 1.72,3.76 4.12,3.76 z m 22.437,21.16 4.48,0 0,-8.28 7.84,0 0,-4.28 -7.84,0 0,-8.28 -4.48,0 0,8.28 -7.84,0 0,4.28 7.84,0 0,8.28 z m 26.72,0 4.48,0 0,-8.28 7.84,0 0,-4.28 -7.84,0 0,-8.28 -4.48,0 0,8.28 -7.84,0 0,4.28 7.84,0 0,8.28 z m 24.558,12.16 c 5.88,-5.04 9.48,-11.88 9.48,-20.28 0,-8.36 -3.6,-15.2 -9.48,-20.24 l -3.36,2.72 c 5.44,5.12 7.76,10.44 7.76,17.52 0,7.08 -2.32,12.44 -7.76,17.56 l 3.36,2.72 z m 55.037,-7.4 c 0,4.76 2.56,6.24 8.24,6.24 l 3.32,0 0,-3.24 -1.92,0 c -3.84,0 -4.68,-0.72 -4.68,-3.28 0,-2.44 0.2,-4.64 0.2,-7.36 0,-3.28 -1.2,-4.6 -4.36,-5.12 l 0,-0.2 c 3.16,-0.52 4.36,-1.84 4.36,-5.12 0,-2.64 -0.2,-5 -0.2,-7.36 0,-2.56 0.84,-3.28 4.68,-3.28 l 1.92,0 0,-3.24 -3.32,0 c -5.68,0 -8.24,1.48 -8.24,6.24 0,3.12 0.44,5 0.44,7.76 0,1.6 -1.32,3.24 -6.16,3.32 l 0,3.56 c 4.84,0.08 6.16,1.72 6.16,3.32 0,2.84 -0.44,4.6 -0.44,7.76 z m -807.482,103 0,3.24 3.32,0 c 5.68,0 8.24,-1.48 8.24,-6.24 0,-3.16 -0.48,-4.92 -0.48,-7.76 0,-1.6 1.32,-3.24 6.16,-3.32 l 0,-3.56 c -4.84,-0.08 -6.16,-1.72 -6.16,-3.32 0,-2.76 0.48,-4.64 0.48,-7.76 0,-4.76 -2.56,-6.24 -8.24,-6.24 l -3.32,0 0,3.24 1.92,0 c 3.8,0 4.64,0.72 4.64,3.28 0,2.36 -0.16,4.72 -0.16,7.36 0,3.28 1.2,4.6 4.36,5.12 l 0,0.2 c -3.16,0.52 -4.36,1.84 -4.36,5.12 0,2.72 0.16,4.92 0.16,7.36 0,2.56 -0.84,3.28 -4.64,3.28 l -1.92,0 z"
         style="-inkscape-font-specification:'Source Han Code JP Bold'"
         id="path16"
         inkscape:connector-curvature="0" />
    </g>
    <path
       d="m 64.34,71.027 c 0.01,10.628 8.57,19.27 13.885,19.347 l 938.61,0.136 c 6.586,0.058 15.54,-8.614 15.54,-19.31 0,-10.7 -8.954,-19.37 -15.226,-19.34 L 79.795,51.77 C 73.012,51.652 64.337,60.326 64.337,71.027 Z"
       id="path18"
       inkscape:connector-curvature="0" />
  </g>
</svg>
