<?xml version="1.0" encoding="UTF-8" standalone="no"?>
<svg
   xmlns:dc="http://purl.org/dc/elements/1.1/"
   xmlns:cc="http://creativecommons.org/ns#"
   xmlns:rdf="http://www.w3.org/1999/02/22-rdf-syntax-ns#"
   xmlns:svg="http://www.w3.org/2000/svg"
   xmlns="http://www.w3.org/2000/svg"
   xmlns:sodipodi="http://sodipodi.sourceforge.net/DTD/sodipodi-0.dtd"
   xmlns:inkscape="http://www.inkscape.org/namespaces/inkscape"
   viewBox="0 0 1700.075 133.56"
   id="svg2"
   version="1.1"
   inkscape:version="0.91 r13725"
   sodipodi:docname="code-5.svg"
   width="1700.075"
   height="133.56">
  <metadata
     id="metadata24">
    <rdf:RDF>
      <cc:Work
         rdf:about="">
        <dc:format>image/svg+xml</dc:format>
        <dc:type
           rdf:resource="http://purl.org/dc/dcmitype/StillImage" />
        <dc:title></dc:title>
      </cc:Work>
    </rdf:RDF>
  </metadata>
  <defs
     id="defs22" />
  <sodipodi:namedview
     pagecolor="#ffffff"
     bordercolor="#666666"
     borderopacity="1"
     objecttolerance="10"
     gridtolerance="10"
     guidetolerance="10"
     inkscape:pageopacity="0"
     inkscape:pageshadow="2"
     inkscape:window-width="1474"
     inkscape:window-height="841"
     id="namedview20"
     showgrid="false"
     fit-margin-left="900"
     fit-margin-right="30"
     fit-margin-top="0"
     fit-margin-bottom="0"
     inkscape:zoom="0.68954234"
     inkscape:cx="1285.038"
     inkscape:cy="66.780001"
     inkscape:window-x="54"
     inkscape:window-y="-8"
     inkscape:window-maximized="1"
     inkscape:current-layer="svg2" />
  <g
     id="g4"
     style="fill:#ffffff;fill-opacity:0.78399999"
     transform="translate(900,0)">
    <g
       style="font-weight:bold;font-size:40px;line-height:125%;font-family:'Source Han Code JP';letter-spacing:0;word-spacing:0"
       font-size="40"
       letter-spacing="0"
       word-spacing="0"
       font-weight="bold"
       id="g6">
      <path
         d="M 23.36,2.52 C 21.48,1.84 19.2,1.32 16.8,1.32 c -6.76,0 -9.68,3.88 -9.68,9 l 0,0.76 -5.88,0.28 0,4.48 5.88,0 0,17.2 6.04,0 0,-17.2 7.84,0 0,-4.76 -7.84,0 0,-0.8 c 0,-2.84 1.36,-4.2 4.32,-4.2 1.72,0 3.24,0.32 4.68,0.88 l 1.2,-4.44 z m 3,19.56 c 0,7.28 5.32,11.48 11.12,11.48 5.8,0 11.12,-4.2 11.12,-11.48 0,-7.32 -5.32,-11.52 -11.12,-11.52 -5.8,0 -11.12,4.2 -11.12,11.52 z m 6.2,0 c 0,-4 1.72,-6.64 4.92,-6.64 3.2,0 4.92,2.64 4.92,6.64 0,4 -1.72,6.6 -4.92,6.6 -3.2,0 -4.92,-2.6 -4.92,-6.6 z m 23.677,10.96 6.04,0 0,-11.64 c 2,-4.08 4.88,-5.52 7.68,-5.52 1.6,0 2.52,0.24 3.92,0.68 l 1.24,-5.12 c -1.28,-0.56 -2.36,-0.88 -4.24,-0.88 -3.6,0 -6.88,1.84 -9.04,5.4 l -0.16,0 -0.48,-4.88 -4.96,0 0,21.96 z m 51.638,-17.2 9.08,0 0,17.2 6.04,0 0,-21.96 -15.12,0 0,4.76 z m 11.8,-8.2 c 2.36,0 4.08,-1.48 4.08,-3.76 0,-2.28 -1.72,-3.88 -4.08,-3.88 -2.4,0 -4.12,1.6 -4.12,3.88 0,2.28 1.72,3.76 4.12,3.76 z"
         style="-inkscape-font-specification:'Source Han Code JP Bold'"
         id="path8"
         inkscape:connector-curvature="0" />
      <path
         d="m 161.312,15.84 9.08,0 0,17.2 6.04,0 0,-21.96 -15.12,0 0,4.76 z m 11.8,-8.2 c 2.36,0 4.08,-1.48 4.08,-3.76 0,-2.28 -1.72,-3.88 -4.08,-3.88 -2.4,0 -4.12,1.6 -4.12,3.88 0,2.28 1.72,3.76 4.12,3.76 z m 14.718,25.4 6.04,0 0,-14.76 c 1.72,-1.68 2.96,-2.56 4.88,-2.56 2.56,0 3.52,1.4 3.52,4.56 l 0,12.76 6.04,0 0,-13.56 c 0,-5.6 -2.24,-8.92 -7.2,-8.92 -3.32,0 -5.76,1.64 -7.72,3.6 l -0.16,0 -0.48,-3.08 -4.92,0 0,21.96 z"
         style="-inkscape-font-specification:'Source Han Code JP Bold';fill:#909060"
         id="path10"
         inkscape:connector-curvature="0" />
      <path
         d="m 255.15,28.16 0,-23.36 -4.48,0 c -2.04,1.2 -4.2,1.96 -7.48,2.52 l 0,3.76 5.88,0 0,17.08 -7.44,0 0,4.88 20.08,0 0,-4.88 -6.56,0 z"
         style="-inkscape-font-specification:'Source Han Code JP Bold'"
         id="path12"
         inkscape:connector-curvature="0" />
      <path
         d="m 273.067,28.6 c 0,2.84 2,4.96 4.88,4.96 2.88,0 4.88,-2.12 4.88,-4.96 0,-2.8 -2,-4.96 -4.88,-4.96 -2.88,0 -4.88,2.16 -4.88,4.96 z m 26.72,0 c 0,2.84 2,4.96 4.88,4.96 2.88,0 4.88,-2.12 4.88,-4.96 0,-2.8 -2,-4.96 -4.88,-4.96 -2.88,0 -4.88,2.16 -4.88,4.96 z"
         style="-inkscape-font-specification:'Source Han Code JP Bold';fill:#c09090"
         id="path14"
         inkscape:connector-curvature="0" />
      <path
         d="m 320.065,29.56 c 2.12,2.36 5.6,4 10.44,4 5.92,0 11.04,-2.96 11.04,-8.16 0,-3.72 -2.84,-6.04 -6.44,-6.96 l 0,-0.16 c 3.4,-1.28 5.52,-3.36 5.52,-6.32 0,-4.92 -4.24,-7.68 -10.24,-7.68 -3.64,0 -6.8,1.4 -9.48,3.6 l 3.04,3.68 c 1.92,-1.52 3.88,-2.48 6.16,-2.48 2.72,0 4.44,1.2 4.44,3.32 0,2.36 -2.16,4 -7.84,4 l 0,4.32 c 6.68,0 8.76,1.64 8.76,4.32 0,2.32 -2.32,3.64 -5.52,3.64 -2.76,0 -5.24,-1.28 -7.08,-2.92 l -2.8,3.8 z M 0,122.08 c 0,7.28 5.32,11.48 12.08,11.48 3.04,0 6.2,-1 8.64,-2.52 l -2,-3.68 c -1.96,1 -3.76,1.56 -5.8,1.56 -3.52,0 -6.32,-1.64 -6.72,-5.12 l 15.2,0 c 0.08,-0.52 0.24,-1.64 0.24,-2.76 0,-5.96 -3.6,-10.48 -10.28,-10.48 -5.8,0 -11.36,4.32 -11.36,11.52 z m 6.16,-2.32 c 0.52,-3.08 2.76,-4.56 5.36,-4.56 3.12,0 4.6,1.76 4.6,4.56 l -9.96,0 z m 21.36,13.28 6.04,0 0,-14.76 c 1.72,-1.68 2.96,-2.56 4.88,-2.56 2.56,0 3.52,1.4 3.52,4.56 l 0,12.76 6.04,0 0,-13.56 c 0,-5.6 -2.24,-8.92 -7.2,-8.92 -3.32,0 -5.76,1.64 -7.72,3.6 l -0.16,0 -0.48,-3.08 -4.92,0 0,21.96 z m 25.557,-10.96 c 0,7.2 3.68,11.48 9.32,11.48 2.28,0 4.6,-1.24 6.24,-2.88 l 0.12,0 0.48,2.36 4.92,0 0,-31.2 -6.04,0 0,7.64 0.24,3.52 c -1.64,-1.48 -3.28,-2.44 -5.8,-2.44 -4.84,0 -9.48,4.32 -9.48,11.52 z m 6.2,-0.08 c 0,-4.28 2.2,-6.48 4.8,-6.48 1.4,0 2.72,0.44 4.04,1.64 l 0,9.2 c -1.28,1.6 -2.64,2.24 -4.24,2.24 -2.88,0 -4.6,-2.12 -4.6,-6.6 z"
         style="-inkscape-font-specification:'Source Han Code JP Bold'"
         id="path16"
         inkscape:connector-curvature="0" />
    </g>
    <path
       d="m 47.066,73.067 c 0,10.628 8.572,19.27 13.886,19.347 l 693.583,0.136 c 6.587,0.058 15.54,-8.614 15.54,-19.31 0,-10.698 -8.953,-19.37 -15.225,-19.34 L 62.524,53.81 C 55.741,53.692 47.066,62.366 47.066,73.067 Z"
       id="path18"
       inkscape:connector-curvature="0" />
  </g>
</svg>
