<?xml version="1.0" encoding="UTF-8" standalone="no"?>
<svg
   xmlns:dc="http://purl.org/dc/elements/1.1/"
   xmlns:cc="http://creativecommons.org/ns#"
   xmlns:rdf="http://www.w3.org/1999/02/22-rdf-syntax-ns#"
   xmlns:svg="http://www.w3.org/2000/svg"
   xmlns="http://www.w3.org/2000/svg"
   xmlns:sodipodi="http://sodipodi.sourceforge.net/DTD/sodipodi-0.dtd"
   xmlns:inkscape="http://www.inkscape.org/namespaces/inkscape"
   width="912.37238"
   height="69.719994"
   viewBox="0 0 912.37247 69.719621"
   id="svg2"
   version="1.1"
   inkscape:version="0.91 r13725"
   sodipodi:docname="vine.svg">
  <metadata
     id="metadata12">
    <rdf:RDF>
      <cc:Work
         rdf:about="">
        <dc:format>image/svg+xml</dc:format>
        <dc:type
           rdf:resource="http://purl.org/dc/dcmitype/StillImage" />
        <dc:title></dc:title>
      </cc:Work>
    </rdf:RDF>
  </metadata>
  <defs
     id="defs10" />
  <sodipodi:namedview
     pagecolor="#ffffff"
     bordercolor="#666666"
     borderopacity="1"
     objecttolerance="10"
     gridtolerance="10"
     guidetolerance="10"
     inkscape:pageopacity="0"
     inkscape:pageshadow="2"
     inkscape:window-width="1474"
     inkscape:window-height="841"
     id="namedview8"
     showgrid="false"
     fit-margin-top="0"
     fit-margin-left="0"
     fit-margin-right="0"
     fit-margin-bottom="0"
     inkscape:zoom="0.43633608"
     inkscape:cx="-249.47077"
     inkscape:cy="170.99561"
     inkscape:window-x="54"
     inkscape:window-y="-8"
     inkscape:window-maximized="1"
     inkscape:current-layer="svg2"
     units="px" />
  <path
     d="m 2.5347589,50.688702 c 0,0 85.0927931,-18.97217 153.5027811,-10.778889 34.01385,4.073748 67.766,-15.15 101.648,-15.15 33.882,0 67.764,15.15 101.647,15.15 33.882,0 67.764,-15.15 101.646,-15.15 33.883,0 67.766,15.15 101.648,15.15 33.882,0 67.764,-15.15 101.646,-15.15 33.883,0 67.765,15.15 101.647,15.15 33.883,0 101.648,-15.15 101.648,-15.15"
     id="path4"
     inkscape:connector-curvature="0"
     style="fill:none;stroke:#ffffff;stroke-width:5;stroke-linecap:round;stroke-opacity:0.58823529"
     sodipodi:nodetypes="csssssssc" />
  <path
     d="m 859.06554,16.319813 c -3.627,3.944 -7.834,5.455 -10.56,3.012 -2.77,-2.483 -1.754,-7.06 1.874,-11.0019999 3.627,-3.943 12.856,-5.01 12.856,-5.01 0,0 -0.542,9.0579999 -4.17,12.9999999 z m -88.528,5.773 c -3.63,3.943 -7.836,5.453 -10.56,3.01 -2.77,-2.483 -1.755,-7.058 1.872,-11 3.628,-3.945 12.857,-5.0119999 12.857,-5.0119999 0,0 -0.544,9.0599999 -4.17,13.0029999 z m -107.077,-9.093 c -3.628,3.944 -7.835,5.455 -10.56,3.012 -2.77,-2.483 -1.754,-7.0599999 1.873,-11.0019999 3.628,-3.943 12.856,-5.01000002019 12.856,-5.01000002019 0,0 -0.542,9.05800002019 -4.17,12.99999992019 z m 153.543,34.63 c -3.628,-3.944 -7.835,-5.455 -10.56,-3.012 -2.77,2.483 -1.754,7.06 1.873,11.002 3.627,3.943 12.856,5.01 12.856,5.01 0,0 -0.543,-9.058 -4.17,-13 z m -106.066,3.03 c -3.628,-3.944 -7.835,-5.454 -10.56,-3.01 -2.77,2.482 -1.754,7.057 1.873,11 3.628,3.943 12.857,5.01 12.857,5.01 0,0 -0.543,-9.058 -4.17,-13 z m -95.965,6.06 c -3.627,-3.943 -7.834,-5.454 -10.56,-3.01 -2.77,2.483 -1.754,7.058 1.874,11 3.626,3.944 12.855,5.01 12.855,5.01 0,0 -0.542,-9.057 -4.17,-13 z m 288.58,-37.49 c -4.86,2.26 -9.324,2.048 -10.91,-1.25 -1.61,-3.354 1.076,-7.194 5.935,-9.4519999 4.858,-2.258 13.795,0.28 13.795,0.28 0,0 -3.962,8.1649999 -8.82,10.4229999 z m -345.148,6.903 c -3.628,3.943 -7.835,5.454 -10.56,3.01 -2.77,-2.482 -1.754,-7.058 1.873,-11 3.628,-3.944 12.857,-5.01 12.857,-5.01 0,0 -0.543,9.057 -4.17,13 z m 318.416,5.857 c -5.168,-1.414 -9.535,-0.46 -10.546,3.06 -1.027,3.574 2.264,6.91 7.433,8.324 5.168,1.413 13.553,-2.586 13.553,-2.586 0,0 -5.272,-7.386 -10.44,-8.8 z"
     id="path6"
     inkscape:connector-curvature="0"
     style="fill:#ffffff;fill-opacity:0.58823529" />
</svg>
