<svg xmlns="http://www.w3.org/2000/svg" viewBox="0 0 770.076 133.56">
  <g fill="#fff" fill-opacity=".784">
    <g style="line-height:125%" font-size="40" font-family="Source Han Code JP" letter-spacing="0" word-spacing="0" font-weight="bold">
      <path d="M23.36 2.52c-1.88-.68-4.16-1.2-6.56-1.2-6.76 0-9.68 3.88-9.68 9v.76l-5.88.28v4.48h5.88v17.2h6.04v-17.2H21v-4.76h-7.84v-.8c0-2.84 1.36-4.2 4.32-4.2 1.72 0 3.24.32 4.68.88l1.2-4.44zm3 19.56c0 7.28 5.32 11.48 11.12 11.48 5.8 0 11.12-4.2 11.12-11.48 0-7.32-5.32-11.52-11.12-11.52-5.8 0-11.12 4.2-11.12 11.52zm6.2 0c0-4 1.72-6.64 4.92-6.64s4.92 2.64 4.92 6.64c0 4-1.72 6.6-4.92 6.6s-4.92-2.6-4.92-6.6zm23.677 10.96h6.04V21.4c2-4.08 4.88-5.52 7.68-5.52 1.6 0 2.52.24 3.92.68l1.24-5.12c-1.28-.56-2.36-.88-4.24-.88-3.6 0-6.88 1.84-9.04 5.4h-.16l-.48-4.88h-4.96v21.96zm51.638-17.2h9.08v17.2h6.04V11.08h-15.12v4.76zm11.8-8.2c2.36 0 4.08-1.48 4.08-3.76S122.035 0 119.675 0c-2.4 0-4.12 1.6-4.12 3.88s1.72 3.76 4.12 3.76z" style="-inkscape-font-specification:'Source Han Code JP Bold'"/>
      <path fill="#909060" d="M161.312 15.84h9.08v17.2h6.04V11.08h-15.12v4.76zm11.8-8.2c2.36 0 4.08-1.48 4.08-3.76S175.472 0 173.112 0c-2.4 0-4.12 1.6-4.12 3.88s1.72 3.76 4.12 3.76zm14.718 25.4h6.04V18.28c1.72-1.68 2.96-2.56 4.88-2.56 2.56 0 3.52 1.4 3.52 4.56v12.76h6.04V19.48c0-5.6-2.24-8.92-7.2-8.92-3.32 0-5.76 1.64-7.72 3.6h-.16l-.48-3.08h-4.92v21.96z" style="-inkscape-font-specification:'Source Han Code JP Bold'"/>
      <path d="M255.15 28.16V4.8h-4.48c-2.04 1.2-4.2 1.96-7.48 2.52v3.76h5.88v17.08h-7.44v4.88h20.08v-4.88h-6.56z" style="-inkscape-font-specification:'Source Han Code JP Bold'"/>
      <path fill="#c09090" d="M273.067 28.6c0 2.84 2 4.96 4.88 4.96s4.88-2.12 4.88-4.96c0-2.8-2-4.96-4.88-4.96s-4.88 2.16-4.88 4.96zm26.72 0c0 2.84 2 4.96 4.88 4.96s4.88-2.12 4.88-4.96c0-2.8-2-4.96-4.88-4.96s-4.88 2.16-4.88 4.96z" style="-inkscape-font-specification:'Source Han Code JP Bold'"/>
      <path d="M320.065 29.56c2.12 2.36 5.6 4 10.44 4 5.92 0 11.04-2.96 11.04-8.16 0-3.72-2.84-6.04-6.44-6.96v-.16c3.4-1.28 5.52-3.36 5.52-6.32 0-4.92-4.24-7.68-10.24-7.68-3.64 0-6.8 1.4-9.48 3.6l3.04 3.68c1.92-1.52 3.88-2.48 6.16-2.48 2.72 0 4.44 1.2 4.44 3.32 0 2.36-2.16 4-7.84 4v4.32c6.68 0 8.76 1.64 8.76 4.32 0 2.32-2.32 3.64-5.52 3.64-2.76 0-5.24-1.28-7.08-2.92l-2.8 3.8zM0 122.08c0 7.28 5.32 11.48 12.08 11.48 3.04 0 6.2-1 8.64-2.52l-2-3.68c-1.96 1-3.76 1.56-5.8 1.56-3.52 0-6.32-1.64-6.72-5.12h15.2c.08-.52.24-1.64.24-2.76 0-5.96-3.6-10.48-10.28-10.48-5.8 0-11.36 4.32-11.36 11.52zm6.16-2.32c.52-3.08 2.76-4.56 5.36-4.56 3.12 0 4.6 1.76 4.6 4.56H6.16zm21.36 13.28h6.04v-14.76c1.72-1.68 2.96-2.56 4.88-2.56 2.56 0 3.52 1.4 3.52 4.56v12.76H48v-13.56c0-5.6-2.24-8.92-7.2-8.92-3.32 0-5.76 1.64-7.72 3.6h-.16l-.48-3.08h-4.92v21.96zm25.557-10.96c0 7.2 3.68 11.48 9.32 11.48 2.28 0 4.6-1.24 6.24-2.88h.12l.48 2.36h4.92v-31.2h-6.04v7.64l.24 3.52c-1.64-1.48-3.28-2.44-5.8-2.44-4.84 0-9.48 4.32-9.48 11.52zm6.2-.08c0-4.28 2.2-6.48 4.8-6.48 1.4 0 2.72.44 4.04 1.64v9.2c-1.28 1.6-2.64 2.24-4.24 2.24-2.88 0-4.6-2.12-4.6-6.6z" style="-inkscape-font-specification:'Source Han Code JP Bold'"/>
    </g>
    <path d="M47.066 73.067c0 10.628 8.572 19.27 13.886 19.347l693.583.136c6.587.058 15.54-8.614 15.54-19.31 0-10.698-8.953-19.37-15.225-19.34l-692.326-.09c-6.783-.118-15.458 8.556-15.458 19.257z"/>
  </g>
</svg>
