<svg xmlns="http://www.w3.org/2000/svg" viewBox="0 0 1302.58 242.64">
  <g fill-opacity=".784">
    <g fill="#fff" style="line-height:125%" font-size="40" font-family="Source Han Code JP" letter-spacing="0" word-spacing="0" font-weight="bold">
      <path d="M0 33.04h5.72v-15c.68-1.56 1.32-2.32 2.24-2.32.96 0 1.48.76 1.48 2.32v15h4.64v-15c.68-1.56 1.44-2.32 2.36-2.32 1 0 1.4.76 1.4 2.32v15h5.72V17.6c0-4.4-1.8-7.04-4.88-7.04-2.44 0-4 1.6-4.88 3.6-.48-2.36-1.92-3.6-3.88-3.6-2.52 0-3.84 1.44-4.76 3.32H5l-.44-2.8H0v21.96zM27.84 27c0 3.76 2.84 6.56 7.24 6.56 2.88 0 5.68-1.4 7.92-3.08h.16l.44 2.56h4.96V20.32c0-6.52-3.6-9.76-9.72-9.76-3.76 0-7.32 1.28-10.2 3l2.16 3.96c2.4-1.24 4.64-2.12 6.84-2.12 3.16 0 4.68 1.4 4.88 3.52C32 19.64 27.84 22.08 27.84 27zm5.8-.44c0-2.08 1.92-3.52 8.88-3.92v3.96c-1.72 1.32-3.52 2.28-5.56 2.28-1.96 0-3.32-.76-3.32-2.32zm21.597-10.72h9.08v17.2h6.04V11.08h-15.12v4.76zm11.8-8.2c2.36 0 4.08-1.48 4.08-3.76S69.397 0 67.037 0c-2.4 0-4.12 1.6-4.12 3.88s1.72 3.76 4.12 3.76zm14.72 25.4h6.04V18.28c1.72-1.68 2.96-2.56 4.88-2.56 2.56 0 3.52 1.4 3.52 4.56v12.76h6.04V19.48c0-5.6-2.24-8.92-7.2-8.92-3.32 0-5.76 1.64-7.72 3.6h-.16l-.48-3.08h-4.92v21.96z" style="-inkscape-font-specification:'Source Han Code JP Bold'"/>
      <path fill="#c09090" d="M140.274 14c0 2.8 2 4.96 4.88 4.96s4.88-2.16 4.88-4.96-2-4.96-4.88-4.96-4.88 2.16-4.88 4.96zm0 14.6c0 2.84 2 4.96 4.88 4.96s4.88-2.12 4.88-4.96c0-2.8-2-4.96-4.88-4.96s-4.88 2.16-4.88 4.96zm26.72-14.6c0 2.8 2 4.96 4.88 4.96s4.88-2.16 4.88-4.96-2-4.96-4.88-4.96-4.88 2.16-4.88 4.96zm0 14.6c0 2.84 2 4.96 4.88 4.96s4.88-2.12 4.88-4.96c0-2.8-2-4.96-4.88-4.96s-4.88 2.16-4.88 4.96z" style="-inkscape-font-specification:'Source Han Code JP Bold'"/>
      <path d="M215.43 33.04h19.76v-5.12h-6.84V9.16h6.84V4.04h-19.76v5.12h6.84v18.76h-6.84v5.12zm36.6.52c6.84 0 11.56-5.72 11.56-15.12 0-9.4-4.72-14.92-11.56-14.92-6.84 0-11.56 5.48-11.56 14.92 0 9.4 4.72 15.12 11.56 15.12zm0-5.24c-3.24 0-5.32-3.84-5.32-9.88 0-6.04 2.08-9.68 5.32-9.68s5.32 3.64 5.32 9.68c0 6.04-2.08 9.88-5.32 9.88zm57.836 12.64l3.36-2.72c-5.44-5.12-7.76-10.48-7.76-17.56 0-7.08 2.32-12.4 7.76-17.52l-3.36-2.72c-5.84 5.04-9.48 11.88-9.48 20.24 0 8.4 3.64 15.24 9.48 20.28zm17.92 0c5.88-5.04 9.48-11.88 9.48-20.28 0-8.36-3.6-15.2-9.48-20.24l-3.36 2.72c5.44 5.12 7.76 10.44 7.76 17.52s-2.32 12.44-7.76 17.56l3.36 2.72zM0 83.04h5.72v-15c.68-1.56 1.32-2.32 2.24-2.32.96 0 1.48.76 1.48 2.32v15h4.64v-15c.68-1.56 1.44-2.32 2.36-2.32 1 0 1.4.76 1.4 2.32v15h5.72V67.6c0-4.4-1.8-7.04-4.88-7.04-2.44 0-4 1.6-4.88 3.6-.48-2.36-1.92-3.6-3.88-3.6-2.52 0-3.84 1.44-4.76 3.32H5l-.44-2.8H0v21.96zM27.84 77c0 3.76 2.84 6.56 7.24 6.56 2.88 0 5.68-1.4 7.92-3.08h.16l.44 2.56h4.96V70.32c0-6.52-3.6-9.76-9.72-9.76-3.76 0-7.32 1.28-10.2 3l2.16 3.96c2.4-1.24 4.64-2.12 6.84-2.12 3.16 0 4.68 1.4 4.88 3.52C32 69.64 27.84 72.08 27.84 77zm5.8-.44c0-2.08 1.92-3.52 8.88-3.92v3.96c-1.72 1.32-3.52 2.28-5.56 2.28-1.96 0-3.32-.76-3.32-2.32zm21.597-10.72h9.08v17.2h6.04V61.08h-15.12v4.76zm11.8-8.2c2.36 0 4.08-1.48 4.08-3.76S69.397 50 67.037 50c-2.4 0-4.12 1.6-4.12 3.88s1.72 3.76 4.12 3.76zm14.72 25.4h6.04V68.28c1.72-1.68 2.96-2.56 4.88-2.56 2.56 0 3.52 1.4 3.52 4.56v12.76h6.04V69.48c0-5.6-2.24-8.92-7.2-8.92-3.32 0-5.76 1.64-7.72 3.6h-.16l-.48-3.08h-4.92v21.96zm53.317-17.6h20.16v-4.32h-20.16v4.32zm0 10.2h20.16v-4.32h-20.16v4.32zm52.396-3.56c0 7.2 3.68 11.48 9.32 11.48 2.28 0 4.6-1.24 6.24-2.88h.12l.48 2.36h4.92v-31.2h-6.04v7.64l.24 3.52c-1.64-1.48-3.28-2.44-5.8-2.44-4.84 0-9.48 4.32-9.48 11.52zm6.2-.08c0-4.28 2.2-6.48 4.8-6.48 1.4 0 2.72.44 4.04 1.64v9.2c-1.28 1.6-2.64 2.24-4.24 2.24-2.88 0-4.6-2.12-4.6-6.6zm20.52.08c0 7.28 5.32 11.48 11.12 11.48 5.8 0 11.12-4.2 11.12-11.48 0-7.32-5.32-11.52-11.12-11.52-5.8 0-11.12 4.2-11.12 11.52zm6.2 0c0-4 1.72-6.64 4.92-6.64s4.92 2.64 4.92 6.64c0 4-1.72 6.6-4.92 6.6s-4.92-2.6-4.92-6.6zm47.557 8.12c2.72 1.84 6.72 3.36 10.72 3.36 6.88 0 10.64-3.08 10.64-6.96 0-3.76-3.6-5.4-8.2-6.6-3.28-.84-5.8-1.56-5.8-2.96 0-1.24 1.08-1.96 4.04-1.96 2.4 0 4.56.88 6.56 2.12l2.72-3.68c-2.28-1.44-5.56-2.96-9.36-2.96-6.28 0-10 2.76-10 6.76 0 3.44 3.96 5.28 7.92 6.4 3.84 1 6.08 1.84 6.08 3.2 0 1.28-1.32 2.12-4.44 2.12s-5.64-1-8.16-2.64l-2.72 3.8z" style="-inkscape-font-specification:'Source Han Code JP Bold'"/>
      <path fill="#c09090" d="M324.065 70.4l17.04 11.12V76l-12.04-7.6v-.2l12.04-7.6v-5.52l-17.04 11.12v4.2zm24.76.12h20.16v-4.28h-20.16v4.28z" style="-inkscape-font-specification:'Source Han Code JP Bold'"/>
      <path d="M406.42 85.92c0-.88.52-1.64 1.76-2.4.84.2 1.84.32 3.36.32h3.04c2.6 0 4 .32 4 1.84 0 1.64-2.52 3-6.28 3-3.68 0-5.88-1.04-5.88-2.76zm-4.96.88c0 3.92 4.16 5.72 10 5.72 7.88 0 12.92-3.36 12.92-7.88 0-3.88-3.08-5.52-8.84-5.52h-4.2c-2.6 0-3.84-.52-3.84-1.76 0-.8.36-1.28 1.08-1.76 1.16.32 2.2.52 3.16.52 5 0 8.92-2.44 8.92-7.44 0-1.28-.52-2.44-1.12-3.16h4.68v-4.44h-8.96c-1-.36-2.24-.52-3.52-.52-4.96 0-9.28 2.76-9.28 7.96 0 2.56 1.28 4.52 2.88 5.64v.16c-1.6 1.08-2.64 2.68-2.64 4.16 0 1.8 1 2.96 2.2 3.68v.16c-2.24 1.16-3.44 2.72-3.44 4.48zm10.28-14.44c-1.96 0-3.56-1.36-3.56-3.84 0-2.44 1.6-3.88 3.56-3.88s3.6 1.44 3.6 3.88c0 2.48-1.64 3.84-3.6 3.84zm16.56-.28c0 7.28 5.32 11.48 12.08 11.48 3.04 0 6.2-1 8.64-2.52l-2-3.68c-1.96 1-3.76 1.56-5.8 1.56-3.52 0-6.32-1.64-6.72-5.12h15.2c.08-.52.24-1.64.24-2.76 0-5.96-3.6-10.48-10.28-10.48-5.8 0-11.36 4.32-11.36 11.52zm6.16-2.32c.52-3.08 2.76-4.56 5.36-4.56 3.12 0 4.6 1.76 4.6 4.56h-9.96zm26 4.28c0 5.68 2.4 9.52 9.24 9.52 2.76 0 5.2-.56 7.16-1.2L475.74 78c-1.36.48-2.8.8-4.52.8-3.36 0-4.72-1.4-4.72-4.84v-8.12h9.52v-4.76h-9.52V55.2h-5.04l-.76 5.88-5.88.28v4.48h5.64v8.2zm23.677 9h19.16v-5.12h-13.16V54.04h-6v29zm25.32-17.2h9.08v17.2h6.04V61.08h-15.12v4.76zm11.8-8.2c2.36 0 4.08-1.48 4.08-3.76s-1.72-3.88-4.08-3.88c-2.4 0-4.12 1.6-4.12 3.88s1.72 3.76 4.12 3.76zm14.718 25.4h6.04V68.28c1.72-1.68 2.96-2.56 4.88-2.56 2.56 0 3.52 1.4 3.52 4.56v12.76h6.04V69.48c0-5.6-2.24-8.92-7.2-8.92-3.32 0-5.76 1.64-7.72 3.6h-.16l-.48-3.08h-4.92v21.96zm25.92-10.96c0 7.28 5.32 11.48 12.08 11.48 3.04 0 6.2-1 8.64-2.52l-2-3.68c-1.96 1-3.76 1.56-5.8 1.56-3.52 0-6.32-1.64-6.72-5.12h15.2c.08-.52.24-1.64.24-2.76 0-5.96-3.6-10.48-10.28-10.48-5.8 0-11.36 4.32-11.36 11.52zm6.16-2.32c.52-3.08 2.76-4.56 5.36-4.56 3.12 0 4.6 1.76 4.6 4.56h-9.96zm-299.75 36.84h6.56v18.04c0 5.56 2.8 8.92 8.2 8.92 2.68 0 4.24-.48 6.44-1.2l-1.36-4.44c-1.4.52-2.52.76-3.56.76-1.96 0-3.68-.96-3.68-3.76v-23.08h-12.6v4.76zm26.4 15.48c0 7.28 5.32 11.48 12.08 11.48 3.04 0 6.2-1 8.64-2.52l-2-3.68c-1.96 1-3.76 1.56-5.8 1.56-3.52 0-6.32-1.64-6.72-5.12h15.2c.08-.52.24-1.64.24-2.76 0-5.96-3.6-10.48-10.28-10.48-5.8 0-11.36 4.32-11.36 11.52zm6.16-2.32c.52-3.08 2.76-4.56 5.36-4.56 3.12 0 4.6 1.76 4.6 4.56h-9.96zm26 4.28c0 5.68 2.4 9.52 9.24 9.52 2.76 0 5.2-.56 7.16-1.2l-1.12-4.36c-1.36.48-2.8.8-4.52.8-3.36 0-4.72-1.4-4.72-4.84v-8.12h9.52v-4.76h-9.52v-5.88h-5.04l-.76 5.88-5.88.28v4.48h5.64v8.2zm53.436 0c0 5.68 2.4 9.52 9.24 9.52 2.76 0 5.2-.56 7.16-1.2l-1.12-4.36c-1.36.48-2.8.8-4.52.8-3.36 0-4.72-1.4-4.72-4.84v-8.12h9.52v-4.76h-9.52v-5.88h-5.04l-.76 5.88-5.88.28v4.48h5.64v8.2zm48.68-8.6h20.16v-4.32h-20.16v4.32zm0 10.2h20.16v-4.32h-20.16v4.32zm51.96 7.4h5.72v-15c.68-1.56 1.32-2.32 2.24-2.32.96 0 1.48.76 1.48 2.32v15h4.64v-15c.68-1.56 1.44-2.32 2.36-2.32 1 0 1.4.76 1.4 2.32v15h5.72V117.6c0-4.4-1.8-7.04-4.88-7.04-2.44 0-4 1.6-4.88 3.6-.48-2.36-1.92-3.6-3.88-3.6-2.52 0-3.84 1.44-4.76 3.32h-.16l-.44-2.8h-4.56v21.96zm27.84-6.04c0 3.76 2.84 6.56 7.24 6.56 2.88 0 5.68-1.4 7.92-3.08h.16l.44 2.56h4.96v-12.72c0-6.52-3.6-9.76-9.72-9.76-3.76 0-7.32 1.28-10.2 3l2.16 3.96c2.4-1.24 4.64-2.12 6.84-2.12 3.16 0 4.68 1.4 4.88 3.52-10.52.72-14.68 3.16-14.68 8.08zm5.8-.44c0-2.08 1.92-3.52 8.88-3.92v3.96c-1.72 1.32-3.52 2.28-5.56 2.28-1.96 0-3.32-.76-3.32-2.32zm27.24 4.56c1.68 1.56 3.68 2.44 5.64 2.44 5 0 9.6-4.28 9.6-11.84 0-6.76-3.28-11.16-8.84-11.16-2.4 0-4.92 1.2-6.72 2.84h-.12l-.48-2.32h-4.92v30.28h6.04v-6.6l-.2-3.64zm.2-4.16v-9.2c1.52-1.6 2.96-2.24 4.48-2.24 3 0 4.36 2.2 4.36 6.28 0 4.68-2.08 6.8-4.72 6.8-1.2 0-2.76-.44-4.12-1.64zm260.307 3.24c2.72 1.84 6.72 3.36 10.72 3.36 6.88 0 10.64-3.08 10.64-6.96 0-3.76-3.6-5.4-8.2-6.6-3.28-.84-5.8-1.56-5.8-2.96 0-1.24 1.08-1.96 4.04-1.96 2.4 0 4.56.88 6.56 2.12l2.72-3.68c-2.28-1.44-5.56-2.96-9.36-2.96-6.28 0-10 2.76-10 6.76 0 3.44 3.96 5.28 7.92 6.4 3.84 1 6.08 1.84 6.08 3.2 0 1.28-1.32 2.12-4.44 2.12s-5.64-1-8.16-2.64l-2.72 3.8zM268.99 165.84h9.08v17.2h6.04v-21.96h-15.12v4.76zm11.8-8.2c2.36 0 4.08-1.48 4.08-3.76s-1.72-3.88-4.08-3.88c-2.4 0-4.12 1.6-4.12 3.88s1.72 3.76 4.12 3.76zm37.28-5.12c-1.88-.68-4.16-1.2-6.56-1.2-6.76 0-9.68 3.88-9.68 9v.76l-5.88.28v4.48h5.88v17.2h6.04v-17.2h7.84v-4.76h-7.84v-.8c0-2.84 1.36-4.2 4.32-4.2 1.72 0 3.24.32 4.68.88l1.2-4.44zm30.876 30.52h6.04v-14.76c1.72-1.68 2.96-2.56 4.88-2.56 2.56 0 3.52 1.4 3.52 4.56v12.76h6.04v-13.56c0-5.6-2.24-8.92-7.2-8.92-3.32 0-5.76 1.64-7.72 3.6h-.16l-.48-3.08h-4.92v21.96zm46.518-21.96h-6.04v14.56c-1.64 2.08-2.92 2.76-4.72 2.76-2.6 0-3.48-1.4-3.48-4.52v-12.8h-6.04v13.56c0 5.6 2.16 8.92 7.2 8.92 3.16 0 5.52-1.52 7.48-3.8h.2l.44 3.28h4.96v-21.96zm6.44-4.48h6.56v18.04c0 5.56 2.8 8.92 8.2 8.92 2.68 0 4.24-.48 6.44-1.2l-1.36-4.44c-1.4.52-2.52.76-3.56.76-1.96 0-3.68-.96-3.68-3.76v-23.08h-12.6v4.76zm26.72 0h6.56v18.04c0 5.56 2.8 8.92 8.2 8.92 2.68 0 4.24-.48 6.44-1.2l-1.36-4.44c-1.4.52-2.52.76-3.56.76-1.96 0-3.68-.96-3.68-3.76v-23.08h-12.6v4.76zm53.076 23.6c2.72 1.84 6.72 3.36 10.72 3.36 6.88 0 10.64-3.08 10.64-6.96 0-3.76-3.6-5.4-8.2-6.6-3.28-.84-5.8-1.56-5.8-2.96 0-1.24 1.08-1.96 4.04-1.96 2.4 0 4.56.88 6.56 2.12l2.72-3.68c-2.28-1.44-5.56-2.96-9.36-2.96-6.28 0-10 2.76-10 6.76 0 3.44 3.96 5.28 7.92 6.4 3.84 1 6.08 1.84 6.08 3.2 0 1.28-1.32 2.12-4.44 2.12s-5.64-1-8.16-2.64l-2.72 3.8zm58.917-6.16c0 5.68 2.4 9.52 9.24 9.52 2.76 0 5.2-.56 7.16-1.2l-1.12-4.36c-1.36.48-2.8.8-4.52.8-3.36 0-4.72-1.4-4.72-4.84v-8.12h9.52v-4.76h-9.52v-5.88h-5.04l-.76 5.88-5.88.28v4.48h5.64v8.2zm22.08 9h6.04v-14.76c1.72-1.68 2.96-2.56 4.88-2.56 2.56 0 3.52 1.4 3.52 4.56v12.76h6.04v-13.56c0-5.6-2.24-8.92-7.2-8.92-3.32 0-5.76 1.64-7.56 3.44l.32-4.4v-7.76h-6.04v31.2zm25.917-10.96c0 7.28 5.32 11.48 12.08 11.48 3.04 0 6.2-1 8.64-2.52l-2-3.68c-1.96 1-3.76 1.56-5.8 1.56-3.52 0-6.32-1.64-6.72-5.12h15.2c.08-.52.24-1.64.24-2.76 0-5.96-3.6-10.48-10.28-10.48-5.8 0-11.36 4.32-11.36 11.52zm6.16-2.32c.52-3.08 2.76-4.56 5.36-4.56 3.12 0 4.6 1.76 4.6 4.56h-9.96zm21.36 13.28h6.04v-14.76c1.72-1.68 2.96-2.56 4.88-2.56 2.56 0 3.52 1.4 3.52 4.56v12.76h6.04v-13.56c0-5.6-2.24-8.92-7.2-8.92-3.32 0-5.76 1.64-7.72 3.6h-.16l-.48-3.08h-4.92v21.96zm55.44 0h6.04V171.4c2-4.08 4.88-5.52 7.68-5.52 1.6 0 2.52.24 3.92.68l1.24-5.12c-1.28-.56-2.36-.88-4.24-.88-3.6 0-6.88 1.84-9.04 5.4h-.16l-.48-4.88h-4.96v21.96zm23.916-10.96c0 7.28 5.32 11.48 12.08 11.48 3.04 0 6.2-1 8.64-2.52l-2-3.68c-1.96 1-3.76 1.56-5.8 1.56-3.52 0-6.32-1.64-6.72-5.12h15.2c.08-.52.24-1.64.24-2.76 0-5.96-3.6-10.48-10.28-10.48-5.8 0-11.36 4.32-11.36 11.52zm6.16-2.32c.52-3.08 2.76-4.56 5.36-4.56 3.12 0 4.6 1.76 4.6 4.56h-9.96zm26 4.28c0 5.68 2.4 9.52 9.24 9.52 2.76 0 5.2-.56 7.16-1.2l-1.12-4.36c-1.36.48-2.8.8-4.52.8-3.36 0-4.72-1.4-4.72-4.84v-8.12h9.52v-4.76h-9.52v-5.88h-5.04l-.76 5.88-5.88.28v4.48h5.64v8.2zm41.878-12.96h-6.04v14.56c-1.64 2.08-2.92 2.76-4.72 2.76-2.6 0-3.48-1.4-3.48-4.52v-12.8h-6.04v13.56c0 5.6 2.16 8.92 7.2 8.92 3.16 0 5.52-1.52 7.48-3.8h.2l.44 3.28h4.96v-21.96zm8.92 21.96h6.04V171.4c2-4.08 4.88-5.52 7.68-5.52 1.6 0 2.52.24 3.92.68l1.24-5.12c-1.28-.56-2.36-.88-4.24-.88-3.6 0-6.88 1.84-9.04 5.4h-.16l-.48-4.88h-4.96v21.96zm24.717 0h6.04v-14.76c1.72-1.68 2.96-2.56 4.88-2.56 2.56 0 3.52 1.4 3.52 4.56v12.76h6.04v-13.56c0-5.6-2.24-8.92-7.2-8.92-3.32 0-5.76 1.64-7.72 3.6h-.16l-.48-3.08h-4.92v21.96zm67.8 7.92l3.36-2.72c-5.44-5.12-7.76-10.48-7.76-17.56 0-7.08 2.32-12.4 7.76-17.52l-3.36-2.72c-5.84 5.04-9.48 11.88-9.48 20.24 0 8.4 3.64 15.24 9.48 20.28zm17.92 0c5.88-5.04 9.48-11.88 9.48-20.28 0-8.36-3.6-15.2-9.48-20.24l-3.36 2.72c5.44 5.12 7.76 10.44 7.76 17.52s-2.32 12.44-7.76 17.56l3.36 2.72zM535.18 222.08c0 7.28 5.32 11.48 12.08 11.48 3.04 0 6.2-1 8.64-2.52l-2-3.68c-1.96 1-3.76 1.56-5.8 1.56-3.52 0-6.32-1.64-6.72-5.12h15.2c.08-.52.24-1.64.24-2.76 0-5.96-3.6-10.48-10.28-10.48-5.8 0-11.36 4.32-11.36 11.52zm6.16-2.32c.52-3.08 2.76-4.56 5.36-4.56 3.12 0 4.6 1.76 4.6 4.56h-9.96zm20.88-13.16h6.56v18.04c0 5.56 2.8 8.92 8.2 8.92 2.68 0 4.24-.48 6.44-1.2l-1.36-4.44c-1.4.52-2.52.76-3.56.76-1.96 0-3.68-.96-3.68-3.76v-23.08h-12.6v4.76zm26.356 23.6c2.72 1.84 6.72 3.36 10.72 3.36 6.88 0 10.64-3.08 10.64-6.96 0-3.76-3.6-5.4-8.2-6.6-3.28-.84-5.8-1.56-5.8-2.96 0-1.24 1.08-1.96 4.04-1.96 2.4 0 4.56.88 6.56 2.12l2.72-3.68c-2.28-1.44-5.56-2.96-9.36-2.96-6.28 0-10 2.76-10 6.76 0 3.44 3.96 5.28 7.92 6.4 3.84 1 6.08 1.84 6.08 3.2 0 1.28-1.32 2.12-4.44 2.12s-5.64-1-8.16-2.64l-2.72 3.8zm26.76-8.12c0 7.28 5.32 11.48 12.08 11.48 3.04 0 6.2-1 8.64-2.52l-2-3.68c-1.96 1-3.76 1.56-5.8 1.56-3.52 0-6.32-1.64-6.72-5.12h15.2c.08-.52.24-1.64.24-2.76 0-5.96-3.6-10.48-10.28-10.48-5.8 0-11.36 4.32-11.36 11.52zm6.16-2.32c.52-3.08 2.76-4.56 5.36-4.56 3.12 0 4.6 1.76 4.6 4.56h-9.96zm46.92 2.32c0 7.2 3.68 11.48 9.32 11.48 2.28 0 4.6-1.24 6.24-2.88h.12l.48 2.36h4.92v-31.2h-6.04v7.64l.24 3.52c-1.64-1.48-3.28-2.44-5.8-2.44-4.84 0-9.48 4.32-9.48 11.52zm6.2-.08c0-4.28 2.2-6.48 4.8-6.48 1.4 0 2.72.44 4.04 1.64v9.2c-1.28 1.6-2.64 2.24-4.24 2.24-2.88 0-4.6-2.12-4.6-6.6zm20.516.08c0 7.28 5.32 11.48 11.12 11.48 5.8 0 11.12-4.2 11.12-11.48 0-7.32-5.32-11.52-11.12-11.52-5.8 0-11.12 4.2-11.12 11.52zm6.2 0c0-4 1.72-6.64 4.92-6.64s4.92 2.64 4.92 6.64c0 4-1.72 6.6-4.92 6.6s-4.92-2.6-4.92-6.6zm55.558 11.48c0 4.76 2.56 6.24 8.24 6.24h3.32v-3.24h-1.92c-3.84 0-4.68-.72-4.68-3.28 0-2.44.2-4.64.2-7.36 0-3.28-1.2-4.6-4.36-5.12v-.2c3.16-.52 4.36-1.84 4.36-5.12 0-2.64-.2-5-.2-7.36 0-2.56.84-3.28 4.68-3.28h1.92v-3.24h-3.32c-5.68 0-8.24 1.48-8.24 6.24 0 3.12.44 5 .44 7.76 0 1.6-1.32 3.24-6.16 3.32v3.56c4.84.08 6.16 1.72 6.16 3.32 0 2.84-.44 4.6-.44 7.76zm52.11-2.44c1.68 1.56 3.68 2.44 5.64 2.44 5 0 9.6-4.28 9.6-11.84 0-6.76-3.28-11.16-8.84-11.16-2.4 0-4.92 1.2-6.72 2.84h-.12l-.48-2.32h-4.92v30.28h6.04v-6.6l-.2-3.64zm.2-4.16v-9.2c1.52-1.6 2.96-2.24 4.48-2.24 3 0 4.36 2.2 4.36 6.28 0 4.68-2.08 6.8-4.72 6.8-1.2 0-2.76-.44-4.12-1.64zm40.48-15.88h-6.04v14.56c-1.64 2.08-2.92 2.76-4.72 2.76-2.6 0-3.48-1.4-3.48-4.52v-12.8h-6.04v13.56c0 5.6 2.16 8.92 7.2 8.92 3.16 0 5.52-1.52 7.48-3.8h.2l.44 3.28h4.96v-21.96zm11.56 12.96c0 5.68 2.4 9.52 9.24 9.52 2.76 0 5.2-.56 7.16-1.2l-1.12-4.36c-1.36.48-2.8.8-4.52.8-3.36 0-4.72-1.4-4.72-4.84v-8.12h9.52v-4.76h-9.52v-5.88h-5.04l-.76 5.88-5.88.28v4.48h5.64v8.2zm21.08 5.32c3 2.76 6.96 4.2 10.96 4.2 7 0 11.04-4.04 11.04-8.84 0-4.12-2.48-6.44-6.24-7.84l-3.64-1.56c-2.72-1.04-4.76-1.72-4.76-3.68 0-1.8 1.56-2.88 4.28-2.88 2.52 0 4.4.88 6.4 2.4l3.08-3.84c-2.56-2.44-6-3.8-9.48-3.8-6.2 0-10.44 3.76-10.44 8.48 0 4.24 3 6.64 6.16 7.84l3.8 1.64c2.84 1.04 4.64 1.72 4.64 3.72 0 1.92-1.52 3.12-4.72 3.12-2.64 0-5.4-1.28-7.56-3.12l-3.52 4.16zm32.356-5.32c0 5.68 2.4 9.52 9.24 9.52 2.76 0 5.2-.56 7.16-1.2l-1.12-4.36c-1.36.48-2.8.8-4.52.8-3.36 0-4.72-1.4-4.72-4.84v-8.12h9.52v-4.76h-9.52v-5.88h-5.04l-.76 5.88-5.88.28v4.48h5.64v8.2zm24.08 9h6.04V221.4c2-4.08 4.88-5.52 7.68-5.52 1.6 0 2.52.24 3.92.68l1.24-5.12c-1.28-.56-2.36-.88-4.24-.88-3.6 0-6.88 1.84-9.04 5.4h-.16l-.48-4.88h-4.96v21.96zm26.318 0h19.16v-5.12h-13.16v-23.88h-6v29zm25.12 0h6.04v-14.76c1.72-1.68 2.96-2.56 4.88-2.56 2.56 0 3.52 1.4 3.52 4.56v12.76h6.04v-13.56c0-5.6-2.24-8.92-7.2-8.92-3.32 0-5.76 1.64-7.72 3.6h-.16l-.48-3.08h-4.92v21.96zm58.075-9c0 5.68 2.4 9.52 9.24 9.52 2.76 0 5.2-.56 7.16-1.2l-1.12-4.36c-1.36.48-2.8.8-4.52.8-3.36 0-4.72-1.4-4.72-4.84v-8.12h9.52v-4.76h-9.52v-5.88h-5.04l-.76 5.88-5.88.28v4.48h5.64v8.2zm58.76-5.08c2.88 0 4.88-2.16 4.88-4.96s-2-4.96-4.88-4.96-4.88 2.16-4.88 4.96 2 4.96 4.88 4.96zm-3.6 23.68c5.92-1.88 9.12-5.84 9.12-11.4 0-4.56-1.84-7.28-5.28-7.28-2.64 0-4.76 1.68-4.76 4.32 0 2.84 2.16 4.4 4.6 4.4.16 0 .36 0 .52-.04-.04 2.88-1.92 5.04-5.72 6.44l1.52 3.56zm45.47-9.6h5.72v-15c.68-1.56 1.32-2.32 2.24-2.32.96 0 1.48.76 1.48 2.32v15h4.64v-15c.68-1.56 1.44-2.32 2.36-2.32 1 0 1.4.76 1.4 2.32v15h5.72V217.6c0-4.4-1.8-7.04-4.88-7.04-2.44 0-4 1.6-4.88 3.6-.48-2.36-1.92-3.6-3.88-3.6-2.52 0-3.84 1.44-4.76 3.32h-.16l-.44-2.8h-4.56v21.96zm27.84-6.04c0 3.76 2.84 6.56 7.24 6.56 2.88 0 5.68-1.4 7.92-3.08h.16l.44 2.56h4.96v-12.72c0-6.52-3.6-9.76-9.72-9.76-3.76 0-7.32 1.28-10.2 3l2.16 3.96c2.4-1.24 4.64-2.12 6.84-2.12 3.16 0 4.68 1.4 4.88 3.52-10.52.72-14.68 3.16-14.68 8.08zm5.8-.44c0-2.08 1.92-3.52 8.88-3.92v3.96c-1.72 1.32-3.52 2.28-5.56 2.28-1.96 0-3.32-.76-3.32-2.32zm21.6-10.72h9.08v17.2h6.04v-21.96h-15.12v4.76zm11.8-8.2c2.36 0 4.08-1.48 4.08-3.76s-1.72-3.88-4.08-3.88c-2.4 0-4.12 1.6-4.12 3.88s1.72 3.76 4.12 3.76zm14.72 25.4h6.04v-14.76c1.72-1.68 2.96-2.56 4.88-2.56 2.56 0 3.52 1.4 3.52 4.56v12.76h6.04v-13.56c0-5.6-2.24-8.92-7.2-8.92-3.32 0-5.76 1.64-7.72 3.6h-.16l-.48-3.08h-4.92v21.96zm54.68 3.52v3.24h3.32c5.68 0 8.24-1.48 8.24-6.24 0-3.16-.48-4.92-.48-7.76 0-1.6 1.32-3.24 6.16-3.32v-3.56c-4.84-.08-6.16-1.72-6.16-3.32 0-2.76.48-4.64.48-7.76 0-4.76-2.56-6.24-8.24-6.24h-3.32v3.24h1.92c3.8 0 4.64.72 4.64 3.28 0 2.36-.16 4.72-.16 7.36 0 3.28 1.2 4.6 4.36 5.12v.2c-3.16.52-4.36 1.84-4.36 5.12 0 2.72.16 4.92.16 7.36 0 2.56-.84 3.28-4.64 3.28h-1.92z" style="-inkscape-font-specification:'Source Han Code JP Bold'"/>
    </g>
    <path fill="#909060" d="M565.265 122.18c.01 10.63 8.57 19.27 13.885 19.348l201.508.136c6.587.058 15.54-8.615 15.54-19.312 0-10.697-8.953-19.37-15.225-19.34l-200.25-.09c-6.784-.117-15.458 8.558-15.458 19.258z"/>
  </g>
</svg>
