<?xml version="1.0" encoding="UTF-8" standalone="no"?>
<svg
   xmlns:dc="http://purl.org/dc/elements/1.1/"
   xmlns:cc="http://creativecommons.org/ns#"
   xmlns:rdf="http://www.w3.org/1999/02/22-rdf-syntax-ns#"
   xmlns:svg="http://www.w3.org/2000/svg"
   xmlns="http://www.w3.org/2000/svg"
   xmlns:sodipodi="http://sodipodi.sourceforge.net/DTD/sodipodi-0.dtd"
   xmlns:inkscape="http://www.inkscape.org/namespaces/inkscape"
   viewBox="0 0 1700.237 336.32113"
   id="svg2"
   version="1.1"
   inkscape:version="0.91 r13725"
   sodipodi:docname="code-11.svg"
   width="1700.2371"
   height="336.32114">
  <metadata
     id="metadata36">
    <rdf:RDF>
      <cc:Work
         rdf:about="">
        <dc:format>image/svg+xml</dc:format>
        <dc:type
           rdf:resource="http://purl.org/dc/dcmitype/StillImage" />
        <dc:title></dc:title>
      </cc:Work>
    </rdf:RDF>
  </metadata>
  <defs
     id="defs34" />
  <sodipodi:namedview
     pagecolor="#ffffff"
     bordercolor="#666666"
     borderopacity="1"
     objecttolerance="10"
     gridtolerance="10"
     guidetolerance="10"
     inkscape:pageopacity="0"
     inkscape:pageshadow="2"
     inkscape:window-width="1474"
     inkscape:window-height="841"
     id="namedview32"
     showgrid="false"
     fit-margin-left="650"
     fit-margin-right="125.8"
     fit-margin-top="0"
     fit-margin-bottom="0"
     inkscape:zoom="0.57440366"
     inkscape:cx="823.22313"
     inkscape:cy="168.16001"
     inkscape:window-x="54"
     inkscape:window-y="-8"
     inkscape:window-maximized="1"
     inkscape:current-layer="svg2" />
  <g
     id="g4"
     style="fill-opacity:0.78399999"
     transform="translate(650,0.00115007)">
    <g
       style="font-weight:bold;font-size:40px;line-height:125%;font-family:'Source Han Code JP';letter-spacing:0;word-spacing:0;fill:#ffffff"
       font-size="40"
       letter-spacing="0"
       word-spacing="0"
       font-weight="bold"
       id="g6">
      <path
         d="m 0,24.84 c 0,7.2 3.68,11.48 9.32,11.48 2.28,0 4.6,-1.24 6.24,-2.88 l 0.12,0 0.48,2.36 4.92,0 0,-31.2 -6.04,0 0,7.64 0.24,3.52 C 13.64,14.28 12,13.32 9.48,13.32 4.64,13.32 0,17.64 0,24.84 Z m 6.2,-0.08 c 0,-4.28 2.2,-6.48 4.8,-6.48 1.4,0 2.72,0.44 4.04,1.64 l 0,9.2 c -1.28,1.6 -2.64,2.24 -4.24,2.24 -2.88,0 -4.6,-2.12 -4.6,-6.6 z m 20.88,0.08 c 0,7.28 5.32,11.48 12.08,11.48 3.04,0 6.2,-1 8.64,-2.52 l -2,-3.68 c -1.96,1 -3.76,1.56 -5.8,1.56 -3.52,0 -6.32,-1.64 -6.72,-5.12 l 15.2,0 c 0.08,-0.52 0.24,-1.64 0.24,-2.76 0,-5.96 -3.6,-10.48 -10.28,-10.48 -5.8,0 -11.36,4.32 -11.36,11.52 z m 6.16,-2.32 c 0.52,-3.08 2.76,-4.56 5.36,-4.56 3.12,0 4.6,1.76 4.6,4.56 l -9.96,0 z M 77.158,5.28 c -1.88,-0.68 -4.16,-1.2 -6.56,-1.2 -6.76,0 -9.68,3.88 -9.68,9 l 0,0.76 -5.88,0.28 0,4.48 5.88,0 0,17.2 6.04,0 0,-17.2 7.84,0 0,-4.76 -7.84,0 0,-0.8 c 0,-2.84 1.36,-4.2 4.32,-4.2 1.72,0 3.24,0.32 4.68,0.88 l 1.2,-4.44 z"
         style="-inkscape-font-specification:'Source Han Code JP Bold';fill:#c09090"
         id="path8"
         inkscape:connector-curvature="0" />
      <path
         d="M 202.55,43.72 205.91,41 c -5.44,-5.12 -7.76,-10.48 -7.76,-17.56 0,-7.08 2.32,-12.4 7.76,-17.52 L 202.55,3.2 c -5.84,5.04 -9.48,11.88 -9.48,20.24 0,8.4 3.64,15.24 9.48,20.28 z m 11.52,-10.76 c 2.72,1.84 6.72,3.36 10.72,3.36 6.88,0 10.64,-3.08 10.64,-6.96 0,-3.76 -3.6,-5.4 -8.2,-6.6 -3.28,-0.84 -5.8,-1.56 -5.8,-2.96 0,-1.24 1.08,-1.96 4.04,-1.96 2.4,0 4.56,0.88 6.56,2.12 l 2.72,-3.68 c -2.28,-1.44 -5.56,-2.96 -9.36,-2.96 -6.28,0 -10,2.76 -10,6.76 0,3.44 3.96,5.28 7.92,6.4 3.84,1 6.08,1.84 6.08,3.2 0,1.28 -1.32,2.12 -4.44,2.12 -3.12,0 -5.64,-1 -8.16,-2.64 l -2.72,3.8 z m 26.76,-8.12 c 0,7.28 5.32,11.48 12.08,11.48 3.04,0 6.2,-1 8.64,-2.52 l -2,-3.68 c -1.96,1 -3.76,1.56 -5.8,1.56 -3.52,0 -6.32,-1.64 -6.72,-5.12 l 15.2,0 c 0.08,-0.52 0.24,-1.64 0.24,-2.76 0,-5.96 -3.6,-10.48 -10.28,-10.48 -5.8,0 -11.36,4.32 -11.36,11.52 z m 6.16,-2.32 c 0.52,-3.08 2.76,-4.56 5.36,-4.56 3.12,0 4.6,1.76 4.6,4.56 l -9.96,0 z m 20.198,2.32 c 0,7.2 3.68,11.48 9.32,11.48 2.12,0 4.36,-1.12 5.96,-2.64 l -0.24,3.48 0,6.96 6.04,0 0,-30.28 -4.76,0 -0.48,2.28 -0.16,0 c -1.84,-1.92 -3.72,-2.8 -6.2,-2.8 -4.84,0 -9.48,4.32 -9.48,11.52 z m 6.2,-0.08 c 0,-4.28 2.2,-6.48 4.8,-6.48 1.4,0 2.72,0.44 4.04,1.64 l 0,9.2 c -1.28,1.6 -2.64,2.24 -4.24,2.24 -2.88,0 -4.6,-2.12 -4.6,-6.6 z m 28.038,20.64 c 5.92,-1.88 9.12,-5.84 9.12,-11.4 0,-4.56 -1.84,-7.28 -5.28,-7.28 -2.64,0 -4.76,1.68 -4.76,4.32 0,2.84 2.16,4.4 4.6,4.4 0.16,0 0.36,0 0.52,-0.04 -0.04,2.88 -1.92,5.04 -5.72,6.44 l 1.52,3.56 z m 51.718,-18.6 c 0,5.68 2.4,9.52 9.24,9.52 2.76,0 5.2,-0.56 7.16,-1.2 l -1.12,-4.36 c -1.36,0.48 -2.8,0.8 -4.52,0.8 -3.36,0 -4.72,-1.4 -4.72,-4.84 l 0,-8.12 9.52,0 0,-4.76 -9.52,0 0,-5.88 -5.04,0 -0.76,5.88 -5.88,0.28 0,4.48 5.64,0 0,8.2 z m 21.598,2.96 c 0,3.76 2.84,6.56 7.24,6.56 2.88,0 5.68,-1.4 7.92,-3.08 l 0.16,0 0.44,2.56 4.96,0 0,-12.72 c 0,-6.52 -3.6,-9.76 -9.72,-9.76 -3.76,0 -7.32,1.28 -10.2,3 l 2.16,3.96 c 2.4,-1.24 4.64,-2.12 6.84,-2.12 3.16,0 4.68,1.4 4.88,3.52 -10.52,0.72 -14.68,3.16 -14.68,8.08 z m 5.8,-0.44 c 0,-2.08 1.92,-3.52 8.88,-3.92 l 0,3.96 c -1.72,1.32 -3.52,2.28 -5.56,2.28 -1.96,0 -3.32,-0.76 -3.32,-2.32 z m 23.398,6.48 6.04,0 0,-11.64 c 2,-4.08 4.88,-5.52 7.68,-5.52 1.6,0 2.52,0.24 3.92,0.68 l 1.24,-5.12 c -1.28,-0.56 -2.36,-0.88 -4.24,-0.88 -3.6,0 -6.88,1.84 -9.04,5.4 l -0.16,0 -0.48,-4.88 -4.96,0 0,21.96 z m 28.76,2.88 c 0,-0.88 0.52,-1.64 1.76,-2.4 0.84,0.2 1.84,0.32 3.36,0.32 l 3.04,0 c 2.6,0 4,0.32 4,1.84 0,1.64 -2.52,3 -6.28,3 -3.68,0 -5.88,-1.04 -5.88,-2.76 z m -4.96,0.88 c 0,3.92 4.16,5.72 10,5.72 7.88,0 12.92,-3.36 12.92,-7.88 0,-3.88 -3.08,-5.52 -8.84,-5.52 l -4.2,0 c -2.6,0 -3.84,-0.52 -3.84,-1.76 0,-0.8 0.36,-1.28 1.08,-1.76 1.16,0.32 2.2,0.52 3.16,0.52 5,0 8.92,-2.44 8.92,-7.44 0,-1.28 -0.52,-2.44 -1.12,-3.16 l 4.68,0 0,-4.44 -8.96,0 c -1,-0.36 -2.24,-0.52 -3.52,-0.52 -4.96,0 -9.28,2.76 -9.28,7.96 0,2.56 1.28,4.52 2.88,5.64 l 0,0.16 c -1.6,1.08 -2.64,2.68 -2.64,4.16 0,1.8 1,2.96 2.2,3.68 l 0,0.16 c -2.24,1.16 -3.44,2.72 -3.44,4.48 z m 10.28,-14.44 c -1.96,0 -3.56,-1.36 -3.56,-3.84 0,-2.44 1.6,-3.88 3.56,-3.88 1.96,0 3.6,1.44 3.6,3.88 0,2.48 -1.64,3.84 -3.6,3.84 z m 16.56,-0.28 c 0,7.28 5.32,11.48 12.08,11.48 3.04,0 6.2,-1 8.64,-2.52 l -2,-3.68 c -1.96,1 -3.76,1.56 -5.8,1.56 -3.52,0 -6.32,-1.64 -6.72,-5.12 l 15.2,0 c 0.08,-0.52 0.24,-1.64 0.24,-2.76 0,-5.96 -3.6,-10.48 -10.28,-10.48 -5.8,0 -11.36,4.32 -11.36,11.52 z m 6.16,-2.32 c 0.52,-3.08 2.76,-4.56 5.36,-4.56 3.12,0 4.6,1.76 4.6,4.56 l -9.96,0 z m 25.997,4.28 c 0,5.68 2.4,9.52 9.24,9.52 2.76,0 5.2,-0.56 7.16,-1.2 l -1.12,-4.36 c -1.36,0.48 -2.8,0.8 -4.52,0.8 -3.36,0 -4.72,-1.4 -4.72,-4.84 l 0,-8.12 9.52,0 0,-4.76 -9.52,0 0,-5.88 -5.04,0 -0.76,5.88 -5.88,0.28 0,4.48 5.64,0 0,8.2 z m 27.64,16.92 c 5.88,-5.04 9.48,-11.88 9.48,-20.28 0,-8.36 -3.6,-15.2 -9.48,-20.24 l -3.36,2.72 c 5.44,5.12 7.76,10.44 7.76,17.52 0,7.08 -2.32,12.44 -7.76,17.56 l 3.36,2.72 z"
         style="-inkscape-font-specification:'Source Han Code JP Bold'"
         id="path10"
         inkscape:connector-curvature="0" />
      <path
         d="m 540.615,16.76 c 0,2.8 2,4.96 4.88,4.96 2.88,0 4.88,-2.16 4.88,-4.96 0,-2.8 -2,-4.96 -4.88,-4.96 -2.88,0 -4.88,2.16 -4.88,4.96 z m 0,14.6 c 0,2.84 2,4.96 4.88,4.96 2.88,0 4.88,-2.12 4.88,-4.96 0,-2.8 -2,-4.96 -4.88,-4.96 -2.88,0 -4.88,2.16 -4.88,4.96 z"
         style="-inkscape-font-specification:'Source Han Code JP Bold';fill:#6197a6"
         id="path12"
         inkscape:connector-curvature="0" />
      <path
         d="m 130.595,55.28 c -1.88,-0.68 -4.16,-1.2 -6.56,-1.2 -6.76,0 -9.68,3.88 -9.68,9 l 0,0.76 -5.88,0.28 0,4.48 5.88,0 0,17.2 6.04,0 0,-17.2 7.84,0 0,-4.76 -7.84,0 0,-0.8 c 0,-2.84 1.36,-4.2 4.32,-4.2 1.72,0 3.24,0.32 4.68,0.88 l 1.2,-4.44 z m 3,19.56 c 0,7.28 5.32,11.48 11.12,11.48 5.8,0 11.12,-4.2 11.12,-11.48 0,-7.32 -5.32,-11.52 -11.12,-11.52 -5.8,0 -11.12,4.2 -11.12,11.52 z m 6.2,0 c 0,-4 1.72,-6.64 4.92,-6.64 3.2,0 4.92,2.64 4.92,6.64 0,4 -1.72,6.6 -4.92,6.6 -3.2,0 -4.92,-2.6 -4.92,-6.6 z m 23.678,10.96 6.04,0 0,-11.64 c 2,-4.08 4.88,-5.52 7.68,-5.52 1.6,0 2.52,0.24 3.92,0.68 l 1.24,-5.12 c -1.28,-0.56 -2.36,-0.88 -4.24,-0.88 -3.6,0 -6.88,1.84 -9.04,5.4 l -0.16,0 -0.48,-4.88 -4.96,0 0,21.96 z m 51.637,-17.2 9.08,0 0,17.2 6.04,0 0,-21.96 -15.12,0 0,4.76 z m 11.8,-8.2 c 2.36,0 4.08,-1.48 4.08,-3.76 0,-2.28 -1.72,-3.88 -4.08,-3.88 -2.4,0 -4.12,1.6 -4.12,3.88 0,2.28 1.72,3.76 4.12,3.76 z m 21.08,35 c 5.92,-1.88 9.12,-5.84 9.12,-11.4 0,-4.56 -1.84,-7.28 -5.28,-7.28 -2.64,0 -4.76,1.68 -4.76,4.32 0,2.84 2.16,4.4 4.6,4.4 0.16,0 0.36,0 0.52,-0.04 -0.04,2.88 -1.92,5.04 -5.72,6.44 l 1.52,3.56 z m 53.676,-9.6 6.92,0 8.2,-21.96 -5.76,0 -3.72,10.72 c -0.72,2.16 -1.36,4.44 -2.04,6.68 l -0.2,0 c -0.64,-2.24 -1.28,-4.52 -2.04,-6.68 l -3.68,-10.72 -6.08,0 8.4,21.96 z m 19.64,-6.04 c 0,3.76 2.84,6.56 7.24,6.56 2.88,0 5.68,-1.4 7.92,-3.08 l 0.16,0 0.44,2.56 4.96,0 0,-12.72 c 0,-6.52 -3.6,-9.76 -9.72,-9.76 -3.76,0 -7.32,1.28 -10.2,3 l 2.16,3.96 c 2.4,-1.24 4.64,-2.12 6.84,-2.12 3.16,0 4.68,1.4 4.88,3.52 -10.52,0.72 -14.68,3.16 -14.68,8.08 z m 5.8,-0.44 c 0,-2.08 1.92,-3.52 8.88,-3.92 l 0,3.96 c -1.72,1.32 -3.52,2.28 -5.56,2.28 -1.96,0 -3.32,-0.76 -3.32,-2.32 z m 20.918,-19.96 6.56,0 0,18.04 c 0,5.56 2.8,8.92 8.2,8.92 2.68,0 4.24,-0.48 6.44,-1.2 l -1.36,-4.44 c -1.4,0.52 -2.52,0.76 -3.56,0.76 -1.96,0 -3.68,-0.96 -3.68,-3.76 l 0,-23.08 -12.6,0 0,4.76 z m 46.998,4.48 -6.04,0 0,14.56 c -1.64,2.08 -2.92,2.76 -4.72,2.76 -2.6,0 -3.48,-1.4 -3.48,-4.52 l 0,-12.8 -6.04,0 0,13.56 c 0,5.6 2.16,8.92 7.2,8.92 3.16,0 5.52,-1.52 7.48,-3.8 l 0.2,0 0.44,3.28 4.96,0 0,-21.96 z m 6.118,11 c 0,7.28 5.32,11.48 12.08,11.48 3.04,0 6.2,-1 8.64,-2.52 l -2,-3.68 c -1.96,1 -3.76,1.56 -5.8,1.56 -3.52,0 -6.32,-1.64 -6.72,-5.12 l 15.2,0 c 0.08,-0.52 0.24,-1.64 0.24,-2.76 0,-5.96 -3.6,-10.48 -10.28,-10.48 -5.8,0 -11.36,4.32 -11.36,11.52 z m 6.16,-2.32 c 0.52,-3.08 2.76,-4.56 5.36,-4.56 3.12,0 4.6,1.76 4.6,4.56 l -9.96,0 z m 48.28,-3.92 9.08,0 0,17.2 6.04,0 0,-21.96 -15.12,0 0,4.76 z m 11.8,-8.2 c 2.36,0 4.08,-1.48 4.08,-3.76 0,-2.28 -1.72,-3.88 -4.08,-3.88 -2.4,0 -4.12,1.6 -4.12,3.88 0,2.28 1.72,3.76 4.12,3.76 z m 14.717,25.4 6.04,0 0,-14.76 c 1.72,-1.68 2.96,-2.56 4.88,-2.56 2.56,0 3.52,1.4 3.52,4.56 l 0,12.76 6.04,0 0,-13.56 c 0,-5.6 -2.24,-8.92 -7.2,-8.92 -3.32,0 -5.76,1.64 -7.72,3.6 l -0.16,0 -0.48,-3.08 -4.92,0 0,21.96 z m 52.638,-10.96 c 0,7.28 5.32,11.48 12.08,11.48 3.04,0 6.2,-1 8.64,-2.52 l -2,-3.68 c -1.96,1 -3.76,1.56 -5.8,1.56 -3.52,0 -6.32,-1.64 -6.72,-5.12 l 15.2,0 c 0.08,-0.52 0.24,-1.64 0.24,-2.76 0,-5.96 -3.6,-10.48 -10.28,-10.48 -5.8,0 -11.36,4.32 -11.36,11.52 z m 6.16,-2.32 c 0.52,-3.08 2.76,-4.56 5.36,-4.56 3.12,0 4.6,1.76 4.6,4.56 l -9.96,0 z m 21.36,13.28 6.04,0 0,-14.76 c 1.72,-1.68 2.96,-2.56 4.88,-2.56 2.56,0 3.52,1.4 3.52,4.56 l 0,12.76 6.04,0 0,-13.56 c 0,-5.6 -2.24,-8.92 -7.2,-8.92 -3.32,0 -5.76,1.64 -7.72,3.6 l -0.16,0 -0.48,-3.08 -4.92,0 0,21.96 z m 46.517,-21.96 -6.04,0 0,14.56 c -1.64,2.08 -2.92,2.76 -4.72,2.76 -2.6,0 -3.48,-1.4 -3.48,-4.52 l 0,-12.8 -6.04,0 0,13.56 c 0,5.6 2.16,8.92 7.2,8.92 3.16,0 5.52,-1.52 7.48,-3.8 l 0.2,0 0.44,3.28 4.96,0 0,-21.96 z m 5.318,21.96 5.72,0 0,-15 c 0.68,-1.56 1.32,-2.32 2.24,-2.32 0.96,0 1.48,0.76 1.48,2.32 l 0,15 4.64,0 0,-15 c 0.68,-1.56 1.44,-2.32 2.36,-2.32 1,0 1.4,0.76 1.4,2.32 l 0,15 5.72,0 0,-15.44 c 0,-4.4 -1.8,-7.04 -4.88,-7.04 -2.44,0 -4,1.6 -4.88,3.6 -0.48,-2.36 -1.92,-3.6 -3.88,-3.6 -2.52,0 -3.84,1.44 -4.76,3.32 l -0.16,0 -0.44,-2.8 -4.56,0 0,21.96 z m 27.52,-10.96 c 0,7.28 5.32,11.48 12.08,11.48 3.04,0 6.2,-1 8.64,-2.52 l -2,-3.68 c -1.96,1 -3.76,1.56 -5.8,1.56 -3.52,0 -6.32,-1.64 -6.72,-5.12 l 15.2,0 c 0.08,-0.52 0.24,-1.64 0.24,-2.76 0,-5.96 -3.6,-10.48 -10.28,-10.48 -5.8,0 -11.36,4.32 -11.36,11.52 z m 6.16,-2.32 c 0.52,-3.08 2.76,-4.56 5.36,-4.56 3.12,0 4.6,1.76 4.6,4.56 l -9.96,0 z m 23.36,13.28 6.04,0 0,-11.64 c 2,-4.08 4.88,-5.52 7.68,-5.52 1.6,0 2.52,0.24 3.92,0.68 l 1.24,-5.12 c -1.28,-0.56 -2.36,-0.88 -4.24,-0.88 -3.6,0 -6.88,1.84 -9.04,5.4 l -0.16,0 -0.48,-4.88 -4.96,0 0,21.96 z m 24.237,-6.04 c 0,3.76 2.84,6.56 7.24,6.56 2.88,0 5.68,-1.4 7.92,-3.08 l 0.16,0 0.44,2.56 4.96,0 0,-12.72 c 0,-6.52 -3.6,-9.76 -9.72,-9.76 -3.76,0 -7.32,1.28 -10.2,3 l 2.16,3.96 c 2.4,-1.24 4.64,-2.12 6.84,-2.12 3.16,0 4.68,1.4 4.88,3.52 -10.52,0.72 -14.68,3.16 -14.68,8.08 z m 5.8,-0.44 c 0,-2.08 1.92,-3.52 8.88,-3.92 l 0,3.96 c -1.72,1.32 -3.52,2.28 -5.56,2.28 -1.96,0 -3.32,-0.76 -3.32,-2.32 z m 26.04,-2.52 c 0,5.68 2.4,9.52 9.24,9.52 2.76,0 5.2,-0.56 7.16,-1.2 l -1.12,-4.36 c -1.36,0.48 -2.8,0.8 -4.52,0.8 -3.36,0 -4.72,-1.4 -4.72,-4.84 l 0,-8.12 9.52,0 0,-4.76 -9.52,0 0,-5.88 -5.04,0 -0.76,5.88 -5.88,0.28 0,4.48 5.64,0 0,8.2 z m 21.278,-1.96 c 0,7.28 5.32,11.48 12.08,11.48 3.04,0 6.2,-1 8.64,-2.52 l -2,-3.68 c -1.96,1 -3.76,1.56 -5.8,1.56 -3.52,0 -6.32,-1.64 -6.72,-5.12 l 15.2,0 c 0.08,-0.52 0.24,-1.64 0.24,-2.76 0,-5.96 -3.6,-10.48 -10.28,-10.48 -5.8,0 -11.36,4.32 -11.36,11.52 z m 6.16,-2.32 c 0.52,-3.08 2.76,-4.56 5.36,-4.56 3.12,0 4.6,1.76 4.6,4.56 l -9.96,0 z m 35.72,21.2 3.36,-2.72 c -5.44,-5.12 -7.76,-10.48 -7.76,-17.56 0,-7.08 2.32,-12.4 7.76,-17.52 l -3.36,-2.72 c -5.84,5.04 -9.48,11.88 -9.48,20.24 0,8.4 3.64,15.24 9.48,20.28 z m 11.517,-10.76 c 2.72,1.84 6.72,3.36 10.72,3.36 6.88,0 10.64,-3.08 10.64,-6.96 0,-3.76 -3.6,-5.4 -8.2,-6.6 -3.28,-0.84 -5.8,-1.56 -5.8,-2.96 0,-1.24 1.08,-1.96 4.04,-1.96 2.4,0 4.56,0.88 6.56,2.12 l 2.72,-3.68 c -2.28,-1.44 -5.56,-2.96 -9.36,-2.96 -6.28,0 -10,2.76 -10,6.76 0,3.44 3.96,5.28 7.92,6.4 3.84,1 6.08,1.84 6.08,3.2 0,1.28 -1.32,2.12 -4.44,2.12 -3.12,0 -5.64,-1 -8.16,-2.64 l -2.72,3.8 z m 26.758,-8.12 c 0,7.28 5.32,11.48 12.08,11.48 3.04,0 6.2,-1 8.64,-2.52 l -2,-3.68 c -1.96,1 -3.76,1.56 -5.8,1.56 -3.52,0 -6.32,-1.64 -6.72,-5.12 l 15.2,0 c 0.08,-0.52 0.24,-1.64 0.24,-2.76 0,-5.96 -3.6,-10.48 -10.28,-10.48 -5.8,0 -11.36,4.32 -11.36,11.52 z m 6.16,-2.32 c 0.52,-3.08 2.76,-4.56 5.36,-4.56 3.12,0 4.6,1.76 4.6,4.56 l -9.96,0 z m 20.2,2.32 c 0,7.2 3.68,11.48 9.32,11.48 2.12,0 4.36,-1.12 5.96,-2.64 l -0.24,3.48 0,6.96 6.04,0 0,-30.28 -4.76,0 -0.48,2.28 -0.16,0 c -1.84,-1.92 -3.72,-2.8 -6.2,-2.8 -4.84,0 -9.48,4.32 -9.48,11.52 z m 6.2,-0.08 c 0,-4.28 2.2,-6.48 4.8,-6.48 1.4,0 2.72,0.44 4.04,1.64 l 0,9.2 c -1.28,1.6 -2.64,2.24 -4.24,2.24 -2.88,0 -4.6,-2.12 -4.6,-6.6 z m 27.24,18.96 c 5.88,-5.04 9.48,-11.88 9.48,-20.28 0,-8.36 -3.6,-15.2 -9.48,-20.24 l -3.36,2.72 c 5.44,5.12 7.76,10.44 7.76,17.52 0,7.08 -2.32,12.44 -7.76,17.56 l 3.36,2.72 z"
         style="-inkscape-font-specification:'Source Han Code JP Bold'"
         id="path14"
         inkscape:connector-curvature="0" />
      <path
         d="m 914.677,66.76 c 0,2.8 2,4.96 4.88,4.96 2.88,0 4.88,-2.16 4.88,-4.96 0,-2.8 -2,-4.96 -4.88,-4.96 -2.88,0 -4.88,2.16 -4.88,4.96 z m 0,14.6 c 0,2.84 2,4.96 4.88,4.96 2.88,0 4.88,-2.12 4.88,-4.96 0,-2.8 -2,-4.96 -4.88,-4.96 -2.88,0 -4.88,2.16 -4.88,4.96 z"
         style="-inkscape-font-specification:'Source Han Code JP Bold';fill:#6197a6"
         id="path16"
         inkscape:connector-curvature="0" />
      <path
         d="m 215.11,118.6 9.08,0 0,17.2 6.04,0 0,-21.96 -15.12,0 0,4.76 z m 11.8,-8.2 c 2.36,0 4.08,-1.48 4.08,-3.76 0,-2.28 -1.72,-3.88 -4.08,-3.88 -2.4,0 -4.12,1.6 -4.12,3.88 0,2.28 1.72,3.76 4.12,3.76 z m 37.28,-5.12 c -1.88,-0.68 -4.16,-1.2 -6.56,-1.2 -6.76,0 -9.68,3.88 -9.68,9 l 0,0.76 -5.88,0.28 0,4.48 5.88,0 0,17.2 6.04,0 0,-17.2 7.84,0 0,-4.76 -7.84,0 0,-0.8 c 0,-2.84 1.36,-4.2 4.32,-4.2 1.72,0 3.24,0.32 4.68,0.88 l 1.2,-4.44 z"
         style="-inkscape-font-specification:'Source Han Code JP Bold'"
         id="path18"
         inkscape:connector-curvature="0" />
      <path
         d="m 620.77,116.76 c 0,2.8 2,4.96 4.88,4.96 2.88,0 4.88,-2.16 4.88,-4.96 0,-2.8 -2,-4.96 -4.88,-4.96 -2.88,0 -4.88,2.16 -4.88,4.96 z m 0,14.6 c 0,2.84 2,4.96 4.88,4.96 2.88,0 4.88,-2.12 4.88,-4.96 0,-2.8 -2,-4.96 -4.88,-4.96 -2.88,0 -4.88,2.16 -4.88,4.96 z"
         style="-inkscape-font-specification:'Source Han Code JP Bold';fill:#6197a6"
         id="path20"
         inkscape:connector-curvature="0" />
      <path
         d="m 321.785,185.8 4.76,0 0.48,-2.4 0.16,0 c 1.84,1.92 4.08,2.92 6.12,2.92 4.96,0 9.56,-4.28 9.56,-11.84 0,-6.76 -3.32,-11.16 -8.88,-11.16 -2.2,0 -4.52,1 -6.28,2.64 l 0.12,-3.6 0,-7.76 -6.04,0 0,31.2 z m 6.04,-6.08 0,-9.2 c 1.52,-1.6 2.96,-2.24 4.48,-2.24 3,0 4.36,2.2 4.36,6.28 0,4.68 -2.08,6.8 -4.72,6.8 -1.2,0 -2.76,-0.44 -4.12,-1.64 z m 22.68,6.08 6.04,0 0,-11.64 c 2,-4.08 4.88,-5.52 7.68,-5.52 1.6,0 2.52,0.24 3.92,0.68 l 1.24,-5.12 c -1.28,-0.56 -2.36,-0.88 -4.24,-0.88 -3.6,0 -6.88,1.84 -9.04,5.4 l -0.16,0 -0.48,-4.88 -4.96,0 0,21.96 z m 23.917,-10.96 c 0,7.28 5.32,11.48 12.08,11.48 3.04,0 6.2,-1 8.64,-2.52 l -2,-3.68 c -1.96,1 -3.76,1.56 -5.8,1.56 -3.52,0 -6.32,-1.64 -6.72,-5.12 l 15.2,0 c 0.08,-0.52 0.24,-1.64 0.24,-2.76 0,-5.96 -3.6,-10.48 -10.28,-10.48 -5.8,0 -11.36,4.32 -11.36,11.52 z m 6.16,-2.32 c 0.52,-3.08 2.76,-4.56 5.36,-4.56 3.12,0 4.6,1.76 4.6,4.56 l -9.96,0 z m 20.878,7.24 c 0,3.76 2.84,6.56 7.24,6.56 2.88,0 5.68,-1.4 7.92,-3.08 l 0.16,0 0.44,2.56 4.96,0 0,-12.72 c 0,-6.52 -3.6,-9.76 -9.72,-9.76 -3.76,0 -7.32,1.28 -10.2,3 l 2.16,3.96 c 2.4,-1.24 4.64,-2.12 6.84,-2.12 3.16,0 4.68,1.4 4.88,3.52 -10.52,0.72 -14.68,3.16 -14.68,8.08 z m 5.8,-0.44 c 0,-2.08 1.92,-3.52 8.88,-3.92 l 0,3.96 c -1.72,1.32 -3.52,2.28 -5.56,2.28 -1.96,0 -3.32,-0.76 -3.32,-2.32 z m 21.6,6.48 6.08,0 0,-5.6 3.56,-3.64 6.12,9.24 6.6,0 -9.16,-13 8.36,-8.96 -6.64,0 -8.68,9.32 -0.16,0 0,-18.56 -6.08,0 0,31.2 z m -321.625,39.04 c 0,7.28 5.32,11.48 12.08,11.48 3.04,0 6.2,-1 8.64,-2.52 l -2,-3.68 c -1.96,1 -3.76,1.56 -5.8,1.56 -3.52,0 -6.32,-1.64 -6.72,-5.12 l 15.2,0 c 0.08,-0.52 0.24,-1.64 0.24,-2.76 0,-5.96 -3.6,-10.48 -10.28,-10.48 -5.8,0 -11.36,4.32 -11.36,11.52 z m 6.16,-2.32 c 0.52,-3.08 2.76,-4.56 5.36,-4.56 3.12,0 4.6,1.76 4.6,4.56 l -9.96,0 z m 20.88,-13.16 6.56,0 0,18.04 c 0,5.56 2.8,8.92 8.2,8.92 2.68,0 4.24,-0.48 6.44,-1.2 l -1.36,-4.44 c -1.4,0.52 -2.52,0.76 -3.56,0.76 -1.96,0 -3.68,-0.96 -3.68,-3.76 l 0,-23.08 -12.6,0 0,4.76 z m 26.358,23.6 c 2.72,1.84 6.72,3.36 10.72,3.36 6.88,0 10.64,-3.08 10.64,-6.96 0,-3.76 -3.6,-5.4 -8.2,-6.6 -3.28,-0.84 -5.8,-1.56 -5.8,-2.96 0,-1.24 1.08,-1.96 4.04,-1.96 2.4,0 4.56,0.88 6.56,2.12 l 2.72,-3.68 c -2.28,-1.44 -5.56,-2.96 -9.36,-2.96 -6.28,0 -10,2.76 -10,6.76 0,3.44 3.96,5.28 7.92,6.4 3.84,1 6.08,1.84 6.08,3.2 0,1.28 -1.32,2.12 -4.44,2.12 -3.12,0 -5.64,-1 -8.16,-2.64 l -2.72,3.8 z m 26.757,-8.12 c 0,7.28 5.32,11.48 12.08,11.48 3.04,0 6.2,-1 8.64,-2.52 l -2,-3.68 c -1.96,1 -3.76,1.56 -5.8,1.56 -3.52,0 -6.32,-1.64 -6.72,-5.12 l 15.2,0 c 0.08,-0.52 0.24,-1.64 0.24,-2.76 0,-5.96 -3.6,-10.48 -10.28,-10.48 -5.8,0 -11.36,4.32 -11.36,11.52 z m 6.16,-2.32 c 0.52,-3.08 2.76,-4.56 5.36,-4.56 3.12,0 4.6,1.76 4.6,4.56 l -9.96,0 z"
         style="-inkscape-font-specification:'Source Han Code JP Bold'"
         id="path22"
         inkscape:connector-curvature="0" />
      <path
         d="m 219.99,216.76 c 0,2.8 2,4.96 4.88,4.96 2.88,0 4.88,-2.16 4.88,-4.96 0,-2.8 -2,-4.96 -4.88,-4.96 -2.88,0 -4.88,2.16 -4.88,4.96 z m 0,14.6 c 0,2.84 2,4.96 4.88,4.96 2.88,0 4.88,-2.12 4.88,-4.96 0,-2.8 -2,-4.96 -4.88,-4.96 -2.88,0 -4.88,2.16 -4.88,4.96 z"
         style="-inkscape-font-specification:'Source Han Code JP Bold';fill:#6197a6"
         id="path24"
         inkscape:connector-curvature="0" />
      <path
         d="m 216.91,285.8 6.04,0 0,-11.64 c 2,-4.08 4.88,-5.52 7.68,-5.52 1.6,0 2.52,0.24 3.92,0.68 l 1.24,-5.12 c -1.28,-0.56 -2.36,-0.88 -4.24,-0.88 -3.6,0 -6.88,1.84 -9.04,5.4 l -0.16,0 -0.48,-4.88 -4.96,0 0,21.96 z m 23.92,-10.96 c 0,7.28 5.32,11.48 12.08,11.48 3.04,0 6.2,-1 8.64,-2.52 l -2,-3.68 c -1.96,1 -3.76,1.56 -5.8,1.56 -3.52,0 -6.32,-1.64 -6.72,-5.12 l 15.2,0 c 0.08,-0.52 0.24,-1.64 0.24,-2.76 0,-5.96 -3.6,-10.48 -10.28,-10.48 -5.8,0 -11.36,4.32 -11.36,11.52 z m 6.16,-2.32 c 0.52,-3.08 2.76,-4.56 5.36,-4.56 3.12,0 4.6,1.76 4.6,4.56 l -9.96,0 z m 25.997,4.28 c 0,5.68 2.4,9.52 9.24,9.52 2.76,0 5.2,-0.56 7.16,-1.2 l -1.12,-4.36 c -1.36,0.48 -2.8,0.8 -4.52,0.8 -3.36,0 -4.72,-1.4 -4.72,-4.84 l 0,-8.12 9.52,0 0,-4.76 -9.52,0 0,-5.88 -5.04,0 -0.76,5.88 -5.88,0.28 0,4.48 5.64,0 0,8.2 z m 41.88,-12.96 -6.04,0 0,14.56 c -1.64,2.08 -2.92,2.76 -4.72,2.76 -2.6,0 -3.48,-1.4 -3.48,-4.52 l 0,-12.8 -6.04,0 0,13.56 c 0,5.6 2.16,8.92 7.2,8.92 3.16,0 5.52,-1.52 7.48,-3.8 l 0.2,0 0.44,3.28 4.96,0 0,-21.96 z m 8.918,21.96 6.04,0 0,-11.64 c 2,-4.08 4.88,-5.52 7.68,-5.52 1.6,0 2.52,0.24 3.92,0.68 l 1.24,-5.12 c -1.28,-0.56 -2.36,-0.88 -4.24,-0.88 -3.6,0 -6.88,1.84 -9.04,5.4 l -0.16,0 -0.48,-4.88 -4.96,0 0,21.96 z m 24.72,0 6.04,0 0,-14.76 c 1.72,-1.68 2.96,-2.56 4.88,-2.56 2.56,0 3.52,1.4 3.52,4.56 l 0,12.76 6.04,0 0,-13.56 c 0,-5.6 -2.24,-8.92 -7.2,-8.92 -3.32,0 -5.76,1.64 -7.72,3.6 l -0.16,0 -0.48,-3.08 -4.92,0 0,21.96 z m 53.315,-12.52 20.16,0 0,-4.28 -20.16,0 0,4.28 z m 40.72,7.64 0,-23.36 -4.48,0 c -2.04,1.2 -4.2,1.96 -7.48,2.52 l 0,3.76 5.88,0 0,17.08 -7.44,0 0,4.88 20.08,0 0,-4.88 -6.56,0 z m -332.505,54.88 6.04,0 0,-11.64 c 2,-4.08 4.88,-5.52 7.68,-5.52 1.6,0 2.52,0.24 3.92,0.68 l 1.24,-5.12 c -1.28,-0.56 -2.36,-0.88 -4.24,-0.88 -3.6,0 -6.88,1.84 -9.04,5.4 l -0.16,0 -0.48,-4.88 -4.96,0 0,21.96 z m 23.92,-10.96 c 0,7.28 5.32,11.48 12.08,11.48 3.04,0 6.2,-1 8.64,-2.52 l -2,-3.68 c -1.96,1 -3.76,1.56 -5.8,1.56 -3.52,0 -6.32,-1.64 -6.72,-5.12 l 15.2,0 c 0.08,-0.52 0.24,-1.64 0.24,-2.76 0,-5.96 -3.6,-10.48 -10.28,-10.48 -5.8,0 -11.36,4.32 -11.36,11.52 z m 6.16,-2.32 c 0.52,-3.08 2.76,-4.56 5.36,-4.56 3.12,0 4.6,1.76 4.6,4.56 l -9.96,0 z m 25.997,4.28 c 0,5.68 2.4,9.52 9.24,9.52 2.76,0 5.2,-0.56 7.16,-1.2 l -1.12,-4.36 c -1.36,0.48 -2.8,0.8 -4.52,0.8 -3.36,0 -4.72,-1.4 -4.72,-4.84 l 0,-8.12 9.52,0 0,-4.76 -9.52,0 0,-5.88 -5.04,0 -0.76,5.88 -5.88,0.28 0,4.48 5.64,0 0,8.2 z m 41.878,-12.96 -6.04,0 0,14.56 c -1.64,2.08 -2.92,2.76 -4.72,2.76 -2.6,0 -3.48,-1.4 -3.48,-4.52 l 0,-12.8 -6.04,0 0,13.56 c 0,5.6 2.16,8.92 7.2,8.92 3.16,0 5.52,-1.52 7.48,-3.8 l 0.2,0 0.44,3.28 4.96,0 0,-21.96 z m 8.92,21.96 6.04,0 0,-11.64 c 2,-4.08 4.88,-5.52 7.68,-5.52 1.6,0 2.52,0.24 3.92,0.68 l 1.24,-5.12 c -1.28,-0.56 -2.36,-0.88 -4.24,-0.88 -3.6,0 -6.88,1.84 -9.04,5.4 l -0.16,0 -0.48,-4.88 -4.96,0 0,21.96 z m 24.72,0 6.04,0 0,-14.76 c 1.72,-1.68 2.96,-2.56 4.88,-2.56 2.56,0 3.52,1.4 3.52,4.56 l 0,12.76 6.04,0 0,-13.56 c 0,-5.6 -2.24,-8.92 -7.2,-8.92 -3.32,0 -5.76,1.64 -7.72,3.6 l -0.16,0 -0.48,-3.08 -4.92,0 0,21.96 z m 53.636,-17.2 9.08,0 0,17.2 6.04,0 0,-21.96 -15.12,0 0,4.76 z m 11.8,-8.2 c 2.36,0 4.08,-1.48 4.08,-3.76 0,-2.28 -1.72,-3.88 -4.08,-3.88 -2.4,0 -4.12,1.6 -4.12,3.88 0,2.28 1.72,3.76 4.12,3.76 z"
         style="-inkscape-font-specification:'Source Han Code JP Bold'"
         id="path26"
         inkscape:connector-curvature="0" />
    </g>
    <path
       d="m 85.897,19.258 c 0.01,10.63 8.57,19.27 13.885,19.347 l 69.323,0.137 c 6.587,0.058 15.54,-8.615 15.54,-19.312 0,-10.697 -8.953,-19.37 -15.225,-19.34 L 101.354,0 C 94.57,-0.116 85.897,8.558 85.897,19.26 Z"
       id="path28"
       inkscape:connector-curvature="0"
       style="fill:#909060" />
    <path
       d="m 284.373,120.273 c 0.01,10.63 8.57,19.27 13.885,19.348 l 295.037,0.14 c 6.588,0.058 15.542,-8.614 15.542,-19.312 0,-10.697 -8.954,-19.37 -15.226,-19.34 l -293.78,-0.09 c -6.78,-0.117 -15.454,8.558 -15.454,19.258 z"
       id="path30"
       inkscape:connector-curvature="0"
       style="fill:#c09090" />
  </g>
</svg>
