<?xml version="1.0" encoding="UTF-8" standalone="no"?>
<svg
   xmlns:dc="http://purl.org/dc/elements/1.1/"
   xmlns:cc="http://creativecommons.org/ns#"
   xmlns:rdf="http://www.w3.org/1999/02/22-rdf-syntax-ns#"
   xmlns:svg="http://www.w3.org/2000/svg"
   xmlns="http://www.w3.org/2000/svg"
   xmlns:sodipodi="http://sodipodi.sourceforge.net/DTD/sodipodi-0.dtd"
   xmlns:inkscape="http://www.inkscape.org/namespaces/inkscape"
   viewBox="0 0 1700.542 44.06329"
   id="svg2"
   version="1.1"
   inkscape:version="0.91 r13725"
   sodipodi:docname="code-3.svg"
   width="1700.542"
   height="44.06329">
  <metadata
     id="metadata22">
    <rdf:RDF>
      <cc:Work
         rdf:about="">
        <dc:format>image/svg+xml</dc:format>
        <dc:type
           rdf:resource="http://purl.org/dc/dcmitype/StillImage" />
        <dc:title></dc:title>
      </cc:Work>
    </rdf:RDF>
  </metadata>
  <defs
     id="defs20" />
  <sodipodi:namedview
     pagecolor="#ffffff"
     bordercolor="#666666"
     borderopacity="1"
     objecttolerance="10"
     gridtolerance="10"
     guidetolerance="10"
     inkscape:pageopacity="0"
     inkscape:pageshadow="2"
     inkscape:window-width="1536"
     inkscape:window-height="864"
     id="namedview18"
     showgrid="false"
     fit-margin-left="400"
     fit-margin-right="56"
     fit-margin-top="0"
     fit-margin-bottom="0"
     inkscape:zoom="0.42666265"
     inkscape:cx="1022.2715"
     inkscape:cy="22.03129"
     inkscape:window-x="0"
     inkscape:window-y="0"
     inkscape:window-maximized="0"
     inkscape:current-layer="svg2" />
  <g
     id="g4"
     style="fill-opacity:0.78399999"
     transform="translate(400,0)">
    <g
       style="font-weight:bold;font-size:40px;line-height:125%;font-family:'Source Han Code JP';letter-spacing:0;word-spacing:0;fill:#ffffff"
       font-size="40"
       letter-spacing="0"
       word-spacing="0"
       font-weight="bold"
       id="g6">
      <path
         d="m 5.84,31.12 c 1.68,1.56 3.68,2.44 5.64,2.44 5,0 9.6,-4.28 9.6,-11.84 0,-6.76 -3.28,-11.16 -8.84,-11.16 -2.4,0 -4.92,1.2 -6.72,2.84 l -0.12,0 -0.48,-2.32 -4.92,0 0,30.28 6.04,0 0,-6.6 -0.2,-3.64 z m 0.2,-4.16 0,-9.2 c 1.52,-1.6 2.96,-2.24 4.48,-2.24 3,0 4.36,2.2 4.36,6.28 0,4.68 -2.08,6.8 -4.72,6.8 -1.2,0 -2.76,-0.44 -4.12,-1.64 z m 40.48,-15.88 -6.04,0 0,14.56 c -1.64,2.08 -2.92,2.76 -4.72,2.76 -2.6,0 -3.48,-1.4 -3.48,-4.52 l 0,-12.8 -6.04,0 0,13.56 c 0,5.6 2.16,8.92 7.2,8.92 3.16,0 5.52,-1.52 7.48,-3.8 l 0.2,0 0.44,3.28 4.96,0 0,-21.96 z m 6.917,21.96 4.76,0 0.48,-2.4 0.16,0 c 1.84,1.92 4.08,2.92 6.12,2.92 4.96,0 9.56,-4.28 9.56,-11.84 0,-6.76 -3.32,-11.16 -8.88,-11.16 -2.2,0 -4.52,1 -6.28,2.64 l 0.12,-3.6 0,-7.76 -6.04,0 0,31.2 z m 6.04,-6.08 0,-9.2 c 1.52,-1.6 2.96,-2.24 4.48,-2.24 3,0 4.36,2.2 4.36,6.28 0,4.68 -2.08,6.8 -4.72,6.8 -1.2,0 -2.76,-0.44 -4.12,-1.64 z m 20.2,-20.36 6.56,0 0,18.04 c 0,5.56 2.8,8.92 8.2,8.92 2.68,0 4.24,-0.48 6.44,-1.2 l -1.36,-4.44 c -1.4,0.52 -2.52,0.76 -3.56,0.76 -1.96,0 -3.68,-0.96 -3.68,-3.76 l 0,-23.08 -12.6,0 0,4.76 z m 27.398,9.24 9.08,0 0,17.2 6.04,0 0,-21.96 -15.12,0 0,4.76 z m 11.8,-8.2 c 2.36,0 4.08,-1.48 4.08,-3.76 0,-2.28 -1.72,-3.88 -4.08,-3.88 -2.4,0 -4.12,1.6 -4.12,3.88 0,2.28 1.72,3.76 4.12,3.76 z m 14.44,14.44 c 0,7.28 5.28,11.48 12.2,11.48 3.04,0 6.36,-1.04 9,-3.28 l -2.48,-3.8 c -1.64,1.16 -3.6,2.2 -6,2.2 -3.84,0 -6.52,-2.6 -6.52,-6.6 0,-4 2.76,-6.64 6.72,-6.64 1.8,0 3.36,0.64 5.04,1.92 l 2.84,-3.8 c -1.84,-1.72 -4.68,-3 -8.2,-3 -6.72,0 -12.6,4.2 -12.6,11.52 z m 52.875,8.12 c 2.72,1.84 6.72,3.36 10.72,3.36 6.88,0 10.64,-3.08 10.64,-6.96 0,-3.76 -3.6,-5.4 -8.2,-6.6 -3.28,-0.84 -5.8,-1.56 -5.8,-2.96 0,-1.24 1.08,-1.96 4.04,-1.96 2.4,0 4.56,0.88 6.56,2.12 l 2.72,-3.68 c -2.28,-1.44 -5.56,-2.96 -9.36,-2.96 -6.28,0 -10,2.76 -10,6.76 0,3.44 3.96,5.28 7.92,6.4 3.84,1 6.08,1.84 6.08,3.2 0,1.28 -1.32,2.12 -4.44,2.12 -3.12,0 -5.64,-1 -8.16,-2.64 l -2.72,3.8 z m 32.2,-6.16 c 0,5.68 2.4,9.52 9.24,9.52 2.76,0 5.2,-0.56 7.16,-1.2 L 233.67,28 c -1.36,0.48 -2.8,0.8 -4.52,0.8 -3.36,0 -4.72,-1.4 -4.72,-4.84 l 0,-8.12 9.52,0 0,-4.76 -9.52,0 0,-5.88 -5.04,0 -0.76,5.88 -5.88,0.28 0,4.48 5.64,0 0,8.2 z m 24.08,9 6.04,0 0,-11.64 c 2,-4.08 4.88,-5.52 7.68,-5.52 1.6,0 2.52,0.24 3.92,0.68 l 1.24,-5.12 c -1.28,-0.56 -2.36,-0.88 -4.24,-0.88 -3.6,0 -6.88,1.84 -9.04,5.4 l -0.16,0 -0.48,-4.88 -4.96,0 0,21.96 z m 24.917,-17.2 9.08,0 0,17.2 6.04,0 0,-21.96 -15.12,0 0,4.76 z m 11.8,-8.2 c 2.36,0 4.08,-1.48 4.08,-3.76 0,-2.28 -1.72,-3.88 -4.08,-3.88 -2.4,0 -4.12,1.6 -4.12,3.88 0,2.28 1.72,3.76 4.12,3.76 z m 14.72,25.4 6.04,0 0,-14.76 c 1.72,-1.68 2.96,-2.56 4.88,-2.56 2.56,0 3.52,1.4 3.52,4.56 l 0,12.76 6.04,0 0,-13.56 c 0,-5.6 -2.24,-8.92 -7.2,-8.92 -3.32,0 -5.76,1.64 -7.72,3.6 l -0.16,0 -0.48,-3.08 -4.92,0 0,21.96 z m 30.758,2.88 c 0,-0.88 0.52,-1.64 1.76,-2.4 0.84,0.2 1.84,0.32 3.36,0.32 l 3.04,0 c 2.6,0 4,0.32 4,1.84 0,1.64 -2.52,3 -6.28,3 -3.68,0 -5.88,-1.04 -5.88,-2.76 z m -4.96,0.88 c 0,3.92 4.16,5.72 10,5.72 7.88,0 12.92,-3.36 12.92,-7.88 0,-3.88 -3.08,-5.52 -8.84,-5.52 l -4.2,0 c -2.6,0 -3.84,-0.52 -3.84,-1.76 0,-0.8 0.36,-1.28 1.08,-1.76 1.16,0.32 2.2,0.52 3.16,0.52 5,0 8.92,-2.44 8.92,-7.44 0,-1.28 -0.52,-2.44 -1.12,-3.16 l 4.68,0 0,-4.44 -8.96,0 c -1,-0.36 -2.24,-0.52 -3.52,-0.52 -4.96,0 -9.28,2.76 -9.28,7.96 0,2.56 1.28,4.52 2.88,5.64 l 0,0.16 c -1.6,1.08 -2.64,2.68 -2.64,4.16 0,1.8 1,2.96 2.2,3.68 l 0,0.16 c -2.24,1.16 -3.44,2.72 -3.44,4.48 z m 10.28,-14.44 c -1.96,0 -3.56,-1.36 -3.56,-3.84 0,-2.44 1.6,-3.88 3.56,-3.88 1.96,0 3.6,1.44 3.6,3.88 0,2.48 -1.64,3.84 -3.6,3.84 z m 318.425,11.2 c 0,4.76 2.56,6.24 8.24,6.24 l 3.32,0 0,-3.24 -1.92,0 c -3.84,0 -4.68,-0.72 -4.68,-3.28 0,-2.44 0.2,-4.64 0.2,-7.36 0,-3.28 -1.2,-4.6 -4.36,-5.12 l 0,-0.2 c 3.16,-0.52 4.36,-1.84 4.36,-5.12 0,-2.64 -0.2,-5 -0.2,-7.36 0,-2.56 0.84,-3.28 4.68,-3.28 l 1.92,0 0,-3.24 -3.32,0 c -5.68,0 -8.24,1.48 -8.24,6.24 0,3.12 0.44,5 0.44,7.76 0,1.6 -1.32,3.24 -6.16,3.32 l 0,3.56 c 4.84,0.08 6.16,1.72 6.16,3.32 0,2.84 -0.44,4.6 -0.44,7.76 z m 50.317,2.36 c 0,-0.88 0.52,-1.64 1.76,-2.4 0.84,0.2 1.84,0.32 3.36,0.32 l 3.04,0 c 2.6,0 4,0.32 4,1.84 0,1.64 -2.52,3 -6.28,3 -3.68,0 -5.88,-1.04 -5.88,-2.76 z m -4.96,0.88 c 0,3.92 4.16,5.72 10,5.72 7.88,0 12.92,-3.36 12.92,-7.88 0,-3.88 -3.08,-5.52 -8.84,-5.52 l -4.2,0 c -2.6,0 -3.84,-0.52 -3.84,-1.76 0,-0.8 0.36,-1.28 1.08,-1.76 1.16,0.32 2.2,0.52 3.16,0.52 5,0 8.92,-2.44 8.92,-7.44 0,-1.28 -0.52,-2.44 -1.12,-3.16 l 4.68,0 0,-4.44 -8.96,0 c -1,-0.36 -2.24,-0.52 -3.52,-0.52 -4.96,0 -9.28,2.76 -9.28,7.96 0,2.56 1.28,4.52 2.88,5.64 l 0,0.16 c -1.6,1.08 -2.64,2.68 -2.64,4.16 0,1.8 1,2.96 2.2,3.68 l 0,0.16 c -2.24,1.16 -3.44,2.72 -3.44,4.48 z m 10.28,-14.44 c -1.96,0 -3.56,-1.36 -3.56,-3.84 0,-2.44 1.6,-3.88 3.56,-3.88 1.96,0 3.6,1.44 3.6,3.88 0,2.48 -1.64,3.84 -3.6,3.84 z m 16.56,-0.28 c 0,7.28 5.32,11.48 12.08,11.48 3.04,0 6.2,-1 8.64,-2.52 l -2,-3.68 c -1.96,1 -3.76,1.56 -5.8,1.56 -3.52,0 -6.32,-1.64 -6.72,-5.12 l 15.2,0 c 0.08,-0.52 0.24,-1.64 0.24,-2.76 0,-5.96 -3.6,-10.48 -10.28,-10.48 -5.8,0 -11.36,4.32 -11.36,11.52 z m 6.16,-2.32 c 0.52,-3.08 2.76,-4.56 5.36,-4.56 3.12,0 4.6,1.76 4.6,4.56 l -9.96,0 z m 25.998,4.28 c 0,5.68 2.4,9.52 9.24,9.52 2.76,0 5.2,-0.56 7.16,-1.2 L 768.045,28 c -1.36,0.48 -2.8,0.8 -4.52,0.8 -3.36,0 -4.72,-1.4 -4.72,-4.84 l 0,-8.12 9.52,0 0,-4.76 -9.52,0 0,-5.88 -5.04,0 -0.76,5.88 -5.88,0.28 0,4.48 5.64,0 0,8.2 z m 32.04,-5.08 c 2.88,0 4.88,-2.16 4.88,-4.96 0,-2.8 -2,-4.96 -4.88,-4.96 -2.88,0 -4.88,2.16 -4.88,4.96 0,2.8 2,4.96 4.88,4.96 z m -3.6,23.68 c 5.92,-1.88 9.12,-5.84 9.12,-11.4 0,-4.56 -1.84,-7.28 -5.28,-7.28 -2.64,0 -4.76,1.68 -4.76,4.32 0,2.84 2.16,4.4 4.6,4.4 0.16,0 0.36,0 0.52,-0.04 -0.04,2.88 -1.92,5.04 -5.72,6.44 l 1.52,3.56 z M 827.44,30.2 c 2.72,1.84 6.72,3.36 10.72,3.36 6.88,0 10.64,-3.08 10.64,-6.96 0,-3.76 -3.6,-5.4 -8.2,-6.6 -3.28,-0.84 -5.8,-1.56 -5.8,-2.96 0,-1.24 1.08,-1.96 4.04,-1.96 2.4,0 4.56,0.88 6.56,2.12 l 2.72,-3.68 c -2.28,-1.44 -5.56,-2.96 -9.36,-2.96 -6.28,0 -10,2.76 -10,6.76 0,3.44 3.96,5.28 7.92,6.4 3.84,1 6.08,1.84 6.08,3.2 0,1.28 -1.32,2.12 -4.44,2.12 -3.12,0 -5.64,-1 -8.16,-2.64 l -2.72,3.8 z m 26.76,-8.12 c 0,7.28 5.32,11.48 12.08,11.48 3.04,0 6.2,-1 8.64,-2.52 l -2,-3.68 c -1.96,1 -3.76,1.56 -5.8,1.56 -3.52,0 -6.32,-1.64 -6.72,-5.12 l 15.2,0 c 0.08,-0.52 0.24,-1.64 0.24,-2.76 0,-5.96 -3.6,-10.48 -10.28,-10.48 -5.8,0 -11.36,4.32 -11.36,11.52 z m 6.16,-2.32 c 0.52,-3.08 2.76,-4.56 5.36,-4.56 3.12,0 4.6,1.76 4.6,4.56 l -9.96,0 z m 26,4.28 c 0,5.68 2.4,9.52 9.24,9.52 2.76,0 5.2,-0.56 7.16,-1.2 L 901.64,28 c -1.36,0.48 -2.8,0.8 -4.52,0.8 -3.36,0 -4.72,-1.4 -4.72,-4.84 l 0,-8.12 9.52,0 0,-4.76 -9.52,0 0,-5.88 -5.04,0 -0.76,5.88 -5.88,0.28 0,4.48 5.64,0 0,8.2 z m 32.037,-5.08 c 2.88,0 4.88,-2.16 4.88,-4.96 0,-2.8 -2,-4.96 -4.88,-4.96 -2.88,0 -4.88,2.16 -4.88,4.96 0,2.8 2,4.96 4.88,4.96 z m -3.6,23.68 c 5.92,-1.88 9.12,-5.84 9.12,-11.4 0,-4.56 -1.84,-7.28 -5.28,-7.28 -2.64,0 -4.76,1.68 -4.76,4.32 0,2.84 2.16,4.4 4.6,4.4 0.16,0 0.36,0 0.52,-0.04 -0.04,2.88 -1.92,5.04 -5.72,6.44 l 1.52,3.56 z m 48.318,-6.08 0,3.24 3.32,0 c 5.68,0 8.24,-1.48 8.24,-6.24 0,-3.16 -0.48,-4.92 -0.48,-7.76 0,-1.6 1.32,-3.24 6.16,-3.32 l 0,-3.56 c -4.84,-0.08 -6.16,-1.72 -6.16,-3.32 0,-2.76 0.48,-4.64 0.48,-7.76 0,-4.76 -2.56,-6.24 -8.24,-6.24 l -3.32,0 0,3.24 1.92,0 c 3.8,0 4.64,0.72 4.64,3.28 0,2.36 -0.16,4.72 -0.16,7.36 0,3.28 1.2,4.6 4.36,5.12 l 0,0.2 c -3.16,0.52 -4.36,1.84 -4.36,5.12 0,2.72 0.16,4.92 0.16,7.36 0,2.56 -0.84,3.28 -4.64,3.28 l -1.92,0 z m 52.077,-21.12 20.16,0 0,-4.32 -20.16,0 0,4.32 z m 0,10.2 20.16,0 0,-4.32 -20.16,0 0,4.32 z"
         style="-inkscape-font-specification:'Source Han Code JP Bold'"
         id="path8"
         inkscape:connector-curvature="0" />
      <path
         d="m 1071.07,19.24 3.76,0 1.48,-10.48 0.16,-6.12 -7.08,0 0.2,6.12 1.48,10.48 z m 11.52,0 3.76,0 1.48,-10.48 0.2,-6.12 -7.08,0 0.2,6.12 1.44,10.48 z m 122.074,0 3.76,0 1.48,-10.48 0.16,-6.12 -7.08,0 0.2,6.12 1.48,10.48 z m 11.52,0 3.76,0 1.48,-10.48 0.2,-6.12 -7.08,0 0.2,6.12 1.44,10.48 z"
         style="-inkscape-font-specification:'Source Han Code JP Bold';fill:#909060"
         id="path10"
         inkscape:connector-curvature="0" />
      <path
         d="m 1239.022,18.96 c 2.88,0 4.88,-2.16 4.88,-4.96 0,-2.8 -2,-4.96 -4.88,-4.96 -2.88,0 -4.88,2.16 -4.88,4.96 0,2.8 2,4.96 4.88,4.96 z m -3.6,23.68 c 5.92,-1.88 9.12,-5.84 9.12,-11.4 0,-4.56 -1.84,-7.28 -5.28,-7.28 -2.64,0 -4.76,1.68 -4.76,4.32 0,2.84 2.16,4.4 4.6,4.4 0.16,0 0.36,0 0.52,-0.04 -0.04,2.88 -1.92,5.04 -5.72,6.44 l 1.52,3.56 z"
         style="-inkscape-font-specification:'Source Han Code JP Bold'"
         id="path12"
         inkscape:connector-curvature="0" />
    </g>
    <path
       d="m 371.537,20.54 c 0.01,10.628 8.57,19.268 13.885,19.347 l 198.608,0.136 c 6.587,0.057 15.542,-8.615 15.542,-19.312 0,-10.694 -8.955,-19.366 -15.226,-19.34 -0.5,0.004 -197.352,-0.086 -197.352,-0.086 -6.783,-0.118 -15.457,8.557 -15.457,19.257 z"
       id="path14"
       inkscape:connector-curvature="0"
       style="fill:#c09090" />
    <path
       d="m 1094.3,24.58 c 0.01,10.628 8.572,19.27 13.886,19.347 l 73.854,0.136 c 6.588,0.058 15.542,-8.614 15.542,-19.31 0,-10.7 -8.954,-19.37 -15.226,-19.34 l -72.598,-0.09 c -6.783,-0.118 -15.457,8.556 -15.457,19.257 z"
       id="path16"
       inkscape:connector-curvature="0"
       style="fill:#909060" />
  </g>
</svg>
