<svg xmlns="http://www.w3.org/2000/svg" viewBox="0 0 940.067 342.124">
  <g fill-opacity=".784">
    <g fill="#fff" style="line-height:125%" font-size="40" font-family="Source Han Code JP" letter-spacing="0" word-spacing="0" font-weight="bold">
      <path d="M22.12 4.844c-1.88-.68-4.16-1.2-6.56-1.2-6.76 0-9.68 3.88-9.68 9v.76l-5.88.28v4.48h5.88v17.2h6.04v-17.2h7.84v-4.76h-7.84v-.8c0-2.84 1.36-4.2 4.32-4.2 1.72 0 3.24.32 4.68.88l1.2-4.44zm23.96 8.56h-6.04v14.56c-1.64 2.08-2.92 2.76-4.72 2.76-2.6 0-3.48-1.4-3.48-4.52v-12.8H25.8v13.56c0 5.6 2.16 8.92 7.2 8.92 3.16 0 5.52-1.52 7.48-3.8h.2l.44 3.28h4.96v-21.96zm6.917 21.96h6.04v-14.76c1.72-1.68 2.96-2.56 4.88-2.56 2.56 0 3.52 1.4 3.52 4.56v12.76h6.04v-13.56c0-5.6-2.24-8.92-7.2-8.92-3.32 0-5.76 1.64-7.72 3.6h-.16l-.48-3.08h-4.92v21.96zm26.44-10.96c0 7.28 5.28 11.48 12.2 11.48 3.04 0 6.36-1.04 9-3.28l-2.48-3.8c-1.64 1.16-3.6 2.2-6 2.2-3.84 0-6.52-2.6-6.52-6.6 0-4 2.76-6.64 6.72-6.64 1.8 0 3.36.64 5.04 1.92l2.84-3.8c-1.84-1.72-4.68-3-8.2-3-6.72 0-12.6 4.2-12.6 11.52zm174.953 18.88l3.36-2.72c-5.44-5.12-7.76-10.48-7.76-17.56 0-7.08 2.32-12.4 7.76-17.52l-3.36-2.72c-5.84 5.04-9.48 11.88-9.48 20.24 0 8.4 3.64 15.24 9.48 20.28zm10.837-7.92h6.36l2.4-3.84c.68-1.32 1.44-2.6 2.16-3.88h.16c.84 1.24 1.76 2.64 2.6 3.84l2.72 3.88h6.52l-7.76-10.72 7.28-11.24h-6.36l-2.12 3.76c-.64 1.2-1.36 2.52-1.96 3.76h-.2c-.72-1.24-1.64-2.52-2.28-3.76l-2.48-3.76h-6.52l7.2 10.56-7.72 11.4zm55.358-21.92l-2.92.24v4.48h2.92v17.2h6.08v-17.2h4.04v-4.76h-4.04v-1.64c0-2.36.92-3.36 2.56-3.36.76 0 1.56.16 2.32.48l1.12-4.48c-.96-.36-2.52-.76-4.28-.76-5.68 0-7.8 3.64-7.8 8.24v1.56zm21.76 17.48c-.4.08-.56.08-.8.08-.52 0-1.16-.44-1.16-1.8V4.164h-6.04v24.76c0 4.24 1.44 6.96 5.64 6.96 1.4 0 2.4-.2 3.08-.48l-.72-4.48zm3.4-6.52c0 7.28 5.32 11.48 11.12 11.48 5.8 0 11.12-4.2 11.12-11.48 0-7.32-5.32-11.52-11.12-11.52-5.8 0-11.12 4.2-11.12 11.52zm6.2 0c0-4 1.72-6.64 4.92-6.64s4.92 2.64 4.92 6.64c0 4-1.72 6.6-4.92 6.6s-4.92-2.6-4.92-6.6zm21.198 4.92c0 3.76 2.84 6.56 7.24 6.56 2.88 0 5.68-1.4 7.92-3.08h.16l.44 2.56h4.96v-12.72c0-6.52-3.6-9.76-9.72-9.76-3.76 0-7.32 1.28-10.2 3l2.16 3.96c2.4-1.24 4.64-2.12 6.84-2.12 3.16 0 4.68 1.4 4.88 3.52-10.52.72-14.68 3.16-14.68 8.08zm5.8-.44c0-2.08 1.92-3.52 8.88-3.92v3.96c-1.72 1.32-3.52 2.28-5.56 2.28-1.96 0-3.32-.76-3.32-2.32zm26.037-2.52c0 5.68 2.4 9.52 9.24 9.52 2.76 0 5.2-.56 7.16-1.2l-1.12-4.36c-1.36.48-2.8.8-4.52.8-3.36 0-4.72-1.4-4.72-4.84v-8.12h9.52v-4.76h-9.52v-5.88h-5.04l-.76 5.88-5.88.28v4.48h5.64v8.2zm32.72 4.96c-2.52 0-4.8-1.64-5.48-6.24 1.84-2.16 3.8-3 5.6-3 2.72 0 4.44 1.36 4.44 4.44 0 3.28-2.12 4.8-4.56 4.8zm9.72-21.36c-1.92-1.84-4.92-3.36-8.84-3.36-6.2 0-12.08 4.68-12.08 15.36 0 9.8 5.48 13.92 11.32 13.92 5.36 0 10.04-3.56 10.04-9.36 0-5.96-3.8-8.72-8.76-8.72-2.28 0-4.96 1.16-7.08 3.2.28-7.08 3.48-9.48 7.08-9.48 1.92 0 3.88.92 5.12 2.04l3.2-3.6zm10.48 13.84l4.88-6.72c.96-1.56 2.08-3.12 3.04-4.68h.16c-.08 1.76-.24 4.2-.24 6v5.4h-7.84zm17.2 0h-3.72V7.124h-7.2l-12.16 17.16v4.16h13.72v6.92h5.64v-6.92h3.72v-4.64zm10.958 19.48c5.88-5.04 9.48-11.88 9.48-20.28 0-8.36-3.6-15.2-9.48-20.24l-3.36 2.72c5.44 5.12 7.76 10.44 7.76 17.52s-2.32 12.44-7.76 17.56l3.36 2.72zm48.277-29.84l-2.92.24v4.48h2.92v17.2h6.08v-17.2h4.04v-4.76h-4.04v-1.64c0-2.36.92-3.36 2.56-3.36.76 0 1.56.16 2.32.48l1.12-4.48c-.96-.36-2.52-.76-4.28-.76-5.68 0-7.8 3.64-7.8 8.24v1.56zm21.76 17.48c-.4.08-.56.08-.8.08-.52 0-1.16-.44-1.16-1.8V4.164h-6.04v24.76c0 4.24 1.44 6.96 5.64 6.96 1.4 0 2.4-.2 3.08-.48l-.72-4.48zm3.4-6.52c0 7.28 5.32 11.48 11.12 11.48 5.8 0 11.12-4.2 11.12-11.48 0-7.32-5.32-11.52-11.12-11.52-5.8 0-11.12 4.2-11.12 11.52zm6.2 0c0-4 1.72-6.64 4.92-6.64s4.92 2.64 4.92 6.64c0 4-1.72 6.6-4.92 6.6s-4.92-2.6-4.92-6.6zm21.198 4.92c0 3.76 2.84 6.56 7.24 6.56 2.88 0 5.68-1.4 7.92-3.08h.16l.44 2.56h4.96v-12.72c0-6.52-3.6-9.76-9.72-9.76-3.76 0-7.32 1.28-10.2 3l2.16 3.96c2.4-1.24 4.64-2.12 6.84-2.12 3.16 0 4.68 1.4 4.88 3.52-10.52.72-14.68 3.16-14.68 8.08zm5.8-.44c0-2.08 1.92-3.52 8.88-3.92v3.96c-1.72 1.32-3.52 2.28-5.56 2.28-1.96 0-3.32-.76-3.32-2.32zm26.037-2.52c0 5.68 2.4 9.52 9.24 9.52 2.76 0 5.2-.56 7.16-1.2l-1.12-4.36c-1.36.48-2.8.8-4.52.8-3.36 0-4.72-1.4-4.72-4.84v-8.12h9.52v-4.76h-9.52v-5.88h-5.04l-.76 5.88-5.88.28v4.48h5.64v8.2zm32.72 4.96c-2.52 0-4.8-1.64-5.48-6.24 1.84-2.16 3.8-3 5.6-3 2.72 0 4.44 1.36 4.44 4.44 0 3.28-2.12 4.8-4.56 4.8zm9.72-21.36c-1.92-1.84-4.92-3.36-8.84-3.36-6.2 0-12.08 4.68-12.08 15.36 0 9.8 5.48 13.92 11.32 13.92 5.36 0 10.04-3.56 10.04-9.36 0-5.96-3.8-8.72-8.76-8.72-2.28 0-4.96 1.16-7.08 3.2.28-7.08 3.48-9.48 7.08-9.48 1.92 0 3.88.92 5.12 2.04l3.2-3.6zm10.48 13.84l4.88-6.72c.96-1.56 2.08-3.12 3.04-4.68h.16c-.08 1.76-.24 4.2-.24 6v5.4h-7.84zm17.2 0h-3.72V7.124h-7.2l-12.16 17.16v4.16h13.72v6.92h5.64v-6.92h3.72v-4.64zm39.276 12.08c0 4.76 2.56 6.24 8.24 6.24h3.32v-3.24h-1.92c-3.84 0-4.68-.72-4.68-3.28 0-2.44.2-4.64.2-7.36 0-3.28-1.2-4.6-4.36-5.12v-.2c3.16-.52 4.36-1.84 4.36-5.12 0-2.64-.2-5-.2-7.36 0-2.56.84-3.28 4.68-3.28h1.92v-3.24h-3.32c-5.68 0-8.24 1.48-8.24 6.24 0 3.12.44 5 .44 7.76 0 1.6-1.32 3.24-6.16 3.32v3.56c4.84.08 6.16 1.72 6.16 3.32 0 2.84-.44 4.6-.44 7.76zm-621.89 49.48h20.8v-4.76h-12.44l12.08-13.96v-3.24h-19.04v4.76h10.6l-12 13.96v3.24zm58.716-19.04c0 2.8 2 4.96 4.88 4.96s4.88-2.16 4.88-4.96-2-4.96-4.88-4.96-4.88 2.16-4.88 4.96zm0 14.6c0 2.84 2 4.96 4.88 4.96s4.88-2.12 4.88-4.96c0-2.8-2-4.96-4.88-4.96s-4.88 2.16-4.88 4.96zm21.518-13.16h20.16v-4.32h-20.16v4.32zm0 10.2h20.16v-4.32h-20.16v4.32zm67.44 2.52v-23.36h-4.48c-2.04 1.2-4.2 1.96-7.48 2.52v3.76h5.88v17.08h-7.44v4.88h20.08v-4.88h-6.56zm17.917.44c0 2.84 2 4.96 4.88 4.96s4.88-2.12 4.88-4.96c0-2.8-2-4.96-4.88-4.96s-4.88 2.16-4.88 4.96zm31.6 4.96c6.48 0 10.72-5.2 10.72-14.76 0-9.56-4.24-14.52-10.72-14.52s-10.72 4.96-10.72 14.52c0 9.56 4.24 14.76 10.72 14.76zm0-24.6c3 0 5.32 2.36 5.32 9.84s-2.32 10.08-5.32 10.08c-3 0-5.32-2.6-5.32-10.08s2.32-9.84 5.32-9.84zm0 13.04c1.8 0 3.24-1.28 3.24-3.32 0-2-1.44-3.28-3.24-3.28-1.8 0-3.24 1.28-3.24 3.28 0 2.04 1.44 3.32 3.24 3.32zm-174.432 30.52c-1.88-.68-4.16-1.2-6.56-1.2-6.76 0-9.68 3.88-9.68 9v.76l-5.88.28v4.48h5.88v17.2h6.04v-17.2h7.84v-4.76h-7.84v-.8c0-2.84 1.36-4.2 4.32-4.2 1.72 0 3.24.32 4.68.88l1.2-4.44zm3 19.56c0 7.28 5.32 11.48 11.12 11.48 5.8 0 11.12-4.2 11.12-11.48 0-7.32-5.32-11.52-11.12-11.52-5.8 0-11.12 4.2-11.12 11.52zm6.2 0c0-4 1.72-6.64 4.92-6.64s4.92 2.64 4.92 6.64c0 4-1.72 6.6-4.92 6.6s-4.92-2.6-4.92-6.6zm23.677 10.96h6.04v-11.64c2-4.08 4.88-5.52 7.68-5.52 1.6 0 2.52.24 3.92.68l1.24-5.12c-1.28-.56-2.36-.88-4.24-.88-3.6 0-6.88 1.84-9.04 5.4h-.16l-.48-4.88h-4.96v21.96zm51.638-17.2h9.08v17.2h6.04v-21.96h-15.12v4.76zm11.8-8.2c2.36 0 4.08-1.48 4.08-3.76s-1.72-3.88-4.08-3.88c-2.4 0-4.12 1.6-4.12 3.88s1.72 3.76 4.12 3.76zm46.517 6.36c0 2.8 2 4.96 4.88 4.96s4.88-2.16 4.88-4.96-2-4.96-4.88-4.96-4.88 2.16-4.88 4.96zm0 14.6c0 2.84 2 4.96 4.88 4.96s4.88-2.12 4.88-4.96c0-2.8-2-4.96-4.88-4.96s-4.88 2.16-4.88 4.96zm21.52-13.16h20.16v-4.32h-20.16v4.32zm0 10.2h20.16v-4.32h-20.16v4.32zm63.517 7.92c6.48 0 10.72-5.2 10.72-14.76 0-9.56-4.24-14.52-10.72-14.52s-10.72 4.96-10.72 14.52c0 9.56 4.24 14.76 10.72 14.76zm0-24.6c3 0 5.32 2.36 5.32 9.84s-2.32 10.08-5.32 10.08c-3 0-5.32-2.6-5.32-10.08s2.32-9.84 5.32-9.84zm0 13.04c1.8 0 3.24-1.28 3.24-3.32 0-2-1.44-3.28-3.24-3.28-1.8 0-3.24 1.28-3.24 3.28 0 2.04 1.44 3.32 3.24 3.32zm26.72-3.04c2.88 0 4.88-2.16 4.88-4.96s-2-4.96-4.88-4.96-4.88 2.16-4.88 4.96 2 4.96 4.88 4.96zm-3.6 23.68c5.92-1.88 9.12-5.84 9.12-11.4 0-4.56-1.84-7.28-5.28-7.28-2.64 0-4.76 1.68-4.76 4.32 0 2.84 2.16 4.4 4.6 4.4.16 0 .36 0 .52-.04-.04 2.88-1.92 5.04-5.72 6.44l1.52 3.56zm47.276-26.8h9.08v17.2h6.04v-21.96h-15.12v4.76zm11.8-8.2c2.36 0 4.08-1.48 4.08-3.76s-1.72-3.88-4.08-3.88c-2.4 0-4.12 1.6-4.12 3.88s1.72 3.76 4.12 3.76zm43.278 12.76l17.04 11.12v-5.52l-12.04-7.6v-.2l12.04-7.6v-5.52l-17.04 11.12v4.2zm168.432-1.44c2.88 0 4.88-2.16 4.88-4.96s-2-4.96-4.88-4.96-4.88 2.16-4.88 4.96 2 4.96 4.88 4.96zm-3.6 23.68c5.92-1.88 9.12-5.84 9.12-11.4 0-4.56-1.84-7.28-5.28-7.28-2.64 0-4.76 1.68-4.76 4.32 0 2.84 2.16 4.4 4.6 4.4.16 0 .36 0 .52-.04-.04 2.88-1.92 5.04-5.72 6.44l1.52 3.56zm47.278-26.8h9.08v17.2h6.04v-21.96h-15.12v4.76zm11.8-8.2c2.36 0 4.08-1.48 4.08-3.76s-1.72-3.88-4.08-3.88c-2.4 0-4.12 1.6-4.12 3.88s1.72 3.76 4.12 3.76zm22.438 21.16h4.48v-8.28h7.84v-4.28h-7.84v-8.28h-4.48v8.28h-7.84v4.28h7.84v8.28zm26.72 0h4.48v-8.28h7.84v-4.28h-7.84v-8.28h-4.48v8.28h-7.84v4.28h7.84v8.28zm52.877 4.76c0 4.76 2.56 6.24 8.24 6.24h3.32v-3.24h-1.92c-3.84 0-4.68-.72-4.68-3.28 0-2.44.2-4.64.2-7.36 0-3.28-1.2-4.6-4.36-5.12v-.2c3.16-.52 4.36-1.84 4.36-5.12 0-2.64-.2-5-.2-7.36 0-2.56.84-3.28 4.68-3.28h1.92v-3.24h-3.32c-5.68 0-8.24 1.48-8.24 6.24 0 3.12.44 5 .44 7.76 0 1.6-1.32 3.24-6.16 3.32v3.56c4.84.08 6.16 1.72 6.16 3.32 0 2.84-.44 4.6-.44 7.76zm-700.608 103v3.24h3.32c5.68 0 8.24-1.48 8.24-6.24 0-3.16-.48-4.92-.48-7.76 0-1.6 1.32-3.24 6.16-3.32v-3.56c-4.84-.08-6.16-1.72-6.16-3.32 0-2.76.48-4.64.48-7.76 0-4.76-2.56-6.24-8.24-6.24h-3.32v3.24h1.92c3.8 0 4.64.72 4.64 3.28 0 2.36-.16 4.72-.16 7.36 0 3.28 1.2 4.6 4.36 5.12v.2c-3.16.52-4.36 1.84-4.36 5.12 0 2.72.16 4.92.16 7.36 0 2.56-.84 3.28-4.64 3.28h-1.92z" style="-inkscape-font-specification:'Source Han Code JP Bold'"/>
      <path fill="#c09090" d="M108.435 285.364h6.04v-11.64c2-4.08 4.88-5.52 7.68-5.52 1.6 0 2.52.24 3.92.68l1.24-5.12c-1.28-.56-2.36-.88-4.24-.88-3.6 0-6.88 1.84-9.04 5.4h-.16l-.48-4.88h-4.96v21.96zm23.92-10.96c0 7.28 5.32 11.48 12.08 11.48 3.04 0 6.2-1 8.64-2.52l-2-3.68c-1.96 1-3.76 1.56-5.8 1.56-3.52 0-6.32-1.64-6.72-5.12h15.2c.08-.52.24-1.64.24-2.76 0-5.96-3.6-10.48-10.28-10.48-5.8 0-11.36 4.32-11.36 11.52zm6.16-2.32c.52-3.08 2.76-4.56 5.36-4.56 3.12 0 4.6 1.76 4.6 4.56h-9.96zm25.997 4.28c0 5.68 2.4 9.52 9.24 9.52 2.76 0 5.2-.56 7.16-1.2l-1.12-4.36c-1.36.48-2.8.8-4.52.8-3.36 0-4.72-1.4-4.72-4.84v-8.12h9.52v-4.76h-9.52v-5.88h-5.04l-.76 5.88-5.88.28v4.48h5.64v8.2zm41.878-12.96h-6.04v14.56c-1.64 2.08-2.92 2.76-4.72 2.76-2.6 0-3.48-1.4-3.48-4.52v-12.8h-6.04v13.56c0 5.6 2.16 8.92 7.2 8.92 3.16 0 5.52-1.52 7.48-3.8h.2l.44 3.28h4.96v-21.96zm8.92 21.96h6.04v-11.64c2-4.08 4.88-5.52 7.68-5.52 1.6 0 2.52.24 3.92.68l1.24-5.12c-1.28-.56-2.36-.88-4.24-.88-3.6 0-6.88 1.84-9.04 5.4h-.16l-.48-4.88h-4.96v21.96zm24.72 0h6.04v-14.76c1.72-1.68 2.96-2.56 4.88-2.56 2.56 0 3.52 1.4 3.52 4.56v12.76h6.04v-13.56c0-5.6-2.24-8.92-7.2-8.92-3.32 0-5.76 1.64-7.72 3.6h-.16l-.48-3.08h-4.92v21.96z" style="-inkscape-font-specification:'Source Han Code JP Bold'"/>
      <path d="M293.266 285.364h20.8v-4.76h-12.44l12.08-13.96v-3.24h-19.04v4.76h10.6l-12 13.96v3.24zM.8 338.884v3.24h3.32c5.68 0 8.24-1.48 8.24-6.24 0-3.16-.48-4.92-.48-7.76 0-1.6 1.32-3.24 6.16-3.32v-3.56c-4.84-.08-6.16-1.72-6.16-3.32 0-2.76.48-4.64.48-7.76 0-4.76-2.56-6.24-8.24-6.24H.8v3.24h1.92c3.8 0 4.64.72 4.64 3.28 0 2.36-.16 4.72-.16 7.36 0 3.28 1.2 4.6 4.36 5.12v.2c-3.16.52-4.36 1.84-4.36 5.12 0 2.72.16 4.92.16 7.36 0 2.56-.84 3.28-4.64 3.28H.8z" style="-inkscape-font-specification:'Source Han Code JP Bold'"/>
    </g>
    <path fill="#909060" d="M511.687 122.115c.01 10.63 8.57 19.27 13.885 19.348l101.466.136c6.587.055 15.54-8.617 15.54-19.315 0-10.697-8.953-19.37-15.225-19.34l-100.21-.09c-6.782-.117-15.456 8.558-15.456 19.258z"/>
    <path fill="#c09090" d="M107.4 19.258c.01 10.63 8.572 19.27 13.886 19.348l101.466.136c6.587.058 15.54-8.615 15.54-19.312 0-10.697-8.953-19.37-15.225-19.34L122.857 0c-6.78-.117-15.456 8.558-15.456 19.258z"/>
    <path fill="#fff" d="M217.057 169.258c0 10.63 8.57 19.27 13.885 19.347l693.583.137c6.587.058 15.542-8.615 15.542-19.312 0-10.697-8.955-19.37-15.227-19.34L232.514 150c-6.783-.117-15.457 8.558-15.457 19.258z"/>
  </g>
</svg>
