<svg xmlns="http://www.w3.org/2000/svg" viewBox="0 0 1136.787 189.8">
  <g fill-opacity=".784">
    <g fill="#fff" style="line-height:125%" font-size="40" font-family="Source Han Code JP" letter-spacing="0" word-spacing="0" font-weight="bold">
      <path d="M22.12 2.52c-1.88-.68-4.16-1.2-6.56-1.2-6.76 0-9.68 3.88-9.68 9v.76L0 11.36v4.48h5.88v17.2h6.04v-17.2h7.84v-4.76h-7.84v-.8c0-2.84 1.36-4.2 4.32-4.2 1.72 0 3.24.32 4.68.88l1.2-4.44zm3 19.56c0 7.28 5.32 11.48 11.12 11.48 5.8 0 11.12-4.2 11.12-11.48 0-7.32-5.32-11.52-11.12-11.52-5.8 0-11.12 4.2-11.12 11.52zm6.2 0c0-4 1.72-6.64 4.92-6.64s4.92 2.64 4.92 6.64c0 4-1.72 6.6-4.92 6.6s-4.92-2.6-4.92-6.6zm23.678 10.96h6.04V21.4c2-4.08 4.88-5.52 7.68-5.52 1.6 0 2.52.24 3.92.68l1.24-5.12c-1.28-.56-2.36-.88-4.24-.88-3.6 0-6.88 1.84-9.04 5.4h-.16l-.48-4.88h-4.96v21.96zm50.637-10.96c0 7.28 5.32 11.48 12.08 11.48 3.04 0 6.2-1 8.64-2.52l-2-3.68c-1.96 1-3.76 1.56-5.8 1.56-3.52 0-6.32-1.64-6.72-5.12h15.2c.08-.52.24-1.64.24-2.76 0-5.96-3.6-10.48-10.28-10.48-5.8 0-11.36 4.32-11.36 11.52zm6.16-2.32c.52-3.08 2.76-4.56 5.36-4.56 3.12 0 4.6 1.76 4.6 4.56h-9.96zm20.88 7.24c0 3.76 2.84 6.56 7.24 6.56 2.88 0 5.68-1.4 7.92-3.08h.16l.44 2.56h4.96V20.32c0-6.52-3.6-9.76-9.72-9.76-3.76 0-7.32 1.28-10.2 3l2.16 3.96c2.4-1.24 4.64-2.12 6.84-2.12 3.16 0 4.68 1.4 4.88 3.52-10.52.72-14.68 3.16-14.68 8.08zm5.8-.44c0-2.08 1.92-3.52 8.88-3.92v3.96c-1.72 1.32-3.52 2.28-5.56 2.28-1.96 0-3.32-.76-3.32-2.32zm21.118-4.48c0 7.28 5.28 11.48 12.2 11.48 3.04 0 6.36-1.04 9-3.28l-2.48-3.8c-1.64 1.16-3.6 2.2-6 2.2-3.84 0-6.52-2.6-6.52-6.6 0-4 2.76-6.64 6.72-6.64 1.8 0 3.36.64 5.04 1.92l2.84-3.8c-1.84-1.72-4.68-3-8.2-3-6.72 0-12.6 4.2-12.6 11.52zm26.997 10.96h6.04V18.28c1.72-1.68 2.96-2.56 4.88-2.56 2.56 0 3.52 1.4 3.52 4.56v12.76h6.04V19.48c0-5.6-2.24-8.92-7.2-8.92-3.32 0-5.76 1.64-7.56 3.44l.32-4.4V1.84h-6.04v31.2zm67.8 7.92l3.36-2.72c-5.44-5.12-7.76-10.48-7.76-17.56 0-7.08 2.32-12.4 7.76-17.52L254.39.44c-5.84 5.04-9.48 11.88-9.48 20.24 0 8.4 3.64 15.24 9.48 20.28zm11.198-18.88c0 7.28 5.32 11.48 11.12 11.48 5.8 0 11.12-4.2 11.12-11.48 0-7.32-5.32-11.52-11.12-11.52-5.8 0-11.12 4.2-11.12 11.52zm6.2 0c0-4 1.72-6.64 4.92-6.64s4.92 2.64 4.92 6.64c0 4-1.72 6.6-4.92 6.6s-4.92-2.6-4.92-6.6zm21.678 10.96h4.76l.48-2.4h.16c1.84 1.92 4.08 2.92 6.12 2.92 4.96 0 9.56-4.28 9.56-11.84 0-6.76-3.32-11.16-8.88-11.16-2.2 0-4.52 1-6.28 2.64l.12-3.6V1.84h-6.04v31.2zm6.04-6.08v-9.2c1.52-1.6 2.96-2.24 4.48-2.24 3 0 4.36 2.2 4.36 6.28 0 4.68-2.08 6.8-4.72 6.8-1.2 0-2.76-.44-4.12-1.64zm20.88-11.12h9.08v16.48c0 3.24-1 4.8-4.32 4.8-1.36 0-2.84-.28-4.6-1.04l-1.76 4.32c1.88.88 4.04 1.52 6.68 1.52 7.84 0 10.04-4.52 10.04-9.88V11.08h-15.12v4.76zm11.8-8.2c2.36 0 4.08-1.48 4.08-3.76S334.546 0 332.186 0c-2.4 0-4.12 1.6-4.12 3.88s1.72 3.76 4.12 3.76zm13.918 14.44c0 7.28 5.32 11.48 12.08 11.48 3.04 0 6.2-1 8.64-2.52l-2-3.68c-1.96 1-3.76 1.56-5.8 1.56-3.52 0-6.32-1.64-6.72-5.12h15.2c.08-.52.24-1.64.24-2.76 0-5.96-3.6-10.48-10.28-10.48-5.8 0-11.36 4.32-11.36 11.52zm6.16-2.32c.52-3.08 2.76-4.56 5.36-4.56 3.12 0 4.6 1.76 4.6 4.56h-9.96zm21.08 2.32c0 7.28 5.28 11.48 12.2 11.48 3.04 0 6.36-1.04 9-3.28l-2.48-3.8c-1.64 1.16-3.6 2.2-6 2.2-3.84 0-6.52-2.6-6.52-6.6 0-4 2.76-6.64 6.72-6.64 1.8 0 3.36.64 5.04 1.92l2.84-3.8c-1.84-1.72-4.68-3-8.2-3-6.72 0-12.6 4.2-12.6 11.52zm31.636 1.96c0 5.68 2.4 9.52 9.24 9.52 2.76 0 5.2-.56 7.16-1.2L420.26 28c-1.36.48-2.8.8-4.52.8-3.36 0-4.72-1.4-4.72-4.84v-8.12h9.52v-4.76h-9.52V5.2h-5.04l-.76 5.88-5.88.28v4.48h5.64v8.2z" style="-inkscape-font-specification:'Source Han Code JP Bold'"/>
      <path fill="#909060" d="M460.38 33.04h6.92l8.2-21.96h-5.76l-3.72 10.72c-.72 2.16-1.36 4.44-2.04 6.68h-.2c-.64-2.24-1.28-4.52-2.04-6.68l-3.68-10.72h-6.08l8.4 21.96zM480.018 27c0 3.76 2.84 6.56 7.24 6.56 2.88 0 5.68-1.4 7.92-3.08h.16l.44 2.56h4.96V20.32c0-6.52-3.6-9.76-9.72-9.76-3.76 0-7.32 1.28-10.2 3l2.16 3.96c2.4-1.24 4.64-2.12 6.84-2.12 3.16 0 4.68 1.4 4.88 3.52-10.52.72-14.68 3.16-14.68 8.08zm5.8-.44c0-2.08 1.92-3.52 8.88-3.92v3.96c-1.72 1.32-3.52 2.28-5.56 2.28-1.96 0-3.32-.76-3.32-2.32zm23.398 6.48h6.04V21.4c2-4.08 4.88-5.52 7.68-5.52 1.6 0 2.52.24 3.92.68l1.24-5.12c-1.28-.56-2.36-.88-4.24-.88-3.6 0-6.88 1.84-9.04 5.4h-.16l-.48-4.88h-4.96v21.96z" style="-inkscape-font-specification:'Source Han Code JP Bold'"/>
      <path d="M560.854 15.84h9.08v17.2h6.04V11.08h-15.12v4.76zm11.8-8.2c2.36 0 4.08-1.48 4.08-3.76S575.014 0 572.654 0c-2.4 0-4.12 1.6-4.12 3.88s1.72 3.76 4.12 3.76zm14.72 25.4h6.04V18.28c1.72-1.68 2.96-2.56 4.88-2.56 2.56 0 3.52 1.4 3.52 4.56v12.76h6.04V19.48c0-5.6-2.24-8.92-7.2-8.92-3.32 0-5.76 1.64-7.72 3.6h-.16l-.48-3.08h-4.92v21.96zm539.934 7.92c5.88-5.04 9.48-11.88 9.48-20.28 0-8.36-3.6-15.2-9.48-20.24l-3.36 2.72c5.44 5.12 7.76 10.44 7.76 17.52s-2.32 12.44-7.76 17.56l3.36 2.72zM6.72 83.56c0 4.76 2.56 6.24 8.24 6.24h3.32v-3.24h-1.92c-3.84 0-4.68-.72-4.68-3.28 0-2.44.2-4.64.2-7.36 0-3.28-1.2-4.6-4.36-5.12v-.2c3.16-.52 4.36-1.84 4.36-5.12 0-2.64-.2-5-.2-7.36 0-2.56.84-3.28 4.68-3.28h1.92V51.6h-3.32c-5.68 0-8.24 1.48-8.24 6.24 0 3.12.44 5 .44 7.76 0 1.6-1.32 3.24-6.16 3.32v3.56c4.84.08 6.16 1.72 6.16 3.32 0 2.84-.44 4.6-.44 7.76zm-5.92 103v3.24h3.32c5.68 0 8.24-1.48 8.24-6.24 0-3.16-.48-4.92-.48-7.76 0-1.6 1.32-3.24 6.16-3.32v-3.56c-4.84-.08-6.16-1.72-6.16-3.32 0-2.76.48-4.64.48-7.76 0-4.76-2.56-6.24-8.24-6.24H.8v3.24h1.92c3.8 0 4.64.72 4.64 3.28 0 2.36-.16 4.72-.16 7.36 0 3.28 1.2 4.6 4.36 5.12v.2c-3.16.52-4.36 1.84-4.36 5.12 0 2.72.16 4.92.16 7.36 0 2.56-.84 3.28-4.64 3.28H.8z" style="-inkscape-font-specification:'Source Han Code JP Bold'"/>
    </g>
    <path fill="#c09090" d="M633.26 22.16c.004 10.628 8.57 19.268 13.884 19.347l445.75.136c6.588.058 15.542-8.614 15.543-19.31 0-10.7-8.955-19.37-15.227-19.34l-444.494-.09c-6.783-.118-15.457 8.556-15.457 19.257z"/>
    <path fill="#fff" d="M71.116 119.303c0 10.628 8.57 19.268 13.885 19.347l927.18.136c6.59.058 15.544-8.614 15.544-19.312 0-10.697-8.954-19.37-15.226-19.34-.5.002-925.923-.088-925.923-.088-6.783-.12-15.457 8.556-15.457 19.256z"/>
  </g>
</svg>
