<?xml version="1.0" encoding="UTF-8" standalone="no"?>
<svg
   xmlns:dc="http://purl.org/dc/elements/1.1/"
   xmlns:cc="http://creativecommons.org/ns#"
   xmlns:rdf="http://www.w3.org/1999/02/22-rdf-syntax-ns#"
   xmlns:svg="http://www.w3.org/2000/svg"
   xmlns="http://www.w3.org/2000/svg"
   xmlns:sodipodi="http://sodipodi.sourceforge.net/DTD/sodipodi-0.dtd"
   xmlns:inkscape="http://www.inkscape.org/namespaces/inkscape"
   viewBox="0 0 1700.626 290.54116"
   id="svg2"
   version="1.1"
   inkscape:version="0.91 r13725"
   sodipodi:docname="code-6.svg"
   width="1700.626"
   height="290.54117">
  <metadata
     id="metadata36">
    <rdf:RDF>
      <cc:Work
         rdf:about="">
        <dc:format>image/svg+xml</dc:format>
        <dc:type
           rdf:resource="http://purl.org/dc/dcmitype/StillImage" />
        <dc:title></dc:title>
      </cc:Work>
    </rdf:RDF>
  </metadata>
  <defs
     id="defs34" />
  <sodipodi:namedview
     pagecolor="#ffffff"
     bordercolor="#666666"
     borderopacity="1"
     objecttolerance="10"
     gridtolerance="10"
     guidetolerance="10"
     inkscape:pageopacity="0"
     inkscape:pageshadow="2"
     inkscape:window-width="1474"
     inkscape:window-height="841"
     id="namedview32"
     showgrid="false"
     fit-margin-left="500"
     fit-margin-right="33"
     fit-margin-top="0"
     fit-margin-bottom="0"
     inkscape:zoom="0.45476892"
     inkscape:cx="1083.813"
     inkscape:cy="145.27"
     inkscape:window-x="54"
     inkscape:window-y="-8"
     inkscape:window-maximized="1"
     inkscape:current-layer="svg2" />
  <g
     id="g4"
     style="fill-opacity:0.78399999"
     transform="translate(500,0.00116987)">
    <g
       style="font-weight:bold;font-size:40px;line-height:125%;font-family:'Source Han Code JP';letter-spacing:0;word-spacing:0;fill:#ffffff"
       font-size="40"
       letter-spacing="0"
       word-spacing="0"
       font-weight="bold"
       id="g6">
      <path
         d="m 5.84,31.86 c 1.68,1.56 3.68,2.44 5.64,2.44 5,0 9.6,-4.28 9.6,-11.84 0,-6.76 -3.28,-11.16 -8.84,-11.16 -2.4,0 -4.92,1.2 -6.72,2.84 l -0.12,0 -0.48,-2.32 -4.92,0 0,30.28 6.04,0 0,-6.6 -0.2,-3.64 z m 0.2,-4.16 0,-9.2 c 1.52,-1.6 2.96,-2.24 4.48,-2.24 3,0 4.36,2.2 4.36,6.28 0,4.68 -2.08,6.8 -4.72,6.8 -1.2,0 -2.76,-0.44 -4.12,-1.64 z m 40.48,-15.88 -6.04,0 0,14.56 c -1.64,2.08 -2.92,2.76 -4.72,2.76 -2.6,0 -3.48,-1.4 -3.48,-4.52 l 0,-12.8 -6.04,0 0,13.56 c 0,5.6 2.16,8.92 7.2,8.92 3.16,0 5.52,-1.52 7.48,-3.8 l 0.2,0 0.44,3.28 4.96,0 0,-21.96 z m 6.918,21.96 4.76,0 0.48,-2.4 0.16,0 c 1.84,1.92 4.08,2.92 6.12,2.92 4.96,0 9.56,-4.28 9.56,-11.84 0,-6.76 -3.32,-11.16 -8.88,-11.16 -2.2,0 -4.52,1 -6.28,2.64 l 0.12,-3.6 0,-7.76 -6.04,0 0,31.2 z m 6.04,-6.08 0,-9.2 c 1.52,-1.6 2.96,-2.24 4.48,-2.24 3,0 4.36,2.2 4.36,6.28 0,4.68 -2.08,6.8 -4.72,6.8 -1.2,0 -2.76,-0.44 -4.12,-1.64 z m 20.198,-20.36 6.56,0 0,18.04 c 0,5.56 2.8,8.92 8.2,8.92 2.68,0 4.24,-0.48 6.44,-1.2 l -1.36,-4.44 c -1.4,0.52 -2.52,0.76 -3.56,0.76 -1.96,0 -3.68,-0.96 -3.68,-3.76 l 0,-23.08 -12.6,0 0,4.76 z m 27.4,9.24 9.08,0 0,17.2 6.04,0 0,-21.96 -15.12,0 0,4.76 z m 11.8,-8.2 c 2.36,0 4.08,-1.48 4.08,-3.76 0,-2.28 -1.72,-3.88 -4.08,-3.88 -2.4,0 -4.12,1.6 -4.12,3.88 0,2.28 1.72,3.76 4.12,3.76 z m 14.438,14.44 c 0,7.28 5.28,11.48 12.2,11.48 3.04,0 6.36,-1.04 9,-3.28 l -2.48,-3.8 c -1.64,1.16 -3.6,2.2 -6,2.2 -3.84,0 -6.52,-2.6 -6.52,-6.6 0,-4 2.76,-6.64 6.72,-6.64 1.8,0 3.36,0.64 5.04,1.92 l 2.84,-3.8 c -1.84,-1.72 -4.68,-3 -8.2,-3 -6.72,0 -12.6,4.2 -12.6,11.52 z"
         style="-inkscape-font-specification:'Source Han Code JP Bold';fill:#c09090"
         id="path8"
         inkscape:connector-curvature="0" />
      <path
         d="m 186.75,22.82 c 0,7.28 5.28,11.48 12.2,11.48 3.04,0 6.36,-1.04 9,-3.28 l -2.48,-3.8 c -1.64,1.16 -3.6,2.2 -6,2.2 -3.84,0 -6.52,-2.6 -6.52,-6.6 0,-4 2.76,-6.64 6.72,-6.64 1.8,0 3.36,0.64 5.04,1.92 l 2.84,-3.8 c -1.84,-1.72 -4.68,-3 -8.2,-3 -6.72,0 -12.6,4.2 -12.6,11.52 z m 26.52,-15.48 6.56,0 0,18.04 c 0,5.56 2.8,8.92 8.2,8.92 2.68,0 4.24,-0.48 6.44,-1.2 l -1.36,-4.44 c -1.4,0.52 -2.52,0.76 -3.56,0.76 -1.96,0 -3.68,-0.96 -3.68,-3.76 l 0,-23.08 -12.6,0 0,4.76 z m 26.72,20.4 c 0,3.76 2.84,6.56 7.24,6.56 2.88,0 5.68,-1.4 7.92,-3.08 l 0.16,0 0.44,2.56 4.96,0 0,-12.72 c 0,-6.52 -3.6,-9.76 -9.72,-9.76 -3.76,0 -7.32,1.28 -10.2,3 l 2.16,3.96 c 2.4,-1.24 4.64,-2.12 6.84,-2.12 3.16,0 4.68,1.4 4.88,3.52 -10.52,0.72 -14.68,3.16 -14.68,8.08 z m 5.8,-0.44 c 0,-2.08 1.92,-3.52 8.88,-3.92 l 0,3.96 c -1.72,1.32 -3.52,2.28 -5.56,2.28 -1.96,0 -3.32,-0.76 -3.32,-2.32 z m 20.558,3.64 c 2.72,1.84 6.72,3.36 10.72,3.36 6.88,0 10.64,-3.08 10.64,-6.96 0,-3.76 -3.6,-5.4 -8.2,-6.6 -3.28,-0.84 -5.8,-1.56 -5.8,-2.96 0,-1.24 1.08,-1.96 4.04,-1.96 2.4,0 4.56,0.88 6.56,2.12 l 2.72,-3.68 c -2.28,-1.44 -5.56,-2.96 -9.36,-2.96 -6.28,0 -10,2.76 -10,6.76 0,3.44 3.96,5.28 7.92,6.4 3.84,1 6.08,1.84 6.08,3.2 0,1.28 -1.32,2.12 -4.44,2.12 -3.12,0 -5.64,-1 -8.16,-2.64 l -2.72,3.8 z m 26.718,0 c 2.72,1.84 6.72,3.36 10.72,3.36 6.88,0 10.64,-3.08 10.64,-6.96 0,-3.76 -3.6,-5.4 -8.2,-6.6 -3.28,-0.84 -5.8,-1.56 -5.8,-2.96 0,-1.24 1.08,-1.96 4.04,-1.96 2.4,0 4.56,0.88 6.56,2.12 l 2.72,-3.68 c -2.28,-1.44 -5.56,-2.96 -9.36,-2.96 -6.28,0 -10,2.76 -10,6.76 0,3.44 3.96,5.28 7.92,6.4 3.84,1 6.08,1.84 6.08,3.2 0,1.28 -1.32,2.12 -4.44,2.12 -3.12,0 -5.64,-1 -8.16,-2.64 l -2.72,3.8 z"
         style="-inkscape-font-specification:'Source Han Code JP Bold'"
         id="path10"
         inkscape:connector-curvature="0" />
      <path
         d="m 613.73,22.82 c 0,7.28 5.32,11.48 12.08,11.48 3.04,0 6.2,-1 8.64,-2.52 l -2,-3.68 c -1.96,1 -3.76,1.56 -5.8,1.56 -3.52,0 -6.32,-1.64 -6.72,-5.12 l 15.2,0 c 0.08,-0.52 0.24,-1.64 0.24,-2.76 0,-5.96 -3.6,-10.48 -10.28,-10.48 -5.8,0 -11.36,4.32 -11.36,11.52 z m 6.16,-2.32 c 0.52,-3.08 2.76,-4.56 5.36,-4.56 3.12,0 4.6,1.76 4.6,4.56 l -9.96,0 z m 19.84,13.28 6.36,0 2.4,-3.84 c 0.68,-1.32 1.44,-2.6 2.16,-3.88 l 0.16,0 c 0.84,1.24 1.76,2.64 2.6,3.84 l 2.72,3.88 6.52,0 -7.76,-10.72 7.28,-11.24 -6.36,0 -2.12,3.76 c -0.64,1.2 -1.36,2.52 -1.96,3.76 l -0.2,0 c -0.72,-1.24 -1.64,-2.52 -2.28,-3.76 l -2.48,-3.76 -6.52,0 7.2,10.56 -7.72,11.4 z m 32.88,-9 c 0,5.68 2.4,9.52 9.24,9.52 2.76,0 5.2,-0.56 7.16,-1.2 l -1.12,-4.36 c -1.36,0.48 -2.8,0.8 -4.52,0.8 -3.36,0 -4.72,-1.4 -4.72,-4.84 l 0,-8.12 9.52,0 0,-4.76 -9.52,0 0,-5.88 -5.04,0 -0.76,5.88 -5.88,0.28 0,4.48 5.64,0 0,8.2 z m 21.278,-1.96 c 0,7.28 5.32,11.48 12.08,11.48 3.04,0 6.2,-1 8.64,-2.52 l -2,-3.68 c -1.96,1 -3.76,1.56 -5.8,1.56 -3.52,0 -6.32,-1.64 -6.72,-5.12 l 15.2,0 c 0.08,-0.52 0.24,-1.64 0.24,-2.76 0,-5.96 -3.6,-10.48 -10.28,-10.48 -5.8,0 -11.36,4.32 -11.36,11.52 z m 6.16,-2.32 c 0.52,-3.08 2.76,-4.56 5.36,-4.56 3.12,0 4.6,1.76 4.6,4.56 l -9.96,0 z m 21.358,13.28 6.04,0 0,-14.76 c 1.72,-1.68 2.96,-2.56 4.88,-2.56 2.56,0 3.52,1.4 3.52,4.56 l 0,12.76 6.04,0 0,-13.56 c 0,-5.6 -2.24,-8.92 -7.2,-8.92 -3.32,0 -5.76,1.64 -7.72,3.6 l -0.16,0 -0.48,-3.08 -4.92,0 0,21.96 z m 25.56,-10.96 c 0,7.2 3.68,11.48 9.32,11.48 2.28,0 4.6,-1.24 6.24,-2.88 l 0.12,0 0.48,2.36 4.92,0 0,-31.2 -6.04,0 0,7.64 0.24,3.52 c -1.64,-1.48 -3.28,-2.44 -5.8,-2.44 -4.84,0 -9.48,4.32 -9.48,11.52 z m 6.2,-0.08 c 0,-4.28 2.2,-6.48 4.8,-6.48 1.4,0 2.72,0.44 4.04,1.64 l 0,9.2 c -1.28,1.6 -2.64,2.24 -4.24,2.24 -2.88,0 -4.6,-2.12 -4.6,-6.6 z m 20.838,8.2 c 2.72,1.84 6.72,3.36 10.72,3.36 6.88,0 10.64,-3.08 10.64,-6.96 0,-3.76 -3.6,-5.4 -8.2,-6.6 -3.28,-0.84 -5.8,-1.56 -5.8,-2.96 0,-1.24 1.08,-1.96 4.04,-1.96 2.4,0 4.56,0.88 6.56,2.12 l 2.72,-3.68 c -2.28,-1.44 -5.56,-2.96 -9.36,-2.96 -6.28,0 -10,2.76 -10,6.76 0,3.44 3.96,5.28 7.92,6.4 3.84,1 6.08,1.84 6.08,3.2 0,1.28 -1.32,2.12 -4.44,2.12 -3.12,0 -5.64,-1 -8.16,-2.64 l -2.72,3.8 z"
         style="-inkscape-font-specification:'Source Han Code JP Bold';fill:#c09090"
         id="path12"
         inkscape:connector-curvature="0" />
      <path
         d="m 1022.473,34.3 c 0,4.76 2.56,6.24 8.24,6.24 l 3.32,0 0,-3.24 -1.92,0 c -3.84,0 -4.68,-0.72 -4.68,-3.28 0,-2.44 0.2,-4.64 0.2,-7.36 0,-3.28 -1.2,-4.6 -4.36,-5.12 l 0,-0.2 c 3.16,-0.52 4.36,-1.84 4.36,-5.12 0,-2.64 -0.2,-5 -0.2,-7.36 0,-2.56 0.84,-3.28 4.68,-3.28 l 1.92,0 0,-3.24 -3.32,0 c -5.68,0 -8.24,1.48 -8.24,6.24 0,3.12 0.44,5 0.44,7.76 0,1.6 -1.32,3.24 -6.16,3.32 l 0,3.56 c 4.84,0.08 6.16,1.72 6.16,3.32 0,2.84 -0.44,4.6 -0.44,7.76 z"
         style="-inkscape-font-specification:'Source Han Code JP Bold'"
         id="path14"
         inkscape:connector-curvature="0" />
      <path
         d="m 59.278,81.86 c 1.68,1.56 3.68,2.44 5.64,2.44 5,0 9.6,-4.28 9.6,-11.84 0,-6.76 -3.28,-11.16 -8.84,-11.16 -2.4,0 -4.92,1.2 -6.72,2.84 l -0.12,0 -0.48,-2.32 -4.92,0 0,30.28 6.04,0 0,-6.6 -0.2,-3.64 z m 0.2,-4.16 0,-9.2 c 1.52,-1.6 2.96,-2.24 4.48,-2.24 3,0 4.36,2.2 4.36,6.28 0,4.68 -2.08,6.8 -4.72,6.8 -1.2,0 -2.76,-0.44 -4.12,-1.64 z m 22.678,6.08 6.04,0 0,-11.64 c 2,-4.08 4.88,-5.52 7.68,-5.52 1.6,0 2.52,0.24 3.92,0.68 l 1.24,-5.12 c -1.28,-0.56 -2.36,-0.88 -4.24,-0.88 -3.6,0 -6.88,1.84 -9.04,5.4 l -0.16,0 -0.48,-4.88 -4.96,0 0,21.96 z m 24.92,-17.2 9.08,0 0,17.2 6.04,0 0,-21.96 -15.12,0 0,4.76 z m 11.8,-8.2 c 2.36,0 4.08,-1.48 4.08,-3.76 0,-2.28 -1.72,-3.88 -4.08,-3.88 -2.4,0 -4.12,1.6 -4.12,3.88 0,2.28 1.72,3.76 4.12,3.76 z m 21.318,25.4 6.92,0 8.2,-21.96 -5.76,0 -3.72,10.72 c -0.72,2.16 -1.36,4.44 -2.04,6.68 l -0.2,0 c -0.64,-2.24 -1.28,-4.52 -2.04,-6.68 l -3.68,-10.72 -6.08,0 8.4,21.96 z m 19.64,-6.04 c 0,3.76 2.84,6.56 7.24,6.56 2.88,0 5.68,-1.4 7.92,-3.08 l 0.16,0 0.44,2.56 4.96,0 0,-12.72 c 0,-6.52 -3.6,-9.76 -9.72,-9.76 -3.76,0 -7.32,1.28 -10.2,3 l 2.16,3.96 c 2.4,-1.24 4.64,-2.12 6.84,-2.12 3.16,0 4.68,1.4 4.88,3.52 -10.52,0.72 -14.68,3.16 -14.68,8.08 z m 5.8,-0.44 c 0,-2.08 1.92,-3.52 8.88,-3.92 l 0,3.96 c -1.72,1.32 -3.52,2.28 -5.56,2.28 -1.96,0 -3.32,-0.76 -3.32,-2.32 z m 26.036,-2.52 c 0,5.68 2.4,9.52 9.24,9.52 2.76,0 5.2,-0.56 7.16,-1.2 l -1.12,-4.36 c -1.36,0.48 -2.8,0.8 -4.52,0.8 -3.36,0 -4.72,-1.4 -4.72,-4.84 l 0,-8.12 9.52,0 0,-4.76 -9.52,0 0,-5.88 -5.04,0 -0.76,5.88 -5.88,0.28 0,4.48 5.64,0 0,8.2 z m 21.28,-1.96 c 0,7.28 5.32,11.48 12.08,11.48 3.04,0 6.2,-1 8.64,-2.52 l -2,-3.68 c -1.96,1 -3.76,1.56 -5.8,1.56 -3.52,0 -6.32,-1.64 -6.72,-5.12 l 15.2,0 c 0.08,-0.52 0.24,-1.64 0.24,-2.76 0,-5.96 -3.6,-10.48 -10.28,-10.48 -5.8,0 -11.36,4.32 -11.36,11.52 z m 6.16,-2.32 c 0.52,-3.08 2.76,-4.56 5.36,-4.56 3.12,0 4.6,1.76 4.6,4.56 l -9.96,0 z"
         style="-inkscape-font-specification:'Source Han Code JP Bold';fill:#c09090"
         id="path16"
         inkscape:connector-curvature="0" />
      <path
         d="m 624.49,69.7 c 2.88,0 4.88,-2.16 4.88,-4.96 0,-2.8 -2,-4.96 -4.88,-4.96 -2.88,0 -4.88,2.16 -4.88,4.96 0,2.8 2,4.96 4.88,4.96 z m -3.6,23.68 c 5.92,-1.88 9.12,-5.84 9.12,-11.4 0,-4.56 -1.84,-7.28 -5.28,-7.28 -2.64,0 -4.76,1.68 -4.76,4.32 0,2.84 2.16,4.4 4.6,4.4 0.16,0 0.36,0 0.52,-0.04 -0.04,2.88 -1.92,5.04 -5.72,6.44 l 1.52,3.56 z"
         style="-inkscape-font-specification:'Source Han Code JP Bold'"
         id="path18"
         inkscape:connector-curvature="0" />
      <path
         d="m 59.278,131.86 c 1.68,1.56 3.68,2.44 5.64,2.44 5,0 9.6,-4.28 9.6,-11.84 0,-6.76 -3.28,-11.16 -8.84,-11.16 -2.4,0 -4.92,1.2 -6.72,2.84 l -0.12,0 -0.48,-2.32 -4.92,0 0,30.28 6.04,0 0,-6.6 -0.2,-3.64 z m 0.2,-4.16 0,-9.2 c 1.52,-1.6 2.96,-2.24 4.48,-2.24 3,0 4.36,2.2 4.36,6.28 0,4.68 -2.08,6.8 -4.72,6.8 -1.2,0 -2.76,-0.44 -4.12,-1.64 z m 40.478,-15.88 -6.04,0 0,14.56 c -1.64,2.08 -2.92,2.76 -4.72,2.76 -2.6,0 -3.48,-1.4 -3.48,-4.52 l 0,-12.8 -6.04,0 0,13.56 c 0,5.6 2.16,8.92 7.2,8.92 3.16,0 5.52,-1.52 7.48,-3.8 l 0.2,0 0.44,3.28 4.96,0 0,-21.96 z m 6.92,21.96 4.76,0 0.48,-2.4 0.16,0 c 1.84,1.92 4.08,2.92 6.12,2.92 4.96,0 9.56,-4.28 9.56,-11.84 0,-6.76 -3.32,-11.16 -8.88,-11.16 -2.2,0 -4.52,1 -6.28,2.64 l 0.12,-3.6 0,-7.76 -6.04,0 0,31.2 z m 6.04,-6.08 0,-9.2 c 1.52,-1.6 2.96,-2.24 4.48,-2.24 3,0 4.36,2.2 4.36,6.28 0,4.68 -2.08,6.8 -4.72,6.8 -1.2,0 -2.76,-0.44 -4.12,-1.64 z m 20.198,-20.36 6.56,0 0,18.04 c 0,5.56 2.8,8.92 8.2,8.92 2.68,0 4.24,-0.48 6.44,-1.2 l -1.36,-4.44 c -1.4,0.52 -2.52,0.76 -3.56,0.76 -1.96,0 -3.68,-0.96 -3.68,-3.76 l 0,-23.08 -12.6,0 0,4.76 z m 27.4,9.24 9.08,0 0,17.2 6.04,0 0,-21.96 -15.12,0 0,4.76 z m 11.8,-8.2 c 2.36,0 4.08,-1.48 4.08,-3.76 0,-2.28 -1.72,-3.88 -4.08,-3.88 -2.4,0 -4.12,1.6 -4.12,3.88 0,2.28 1.72,3.76 4.12,3.76 z m 14.436,14.44 c 0,7.28 5.28,11.48 12.2,11.48 3.04,0 6.36,-1.04 9,-3.28 l -2.48,-3.8 c -1.64,1.16 -3.6,2.2 -6,2.2 -3.84,0 -6.52,-2.6 -6.52,-6.6 0,-4 2.76,-6.64 6.72,-6.64 1.8,0 3.36,0.64 5.04,1.92 l 2.84,-3.8 c -1.84,-1.72 -4.68,-3 -8.2,-3 -6.72,0 -12.6,4.2 -12.6,11.52 z"
         style="-inkscape-font-specification:'Source Han Code JP Bold';fill:#c09090"
         id="path20"
         inkscape:connector-curvature="0" />
      <path
         d="m 522.016,141.7 3.36,-2.72 c -5.44,-5.12 -7.76,-10.48 -7.76,-17.56 0,-7.08 2.32,-12.4 7.76,-17.52 l -3.36,-2.72 c -5.84,5.04 -9.48,11.88 -9.48,20.24 0,8.4 3.64,15.24 9.48,20.28 z m 312.624,1.68 c 5.92,-1.88 9.12,-5.84 9.12,-11.4 0,-4.56 -1.84,-7.28 -5.28,-7.28 -2.64,0 -4.76,1.68 -4.76,4.32 0,2.84 2.16,4.4 4.6,4.4 0.16,0 0.36,0 0.52,-0.04 -0.04,2.88 -1.92,5.04 -5.72,6.44 l 1.52,3.56 z m 266.39,-1.68 c 5.88,-5.04 9.48,-11.88 9.48,-20.28 0,-8.36 -3.6,-15.2 -9.48,-20.24 l -3.36,2.72 c 5.44,5.12 7.76,10.44 7.76,17.52 0,7.08 -2.32,12.44 -7.76,17.56 l 3.36,2.72 z m 55.036,-7.4 c 0,4.76 2.56,6.24 8.24,6.24 l 3.32,0 0,-3.24 -1.92,0 c -3.84,0 -4.68,-0.72 -4.68,-3.28 0,-2.44 0.2,-4.64 0.2,-7.36 0,-3.28 -1.2,-4.6 -4.36,-5.12 l 0,-0.2 c 3.16,-0.52 4.36,-1.84 4.36,-5.12 0,-2.64 -0.2,-5 -0.2,-7.36 0,-2.56 0.84,-3.28 4.68,-3.28 l 1.92,0 0,-3.24 -3.32,0 c -5.68,0 -8.24,1.48 -8.24,6.24 0,3.12 0.44,5 0.44,7.76 0,1.6 -1.32,3.24 -6.16,3.32 l 0,3.56 c 4.84,0.08 6.16,1.72 6.16,3.32 0,2.84 -0.44,4.6 -0.44,7.76 z m -1044.55,40.48 c 0,5.68 2.4,9.52 9.24,9.52 2.76,0 5.2,-0.56 7.16,-1.2 l -1.12,-4.36 c -1.36,0.48 -2.8,0.8 -4.52,0.8 -3.36,0 -4.72,-1.4 -4.72,-4.84 l 0,-8.12 9.52,0 0,-4.76 -9.52,0 0,-5.88 -5.04,0 -0.76,5.88 -5.88,0.28 0,4.48 5.64,0 0,8.2 z m 22.078,9 6.04,0 0,-14.76 c 1.72,-1.68 2.96,-2.56 4.88,-2.56 2.56,0 3.52,1.4 3.52,4.56 l 0,12.76 6.04,0 0,-13.56 c 0,-5.6 -2.24,-8.92 -7.2,-8.92 -3.32,0 -5.76,1.64 -7.56,3.44 l 0.32,-4.4 0,-7.76 -6.04,0 0,31.2 z m 26.92,-17.2 9.08,0 0,17.2 6.04,0 0,-21.96 -15.12,0 0,4.76 z m 11.8,-8.2 c 2.36,0 4.08,-1.48 4.08,-3.76 0,-2.28 -1.72,-3.88 -4.08,-3.88 -2.4,0 -4.12,1.6 -4.12,3.88 0,2.28 1.72,3.76 4.12,3.76 z m 13.876,22.56 c 2.72,1.84 6.72,3.36 10.72,3.36 6.88,0 10.64,-3.08 10.64,-6.96 0,-3.76 -3.6,-5.4 -8.2,-6.6 -3.28,-0.84 -5.8,-1.56 -5.8,-2.96 0,-1.24 1.08,-1.96 4.04,-1.96 2.4,0 4.56,0.88 6.56,2.12 l 2.72,-3.68 c -2.28,-1.44 -5.56,-2.96 -9.36,-2.96 -6.28,0 -10,2.76 -10,6.76 0,3.44 3.96,5.28 7.92,6.4 3.84,1 6.08,1.84 6.08,3.2 0,1.28 -1.32,2.12 -4.44,2.12 -3.12,0 -5.64,-1 -8.16,-2.64 l -2.72,3.8 z m 32.64,-1.6 c 0,2.84 2,4.96 4.88,4.96 2.88,0 4.88,-2.12 4.88,-4.96 0,-2.8 -2,-4.96 -4.88,-4.96 -2.88,0 -4.88,2.16 -4.88,4.96 z m 155.113,-13.16 20.16,0 0,-4.32 -20.16,0 0,4.32 z m 0,10.2 20.16,0 0,-4.32 -20.16,0 0,4.32 z m 170.392,-6.68 c 2.88,0 4.88,-2.16 4.88,-4.96 0,-2.8 -2,-4.96 -4.88,-4.96 -2.88,0 -4.88,2.16 -4.88,4.96 0,2.8 2,4.96 4.88,4.96 z m -3.6,23.68 c 5.92,-1.88 9.12,-5.84 9.12,-11.4 0,-4.56 -1.84,-7.28 -5.28,-7.28 -2.64,0 -4.76,1.68 -4.76,4.32 0,2.84 2.16,4.4 4.6,4.4 0.16,0 0.36,0 0.52,-0.04 -0.04,2.88 -1.92,5.04 -5.72,6.44 l 1.52,3.56 z m -486.057,43.92 0,3.24 3.32,0 c 5.68,0 8.24,-1.48 8.24,-6.24 0,-3.16 -0.48,-4.92 -0.48,-7.76 0,-1.6 1.32,-3.24 6.16,-3.32 l 0,-3.56 c -4.84,-0.08 -6.16,-1.72 -6.16,-3.32 0,-2.76 0.48,-4.64 0.48,-7.76 0,-4.76 -2.56,-6.24 -8.24,-6.24 l -3.32,0 0,3.24 1.92,0 c 3.8,0 4.64,0.72 4.64,3.28 0,2.36 -0.16,4.72 -0.16,7.36 0,3.28 1.2,4.6 4.36,5.12 l 0,0.2 c -3.16,0.52 -4.36,1.84 -4.36,5.12 0,2.72 0.16,4.92 0.16,7.36 0,2.56 -0.84,3.28 -4.64,3.28 l -1.92,0 z m -53.438,50 0,3.24 3.32,0 c 5.68,0 8.24,-1.48 8.24,-6.24 0,-3.16 -0.48,-4.92 -0.48,-7.76 0,-1.6 1.32,-3.24 6.16,-3.32 l 0,-3.56 c -4.84,-0.08 -6.16,-1.72 -6.16,-3.32 0,-2.76 0.48,-4.64 0.48,-7.76 0,-4.76 -2.56,-6.24 -8.24,-6.24 l -3.32,0 0,3.24 1.92,0 c 3.8,0 4.64,0.72 4.64,3.28 0,2.36 -0.16,4.72 -0.16,7.36 0,3.28 1.2,4.6 4.36,5.12 l 0,0.2 c -3.16,0.52 -4.36,1.84 -4.36,5.12 0,2.72 0.16,4.92 0.16,7.36 0,2.56 -0.84,3.28 -4.64,3.28 l -1.92,0 z"
         style="-inkscape-font-specification:'Source Han Code JP Bold'"
         id="path22"
         inkscape:connector-curvature="0" />
    </g>
    <path
       d="m 337.192,19.258 c 0.005,10.63 8.57,19.27 13.885,19.347 l 198.608,0.136 c 6.587,0.06 15.542,-8.61 15.542,-19.31 C 565.227,8.731 556.272,0.06 550,0.09 L 352.65,0 c -6.784,-0.117 -15.458,8.557 -15.458,19.258 z"
       id="path24"
       inkscape:connector-curvature="0"
       style="fill:#909060" />
    <path
       d="m 808.577,20.575 c 0.005,10.628 8.57,19.27 13.885,19.347 l 164.323,0.136 c 6.587,0.058 15.54,-8.614 15.54,-19.31 0,-10.7 -8.953,-19.37 -15.225,-19.34 L 824.034,1.318 C 817.251,1.2 808.577,9.874 808.577,20.575 Z M 253.454,67.963 c 0.01,10.628 8.572,19.27 13.886,19.347 l 164.322,0.136 c 6.587,0.058 15.542,-8.614 15.542,-19.31 0,-10.7 -8.955,-19.37 -15.226,-19.34 l -163.066,-0.09 c -6.783,-0.118 -15.458,8.556 -15.458,19.257 z m 224.286,1.43 c 0.01,10.627 8.57,19.267 13.885,19.346 l 101.466,0.13 c 6.59,0.06 15.55,-8.62 15.55,-19.31 0,-10.69 -8.95,-19.37 -15.22,-19.34 l -100.21,-0.09 c -6.78,-0.12 -15.454,8.55 -15.454,19.25 z"
       id="path26"
       inkscape:connector-curvature="0"
       style="fill:#ffffff" />
    <path
       d="m 234.883,117.963 c 0.01,10.628 8.57,19.27 13.885,19.347 l 225.75,0.136 c 6.59,0.058 15.543,-8.614 15.543,-19.31 0,-10.7 -8.95,-19.37 -15.22,-19.34 l -224.49,-0.09 c -6.78,-0.118 -15.45,8.556 -15.45,19.257 z"
       id="path28"
       inkscape:connector-curvature="0"
       style="fill:#909060" />
    <path
       d="m 537.74,119.392 c 0.01,10.628 8.57,19.268 13.885,19.347 l 132.894,0.13 c 6.58,0.06 15.54,-8.62 15.54,-19.31 0,-10.69 -8.96,-19.37 -15.23,-19.34 l -131.64,-0.09 c -6.79,-0.12 -15.46,8.56 -15.46,19.26 z m 191.43,-1.43 c 0.01,10.63 8.57,19.27 13.884,19.348 l 67.18,0.136 c 6.587,0.058 15.54,-8.614 15.54,-19.31 0,-10.7 -8.953,-19.37 -15.225,-19.34 l -65.93,-0.09 c -6.79,-0.118 -15.46,8.556 -15.46,19.257 z m 122.856,-0.712 c 0.01,10.627 8.57,19.267 13.885,19.346 l 87.18,-1.293 c 6.59,0.058 15.55,-8.614 15.55,-19.31 0,-10.698 -8.95,-19.37 -15.22,-19.34 -0.5,0 -85.92,1.34 -85.92,1.34 -6.783,-0.12 -15.457,8.555 -15.457,19.256 z m 131.428,-1.43 c 0.01,10.63 8.572,19.27 13.886,19.347 l 67.18,0.137 c 6.587,0.058 15.54,-8.615 15.54,-19.312 0,-10.697 -8.953,-19.37 -15.225,-19.34 l -65.923,-0.09 c -6.783,-0.117 -15.458,8.557 -15.458,19.258 z M 237.74,172.986 c 0.01,10.63 8.57,19.27 13.885,19.348 l 87.18,-1.293 c 6.587,0.06 15.542,-8.61 15.542,-19.31 0,-10.69 -8.955,-19.37 -15.227,-19.34 -0.5,0 -85.922,1.34 -85.922,1.34 -6.783,-0.12 -15.458,8.56 -15.458,19.26 z m 170,-2.856 c 0.01,10.628 8.57,19.268 13.885,19.346 l 87.18,-1.292 c 6.587,0.058 15.542,-8.614 15.542,-19.312 0,-10.697 -8.955,-19.37 -15.227,-19.34 -0.5,0 -85.922,1.34 -85.922,1.34 -6.783,-0.118 -15.458,8.556 -15.458,19.257 z"
       id="path30"
       inkscape:connector-curvature="0"
       style="fill:#ffffff" />
  </g>
</svg>
