<svg xmlns="http://www.w3.org/2000/svg" viewBox="0 0 846.52 199.399">
  <g fill-opacity=".784">
    <path fill="#fff" d="M0 15.84h9.08v17.2h6.04V11.08H0zm11.8-8.2c2.36 0 4.08-1.48 4.08-3.76S14.16 0 11.8 0C9.4 0 7.68 1.6 7.68 3.88S9.4 7.64 11.8 7.64zm37.28-5.12c-1.88-.68-4.16-1.2-6.56-1.2-6.76 0-9.68 3.88-9.68 9v.76l-5.88.28v4.48h5.88v17.2h6.04v-17.2h7.84v-4.76h-7.84v-.8c0-2.84 1.36-4.2 4.32-4.2 1.72 0 3.24.32 4.68.88zm45.236 38.44l3.36-2.72c-5.44-5.12-7.76-10.48-7.76-17.56 0-7.08 2.32-12.4 7.76-17.52L94.316.44c-5.84 5.04-9.48 11.88-9.48 20.24 0 8.4 3.64 15.24 9.48 20.28zm231.67 0c5.88-5.04 9.48-11.88 9.48-20.28 0-8.36-3.6-15.2-9.48-20.24l-3.36 2.72c5.44 5.12 7.76 10.44 7.76 17.52s-2.32 12.44-7.76 17.56zm55.037-7.4c0 4.76 2.56 6.24 8.24 6.24h3.32v-3.24h-1.92c-3.84 0-4.68-.72-4.68-3.28 0-2.44.2-4.64.2-7.36 0-3.28-1.2-4.6-4.36-5.12v-.2c3.16-.52 4.36-1.84 4.36-5.12 0-2.64-.2-5-.2-7.36 0-2.56.84-3.28 4.68-3.28h1.92V1.6h-3.32c-5.68 0-8.24 1.48-8.24 6.24 0 3.12.44 5 .44 7.76 0 1.6-1.32 3.24-6.16 3.32v3.56c4.84.08 6.16 1.72 6.16 3.32 0 2.84-.44 4.6-.44 7.76zM1.04 196.16v3.24h3.32c5.68 0 8.24-1.48 8.24-6.24 0-3.16-.48-4.92-.48-7.76 0-1.6 1.32-3.24 6.16-3.32v-3.56c-4.84-.08-6.16-1.72-6.16-3.32 0-2.76.48-4.64.48-7.76 0-4.76-2.56-6.24-8.24-6.24H1.04v3.24h1.92c3.8 0 4.64.72 4.64 3.28 0 2.36-.16 4.72-.16 7.36 0 3.28 1.2 4.6 4.36 5.12v.2c-3.16.52-4.36 1.84-4.36 5.12 0 2.72.16 4.92.16 7.36 0 2.56-.84 3.28-4.64 3.28H1.04z" style="-inkscape-font-specification:'Source Han Code JP Bold'" font-size="40" font-family="Source Han Code JP" letter-spacing="0" word-spacing="0" font-weight="bold"/>
    <path fill="#c09090" d="M105.663 21.592c.01 10.628 8.57 19.268 13.885 19.347l171.465.132c6.588.058 15.542-8.614 15.542-19.31 0-10.7-8.954-19.37-15.226-19.34l-170.21-.09c-6.786-.118-15.46 8.556-15.46 19.257z"/>
    <path fill="#fff" d="M54.2 76.106c.01 10.63 8.57 19.27 13.884 19.348l762.894.136c6.587.057 15.542-8.614 15.542-19.312 0-10.697-8.955-19.37-15.226-19.34l-761.638-.09c-6.782-.116-15.456 8.56-15.456 19.26zm4.32 59.37c.01 10.63 8.57 19.27 13.885 19.348l467.18.136c6.587.057 15.54-8.614 15.54-19.312 0-10.697-8.953-19.37-15.225-19.34l-465.923-.088c-6.783-.12-15.457 8.556-15.457 19.256z"/>
  </g>
</svg>
