<?xml version="1.0" encoding="UTF-8" standalone="no"?>
<svg
   xmlns:dc="http://purl.org/dc/elements/1.1/"
   xmlns:cc="http://creativecommons.org/ns#"
   xmlns:rdf="http://www.w3.org/1999/02/22-rdf-syntax-ns#"
   xmlns:svg="http://www.w3.org/2000/svg"
   xmlns="http://www.w3.org/2000/svg"
   xmlns:sodipodi="http://sodipodi.sourceforge.net/DTD/sodipodi-0.dtd"
   xmlns:inkscape="http://www.inkscape.org/namespaces/inkscape"
   viewBox="0 0 1700.52 199.39999"
   id="svg2"
   version="1.1"
   inkscape:version="0.91 r13725"
   sodipodi:docname="code-0.svg"
   width="1700.52"
   height="199.39999">
  <metadata
     id="metadata16">
    <rdf:RDF>
      <cc:Work
         rdf:about="">
        <dc:format>image/svg+xml</dc:format>
        <dc:type
           rdf:resource="http://purl.org/dc/dcmitype/StillImage" />
        <dc:title></dc:title>
      </cc:Work>
    </rdf:RDF>
  </metadata>
  <defs
     id="defs14" />
  <sodipodi:namedview
     pagecolor="#ffffff"
     bordercolor="#666666"
     borderopacity="1"
     objecttolerance="10"
     gridtolerance="10"
     guidetolerance="10"
     inkscape:pageopacity="0"
     inkscape:pageshadow="2"
     inkscape:window-width="1920"
     inkscape:window-height="1057"
     id="namedview12"
     showgrid="false"
     fit-margin-left="800"
     fit-margin-top="0"
     fit-margin-right="54"
     fit-margin-bottom="0"
     inkscape:zoom="0.627274"
     inkscape:cx="1223.26"
     inkscape:cy="99.700505"
     inkscape:window-x="1912"
     inkscape:window-y="-8"
     inkscape:window-maximized="1"
     inkscape:current-layer="svg2" />
  <g
     id="g4"
     style="fill-opacity:0.78399999"
     transform="translate(800,0)">
    <path
       d="m 0,15.84 9.08,0 0,17.2 6.04,0 0,-21.96 -15.12,0 z m 11.8,-8.2 c 2.36,0 4.08,-1.48 4.08,-3.76 C 15.88,1.6 14.16,0 11.8,0 9.4,0 7.68,1.6 7.68,3.88 7.68,6.16 9.4,7.64 11.8,7.64 Z M 49.08,2.52 c -1.88,-0.68 -4.16,-1.2 -6.56,-1.2 -6.76,0 -9.68,3.88 -9.68,9 l 0,0.76 -5.88,0.28 0,4.48 5.88,0 0,17.2 6.04,0 0,-17.2 7.84,0 0,-4.76 -7.84,0 0,-0.8 c 0,-2.84 1.36,-4.2 4.32,-4.2 1.72,0 3.24,0.32 4.68,0.88 z m 45.236,38.44 3.36,-2.72 c -5.44,-5.12 -7.76,-10.48 -7.76,-17.56 0,-7.08 2.32,-12.4 7.76,-17.52 l -3.36,-2.72 c -5.84,5.04 -9.48,11.88 -9.48,20.24 0,8.4 3.64,15.24 9.48,20.28 z m 231.67,0 c 5.88,-5.04 9.48,-11.88 9.48,-20.28 0,-8.36 -3.6,-15.2 -9.48,-20.24 l -3.36,2.72 c 5.44,5.12 7.76,10.44 7.76,17.52 0,7.08 -2.32,12.44 -7.76,17.56 z m 55.037,-7.4 c 0,4.76 2.56,6.24 8.24,6.24 l 3.32,0 0,-3.24 -1.92,0 c -3.84,0 -4.68,-0.72 -4.68,-3.28 0,-2.44 0.2,-4.64 0.2,-7.36 0,-3.28 -1.2,-4.6 -4.36,-5.12 l 0,-0.2 c 3.16,-0.52 4.36,-1.84 4.36,-5.12 0,-2.64 -0.2,-5 -0.2,-7.36 0,-2.56 0.84,-3.28 4.68,-3.28 l 1.92,0 0,-3.24 -3.32,0 c -5.68,0 -8.24,1.48 -8.24,6.24 0,3.12 0.44,5 0.44,7.76 0,1.6 -1.32,3.24 -6.16,3.32 l 0,3.56 c 4.84,0.08 6.16,1.72 6.16,3.32 0,2.84 -0.44,4.6 -0.44,7.76 z M 1.04,196.16 l 0,3.24 3.32,0 c 5.68,0 8.24,-1.48 8.24,-6.24 0,-3.16 -0.48,-4.92 -0.48,-7.76 0,-1.6 1.32,-3.24 6.16,-3.32 l 0,-3.56 c -4.84,-0.08 -6.16,-1.72 -6.16,-3.32 0,-2.76 0.48,-4.64 0.48,-7.76 0,-4.76 -2.56,-6.24 -8.24,-6.24 l -3.32,0 0,3.24 1.92,0 c 3.8,0 4.64,0.72 4.64,3.28 0,2.36 -0.16,4.72 -0.16,7.36 0,3.28 1.2,4.6 4.36,5.12 l 0,0.2 c -3.16,0.52 -4.36,1.84 -4.36,5.12 0,2.72 0.16,4.92 0.16,7.36 0,2.56 -0.84,3.28 -4.64,3.28 l -1.92,0 z"
       style="font-weight:bold;font-size:40px;font-family:'Source Han Code JP';-inkscape-font-specification:'Source Han Code JP Bold';letter-spacing:0;word-spacing:0;fill:#ffffff"
       font-size="40"
       letter-spacing="0"
       word-spacing="0"
       font-weight="bold"
       id="path6"
       inkscape:connector-curvature="0" />
    <path
       d="m 105.663,21.592 c 0.01,10.628 8.57,19.268 13.885,19.347 l 171.465,0.132 c 6.588,0.058 15.542,-8.614 15.542,-19.31 0,-10.7 -8.954,-19.37 -15.226,-19.34 l -170.21,-0.09 c -6.786,-0.118 -15.46,8.556 -15.46,19.257 z"
       id="path8"
       inkscape:connector-curvature="0"
       style="fill:#c09090" />
    <path
       d="m 54.2,76.106 c 0.01,10.63 8.57,19.27 13.884,19.348 l 762.894,0.136 c 6.587,0.057 15.542,-8.614 15.542,-19.312 0,-10.697 -8.955,-19.37 -15.226,-19.34 L 69.656,56.848 C 62.874,56.732 54.2,65.408 54.2,76.108 Z m 4.32,59.37 c 0.01,10.63 8.57,19.27 13.885,19.348 l 467.18,0.136 c 6.587,0.057 15.54,-8.614 15.54,-19.312 0,-10.697 -8.953,-19.37 -15.225,-19.34 L 73.977,116.22 C 67.194,116.1 58.52,124.776 58.52,135.476 Z"
       id="path10"
       inkscape:connector-curvature="0"
       style="fill:#ffffff" />
  </g>
</svg>
