<svg xmlns="http://www.w3.org/2000/svg" viewBox="0 0 1189.425 193.119">
  <g fill-opacity=".784">
    <g fill="#fff" style="line-height:125%" font-size="40" font-family="Source Han Code JP" letter-spacing="0" word-spacing="0" font-weight="bold">
      <path fill="#c09090" d="M0 25.4c0 7.28 5.28 11.48 12.2 11.48 3.04 0 6.36-1.04 9-3.28l-2.48-3.8c-1.64 1.16-3.6 2.2-6 2.2-3.84 0-6.52-2.6-6.52-6.6 0-4 2.76-6.64 6.72-6.64 1.8 0 3.36.64 5.04 1.92l2.84-3.8c-1.84-1.72-4.68-3-8.2-3C5.88 13.88 0 18.08 0 25.4zm25.84 0c0 7.28 5.32 11.48 11.12 11.48 5.8 0 11.12-4.2 11.12-11.48 0-7.32-5.32-11.52-11.12-11.52-5.8 0-11.12 4.2-11.12 11.52zm6.2 0c0-4 1.72-6.64 4.92-6.64s4.92 2.64 4.92 6.64c0 4-1.72 6.6-4.92 6.6s-4.92-2.6-4.92-6.6zm21.677 10.96h6.04V21.6c1.72-1.68 2.96-2.56 4.88-2.56 2.56 0 3.52 1.4 3.52 4.56v12.76h6.04V22.8c0-5.6-2.24-8.92-7.2-8.92-3.32 0-5.76 1.64-7.72 3.6h-.16l-.48-3.08h-4.92v21.96zm25.88-2.84c2.72 1.84 6.72 3.36 10.72 3.36 6.88 0 10.64-3.08 10.64-6.96 0-3.76-3.6-5.4-8.2-6.6-3.28-.84-5.8-1.56-5.8-2.96 0-1.24 1.08-1.96 4.04-1.96 2.4 0 4.56.88 6.56 2.12l2.72-3.68c-2.28-1.44-5.56-2.96-9.36-2.96-6.28 0-10 2.76-10 6.76 0 3.44 3.96 5.28 7.92 6.4 3.84 1 6.08 1.84 6.08 3.2 0 1.28-1.32 2.12-4.44 2.12s-5.64-1-8.16-2.64l-2.72 3.8zm32.198-6.16c0 5.68 2.4 9.52 9.24 9.52 2.76 0 5.2-.56 7.16-1.2l-1.12-4.36c-1.36.48-2.8.8-4.52.8-3.36 0-4.72-1.4-4.72-4.84v-8.12h9.52V14.4h-9.52V8.52h-5.04l-.76 5.88-5.88.28v4.48h5.64v8.2z" style="-inkscape-font-specification:'Source Han Code JP Bold'"/>
      <path d="M294.066 18.76h20.16v-4.32h-20.16v4.32zm0 10.2h20.16v-4.32h-20.16v4.32zm67.918 15.32l3.36-2.72c-5.44-5.12-7.76-10.48-7.76-17.56 0-7.08 2.32-12.4 7.76-17.52l-3.36-2.72c-5.84 5.04-9.48 11.88-9.48 20.24 0 8.4 3.64 15.24 9.48 20.28zm19.52-7.4c0 4.76 2.56 6.24 8.24 6.24h3.32v-3.24h-1.92c-3.84 0-4.68-.72-4.68-3.28 0-2.44.2-4.64.2-7.36 0-3.28-1.2-4.6-4.36-5.12v-.2c3.16-.52 4.36-1.84 4.36-5.12 0-2.64-.2-5-.2-7.36 0-2.56.84-3.28 4.68-3.28h1.92V4.92h-3.32c-5.68 0-8.24 1.48-8.24 6.24 0 3.12.44 5 .44 7.76 0 1.6-1.32 3.24-6.16 3.32v3.56c4.84.08 6.16 1.72 6.16 3.32 0 2.84-.44 4.6-.44 7.76zm26.156-.52h6.92l8.2-21.96h-5.76l-3.72 10.72c-.72 2.16-1.36 4.44-2.04 6.68h-.2c-.64-2.24-1.28-4.52-2.04-6.68l-3.68-10.72h-6.08l8.4 21.96zm19.64-6.04c0 3.76 2.84 6.56 7.24 6.56 2.88 0 5.68-1.4 7.92-3.08h.16l.44 2.56h4.96V23.64c0-6.52-3.6-9.76-9.72-9.76-3.76 0-7.32 1.28-10.2 3l2.16 3.96c2.4-1.24 4.64-2.12 6.84-2.12 3.16 0 4.68 1.4 4.88 3.52-10.52.72-14.68 3.16-14.68 8.08zm5.8-.44c0-2.08 1.92-3.52 8.88-3.92v3.96c-1.72 1.32-3.52 2.28-5.56 2.28-1.96 0-3.32-.76-3.32-2.32zm20.92-19.96h6.56v18.04c0 5.56 2.8 8.92 8.2 8.92 2.68 0 4.24-.48 6.44-1.2l-1.36-4.44c-1.4.52-2.52.76-3.56.76-1.96 0-3.68-.96-3.68-3.76V5.16h-12.6v4.76zm46.998 4.48h-6.04v14.56c-1.64 2.08-2.92 2.76-4.72 2.76-2.6 0-3.48-1.4-3.48-4.52V14.4h-6.04v13.56c0 5.6 2.16 8.92 7.2 8.92 3.16 0 5.52-1.52 7.48-3.8h.2l.44 3.28h4.96V14.4zm6.118 11c0 7.28 5.32 11.48 12.08 11.48 3.04 0 6.2-1 8.64-2.52l-2-3.68c-1.96 1-3.76 1.56-5.8 1.56-3.52 0-6.32-1.64-6.72-5.12h15.2c.08-.52.24-1.64.24-2.76 0-5.96-3.6-10.48-10.28-10.48-5.8 0-11.36 4.32-11.36 11.52zm6.16-2.32c.52-3.08 2.76-4.56 5.36-4.56 3.12 0 4.6 1.76 4.6 4.56h-9.96zm27.72 22.88c5.92-1.88 9.12-5.84 9.12-11.4 0-4.56-1.84-7.28-5.28-7.28-2.64 0-4.76 1.68-4.76 4.32 0 2.84 2.16 4.4 4.6 4.4.16 0 .36 0 .52-.04-.04 2.88-1.92 5.04-5.72 6.44l1.52 3.56zm52.157-14.04c0 2.84 2 4.96 4.88 4.96s4.88-2.12 4.88-4.96c0-2.8-2-4.96-4.88-4.96s-4.88 2.16-4.88 4.96zm26.717 0c0 2.84 2 4.96 4.88 4.96s4.88-2.12 4.88-4.96c0-2.8-2-4.96-4.88-4.96s-4.88 2.16-4.88 4.96zm26.72 0c0 2.84 2 4.96 4.88 4.96s4.88-2.12 4.88-4.96c0-2.8-2-4.96-4.88-4.96s-4.88 2.16-4.88 4.96zm27.48 2.52c1.68 1.56 3.68 2.44 5.64 2.44 5 0 9.6-4.28 9.6-11.84 0-6.76-3.28-11.16-8.84-11.16-2.4 0-4.92 1.2-6.72 2.84h-.12l-.48-2.32h-4.92v30.28h6.04v-6.6l-.2-3.64zm.2-4.16v-9.2c1.52-1.6 2.96-2.24 4.48-2.24 3 0 4.36 2.2 4.36 6.28 0 4.68-2.08 6.8-4.72 6.8-1.2 0-2.76-.44-4.12-1.64zm22.678 6.08h6.04V24.72c2-4.08 4.88-5.52 7.68-5.52 1.6 0 2.52.24 3.92.68l1.24-5.12c-1.28-.56-2.36-.88-4.24-.88-3.6 0-6.88 1.84-9.04 5.4h-.16l-.48-4.88h-4.96v21.96zm23.558-10.96c0 7.28 5.32 11.48 11.12 11.48 5.8 0 11.12-4.2 11.12-11.48 0-7.32-5.32-11.52-11.12-11.52-5.8 0-11.12 4.2-11.12 11.52zm6.2 0c0-4 1.72-6.64 4.92-6.64s4.92 2.64 4.92 6.64c0 4-1.72 6.6-4.92 6.6s-4.92-2.6-4.92-6.6zm27.52 9.04c1.68 1.56 3.68 2.44 5.64 2.44 5 0 9.6-4.28 9.6-11.84 0-6.76-3.28-11.16-8.84-11.16-2.4 0-4.92 1.2-6.72 2.84h-.12l-.48-2.32h-4.92v30.28h6.04v-6.6l-.2-3.64zm.2-4.16v-9.2c1.52-1.6 2.96-2.24 4.48-2.24 3 0 4.36 2.2 4.36 6.28 0 4.68-2.08 6.8-4.72 6.8-1.2 0-2.76-.44-4.12-1.64zm19.838 3.24c2.72 1.84 6.72 3.36 10.72 3.36 6.88 0 10.64-3.08 10.64-6.96 0-3.76-3.6-5.4-8.2-6.6-3.28-.84-5.8-1.56-5.8-2.96 0-1.24 1.08-1.96 4.04-1.96 2.4 0 4.56.88 6.56 2.12l2.72-3.68c-2.28-1.44-5.56-2.96-9.36-2.96-6.28 0-10 2.76-10 6.76 0 3.44 3.96 5.28 7.92 6.4 3.84 1 6.08 1.84 6.08 3.2 0 1.28-1.32 2.12-4.44 2.12s-5.64-1-8.16-2.64l-2.72 3.8zm28.8 6.36v3.24h3.32c5.68 0 8.24-1.48 8.24-6.24 0-3.16-.48-4.92-.48-7.76 0-1.6 1.32-3.24 6.16-3.32v-3.56c-4.84-.08-6.16-1.72-6.16-3.32 0-2.76.48-4.64.48-7.76 0-4.76-2.56-6.24-8.24-6.24h-3.32v3.24h1.92c3.8 0 4.64.72 4.64 3.28 0 2.36-.16 4.72-.16 7.36 0 3.28 1.2 4.6 4.36 5.12v.2c-3.16.52-4.36 1.84-4.36 5.12 0 2.72.16 4.92.16 7.36 0 2.56-.84 3.28-4.64 3.28h-1.92zm31.036 4.4C840 39.24 843.6 32.4 843.6 24c0-8.36-3.6-15.2-9.48-20.24l-3.36 2.72c5.44 5.12 7.76 10.44 7.76 17.52s-2.32 12.44-7.76 17.56l3.36 2.72zm47.76-25.52h20.16v-4.32h-20.16v4.32zm0 10.2h20.16v-4.32h-20.16v4.32zm44.918-9.44L909.758 8.4v5.52l12.04 7.6v.2l-12.04 7.6v5.52l17.04-11.12v-4.2zm42.517 17.36c0 4.76 2.56 6.24 8.24 6.24h3.32v-3.24h-1.92c-3.84 0-4.68-.72-4.68-3.28 0-2.44.2-4.64.2-7.36 0-3.28-1.2-4.6-4.36-5.12v-.2c3.16-.52 4.36-1.84 4.36-5.12 0-2.64-.2-5-.2-7.36 0-2.56.84-3.28 4.68-3.28h1.92V4.92h-3.32c-5.68 0-8.24 1.48-8.24 6.24 0 3.12.44 5 .44 7.76 0 1.6-1.32 3.24-6.16 3.32v3.56c4.84.08 6.16 1.72 6.16 3.32 0 2.84-.44 4.6-.44 7.76zM53.437 75.4c0 7.28 5.28 11.48 12.2 11.48 3.04 0 6.36-1.04 9-3.28l-2.48-3.8c-1.64 1.16-3.6 2.2-6 2.2-3.84 0-6.52-2.6-6.52-6.6 0-4 2.76-6.64 6.72-6.64 1.8 0 3.36.64 5.04 1.92l2.84-3.8c-1.84-1.72-4.68-3-8.2-3-6.72 0-12.6 4.2-12.6 11.52zm25.84 0c0 7.28 5.32 11.48 11.12 11.48 5.8 0 11.12-4.2 11.12-11.48 0-7.32-5.32-11.52-11.12-11.52-5.8 0-11.12 4.2-11.12 11.52zm6.2 0c0-4 1.72-6.64 4.92-6.64s4.92 2.64 4.92 6.64c0 4-1.72 6.6-4.92 6.6s-4.92-2.6-4.92-6.6zm21.678 10.96h6.04V71.6c1.72-1.68 2.96-2.56 4.88-2.56 2.56 0 3.52 1.4 3.52 4.56v12.76h6.04V72.8c0-5.6-2.24-8.92-7.2-8.92-3.32 0-5.76 1.64-7.72 3.6h-.16l-.48-3.08h-4.92v21.96zm25.88-2.84c2.72 1.84 6.72 3.36 10.72 3.36 6.88 0 10.64-3.08 10.64-6.96 0-3.76-3.6-5.4-8.2-6.6-3.28-.84-5.8-1.56-5.8-2.96 0-1.24 1.08-1.96 4.04-1.96 2.4 0 4.56.88 6.56 2.12l2.72-3.68c-2.28-1.44-5.56-2.96-9.36-2.96-6.28 0-10 2.76-10 6.76 0 3.44 3.96 5.28 7.92 6.4 3.84 1 6.08 1.84 6.08 3.2 0 1.28-1.32 2.12-4.44 2.12s-5.64-1-8.16-2.64l-2.72 3.8zm32.197-6.16c0 5.68 2.4 9.52 9.24 9.52 2.76 0 5.2-.56 7.16-1.2l-1.12-4.36c-1.36.48-2.8.8-4.52.8-3.36 0-4.72-1.4-4.72-4.84v-8.12h9.52V64.4h-9.52v-5.88h-5.04l-.76 5.88-5.88.28v4.48h5.64v8.2zm48.518-1.96c0 7.28 5.28 11.48 12.2 11.48 3.04 0 6.36-1.04 9-3.28l-2.48-3.8c-1.64 1.16-3.6 2.2-6 2.2-3.84 0-6.52-2.6-6.52-6.6 0-4 2.76-6.64 6.72-6.64 1.8 0 3.36.64 5.04 1.92l2.84-3.8c-1.84-1.72-4.68-3-8.2-3-6.72 0-12.6 4.2-12.6 11.52zm26.52-15.48h6.56v18.04c0 5.56 2.8 8.92 8.2 8.92 2.68 0 4.24-.48 6.44-1.2l-1.36-4.44c-1.4.52-2.52.76-3.56.76-1.96 0-3.68-.96-3.68-3.76V55.16h-12.6v4.76zm26.357 23.6c2.72 1.84 6.72 3.36 10.72 3.36 6.88 0 10.64-3.08 10.64-6.96 0-3.76-3.6-5.4-8.2-6.6-3.28-.84-5.8-1.56-5.8-2.96 0-1.24 1.08-1.96 4.04-1.96 2.4 0 4.56.88 6.56 2.12l2.72-3.68c-2.28-1.44-5.56-2.96-9.36-2.96-6.28 0-10 2.76-10 6.76 0 3.44 3.96 5.28 7.92 6.4 3.84 1 6.08 1.84 6.08 3.2 0 1.28-1.32 2.12-4.44 2.12s-5.64-1-8.16-2.64l-2.72 3.8zm54.158-14.76h20.16v-4.32h-20.16v4.32zm0 10.2h20.16v-4.32h-20.16v4.32zm60.158 7.4h6.92l8.2-21.96h-5.76l-3.72 10.72c-.72 2.16-1.36 4.44-2.04 6.68h-.2c-.64-2.24-1.28-4.52-2.04-6.68l-3.68-10.72h-6.08l8.4 21.96zm19.637-6.04c0 3.76 2.84 6.56 7.24 6.56 2.88 0 5.68-1.4 7.92-3.08h.16l.44 2.56h4.96V73.64c0-6.52-3.6-9.76-9.72-9.76-3.76 0-7.32 1.28-10.2 3l2.16 3.96c2.4-1.24 4.64-2.12 6.84-2.12 3.16 0 4.68 1.4 4.88 3.52-10.52.72-14.68 3.16-14.68 8.08zm5.8-.44c0-2.08 1.92-3.52 8.88-3.92v3.96c-1.72 1.32-3.52 2.28-5.56 2.28-1.96 0-3.32-.76-3.32-2.32zm20.92-19.96h6.56v18.04c0 5.56 2.8 8.92 8.2 8.92 2.68 0 4.24-.48 6.44-1.2l-1.36-4.44c-1.4.52-2.52.76-3.56.76-1.96 0-3.68-.96-3.68-3.76V55.16h-12.6v4.76zm47 4.48h-6.04v14.56c-1.64 2.08-2.92 2.76-4.72 2.76-2.6 0-3.48-1.4-3.48-4.52V64.4h-6.04v13.56c0 5.6 2.16 8.92 7.2 8.92 3.16 0 5.52-1.52 7.48-3.8h.2l.44 3.28h4.96V64.4zm6.118 11c0 7.28 5.32 11.48 12.08 11.48 3.04 0 6.2-1 8.64-2.52l-2-3.68c-1.96 1-3.76 1.56-5.8 1.56-3.52 0-6.32-1.64-6.72-5.12h15.2c.08-.52.24-1.64.24-2.76 0-5.96-3.6-10.48-10.28-10.48-5.8 0-11.36 4.32-11.36 11.52zm6.16-2.32c.52-3.08 2.76-4.56 5.36-4.56 3.12 0 4.6 1.76 4.6 4.56h-9.96zm47.957-4.32h20.16v-4.32h-20.16v4.32zm0 10.2h20.16v-4.32h-20.16v4.32zm26.72-10.2h20.16v-4.32h-20.16v4.32zm0 10.2h20.16v-4.32h-20.16v4.32zm26.718-10.2h20.16v-4.32h-20.16v4.32zm0 10.2h20.16v-4.32h-20.16v4.32zm61.637-6.4h3.76l1.48-10.48.2-6.12h-7.12l.2 6.12 1.48 10.48zm41.2-16.72c-1.88-.68-4.16-1.2-6.56-1.2-6.76 0-9.68 3.88-9.68 9v.76l-5.88.28v4.48h5.88v17.2h6.04v-17.2h7.84V64.4h-7.84v-.8c0-2.84 1.36-4.2 4.32-4.2 1.72 0 3.24.32 4.68.88l1.2-4.44zm2.998 19.56c0 7.28 5.32 11.48 11.12 11.48 5.8 0 11.12-4.2 11.12-11.48 0-7.32-5.32-11.52-11.12-11.52-5.8 0-11.12 4.2-11.12 11.52zm6.2 0c0-4 1.72-6.64 4.92-6.64s4.92 2.64 4.92 6.64c0 4-1.72 6.6-4.92 6.6s-4.92-2.6-4.92-6.6zm20.518 0c0 7.28 5.32 11.48 11.12 11.48 5.8 0 11.12-4.2 11.12-11.48 0-7.32-5.32-11.52-11.12-11.52-5.8 0-11.12 4.2-11.12 11.52zm6.2 0c0-4 1.72-6.64 4.92-6.64s4.92 2.64 4.92 6.64c0 4-1.72 6.6-4.92 6.6s-4.92-2.6-4.92-6.6zm29.76-2.84h3.76l1.48-10.48.2-6.12h-7.12l.2 6.12 1.48 10.48zm51.837 2.64h5.28c-.56-5.24 6.8-6.12 6.8-11.96 0-4.76-3.88-7.16-8.92-7.16-3.52 0-6.44 1.6-8.56 3.92l3.36 3.12c1.44-1.28 2.88-2.16 4.76-2.16 2.08 0 3.56 1.12 3.56 3.08 0 3.52-7.24 5.16-6.28 11.16zm-1.4 7.36c0 2.56 1.84 4.32 4.24 4.32 2.44 0 4.28-1.76 4.28-4.32 0-2.56-1.84-4.28-4.28-4.28-2.4 0-4.24 1.72-4.24 4.28zm56.437-10h3.76l1.48-10.48.2-6.12h-7.12l.2 6.12 1.48 10.48zM882 86.36h4.76l.48-2.4h.16c1.84 1.92 4.08 2.92 6.12 2.92 4.96 0 9.56-4.28 9.56-11.84 0-6.76-3.32-11.16-8.88-11.16-2.2 0-4.52 1-6.28 2.64l.12-3.6v-7.76H882v31.2zm6.04-6.08v-9.2c1.52-1.6 2.96-2.24 4.48-2.24 3 0 4.36 2.2 4.36 6.28 0 4.68-2.08 6.8-4.72 6.8-1.2 0-2.76-.44-4.12-1.64zm20.198.04c0 3.76 2.84 6.56 7.24 6.56 2.88 0 5.68-1.4 7.92-3.08h.16l.44 2.56h4.96V73.64c0-6.52-3.6-9.76-9.72-9.76-3.76 0-7.32 1.28-10.2 3l2.16 3.96c2.4-1.24 4.64-2.12 6.84-2.12 3.16 0 4.68 1.4 4.88 3.52-10.52.72-14.68 3.16-14.68 8.08zm5.8-.44c0-2.08 1.92-3.52 8.88-3.92v3.96c-1.72 1.32-3.52 2.28-5.56 2.28-1.96 0-3.32-.76-3.32-2.32zm21.198 6.48h20.8V81.6h-12.44l12.08-13.96V64.4h-19.04v4.76h10.6l-12 13.96v3.24zm35-13.8h3.76l1.48-10.48.2-6.12h-7.12l.2 6.12 1.48 10.48zm50.437-5.24c0 2.8 2 4.96 4.88 4.96s4.88-2.16 4.88-4.96-2-4.96-4.88-4.96-4.88 2.16-4.88 4.96zm0 14.6c0 2.84 2 4.96 4.88 4.96s4.88-2.12 4.88-4.96c0-2.8-2-4.96-4.88-4.96s-4.88 2.16-4.88 4.96zm56.437-9.36h3.76l1.48-10.48.2-6.12h-7.12l.2 6.12 1.48 10.48zm18.64 13.8h4.76l.48-2.4h.16c1.84 1.92 4.08 2.92 6.12 2.92 4.96 0 9.56-4.28 9.56-11.84 0-6.76-3.32-11.16-8.88-11.16-2.2 0-4.52 1-6.28 2.64l.12-3.6v-7.76h-6.04v31.2zm6.04-6.08v-9.2c1.52-1.6 2.96-2.24 4.48-2.24 3 0 4.36 2.2 4.36 6.28 0 4.68-2.08 6.8-4.72 6.8-1.2 0-2.76-.44-4.12-1.64zm20.198.04c0 3.76 2.84 6.56 7.24 6.56 2.88 0 5.68-1.4 7.92-3.08h.16l.44 2.56h4.96V73.64c0-6.52-3.6-9.76-9.72-9.76-3.76 0-7.32 1.28-10.2 3l2.16 3.96c2.4-1.24 4.64-2.12 6.84-2.12 3.16 0 4.68 1.4 4.88 3.52-10.52.72-14.68 3.16-14.68 8.08zm5.8-.44c0-2.08 1.92-3.52 8.88-3.92v3.96c-1.72 1.32-3.52 2.28-5.56 2.28-1.96 0-3.32-.76-3.32-2.32zm23.398 6.48h6.04V74.72c2-4.08 4.88-5.52 7.68-5.52 1.6 0 2.52.24 3.92.68l1.24-5.12c-1.28-.56-2.36-.88-4.24-.88-3.6 0-6.88 1.84-9.04 5.4h-.16l-.48-4.88h-4.96v21.96zm32.8-13.8h3.76l1.48-10.48.2-6.12h-7.12l.2 6.12 1.48 10.48zm-1128.27 63.8h6.04v-11.64c2-4.08 4.88-5.52 7.68-5.52 1.6 0 2.52.24 3.92.68l1.24-5.12c-1.28-.56-2.36-.88-4.24-.88-3.6 0-6.88 1.84-9.04 5.4h-.16l-.48-4.88h-4.96v21.96zm23.92-10.96c0 7.28 5.32 11.48 12.08 11.48 3.04 0 6.2-1 8.64-2.52l-2-3.68c-1.96 1-3.76 1.56-5.8 1.56-3.52 0-6.32-1.64-6.72-5.12h15.2c.08-.52.24-1.64.24-2.76 0-5.96-3.6-10.48-10.28-10.48-5.8 0-11.36 4.32-11.36 11.52zm6.16-2.32c.52-3.08 2.76-4.56 5.36-4.56 3.12 0 4.6 1.76 4.6 4.56h-9.96zm26 4.28c0 5.68 2.4 9.52 9.24 9.52 2.76 0 5.2-.56 7.16-1.2l-1.12-4.36c-1.36.48-2.8.8-4.52.8-3.36 0-4.72-1.4-4.72-4.84v-8.12h9.52v-4.76h-9.52v-5.88h-5.04l-.76 5.88-5.88.28v4.48h5.64v8.2zm41.878-12.96h-6.04v14.56c-1.64 2.08-2.92 2.76-4.72 2.76-2.6 0-3.48-1.4-3.48-4.52v-12.8h-6.04v13.56c0 5.6 2.16 8.92 7.2 8.92 3.16 0 5.52-1.52 7.48-3.8h.2l.44 3.28h4.96V114.4zm8.918 21.96h6.04v-11.64c2-4.08 4.88-5.52 7.68-5.52 1.6 0 2.52.24 3.92.68l1.24-5.12c-1.28-.56-2.36-.88-4.24-.88-3.6 0-6.88 1.84-9.04 5.4h-.16l-.48-4.88h-4.96v21.96zm24.718 0h6.04V121.6c1.72-1.68 2.96-2.56 4.88-2.56 2.56 0 3.52 1.4 3.52 4.56v12.76h6.04V122.8c0-5.6-2.24-8.92-7.2-8.92-3.32 0-5.76 1.64-7.72 3.6h-.16l-.48-3.08h-4.92v21.96z" style="-inkscape-font-specification:'Source Han Code JP Bold'"/>
      <path fill="#6197a6" d="M242.59 123.72l17.04 11.12v-5.52l-12.04-7.6v-.2l12.04-7.6v-5.52l-17.04 11.12v4.2zm25.077-4.56h9.08v17.2h6.04V114.4h-15.12v4.76zm11.8-8.2c2.36 0 4.08-1.48 4.08-3.76s-1.72-3.88-4.08-3.88c-2.4 0-4.12 1.6-4.12 3.88s1.72 3.76 4.12 3.76zm14.72 25.4h6.04V121.6c1.72-1.68 2.96-2.56 4.88-2.56 2.56 0 3.52 1.4 3.52 4.56v12.76h6.04V122.8c0-5.6-2.24-8.92-7.2-8.92-3.32 0-5.76 1.64-7.72 3.6h-.16l-.48-3.08h-4.92v21.96zm32.558-1.92c1.68 1.56 3.68 2.44 5.64 2.44 5 0 9.6-4.28 9.6-11.84 0-6.76-3.28-11.16-8.84-11.16-2.4 0-4.92 1.2-6.72 2.84h-.12l-.48-2.32h-4.92v30.28h6.04v-6.6l-.2-3.64zm.2-4.16v-9.2c1.52-1.6 2.96-2.24 4.48-2.24 3 0 4.36 2.2 4.36 6.28 0 4.68-2.08 6.8-4.72 6.8-1.2 0-2.76-.44-4.12-1.64zm40.48-15.88h-6.04v14.56c-1.64 2.08-2.92 2.76-4.72 2.76-2.6 0-3.48-1.4-3.48-4.52v-12.8h-6.04v13.56c0 5.6 2.16 8.92 7.2 8.92 3.16 0 5.52-1.52 7.48-3.8h.2l.44 3.28h4.96V114.4zm11.558 12.96c0 5.68 2.4 9.52 9.24 9.52 2.76 0 5.2-.56 7.16-1.2l-1.12-4.36c-1.36.48-2.8.8-4.52.8-3.36 0-4.72-1.4-4.72-4.84v-8.12h9.52v-4.76h-9.52v-5.88h-5.04l-.76 5.88-5.88.28v4.48h5.64v8.2z" style="-inkscape-font-specification:'Source Han Code JP Bold'"/>
      <path d="M427.5 125.4c0 7.28 5.28 11.48 12.2 11.48 3.04 0 6.36-1.04 9-3.28l-2.48-3.8c-1.64 1.16-3.6 2.2-6 2.2-3.84 0-6.52-2.6-6.52-6.6 0-4 2.76-6.64 6.72-6.64 1.8 0 3.36.64 5.04 1.92l2.84-3.8c-1.84-1.72-4.68-3-8.2-3-6.72 0-12.6 4.2-12.6 11.52zm26.52-15.48h6.56v18.04c0 5.56 2.8 8.92 8.2 8.92 2.68 0 4.24-.48 6.44-1.2l-1.36-4.44c-1.4.52-2.52.76-3.56.76-1.96 0-3.68-.96-3.68-3.76v-23.08h-12.6v4.76zm26.718 20.4c0 3.76 2.84 6.56 7.24 6.56 2.88 0 5.68-1.4 7.92-3.08h.16l.44 2.56h4.96v-12.72c0-6.52-3.6-9.76-9.72-9.76-3.76 0-7.32 1.28-10.2 3l2.16 3.96c2.4-1.24 4.64-2.12 6.84-2.12 3.16 0 4.68 1.4 4.88 3.52-10.52.72-14.68 3.16-14.68 8.08zm5.8-.44c0-2.08 1.92-3.52 8.88-3.92v3.96c-1.72 1.32-3.52 2.28-5.56 2.28-1.96 0-3.32-.76-3.32-2.32zm20.558 3.64c2.72 1.84 6.72 3.36 10.72 3.36 6.88 0 10.64-3.08 10.64-6.96 0-3.76-3.6-5.4-8.2-6.6-3.28-.84-5.8-1.56-5.8-2.96 0-1.24 1.08-1.96 4.04-1.96 2.4 0 4.56.88 6.56 2.12l2.72-3.68c-2.28-1.44-5.56-2.96-9.36-2.96-6.28 0-10 2.76-10 6.76 0 3.44 3.96 5.28 7.92 6.4 3.84 1 6.08 1.84 6.08 3.2 0 1.28-1.32 2.12-4.44 2.12s-5.64-1-8.16-2.64l-2.72 3.8zm26.72 0c2.72 1.84 6.72 3.36 10.72 3.36 6.88 0 10.64-3.08 10.64-6.96 0-3.76-3.6-5.4-8.2-6.6-3.28-.84-5.8-1.56-5.8-2.96 0-1.24 1.08-1.96 4.04-1.96 2.4 0 4.56.88 6.56 2.12l2.72-3.68c-2.28-1.44-5.56-2.96-9.36-2.96-6.28 0-10 2.76-10 6.76 0 3.44 3.96 5.28 7.92 6.4 3.84 1 6.08 1.84 6.08 3.2 0 1.28-1.32 2.12-4.44 2.12s-5.64-1-8.16-2.64l-2.72 3.8zm27.278 2.84h5.8v-11.08c0-3.32-.6-7.12-.88-10.28h.16l2.56 6.28 6.68 15.08h6.16v-29h-5.8v11.08c0 3.32.6 7.28.88 10.28h-.16l-2.56-6.28-6.68-15.08h-6.16v29zm26.52-6.04c0 3.76 2.84 6.56 7.24 6.56 2.88 0 5.68-1.4 7.92-3.08h.16l.44 2.56h4.96v-12.72c0-6.52-3.6-9.76-9.72-9.76-3.76 0-7.32 1.28-10.2 3l2.16 3.96c2.4-1.24 4.64-2.12 6.84-2.12 3.16 0 4.68 1.4 4.88 3.52-10.52.72-14.68 3.16-14.68 8.08zm5.8-.44c0-2.08 1.92-3.52 8.88-3.92v3.96c-1.72 1.32-3.52 2.28-5.56 2.28-1.96 0-3.32-.76-3.32-2.32zm19.796 6.48h5.72v-15c.68-1.56 1.32-2.32 2.24-2.32.96 0 1.48.76 1.48 2.32v15h4.64v-15c.68-1.56 1.44-2.32 2.36-2.32 1 0 1.4.76 1.4 2.32v15h5.72v-15.44c0-4.4-1.8-7.04-4.88-7.04-2.44 0-4 1.6-4.88 3.6-.48-2.36-1.92-3.6-3.88-3.6-2.52 0-3.84 1.44-4.76 3.32h-.16l-.44-2.8h-4.56v21.96zm27.52-10.96c0 7.28 5.32 11.48 12.08 11.48 3.04 0 6.2-1 8.64-2.52l-2-3.68c-1.96 1-3.76 1.56-5.8 1.56-3.52 0-6.32-1.64-6.72-5.12h15.2c.08-.52.24-1.64.24-2.76 0-5.96-3.6-10.48-10.28-10.48-5.8 0-11.36 4.32-11.36 11.52zm6.16-2.32c.52-3.08 2.76-4.56 5.36-4.56 3.12 0 4.6 1.76 4.6 4.56h-9.96zm21.24-4.32h20.16v-4.32h-20.16v4.32zm0 10.2h20.16v-4.32h-20.16v4.32zm26.558-3.56c0 7.28 5.28 11.48 12.2 11.48 3.04 0 6.36-1.04 9-3.28l-2.48-3.8c-1.64 1.16-3.6 2.2-6 2.2-3.84 0-6.52-2.6-6.52-6.6 0-4 2.76-6.64 6.72-6.64 1.8 0 3.36.64 5.04 1.92l2.84-3.8c-1.84-1.72-4.68-3-8.2-3-6.72 0-12.6 4.2-12.6 11.52zm26.518-15.48h6.56v18.04c0 5.56 2.8 8.92 8.2 8.92 2.68 0 4.24-.48 6.44-1.2l-1.36-4.44c-1.4.52-2.52.76-3.56.76-1.96 0-3.68-.96-3.68-3.76v-23.08h-12.6v4.76zm26.36 23.6c2.72 1.84 6.72 3.36 10.72 3.36 6.88 0 10.64-3.08 10.64-6.96 0-3.76-3.6-5.4-8.2-6.6-3.28-.84-5.8-1.56-5.8-2.96 0-1.24 1.08-1.96 4.04-1.96 2.4 0 4.56.88 6.56 2.12l2.72-3.68c-2.28-1.44-5.56-2.96-9.36-2.96-6.28 0-10 2.76-10 6.76 0 3.44 3.96 5.28 7.92 6.4 3.84 1 6.08 1.84 6.08 3.2 0 1.28-1.32 2.12-4.44 2.12s-5.64-1-8.16-2.64l-2.72 3.8zm61.437 3.36c0 4.76 2.56 6.24 8.24 6.24h3.32v-3.24h-1.92c-3.84 0-4.68-.72-4.68-3.28 0-2.44.2-4.64.2-7.36 0-3.28-1.2-4.6-4.36-5.12v-.2c3.16-.52 4.36-1.84 4.36-5.12 0-2.64-.2-5-.2-7.36 0-2.56.84-3.28 4.68-3.28h1.92v-3.24h-3.32c-5.68 0-8.24 1.48-8.24 6.24 0 3.12.44 5 .44 7.76 0 1.6-1.32 3.24-6.16 3.32v3.56c4.84.08 6.16 1.72 6.16 3.32 0 2.84-.44 4.6-.44 7.76zm24.637-4.96c0 2.84 2 4.96 4.88 4.96s4.88-2.12 4.88-4.96c0-2.8-2-4.96-4.88-4.96s-4.88 2.16-4.88 4.96zm26.72 0c0 2.84 2 4.96 4.88 4.96s4.88-2.12 4.88-4.96c0-2.8-2-4.96-4.88-4.96s-4.88 2.16-4.88 4.96zm26.72 0c0 2.84 2 4.96 4.88 4.96s4.88-2.12 4.88-4.96c0-2.8-2-4.96-4.88-4.96s-4.88 2.16-4.88 4.96zm27.478 2.52c1.68 1.56 3.68 2.44 5.64 2.44 5 0 9.6-4.28 9.6-11.84 0-6.76-3.28-11.16-8.84-11.16-2.4 0-4.92 1.2-6.72 2.84h-.12l-.48-2.32h-4.92v30.28h6.04v-6.6l-.2-3.64zm.2-4.16v-9.2c1.52-1.6 2.96-2.24 4.48-2.24 3 0 4.36 2.2 4.36 6.28 0 4.68-2.08 6.8-4.72 6.8-1.2 0-2.76-.44-4.12-1.64zm22.678 6.08h6.04v-11.64c2-4.08 4.88-5.52 7.68-5.52 1.6 0 2.52.24 3.92.68l1.24-5.12c-1.28-.56-2.36-.88-4.24-.88-3.6 0-6.88 1.84-9.04 5.4h-.16l-.48-4.88h-4.96v21.96zm23.56-10.96c0 7.28 5.32 11.48 11.12 11.48 5.8 0 11.12-4.2 11.12-11.48 0-7.32-5.32-11.52-11.12-11.52-5.8 0-11.12 4.2-11.12 11.52zm6.2 0c0-4 1.72-6.64 4.92-6.64s4.92 2.64 4.92 6.64c0 4-1.72 6.6-4.92 6.6s-4.92-2.6-4.92-6.6zm27.518 9.04c1.68 1.56 3.68 2.44 5.64 2.44 5 0 9.6-4.28 9.6-11.84 0-6.76-3.28-11.16-8.84-11.16-2.4 0-4.92 1.2-6.72 2.84h-.12l-.48-2.32h-4.92v30.28h6.04v-6.6l-.2-3.64zm.2-4.16v-9.2c1.52-1.6 2.96-2.24 4.48-2.24 3 0 4.36 2.2 4.36 6.28 0 4.68-2.08 6.8-4.72 6.8-1.2 0-2.76-.44-4.12-1.64zm19.84 3.24c2.72 1.84 6.72 3.36 10.72 3.36 6.88 0 10.64-3.08 10.64-6.96 0-3.76-3.6-5.4-8.2-6.6-3.28-.84-5.8-1.56-5.8-2.96 0-1.24 1.08-1.96 4.04-1.96 2.4 0 4.56.88 6.56 2.12l2.72-3.68c-2.28-1.44-5.56-2.96-9.36-2.96-6.28 0-10 2.76-10 6.76 0 3.44 3.96 5.28 7.92 6.4 3.84 1 6.08 1.84 6.08 3.2 0 1.28-1.32 2.12-4.44 2.12s-5.64-1-8.16-2.64l-2.72 3.8zm28.796 6.36v3.24h3.32c5.68 0 8.24-1.48 8.24-6.24 0-3.16-.48-4.92-.48-7.76 0-1.6 1.32-3.24 6.16-3.32v-3.56c-4.84-.08-6.16-1.72-6.16-3.32 0-2.76.48-4.64.48-7.76 0-4.76-2.56-6.24-8.24-6.24h-3.32v3.24h1.92c3.8 0 4.64.72 4.64 3.28 0 2.36-.16 4.72-.16 7.36 0 3.28 1.2 4.6 4.36 5.12v.2c-3.16.52-4.36 1.84-4.36 5.12 0 2.72.16 4.92.16 7.36 0 2.56-.84 3.28-4.64 3.28h-1.92z" style="-inkscape-font-specification:'Source Han Code JP Bold'"/>
      <path fill="#6197a6" d="M1115.55 104.84h-5.08l-14.6 38.64h5.08l14.6-38.64zm24.998 14.68l-17.04-11.12v5.52l12.04 7.6v.2l-12.04 7.6v5.52l17.04-11.12v-4.2z" style="-inkscape-font-specification:'Source Han Code JP Bold'"/>
      <path d="M1.52 189.88v3.24h3.32c5.68 0 8.24-1.48 8.24-6.24 0-3.16-.48-4.92-.48-7.76 0-1.6 1.32-3.24 6.16-3.32v-3.56c-4.84-.08-6.16-1.72-6.16-3.32 0-2.76.48-4.64.48-7.76 0-4.76-2.56-6.24-8.24-6.24H1.52v3.24h1.92c3.8 0 4.64.72 4.64 3.28 0 2.36-.16 4.72-.16 7.36 0 3.28 1.2 4.6 4.36 5.12v.2c-3.16.52-4.36 1.84-4.36 5.12 0 2.72.16 4.92.16 7.36 0 2.56-.84 3.28-4.64 3.28H1.52z" style="-inkscape-font-specification:'Source Han Code JP Bold'"/>
    </g>
    <path fill="#909060" d="M142.305 19.258c.01 10.63 8.57 19.27 13.885 19.348l101.466.136c6.587.058 15.54-8.615 15.54-19.312 0-10.697-8.953-19.37-15.225-19.34L157.765 0c-6.783-.117-15.457 8.558-15.457 19.258z"/>
  </g>
</svg>
