<svg xmlns="http://www.w3.org/2000/svg" viewBox="0 0 924.437 336.32">
  <g fill-opacity=".784">
    <g fill="#fff" style="line-height:125%" font-size="40" font-family="Source Han Code JP" letter-spacing="0" word-spacing="0" font-weight="bold">
      <path fill="#c09090" d="M0 24.84c0 7.2 3.68 11.48 9.32 11.48 2.28 0 4.6-1.24 6.24-2.88h.12l.48 2.36h4.92V4.6h-6.04v7.64l.24 3.52c-1.64-1.48-3.28-2.44-5.8-2.44C4.64 13.32 0 17.64 0 24.84zm6.2-.08c0-4.28 2.2-6.48 4.8-6.48 1.4 0 2.72.44 4.04 1.64v9.2c-1.28 1.6-2.64 2.24-4.24 2.24-2.88 0-4.6-2.12-4.6-6.6zm20.88.08c0 7.28 5.32 11.48 12.08 11.48 3.04 0 6.2-1 8.64-2.52l-2-3.68c-1.96 1-3.76 1.56-5.8 1.56-3.52 0-6.32-1.64-6.72-5.12h15.2c.08-.52.24-1.64.24-2.76 0-5.96-3.6-10.48-10.28-10.48-5.8 0-11.36 4.32-11.36 11.52zm6.16-2.32c.52-3.08 2.76-4.56 5.36-4.56 3.12 0 4.6 1.76 4.6 4.56h-9.96zM77.158 5.28c-1.88-.68-4.16-1.2-6.56-1.2-6.76 0-9.68 3.88-9.68 9v.76l-5.88.28v4.48h5.88v17.2h6.04V18.6h7.84v-4.76h-7.84v-.8c0-2.84 1.36-4.2 4.32-4.2 1.72 0 3.24.32 4.68.88l1.2-4.44z" style="-inkscape-font-specification:'Source Han Code JP Bold'"/>
      <path d="M202.55 43.72l3.36-2.72c-5.44-5.12-7.76-10.48-7.76-17.56 0-7.08 2.32-12.4 7.76-17.52l-3.36-2.72c-5.84 5.04-9.48 11.88-9.48 20.24 0 8.4 3.64 15.24 9.48 20.28zm11.52-10.76c2.72 1.84 6.72 3.36 10.72 3.36 6.88 0 10.64-3.08 10.64-6.96 0-3.76-3.6-5.4-8.2-6.6-3.28-.84-5.8-1.56-5.8-2.96 0-1.24 1.08-1.96 4.04-1.96 2.4 0 4.56.88 6.56 2.12l2.72-3.68c-2.28-1.44-5.56-2.96-9.36-2.96-6.28 0-10 2.76-10 6.76 0 3.44 3.96 5.28 7.92 6.4 3.84 1 6.08 1.84 6.08 3.2 0 1.28-1.32 2.12-4.44 2.12s-5.64-1-8.16-2.64l-2.72 3.8zm26.76-8.12c0 7.28 5.32 11.48 12.08 11.48 3.04 0 6.2-1 8.64-2.52l-2-3.68c-1.96 1-3.76 1.56-5.8 1.56-3.52 0-6.32-1.64-6.72-5.12h15.2c.08-.52.24-1.64.24-2.76 0-5.96-3.6-10.48-10.28-10.48-5.8 0-11.36 4.32-11.36 11.52zm6.16-2.32c.52-3.08 2.76-4.56 5.36-4.56 3.12 0 4.6 1.76 4.6 4.56h-9.96zm20.198 2.32c0 7.2 3.68 11.48 9.32 11.48 2.12 0 4.36-1.12 5.96-2.64l-.24 3.48v6.96h6.04V13.84h-4.76l-.48 2.28h-.16c-1.84-1.92-3.72-2.8-6.2-2.8-4.84 0-9.48 4.32-9.48 11.52zm6.2-.08c0-4.28 2.2-6.48 4.8-6.48 1.4 0 2.72.44 4.04 1.64v9.2c-1.28 1.6-2.64 2.24-4.24 2.24-2.88 0-4.6-2.12-4.6-6.6zm28.038 20.64c5.92-1.88 9.12-5.84 9.12-11.4 0-4.56-1.84-7.28-5.28-7.28-2.64 0-4.76 1.68-4.76 4.32 0 2.84 2.16 4.4 4.6 4.4.16 0 .36 0 .52-.04-.04 2.88-1.92 5.04-5.72 6.44l1.52 3.56zm51.718-18.6c0 5.68 2.4 9.52 9.24 9.52 2.76 0 5.2-.56 7.16-1.2l-1.12-4.36c-1.36.48-2.8.8-4.52.8-3.36 0-4.72-1.4-4.72-4.84V18.6h9.52v-4.76h-9.52V7.96h-5.04l-.76 5.88-5.88.28v4.48h5.64v8.2zm21.598 2.96c0 3.76 2.84 6.56 7.24 6.56 2.88 0 5.68-1.4 7.92-3.08h.16l.44 2.56h4.96V23.08c0-6.52-3.6-9.76-9.72-9.76-3.76 0-7.32 1.28-10.2 3l2.16 3.96c2.4-1.24 4.64-2.12 6.84-2.12 3.16 0 4.68 1.4 4.88 3.52-10.52.72-14.68 3.16-14.68 8.08zm5.8-.44c0-2.08 1.92-3.52 8.88-3.92v3.96c-1.72 1.32-3.52 2.28-5.56 2.28-1.96 0-3.32-.76-3.32-2.32zm23.398 6.48h6.04V24.16c2-4.08 4.88-5.52 7.68-5.52 1.6 0 2.52.24 3.92.68l1.24-5.12c-1.28-.56-2.36-.88-4.24-.88-3.6 0-6.88 1.84-9.04 5.4h-.16l-.48-4.88h-4.96V35.8zm28.76 2.88c0-.88.52-1.64 1.76-2.4.84.2 1.84.32 3.36.32h3.04c2.6 0 4 .32 4 1.84 0 1.64-2.52 3-6.28 3-3.68 0-5.88-1.04-5.88-2.76zm-4.96.88c0 3.92 4.16 5.72 10 5.72 7.88 0 12.92-3.36 12.92-7.88 0-3.88-3.08-5.52-8.84-5.52h-4.2c-2.6 0-3.84-.52-3.84-1.76 0-.8.36-1.28 1.08-1.76 1.16.32 2.2.52 3.16.52 5 0 8.92-2.44 8.92-7.44 0-1.28-.52-2.44-1.12-3.16h4.68v-4.44h-8.96c-1-.36-2.24-.52-3.52-.52-4.96 0-9.28 2.76-9.28 7.96 0 2.56 1.28 4.52 2.88 5.64v.16c-1.6 1.08-2.64 2.68-2.64 4.16 0 1.8 1 2.96 2.2 3.68v.16c-2.24 1.16-3.44 2.72-3.44 4.48zm10.28-14.44c-1.96 0-3.56-1.36-3.56-3.84 0-2.44 1.6-3.88 3.56-3.88s3.6 1.44 3.6 3.88c0 2.48-1.64 3.84-3.6 3.84zm16.56-.28c0 7.28 5.32 11.48 12.08 11.48 3.04 0 6.2-1 8.64-2.52l-2-3.68c-1.96 1-3.76 1.56-5.8 1.56-3.52 0-6.32-1.64-6.72-5.12h15.2c.08-.52.24-1.64.24-2.76 0-5.96-3.6-10.48-10.28-10.48-5.8 0-11.36 4.32-11.36 11.52zm6.16-2.32c.52-3.08 2.76-4.56 5.36-4.56 3.12 0 4.6 1.76 4.6 4.56h-9.96zm25.997 4.28c0 5.68 2.4 9.52 9.24 9.52 2.76 0 5.2-.56 7.16-1.2l-1.12-4.36c-1.36.48-2.8.8-4.52.8-3.36 0-4.72-1.4-4.72-4.84V18.6h9.52v-4.76h-9.52V7.96h-5.04l-.76 5.88-5.88.28v4.48h5.64v8.2zm27.64 16.92c5.88-5.04 9.48-11.88 9.48-20.28 0-8.36-3.6-15.2-9.48-20.24l-3.36 2.72c5.44 5.12 7.76 10.44 7.76 17.52s-2.32 12.44-7.76 17.56l3.36 2.72z" style="-inkscape-font-specification:'Source Han Code JP Bold'"/>
      <path fill="#6197a6" d="M540.615 16.76c0 2.8 2 4.96 4.88 4.96s4.88-2.16 4.88-4.96-2-4.96-4.88-4.96-4.88 2.16-4.88 4.96zm0 14.6c0 2.84 2 4.96 4.88 4.96s4.88-2.12 4.88-4.96c0-2.8-2-4.96-4.88-4.96s-4.88 2.16-4.88 4.96z" style="-inkscape-font-specification:'Source Han Code JP Bold'"/>
      <path d="M130.595 55.28c-1.88-.68-4.16-1.2-6.56-1.2-6.76 0-9.68 3.88-9.68 9v.76l-5.88.28v4.48h5.88v17.2h6.04V68.6h7.84v-4.76h-7.84v-.8c0-2.84 1.36-4.2 4.32-4.2 1.72 0 3.24.32 4.68.88l1.2-4.44zm3 19.56c0 7.28 5.32 11.48 11.12 11.48 5.8 0 11.12-4.2 11.12-11.48 0-7.32-5.32-11.52-11.12-11.52-5.8 0-11.12 4.2-11.12 11.52zm6.2 0c0-4 1.72-6.64 4.92-6.64s4.92 2.64 4.92 6.64c0 4-1.72 6.6-4.92 6.6s-4.92-2.6-4.92-6.6zm23.678 10.96h6.04V74.16c2-4.08 4.88-5.52 7.68-5.52 1.6 0 2.52.24 3.92.68l1.24-5.12c-1.28-.56-2.36-.88-4.24-.88-3.6 0-6.88 1.84-9.04 5.4h-.16l-.48-4.88h-4.96V85.8zm51.637-17.2h9.08v17.2h6.04V63.84h-15.12v4.76zm11.8-8.2c2.36 0 4.08-1.48 4.08-3.76s-1.72-3.88-4.08-3.88c-2.4 0-4.12 1.6-4.12 3.88s1.72 3.76 4.12 3.76zm21.08 35c5.92-1.88 9.12-5.84 9.12-11.4 0-4.56-1.84-7.28-5.28-7.28-2.64 0-4.76 1.68-4.76 4.32 0 2.84 2.16 4.4 4.6 4.4.16 0 .36 0 .52-.04-.04 2.88-1.92 5.04-5.72 6.44l1.52 3.56zm53.676-9.6h6.92l8.2-21.96h-5.76l-3.72 10.72c-.72 2.16-1.36 4.44-2.04 6.68h-.2c-.64-2.24-1.28-4.52-2.04-6.68l-3.68-10.72h-6.08l8.4 21.96zm19.64-6.04c0 3.76 2.84 6.56 7.24 6.56 2.88 0 5.68-1.4 7.92-3.08h.16l.44 2.56h4.96V73.08c0-6.52-3.6-9.76-9.72-9.76-3.76 0-7.32 1.28-10.2 3l2.16 3.96c2.4-1.24 4.64-2.12 6.84-2.12 3.16 0 4.68 1.4 4.88 3.52-10.52.72-14.68 3.16-14.68 8.08zm5.8-.44c0-2.08 1.92-3.52 8.88-3.92v3.96c-1.72 1.32-3.52 2.28-5.56 2.28-1.96 0-3.32-.76-3.32-2.32zm20.918-19.96h6.56V77.4c0 5.56 2.8 8.92 8.2 8.92 2.68 0 4.24-.48 6.44-1.2l-1.36-4.44c-1.4.52-2.52.76-3.56.76-1.96 0-3.68-.96-3.68-3.76V54.6h-12.6v4.76zm46.998 4.48h-6.04V78.4c-1.64 2.08-2.92 2.76-4.72 2.76-2.6 0-3.48-1.4-3.48-4.52v-12.8h-6.04V77.4c0 5.6 2.16 8.92 7.2 8.92 3.16 0 5.52-1.52 7.48-3.8h.2l.44 3.28h4.96V63.84zm6.118 11c0 7.28 5.32 11.48 12.08 11.48 3.04 0 6.2-1 8.64-2.52l-2-3.68c-1.96 1-3.76 1.56-5.8 1.56-3.52 0-6.32-1.64-6.72-5.12h15.2c.08-.52.24-1.64.24-2.76 0-5.96-3.6-10.48-10.28-10.48-5.8 0-11.36 4.32-11.36 11.52zm6.16-2.32c.52-3.08 2.76-4.56 5.36-4.56 3.12 0 4.6 1.76 4.6 4.56h-9.96zm48.28-3.92h9.08v17.2h6.04V63.84h-15.12v4.76zm11.8-8.2c2.36 0 4.08-1.48 4.08-3.76s-1.72-3.88-4.08-3.88c-2.4 0-4.12 1.6-4.12 3.88s1.72 3.76 4.12 3.76zm14.717 25.4h6.04V71.04c1.72-1.68 2.96-2.56 4.88-2.56 2.56 0 3.52 1.4 3.52 4.56V85.8h6.04V72.24c0-5.6-2.24-8.92-7.2-8.92-3.32 0-5.76 1.64-7.72 3.6h-.16l-.48-3.08h-4.92V85.8zm52.638-10.96c0 7.28 5.32 11.48 12.08 11.48 3.04 0 6.2-1 8.64-2.52l-2-3.68c-1.96 1-3.76 1.56-5.8 1.56-3.52 0-6.32-1.64-6.72-5.12h15.2c.08-.52.24-1.64.24-2.76 0-5.96-3.6-10.48-10.28-10.48-5.8 0-11.36 4.32-11.36 11.52zm6.16-2.32c.52-3.08 2.76-4.56 5.36-4.56 3.12 0 4.6 1.76 4.6 4.56h-9.96zm21.36 13.28h6.04V71.04c1.72-1.68 2.96-2.56 4.88-2.56 2.56 0 3.52 1.4 3.52 4.56V85.8h6.04V72.24c0-5.6-2.24-8.92-7.2-8.92-3.32 0-5.76 1.64-7.72 3.6h-.16l-.48-3.08h-4.92V85.8zm46.517-21.96h-6.04V78.4c-1.64 2.08-2.92 2.76-4.72 2.76-2.6 0-3.48-1.4-3.48-4.52v-12.8h-6.04V77.4c0 5.6 2.16 8.92 7.2 8.92 3.16 0 5.52-1.52 7.48-3.8h.2l.44 3.28h4.96V63.84zm5.318 21.96h5.72v-15c.68-1.56 1.32-2.32 2.24-2.32.96 0 1.48.76 1.48 2.32v15h4.64v-15c.68-1.56 1.44-2.32 2.36-2.32 1 0 1.4.76 1.4 2.32v15h5.72V70.36c0-4.4-1.8-7.04-4.88-7.04-2.44 0-4 1.6-4.88 3.6-.48-2.36-1.92-3.6-3.88-3.6-2.52 0-3.84 1.44-4.76 3.32h-.16l-.44-2.8h-4.56V85.8zm27.52-10.96c0 7.28 5.32 11.48 12.08 11.48 3.04 0 6.2-1 8.64-2.52l-2-3.68c-1.96 1-3.76 1.56-5.8 1.56-3.52 0-6.32-1.64-6.72-5.12h15.2c.08-.52.24-1.64.24-2.76 0-5.96-3.6-10.48-10.28-10.48-5.8 0-11.36 4.32-11.36 11.52zm6.16-2.32c.52-3.08 2.76-4.56 5.36-4.56 3.12 0 4.6 1.76 4.6 4.56h-9.96zm23.36 13.28h6.04V74.16c2-4.08 4.88-5.52 7.68-5.52 1.6 0 2.52.24 3.92.68l1.24-5.12c-1.28-.56-2.36-.88-4.24-.88-3.6 0-6.88 1.84-9.04 5.4h-.16l-.48-4.88h-4.96V85.8zm24.237-6.04c0 3.76 2.84 6.56 7.24 6.56 2.88 0 5.68-1.4 7.92-3.08h.16l.44 2.56h4.96V73.08c0-6.52-3.6-9.76-9.72-9.76-3.76 0-7.32 1.28-10.2 3l2.16 3.96c2.4-1.24 4.64-2.12 6.84-2.12 3.16 0 4.68 1.4 4.88 3.52-10.52.72-14.68 3.16-14.68 8.08zm5.8-.44c0-2.08 1.92-3.52 8.88-3.92v3.96c-1.72 1.32-3.52 2.28-5.56 2.28-1.96 0-3.32-.76-3.32-2.32zm26.04-2.52c0 5.68 2.4 9.52 9.24 9.52 2.76 0 5.2-.56 7.16-1.2l-1.12-4.36c-1.36.48-2.8.8-4.52.8-3.36 0-4.72-1.4-4.72-4.84V68.6h9.52v-4.76h-9.52v-5.88h-5.04l-.76 5.88-5.88.28v4.48h5.64v8.2zm21.278-1.96c0 7.28 5.32 11.48 12.08 11.48 3.04 0 6.2-1 8.64-2.52l-2-3.68c-1.96 1-3.76 1.56-5.8 1.56-3.52 0-6.32-1.64-6.72-5.12h15.2c.08-.52.24-1.64.24-2.76 0-5.96-3.6-10.48-10.28-10.48-5.8 0-11.36 4.32-11.36 11.52zm6.16-2.32c.52-3.08 2.76-4.56 5.36-4.56 3.12 0 4.6 1.76 4.6 4.56h-9.96zm35.72 21.2l3.36-2.72c-5.44-5.12-7.76-10.48-7.76-17.56 0-7.08 2.32-12.4 7.76-17.52l-3.36-2.72c-5.84 5.04-9.48 11.88-9.48 20.24 0 8.4 3.64 15.24 9.48 20.28zm11.517-10.76c2.72 1.84 6.72 3.36 10.72 3.36 6.88 0 10.64-3.08 10.64-6.96 0-3.76-3.6-5.4-8.2-6.6-3.28-.84-5.8-1.56-5.8-2.96 0-1.24 1.08-1.96 4.04-1.96 2.4 0 4.56.88 6.56 2.12l2.72-3.68c-2.28-1.44-5.56-2.96-9.36-2.96-6.28 0-10 2.76-10 6.76 0 3.44 3.96 5.28 7.92 6.4 3.84 1 6.08 1.84 6.08 3.2 0 1.28-1.32 2.12-4.44 2.12s-5.64-1-8.16-2.64l-2.72 3.8zm26.758-8.12c0 7.28 5.32 11.48 12.08 11.48 3.04 0 6.2-1 8.64-2.52l-2-3.68c-1.96 1-3.76 1.56-5.8 1.56-3.52 0-6.32-1.64-6.72-5.12h15.2c.08-.52.24-1.64.24-2.76 0-5.96-3.6-10.48-10.28-10.48-5.8 0-11.36 4.32-11.36 11.52zm6.16-2.32c.52-3.08 2.76-4.56 5.36-4.56 3.12 0 4.6 1.76 4.6 4.56h-9.96zm20.2 2.32c0 7.2 3.68 11.48 9.32 11.48 2.12 0 4.36-1.12 5.96-2.64l-.24 3.48v6.96h6.04V63.84h-4.76l-.48 2.28h-.16c-1.84-1.92-3.72-2.8-6.2-2.8-4.84 0-9.48 4.32-9.48 11.52zm6.2-.08c0-4.28 2.2-6.48 4.8-6.48 1.4 0 2.72.44 4.04 1.64v9.2c-1.28 1.6-2.64 2.24-4.24 2.24-2.88 0-4.6-2.12-4.6-6.6zm27.24 18.96c5.88-5.04 9.48-11.88 9.48-20.28 0-8.36-3.6-15.2-9.48-20.24l-3.36 2.72c5.44 5.12 7.76 10.44 7.76 17.52s-2.32 12.44-7.76 17.56l3.36 2.72z" style="-inkscape-font-specification:'Source Han Code JP Bold'"/>
      <path fill="#6197a6" d="M914.677 66.76c0 2.8 2 4.96 4.88 4.96s4.88-2.16 4.88-4.96-2-4.96-4.88-4.96-4.88 2.16-4.88 4.96zm0 14.6c0 2.84 2 4.96 4.88 4.96s4.88-2.12 4.88-4.96c0-2.8-2-4.96-4.88-4.96s-4.88 2.16-4.88 4.96z" style="-inkscape-font-specification:'Source Han Code JP Bold'"/>
      <path d="M215.11 118.6h9.08v17.2h6.04v-21.96h-15.12v4.76zm11.8-8.2c2.36 0 4.08-1.48 4.08-3.76s-1.72-3.88-4.08-3.88c-2.4 0-4.12 1.6-4.12 3.88s1.72 3.76 4.12 3.76zm37.28-5.12c-1.88-.68-4.16-1.2-6.56-1.2-6.76 0-9.68 3.88-9.68 9v.76l-5.88.28v4.48h5.88v17.2h6.04v-17.2h7.84v-4.76h-7.84v-.8c0-2.84 1.36-4.2 4.32-4.2 1.72 0 3.24.32 4.68.88l1.2-4.44z" style="-inkscape-font-specification:'Source Han Code JP Bold'"/>
      <path fill="#6197a6" d="M620.77 116.76c0 2.8 2 4.96 4.88 4.96s4.88-2.16 4.88-4.96-2-4.96-4.88-4.96-4.88 2.16-4.88 4.96zm0 14.6c0 2.84 2 4.96 4.88 4.96s4.88-2.12 4.88-4.96c0-2.8-2-4.96-4.88-4.96s-4.88 2.16-4.88 4.96z" style="-inkscape-font-specification:'Source Han Code JP Bold'"/>
      <path d="M321.785 185.8h4.76l.48-2.4h.16c1.84 1.92 4.08 2.92 6.12 2.92 4.96 0 9.56-4.28 9.56-11.84 0-6.76-3.32-11.16-8.88-11.16-2.2 0-4.52 1-6.28 2.64l.12-3.6v-7.76h-6.04v31.2zm6.04-6.08v-9.2c1.52-1.6 2.96-2.24 4.48-2.24 3 0 4.36 2.2 4.36 6.28 0 4.68-2.08 6.8-4.72 6.8-1.2 0-2.76-.44-4.12-1.64zm22.68 6.08h6.04v-11.64c2-4.08 4.88-5.52 7.68-5.52 1.6 0 2.52.24 3.92.68l1.24-5.12c-1.28-.56-2.36-.88-4.24-.88-3.6 0-6.88 1.84-9.04 5.4h-.16l-.48-4.88h-4.96v21.96zm23.917-10.96c0 7.28 5.32 11.48 12.08 11.48 3.04 0 6.2-1 8.64-2.52l-2-3.68c-1.96 1-3.76 1.56-5.8 1.56-3.52 0-6.32-1.64-6.72-5.12h15.2c.08-.52.24-1.64.24-2.76 0-5.96-3.6-10.48-10.28-10.48-5.8 0-11.36 4.32-11.36 11.52zm6.16-2.32c.52-3.08 2.76-4.56 5.36-4.56 3.12 0 4.6 1.76 4.6 4.56h-9.96zm20.878 7.24c0 3.76 2.84 6.56 7.24 6.56 2.88 0 5.68-1.4 7.92-3.08h.16l.44 2.56h4.96v-12.72c0-6.52-3.6-9.76-9.72-9.76-3.76 0-7.32 1.28-10.2 3l2.16 3.96c2.4-1.24 4.64-2.12 6.84-2.12 3.16 0 4.68 1.4 4.88 3.52-10.52.72-14.68 3.16-14.68 8.08zm5.8-.44c0-2.08 1.92-3.52 8.88-3.92v3.96c-1.72 1.32-3.52 2.28-5.56 2.28-1.96 0-3.32-.76-3.32-2.32zm21.6 6.48h6.08v-5.6l3.56-3.64 6.12 9.24h6.6l-9.16-13 8.36-8.96h-6.64l-8.68 9.32h-.16V154.6h-6.08v31.2zm-321.625 39.04c0 7.28 5.32 11.48 12.08 11.48 3.04 0 6.2-1 8.64-2.52l-2-3.68c-1.96 1-3.76 1.56-5.8 1.56-3.52 0-6.32-1.64-6.72-5.12h15.2c.08-.52.24-1.64.24-2.76 0-5.96-3.6-10.48-10.28-10.48-5.8 0-11.36 4.32-11.36 11.52zm6.16-2.32c.52-3.08 2.76-4.56 5.36-4.56 3.12 0 4.6 1.76 4.6 4.56h-9.96zm20.88-13.16h6.56v18.04c0 5.56 2.8 8.92 8.2 8.92 2.68 0 4.24-.48 6.44-1.2l-1.36-4.44c-1.4.52-2.52.76-3.56.76-1.96 0-3.68-.96-3.68-3.76V204.6h-12.6v4.76zm26.358 23.6c2.72 1.84 6.72 3.36 10.72 3.36 6.88 0 10.64-3.08 10.64-6.96 0-3.76-3.6-5.4-8.2-6.6-3.28-.84-5.8-1.56-5.8-2.96 0-1.24 1.08-1.96 4.04-1.96 2.4 0 4.56.88 6.56 2.12l2.72-3.68c-2.28-1.44-5.56-2.96-9.36-2.96-6.28 0-10 2.76-10 6.76 0 3.44 3.96 5.28 7.92 6.4 3.84 1 6.08 1.84 6.08 3.2 0 1.28-1.32 2.12-4.44 2.12s-5.64-1-8.16-2.64l-2.72 3.8zm26.757-8.12c0 7.28 5.32 11.48 12.08 11.48 3.04 0 6.2-1 8.64-2.52l-2-3.68c-1.96 1-3.76 1.56-5.8 1.56-3.52 0-6.32-1.64-6.72-5.12h15.2c.08-.52.24-1.64.24-2.76 0-5.96-3.6-10.48-10.28-10.48-5.8 0-11.36 4.32-11.36 11.52zm6.16-2.32c.52-3.08 2.76-4.56 5.36-4.56 3.12 0 4.6 1.76 4.6 4.56h-9.96z" style="-inkscape-font-specification:'Source Han Code JP Bold'"/>
      <path fill="#6197a6" d="M219.99 216.76c0 2.8 2 4.96 4.88 4.96s4.88-2.16 4.88-4.96-2-4.96-4.88-4.96-4.88 2.16-4.88 4.96zm0 14.6c0 2.84 2 4.96 4.88 4.96s4.88-2.12 4.88-4.96c0-2.8-2-4.96-4.88-4.96s-4.88 2.16-4.88 4.96z" style="-inkscape-font-specification:'Source Han Code JP Bold'"/>
      <path d="M216.91 285.8h6.04v-11.64c2-4.08 4.88-5.52 7.68-5.52 1.6 0 2.52.24 3.92.68l1.24-5.12c-1.28-.56-2.36-.88-4.24-.88-3.6 0-6.88 1.84-9.04 5.4h-.16l-.48-4.88h-4.96v21.96zm23.92-10.96c0 7.28 5.32 11.48 12.08 11.48 3.04 0 6.2-1 8.64-2.52l-2-3.68c-1.96 1-3.76 1.56-5.8 1.56-3.52 0-6.32-1.64-6.72-5.12h15.2c.08-.52.24-1.64.24-2.76 0-5.96-3.6-10.48-10.28-10.48-5.8 0-11.36 4.32-11.36 11.52zm6.16-2.32c.52-3.08 2.76-4.56 5.36-4.56 3.12 0 4.6 1.76 4.6 4.56h-9.96zm25.997 4.28c0 5.68 2.4 9.52 9.24 9.52 2.76 0 5.2-.56 7.16-1.2l-1.12-4.36c-1.36.48-2.8.8-4.52.8-3.36 0-4.72-1.4-4.72-4.84v-8.12h9.52v-4.76h-9.52v-5.88h-5.04l-.76 5.88-5.88.28v4.48h5.64v8.2zm41.88-12.96h-6.04v14.56c-1.64 2.08-2.92 2.76-4.72 2.76-2.6 0-3.48-1.4-3.48-4.52v-12.8h-6.04v13.56c0 5.6 2.16 8.92 7.2 8.92 3.16 0 5.52-1.52 7.48-3.8h.2l.44 3.28h4.96v-21.96zm8.918 21.96h6.04v-11.64c2-4.08 4.88-5.52 7.68-5.52 1.6 0 2.52.24 3.92.68l1.24-5.12c-1.28-.56-2.36-.88-4.24-.88-3.6 0-6.88 1.84-9.04 5.4h-.16l-.48-4.88h-4.96v21.96zm24.72 0h6.04v-14.76c1.72-1.68 2.96-2.56 4.88-2.56 2.56 0 3.52 1.4 3.52 4.56v12.76h6.04v-13.56c0-5.6-2.24-8.92-7.2-8.92-3.32 0-5.76 1.64-7.72 3.6h-.16l-.48-3.08h-4.92v21.96zm53.315-12.52h20.16V269h-20.16v4.28zm40.72 7.64v-23.36h-4.48c-2.04 1.2-4.2 1.96-7.48 2.52v3.76h5.88v17.08h-7.44v4.88h20.08v-4.88h-6.56zM110.035 335.8h6.04v-11.64c2-4.08 4.88-5.52 7.68-5.52 1.6 0 2.52.24 3.92.68l1.24-5.12c-1.28-.56-2.36-.88-4.24-.88-3.6 0-6.88 1.84-9.04 5.4h-.16l-.48-4.88h-4.96v21.96zm23.92-10.96c0 7.28 5.32 11.48 12.08 11.48 3.04 0 6.2-1 8.64-2.52l-2-3.68c-1.96 1-3.76 1.56-5.8 1.56-3.52 0-6.32-1.64-6.72-5.12h15.2c.08-.52.24-1.64.24-2.76 0-5.96-3.6-10.48-10.28-10.48-5.8 0-11.36 4.32-11.36 11.52zm6.16-2.32c.52-3.08 2.76-4.56 5.36-4.56 3.12 0 4.6 1.76 4.6 4.56h-9.96zm25.997 4.28c0 5.68 2.4 9.52 9.24 9.52 2.76 0 5.2-.56 7.16-1.2l-1.12-4.36c-1.36.48-2.8.8-4.52.8-3.36 0-4.72-1.4-4.72-4.84v-8.12h9.52v-4.76h-9.52v-5.88h-5.04l-.76 5.88-5.88.28v4.48h5.64v8.2zm41.878-12.96h-6.04v14.56c-1.64 2.08-2.92 2.76-4.72 2.76-2.6 0-3.48-1.4-3.48-4.52v-12.8h-6.04v13.56c0 5.6 2.16 8.92 7.2 8.92 3.16 0 5.52-1.52 7.48-3.8h.2l.44 3.28h4.96v-21.96zm8.92 21.96h6.04v-11.64c2-4.08 4.88-5.52 7.68-5.52 1.6 0 2.52.24 3.92.68l1.24-5.12c-1.28-.56-2.36-.88-4.24-.88-3.6 0-6.88 1.84-9.04 5.4h-.16l-.48-4.88h-4.96v21.96zm24.72 0h6.04v-14.76c1.72-1.68 2.96-2.56 4.88-2.56 2.56 0 3.52 1.4 3.52 4.56v12.76h6.04v-13.56c0-5.6-2.24-8.92-7.2-8.92-3.32 0-5.76 1.64-7.72 3.6h-.16l-.48-3.08h-4.92v21.96zm53.636-17.2h9.08v17.2h6.04v-21.96h-15.12v4.76zm11.8-8.2c2.36 0 4.08-1.48 4.08-3.76s-1.72-3.88-4.08-3.88c-2.4 0-4.12 1.6-4.12 3.88s1.72 3.76 4.12 3.76z" style="-inkscape-font-specification:'Source Han Code JP Bold'"/>
    </g>
    <path fill="#909060" d="M85.897 19.258c.01 10.63 8.57 19.27 13.885 19.347l69.323.137c6.587.058 15.54-8.615 15.54-19.312 0-10.697-8.953-19.37-15.225-19.34L101.354 0C94.57-.116 85.897 8.558 85.897 19.26z"/>
    <path fill="#c09090" d="M284.373 120.273c.01 10.63 8.57 19.27 13.885 19.348l295.037.14c6.588.058 15.542-8.614 15.542-19.312 0-10.697-8.954-19.37-15.226-19.34l-293.78-.09c-6.78-.117-15.454 8.558-15.454 19.258z"/>
  </g>
</svg>
