<?xml version="1.0" encoding="UTF-8" standalone="no"?>
<svg
   xmlns:dc="http://purl.org/dc/elements/1.1/"
   xmlns:cc="http://creativecommons.org/ns#"
   xmlns:rdf="http://www.w3.org/1999/02/22-rdf-syntax-ns#"
   xmlns:svg="http://www.w3.org/2000/svg"
   xmlns="http://www.w3.org/2000/svg"
   xmlns:sodipodi="http://sodipodi.sourceforge.net/DTD/sodipodi-0.dtd"
   xmlns:inkscape="http://www.inkscape.org/namespaces/inkscape"
   viewBox="0 0 1700.625 389.8"
   id="svg2"
   version="1.1"
   inkscape:version="0.91 r13725"
   sodipodi:docname="code-7.svg"
   width="1700.625"
   height="389.79999">
  <metadata
     id="metadata26">
    <rdf:RDF>
      <cc:Work
         rdf:about="">
        <dc:format>image/svg+xml</dc:format>
        <dc:type
           rdf:resource="http://purl.org/dc/dcmitype/StillImage" />
        <dc:title></dc:title>
      </cc:Work>
    </rdf:RDF>
  </metadata>
  <defs
     id="defs24" />
  <sodipodi:namedview
     pagecolor="#ffffff"
     bordercolor="#666666"
     borderopacity="1"
     objecttolerance="10"
     gridtolerance="10"
     guidetolerance="10"
     inkscape:pageopacity="0"
     inkscape:pageshadow="2"
     inkscape:window-width="1474"
     inkscape:window-height="841"
     id="namedview22"
     showgrid="false"
     fit-margin-left="400"
     fit-margin-right="106"
     fit-margin-top="0"
     fit-margin-bottom="0"
     inkscape:zoom="0.44449095"
     inkscape:cx="623.85158"
     inkscape:cy="194.90002"
     inkscape:window-x="54"
     inkscape:window-y="-8"
     inkscape:window-maximized="1"
     inkscape:current-layer="svg2" />
  <g
     id="g4"
     style="fill-opacity:0.78399999"
     transform="translate(400,0)">
    <g
       style="font-weight:bold;font-size:40px;line-height:125%;font-family:'Source Han Code JP';letter-spacing:0;word-spacing:0;fill:#ffffff"
       font-size="40"
       letter-spacing="0"
       word-spacing="0"
       font-weight="bold"
       id="g6">
      <path
         d="m 0,22.08 c 0,7.28 5.28,11.48 12.2,11.48 3.04,0 6.36,-1.04 9,-3.28 l -2.48,-3.8 c -1.64,1.16 -3.6,2.2 -6,2.2 -3.84,0 -6.52,-2.6 -6.52,-6.6 0,-4 2.76,-6.64 6.72,-6.64 1.8,0 3.36,0.64 5.04,1.92 l 2.84,-3.8 c -1.84,-1.72 -4.68,-3 -8.2,-3 C 5.88,10.56 0,14.76 0,22.08 Z M 26.52,6.6 l 6.56,0 0,18.04 c 0,5.56 2.8,8.92 8.2,8.92 2.68,0 4.24,-0.48 6.44,-1.2 l -1.36,-4.44 c -1.4,0.52 -2.52,0.76 -3.56,0.76 -1.96,0 -3.68,-0.96 -3.68,-3.76 l 0,-23.08 -12.6,0 0,4.76 z M 53.237,27 c 0,3.76 2.84,6.56 7.24,6.56 2.88,0 5.68,-1.4 7.92,-3.08 l 0.16,0 0.44,2.56 4.96,0 0,-12.72 c 0,-6.52 -3.6,-9.76 -9.72,-9.76 -3.76,0 -7.32,1.28 -10.2,3 l 2.16,3.96 c 2.4,-1.24 4.64,-2.12 6.84,-2.12 3.16,0 4.68,1.4 4.88,3.52 -10.52,0.72 -14.68,3.16 -14.68,8.08 z m 5.8,-0.44 c 0,-2.08 1.92,-3.52 8.88,-3.92 l 0,3.96 c -1.72,1.32 -3.52,2.28 -5.56,2.28 -1.96,0 -3.32,-0.76 -3.32,-2.32 z m 20.56,3.64 c 2.72,1.84 6.72,3.36 10.72,3.36 6.88,0 10.64,-3.08 10.64,-6.96 0,-3.76 -3.6,-5.4 -8.2,-6.6 -3.28,-0.84 -5.8,-1.56 -5.8,-2.96 0,-1.24 1.08,-1.96 4.04,-1.96 2.4,0 4.56,0.88 6.56,2.12 l 2.72,-3.68 c -2.28,-1.44 -5.56,-2.96 -9.36,-2.96 -6.28,0 -10,2.76 -10,6.76 0,3.44 3.96,5.28 7.92,6.4 3.84,1 6.08,1.84 6.08,3.2 0,1.28 -1.32,2.12 -4.44,2.12 -3.12,0 -5.64,-1 -8.16,-2.64 l -2.72,3.8 z m 26.718,0 c 2.72,1.84 6.72,3.36 10.72,3.36 6.88,0 10.64,-3.08 10.64,-6.96 0,-3.76 -3.6,-5.4 -8.2,-6.6 -3.28,-0.84 -5.8,-1.56 -5.8,-2.96 0,-1.24 1.08,-1.96 4.04,-1.96 2.4,0 4.56,0.88 6.56,2.12 l 2.72,-3.68 c -2.28,-1.44 -5.56,-2.96 -9.36,-2.96 -6.28,0 -10,2.76 -10,6.76 0,3.44 3.96,5.28 7.92,6.4 3.84,1 6.08,1.84 6.08,3.2 0,1.28 -1.32,2.12 -4.44,2.12 -3.12,0 -5.64,-1 -8.16,-2.64 l -2.72,3.8 z"
         style="-inkscape-font-specification:'Source Han Code JP Bold';fill:#c09090"
         id="path8"
         inkscape:connector-curvature="0" />
      <path
         d="m 166.952,33.04 7.24,0 8.84,-29 -6.24,0 -3.6,13.88 c -0.88,3.2 -1.48,6.12 -2.4,9.32 l -0.2,0 c -0.92,-3.2 -1.48,-6.12 -2.4,-9.32 l -3.68,-13.88 -6.44,0 8.88,29 z m 20.558,-17.2 9.08,0 0,17.2 6.04,0 0,-21.96 -15.12,0 0,4.76 z m 11.8,-8.2 c 2.36,0 4.08,-1.48 4.08,-3.76 0,-2.28 -1.72,-3.88 -4.08,-3.88 -2.4,0 -4.12,1.6 -4.12,3.88 0,2.28 1.72,3.76 4.12,3.76 z m 13.92,14.44 c 0,7.28 5.32,11.48 12.08,11.48 3.04,0 6.2,-1 8.64,-2.52 l -2,-3.68 c -1.96,1 -3.76,1.56 -5.8,1.56 -3.52,0 -6.32,-1.64 -6.72,-5.12 l 15.2,0 c 0.08,-0.52 0.24,-1.64 0.24,-2.76 0,-5.96 -3.6,-10.48 -10.28,-10.48 -5.8,0 -11.36,4.32 -11.36,11.52 z m 6.16,-2.32 c 0.52,-3.08 2.76,-4.56 5.36,-4.56 3.12,0 4.6,1.76 4.6,4.56 l -9.96,0 z m 22.04,13.28 6.92,0 1.4,-7.92 c 0.44,-2.92 0.64,-4.8 0.88,-6.44 l 0.16,0 c 0.32,2.32 0.6,4.4 0.92,6.44 l 1.44,7.92 7.08,0 3.6,-21.96 -5.52,0 -1.56,10.56 c -0.32,2.2 -0.44,4.28 -0.76,6.48 l -0.16,0 c -0.36,-2.2 -0.72,-4.28 -1.16,-6.48 l -1.64,-7.88 -4.32,0 -1.6,7.88 c -0.48,2.08 -0.8,4.28 -1.08,6.48 l -0.16,0 c -0.28,-2.2 -0.44,-4.28 -0.76,-6.48 l -1.56,-10.56 -5.96,0 3.84,21.96 z m 25.197,-14.36 c 0,9.72 6.08,14.88 13.52,14.88 3.64,0 6.72,-1.44 9.12,-4.2 l -3.36,-3.72 c -1.48,1.64 -3.2,2.68 -5.4,2.68 -4.56,0 -7.64,-3.64 -7.64,-9.84 0,-6.04 3.08,-9.72 7.44,-9.72 2.16,0 3.72,0.88 5.12,2.2 l 3.32,-3.76 c -1.88,-1.92 -4.8,-3.68 -8.44,-3.68 -7.72,0 -13.68,5.6 -13.68,15.16 z m 26.4,3.4 c 0,7.28 5.32,11.48 11.12,11.48 5.8,0 11.12,-4.2 11.12,-11.48 0,-7.32 -5.32,-11.52 -11.12,-11.52 -5.8,0 -11.12,4.2 -11.12,11.52 z m 6.2,0 c 0,-4 1.72,-6.64 4.92,-6.64 3.2,0 4.92,2.64 4.92,6.64 0,4 -1.72,6.6 -4.92,6.6 -3.2,0 -4.92,-2.6 -4.92,-6.6 z m 21.678,10.96 6.04,0 0,-14.76 c 1.72,-1.68 2.96,-2.56 4.88,-2.56 2.56,0 3.52,1.4 3.52,4.56 l 0,12.76 6.04,0 0,-13.56 c 0,-5.6 -2.24,-8.92 -7.2,-8.92 -3.32,0 -5.76,1.64 -7.72,3.6 l -0.16,0 -0.48,-3.08 -4.92,0 0,21.96 z m 31.36,-9 c 0,5.68 2.4,9.52 9.24,9.52 2.76,0 5.2,-0.56 7.16,-1.2 L 367.545,28 c -1.36,0.48 -2.8,0.8 -4.52,0.8 -3.36,0 -4.72,-1.4 -4.72,-4.84 l 0,-8.12 9.52,0 0,-4.76 -9.52,0 0,-5.88 -5.04,0 -0.76,5.88 -5.88,0.28 0,4.48 5.64,0 0,8.2 z m 24.078,9 6.04,0 0,-11.64 c 2,-4.08 4.88,-5.52 7.68,-5.52 1.6,0 2.52,0.24 3.92,0.68 l 1.24,-5.12 c -1.28,-0.56 -2.36,-0.88 -4.24,-0.88 -3.6,0 -6.88,1.84 -9.04,5.4 l -0.16,0 -0.48,-4.88 -4.96,0 0,21.96 z M 399.9,22.08 c 0,7.28 5.32,11.48 11.12,11.48 5.8,0 11.12,-4.2 11.12,-11.48 0,-7.32 -5.32,-11.52 -11.12,-11.52 -5.8,0 -11.12,4.2 -11.12,11.52 z m 6.2,0 c 0,-4 1.72,-6.64 4.92,-6.64 3.2,0 4.92,2.64 4.92,6.64 0,4 -1.72,6.6 -4.92,6.6 -3.2,0 -4.92,-2.6 -4.92,-6.6 z m 21.2,-15.48 6.56,0 0,18.04 c 0,5.56 2.8,8.92 8.2,8.92 2.68,0 4.24,-0.48 6.44,-1.2 l -1.36,-4.44 c -1.4,0.52 -2.52,0.76 -3.56,0.76 -1.96,0 -3.68,-0.96 -3.68,-3.76 l 0,-23.08 -12.6,0 0,4.76 z m 26.72,0 6.56,0 0,18.04 c 0,5.56 2.8,8.92 8.2,8.92 2.68,0 4.24,-0.48 6.44,-1.2 l -1.36,-4.44 c -1.4,0.52 -2.52,0.76 -3.56,0.76 -1.96,0 -3.68,-0.96 -3.68,-3.76 l 0,-23.08 -12.6,0 0,4.76 z m 26.398,15.48 c 0,7.28 5.32,11.48 12.08,11.48 3.04,0 6.2,-1 8.64,-2.52 l -2,-3.68 c -1.96,1 -3.76,1.56 -5.8,1.56 -3.52,0 -6.32,-1.64 -6.72,-5.12 l 15.2,0 c 0.08,-0.52 0.24,-1.64 0.24,-2.76 0,-5.96 -3.6,-10.48 -10.28,-10.48 -5.8,0 -11.36,4.32 -11.36,11.52 z m 6.16,-2.32 c 0.52,-3.08 2.76,-4.56 5.36,-4.56 3.12,0 4.6,1.76 4.6,4.56 l -9.96,0 z m 23.358,13.28 6.04,0 0,-11.64 c 2,-4.08 4.88,-5.52 7.68,-5.52 1.6,0 2.52,0.24 3.92,0.68 l 1.24,-5.12 c -1.28,-0.56 -2.36,-0.88 -4.24,-0.88 -3.6,0 -6.88,1.84 -9.04,5.4 l -0.16,0 -0.48,-4.88 -4.96,0 0,21.96 z"
         style="-inkscape-font-specification:'Source Han Code JP Bold'"
         id="path10"
         inkscape:connector-curvature="0" />
      <path
         d="m 539.735,14 c 0,2.8 2,4.96 4.88,4.96 2.88,0 4.88,-2.16 4.88,-4.96 0,-2.8 -2,-4.96 -4.88,-4.96 -2.88,0 -4.88,2.16 -4.88,4.96 z m 0,14.6 c 0,2.84 2,4.96 4.88,4.96 2.88,0 4.88,-2.12 4.88,-4.96 0,-2.8 -2,-4.96 -4.88,-4.96 -2.88,0 -4.88,2.16 -4.88,4.96 z"
         style="-inkscape-font-specification:'Source Han Code JP Bold';fill:#c09090"
         id="path12"
         inkscape:connector-curvature="0" />
      <path
         d="m 587.693,21.92 c 0,7.64 3.64,11.64 10.4,11.64 6.84,0 10.32,-4 10.32,-11.64 l 0,-17.88 -5.84,0 0,18.44 c 0,3.92 -1.6,5.84 -4.48,5.84 -2.84,0 -4.32,-1.92 -4.32,-5.84 l 0,-18.44 -6.08,0 0,17.88 z m 27.197,11.12 19.76,0 0,-5.12 -6.84,0 0,-18.76 6.84,0 0,-5.12 -19.76,0 0,5.12 6.84,0 0,18.76 -6.84,0 0,5.12 z m 33,0 7.24,0 8.84,-29 -6.24,0 -3.6,13.88 c -0.88,3.2 -1.48,6.12 -2.4,9.32 l -0.2,0 c -0.92,-3.2 -1.48,-6.12 -2.4,-9.32 l -3.68,-13.88 -6.44,0 8.88,29 z m 20.56,-17.2 9.08,0 0,17.2 6.04,0 0,-21.96 -15.12,0 0,4.76 z m 11.8,-8.2 c 2.36,0 4.08,-1.48 4.08,-3.76 0,-2.28 -1.72,-3.88 -4.08,-3.88 -2.4,0 -4.12,1.6 -4.12,3.88 0,2.28 1.72,3.76 4.12,3.76 z m 13.918,14.44 c 0,7.28 5.32,11.48 12.08,11.48 3.04,0 6.2,-1 8.64,-2.52 l -2,-3.68 c -1.96,1 -3.76,1.56 -5.8,1.56 -3.52,0 -6.32,-1.64 -6.72,-5.12 l 15.2,0 c 0.08,-0.52 0.24,-1.64 0.24,-2.76 0,-5.96 -3.6,-10.48 -10.28,-10.48 -5.8,0 -11.36,4.32 -11.36,11.52 z m 6.16,-2.32 c 0.52,-3.08 2.76,-4.56 5.36,-4.56 3.12,0 4.6,1.76 4.6,4.56 l -9.96,0 z m 22.038,13.28 6.92,0 1.4,-7.92 c 0.44,-2.92 0.64,-4.8 0.88,-6.44 l 0.16,0 c 0.32,2.32 0.6,4.4 0.92,6.44 l 1.44,7.92 7.08,0 3.6,-21.96 -5.52,0 -1.56,10.56 c -0.32,2.2 -0.44,4.28 -0.76,6.48 l -0.16,0 c -0.36,-2.2 -0.72,-4.28 -1.16,-6.48 l -1.64,-7.88 -4.32,0 -1.6,7.88 c -0.48,2.08 -0.8,4.28 -1.08,6.48 l -0.16,0 c -0.28,-2.2 -0.44,-4.28 -0.76,-6.48 l -1.56,-10.56 -5.96,0 3.84,21.96 z m 25.2,-14.36 c 0,9.72 6.08,14.88 13.52,14.88 3.64,0 6.72,-1.44 9.12,-4.2 l -3.36,-3.72 c -1.48,1.64 -3.2,2.68 -5.4,2.68 -4.56,0 -7.64,-3.64 -7.64,-9.84 0,-6.04 3.08,-9.72 7.44,-9.72 2.16,0 3.72,0.88 5.12,2.2 l 3.32,-3.76 c -1.88,-1.92 -4.8,-3.68 -8.44,-3.68 -7.72,0 -13.68,5.6 -13.68,15.16 z m 26.398,3.4 c 0,7.28 5.32,11.48 11.12,11.48 5.8,0 11.12,-4.2 11.12,-11.48 0,-7.32 -5.32,-11.52 -11.12,-11.52 -5.8,0 -11.12,4.2 -11.12,11.52 z m 6.2,0 c 0,-4 1.72,-6.64 4.92,-6.64 3.2,0 4.92,2.64 4.92,6.64 0,4 -1.72,6.6 -4.92,6.6 -3.2,0 -4.92,-2.6 -4.92,-6.6 z m 21.68,10.96 6.04,0 0,-14.76 c 1.72,-1.68 2.96,-2.56 4.88,-2.56 2.56,0 3.52,1.4 3.52,4.56 l 0,12.76 6.04,0 0,-13.56 c 0,-5.6 -2.24,-8.92 -7.2,-8.92 -3.32,0 -5.76,1.64 -7.72,3.6 l -0.16,0 -0.48,-3.08 -4.92,0 0,21.96 z m 31.356,-9 c 0,5.68 2.4,9.52 9.24,9.52 2.76,0 5.2,-0.56 7.16,-1.2 L 848.48,28 c -1.36,0.48 -2.8,0.8 -4.52,0.8 -3.36,0 -4.72,-1.4 -4.72,-4.84 l 0,-8.12 9.52,0 0,-4.76 -9.52,0 0,-5.88 -5.04,0 -0.76,5.88 -5.88,0.28 0,4.48 5.64,0 0,8.2 z m 24.08,9 6.04,0 0,-11.64 c 2,-4.08 4.88,-5.52 7.68,-5.52 1.6,0 2.52,0.24 3.92,0.68 l 1.24,-5.12 c -1.28,-0.56 -2.36,-0.88 -4.24,-0.88 -3.6,0 -6.88,1.84 -9.04,5.4 l -0.16,0 -0.48,-4.88 -4.96,0 0,21.96 z m 23.56,-10.96 c 0,7.28 5.32,11.48 11.12,11.48 5.8,0 11.12,-4.2 11.12,-11.48 0,-7.32 -5.32,-11.52 -11.12,-11.52 -5.8,0 -11.12,4.2 -11.12,11.52 z m 6.2,0 c 0,-4 1.72,-6.64 4.92,-6.64 3.2,0 4.92,2.64 4.92,6.64 0,4 -1.72,6.6 -4.92,6.6 -3.2,0 -4.92,-2.6 -4.92,-6.6 z m 21.198,-15.48 6.56,0 0,18.04 c 0,5.56 2.8,8.92 8.2,8.92 2.68,0 4.24,-0.48 6.44,-1.2 l -1.36,-4.44 c -1.4,0.52 -2.52,0.76 -3.56,0.76 -1.96,0 -3.68,-0.96 -3.68,-3.76 l 0,-23.08 -12.6,0 0,4.76 z m 26.718,0 6.56,0 0,18.04 c 0,5.56 2.8,8.92 8.2,8.92 2.68,0 4.24,-0.48 6.44,-1.2 l -1.36,-4.44 c -1.4,0.52 -2.52,0.76 -3.56,0.76 -1.96,0 -3.68,-0.96 -3.68,-3.76 l 0,-23.08 -12.6,0 0,4.76 z m 26.4,15.48 c 0,7.28 5.32,11.48 12.08,11.48 3.04,0 6.2,-1 8.64,-2.52 l -2,-3.68 c -1.96,1 -3.76,1.56 -5.8,1.56 -3.52,0 -6.32,-1.64 -6.72,-5.12 l 15.2,0 c 0.08,-0.52 0.24,-1.64 0.24,-2.76 0,-5.96 -3.6,-10.48 -10.28,-10.48 -5.8,0 -11.36,4.32 -11.36,11.52 z m 6.16,-2.32 c 0.52,-3.08 2.76,-4.56 5.36,-4.56 3.12,0 4.6,1.76 4.6,4.56 l -9.96,0 z m 23.358,13.28 6.04,0 0,-11.64 c 2,-4.08 4.88,-5.52 7.68,-5.52 1.6,0 2.52,0.24 3.92,0.68 l 1.24,-5.12 c -1.28,-0.56 -2.36,-0.88 -4.24,-0.88 -3.6,0 -6.88,1.84 -9.04,5.4 l -0.16,0 -0.48,-4.88 -4.96,0 0,21.96 z m 58.596,0.52 c 0,4.76 2.56,6.24 8.24,6.24 l 3.32,0 0,-3.24 -1.92,0 c -3.84,0 -4.68,-0.72 -4.68,-3.28 0,-2.44 0.2,-4.64 0.2,-7.36 0,-3.28 -1.2,-4.6 -4.36,-5.12 l 0,-0.2 c 3.16,-0.52 4.36,-1.84 4.36,-5.12 0,-2.64 -0.2,-5 -0.2,-7.36 0,-2.56 0.84,-3.28 4.68,-3.28 l 1.92,0 0,-3.24 -3.32,0 c -5.68,0 -8.24,1.48 -8.24,6.24 0,3.12 0.44,5 0.44,7.76 0,1.6 -1.32,3.24 -6.16,3.32 l 0,3.56 c 4.84,0.08 6.16,1.72 6.16,3.32 0,2.84 -0.44,4.6 -0.44,7.76 z M 105.995,72.08 c 0,7.28 5.32,11.48 11.12,11.48 5.8,0 11.12,-4.2 11.12,-11.48 0,-7.32 -5.32,-11.52 -11.12,-11.52 -5.8,0 -11.12,4.2 -11.12,11.52 z m 6.2,0 c 0,-4 1.72,-6.64 4.92,-6.64 3.2,0 4.92,2.64 4.92,6.64 0,4 -1.72,6.6 -4.92,6.6 -3.2,0 -4.92,-2.6 -4.92,-6.6 z m 28.28,10.96 6.92,0 8.2,-21.96 -5.76,0 -3.72,10.72 c -0.72,2.16 -1.36,4.44 -2.04,6.68 l -0.2,0 c -0.64,-2.24 -1.28,-4.52 -2.04,-6.68 l -3.68,-10.72 -6.08,0 8.4,21.96 z m 19.317,-10.96 c 0,7.28 5.32,11.48 12.08,11.48 3.04,0 6.2,-1 8.64,-2.52 l -2,-3.68 c -1.96,1 -3.76,1.56 -5.8,1.56 -3.52,0 -6.32,-1.64 -6.72,-5.12 l 15.2,0 c 0.08,-0.52 0.24,-1.64 0.24,-2.76 0,-5.96 -3.6,-10.48 -10.28,-10.48 -5.8,0 -11.36,4.32 -11.36,11.52 z m 6.16,-2.32 c 0.52,-3.08 2.76,-4.56 5.36,-4.56 3.12,0 4.6,1.76 4.6,4.56 l -9.96,0 z m 23.358,13.28 6.04,0 0,-11.64 c 2,-4.08 4.88,-5.52 7.68,-5.52 1.6,0 2.52,0.24 3.92,0.68 l 1.24,-5.12 c -1.28,-0.56 -2.36,-0.88 -4.24,-0.88 -3.6,0 -6.88,1.84 -9.04,5.4 l -0.16,0 -0.48,-4.88 -4.96,0 0,21.96 z m 26.72,0 6.04,0 0,-11.64 c 2,-4.08 4.88,-5.52 7.68,-5.52 1.6,0 2.52,0.24 3.92,0.68 l 1.24,-5.12 c -1.28,-0.56 -2.36,-0.88 -4.24,-0.88 -3.6,0 -6.88,1.84 -9.04,5.4 l -0.16,0 -0.48,-4.88 -4.96,0 0,21.96 z m 24.92,-17.2 9.08,0 0,17.2 6.04,0 0,-21.96 -15.12,0 0,4.76 z m 11.8,-8.2 c 2.36,0 4.08,-1.48 4.08,-3.76 0,-2.28 -1.72,-3.88 -4.08,-3.88 -2.4,0 -4.12,1.6 -4.12,3.88 0,2.28 1.72,3.76 4.12,3.76 z m 13.557,14.44 c 0,7.2 3.68,11.48 9.32,11.48 2.28,0 4.6,-1.24 6.24,-2.88 l 0.12,0 0.48,2.36 4.92,0 0,-31.2 -6.04,0 0,7.64 0.24,3.52 c -1.64,-1.48 -3.28,-2.44 -5.8,-2.44 -4.84,0 -9.48,4.32 -9.48,11.52 z m 6.2,-0.08 c 0,-4.28 2.2,-6.48 4.8,-6.48 1.4,0 2.72,0.44 4.04,1.64 l 0,9.2 c -1.28,1.6 -2.64,2.24 -4.24,2.24 -2.88,0 -4.6,-2.12 -4.6,-6.6 z m 20.88,0.08 c 0,7.28 5.32,11.48 12.08,11.48 3.04,0 6.2,-1 8.64,-2.52 l -2,-3.68 c -1.96,1 -3.76,1.56 -5.8,1.56 -3.52,0 -6.32,-1.64 -6.72,-5.12 l 15.2,0 c 0.08,-0.52 0.24,-1.64 0.24,-2.76 0,-5.96 -3.6,-10.48 -10.28,-10.48 -5.8,0 -11.36,4.32 -11.36,11.52 z m 6.16,-2.32 c 0.52,-3.08 2.76,-4.56 5.36,-4.56 3.12,0 4.6,1.76 4.6,4.56 l -9.96,0 z m 70.637,-17.24 c -1.88,-0.68 -4.16,-1.2 -6.56,-1.2 -6.76,0 -9.68,3.88 -9.68,9 l 0,0.76 -5.88,0.28 0,4.48 5.88,0 0,17.2 6.04,0 0,-17.2 7.84,0 0,-4.76 -7.84,0 0,-0.8 c 0,-2.84 1.36,-4.2 4.32,-4.2 1.72,0 3.24,0.32 4.68,0.88 l 1.2,-4.44 z m 23.96,8.56 -6.04,0 0,14.56 c -1.64,2.08 -2.92,2.76 -4.72,2.76 -2.6,0 -3.48,-1.4 -3.48,-4.52 l 0,-12.8 -6.04,0 0,13.56 c 0,5.6 2.16,8.92 7.2,8.92 3.16,0 5.52,-1.52 7.48,-3.8 l 0.2,0 0.44,3.28 4.96,0 0,-21.96 z m 6.916,21.96 6.04,0 0,-14.76 c 1.72,-1.68 2.96,-2.56 4.88,-2.56 2.56,0 3.52,1.4 3.52,4.56 l 0,12.76 6.04,0 0,-13.56 c 0,-5.6 -2.24,-8.92 -7.2,-8.92 -3.32,0 -5.76,1.64 -7.72,3.6 l -0.16,0 -0.48,-3.08 -4.92,0 0,21.96 z M 427.5,72.08 c 0,7.28 5.28,11.48 12.2,11.48 3.04,0 6.36,-1.04 9,-3.28 l -2.48,-3.8 c -1.64,1.16 -3.6,2.2 -6,2.2 -3.84,0 -6.52,-2.6 -6.52,-6.6 0,-4 2.76,-6.64 6.72,-6.64 1.8,0 3.36,0.64 5.04,1.92 l 2.84,-3.8 c -1.84,-1.72 -4.68,-3 -8.2,-3 -6.72,0 -12.6,4.2 -12.6,11.52 z m 60.318,10.96 6.92,0 8.2,-21.96 -5.76,0 -3.72,10.72 c -0.72,2.16 -1.36,4.44 -2.04,6.68 l -0.2,0 c -0.64,-2.24 -1.28,-4.52 -2.04,-6.68 l -3.68,-10.72 -6.08,0 8.4,21.96 z m 20.318,-17.2 9.08,0 0,17.2 6.04,0 0,-21.96 -15.12,0 0,4.76 z m 11.8,-8.2 c 2.36,0 4.08,-1.48 4.08,-3.76 0,-2.28 -1.72,-3.88 -4.08,-3.88 -2.4,0 -4.12,1.6 -4.12,3.88 0,2.28 1.72,3.76 4.12,3.76 z m 13.92,14.44 c 0,7.28 5.32,11.48 12.08,11.48 3.04,0 6.2,-1 8.64,-2.52 l -2,-3.68 c -1.96,1 -3.76,1.56 -5.8,1.56 -3.52,0 -6.32,-1.64 -6.72,-5.12 l 15.2,0 c 0.08,-0.52 0.24,-1.64 0.24,-2.76 0,-5.96 -3.6,-10.48 -10.28,-10.48 -5.8,0 -11.36,4.32 -11.36,11.52 z m 6.16,-2.32 c 0.52,-3.08 2.76,-4.56 5.36,-4.56 3.12,0 4.6,1.76 4.6,4.56 l -9.96,0 z m 22.038,13.28 6.92,0 1.4,-7.92 c 0.44,-2.92 0.64,-4.8 0.88,-6.44 l 0.16,0 c 0.32,2.32 0.6,4.4 0.92,6.44 l 1.44,7.92 7.08,0 3.6,-21.96 -5.52,0 -1.56,10.56 c -0.32,2.2 -0.44,4.28 -0.76,6.48 l -0.16,0 c -0.36,-2.2 -0.72,-4.28 -1.16,-6.48 l -1.64,-7.88 -4.32,0 -1.6,7.88 c -0.48,2.08 -0.8,4.28 -1.08,6.48 l -0.16,0 c -0.28,-2.2 -0.44,-4.28 -0.76,-6.48 l -1.56,-10.56 -5.96,0 3.84,21.96 z m 25.72,0 8.08,0 c 8.12,0 13.48,-4.8 13.48,-14.6 0,-9.84 -5.36,-14.4 -13.8,-14.4 l -7.76,0 0,29 z m 6.08,-4.88 0,-19.2 1.32,0 c 4.88,0 7.96,2.48 7.96,9.48 0,7 -3.08,9.72 -7.96,9.72 l -1.32,0 z m 21.156,-12.32 9.08,0 0,17.2 6.04,0 0,-21.96 -15.12,0 0,4.76 z m 11.8,-8.2 c 2.36,0 4.08,-1.48 4.08,-3.76 0,-2.28 -1.72,-3.88 -4.08,-3.88 -2.4,0 -4.12,1.6 -4.12,3.88 0,2.28 1.72,3.76 4.12,3.76 z m 13.56,14.44 c 0,7.2 3.68,11.48 9.32,11.48 2.28,0 4.6,-1.24 6.24,-2.88 l 0.12,0 0.48,2.36 4.92,0 0,-31.2 -6.04,0 0,7.64 0.24,3.52 c -1.64,-1.48 -3.28,-2.44 -5.8,-2.44 -4.84,0 -9.48,4.32 -9.48,11.52 z m 6.2,-0.08 c 0,-4.28 2.2,-6.48 4.8,-6.48 1.4,0 2.72,0.44 4.04,1.64 l 0,9.2 c -1.28,1.6 -2.64,2.24 -4.24,2.24 -2.88,0 -4.6,-2.12 -4.6,-6.6 z m 23.28,11.04 19.16,0 0,-5.12 -13.16,0 0,-23.88 -6,0 0,29 z m 23.958,-10.96 c 0,7.28 5.32,11.48 11.12,11.48 5.8,0 11.12,-4.2 11.12,-11.48 0,-7.32 -5.32,-11.52 -11.12,-11.52 -5.8,0 -11.12,4.2 -11.12,11.52 z m 6.2,0 c 0,-4 1.72,-6.64 4.92,-6.64 3.2,0 4.92,2.64 4.92,6.64 0,4 -1.72,6.6 -4.92,6.6 -3.2,0 -4.92,-2.6 -4.92,-6.6 z M 721.206,77 c 0,3.76 2.84,6.56 7.24,6.56 2.88,0 5.68,-1.4 7.92,-3.08 l 0.16,0 0.44,2.56 4.96,0 0,-12.72 c 0,-6.52 -3.6,-9.76 -9.72,-9.76 -3.76,0 -7.32,1.28 -10.2,3 l 2.16,3.96 c 2.4,-1.24 4.64,-2.12 6.84,-2.12 3.16,0 4.68,1.4 4.88,3.52 -10.52,0.72 -14.68,3.16 -14.68,8.08 z m 5.8,-0.44 c 0,-2.08 1.92,-3.52 8.88,-3.92 l 0,3.96 c -1.72,1.32 -3.52,2.28 -5.56,2.28 -1.96,0 -3.32,-0.76 -3.32,-2.32 z m 20.24,-4.48 c 0,7.2 3.68,11.48 9.32,11.48 2.28,0 4.6,-1.24 6.24,-2.88 l 0.12,0 0.48,2.36 4.92,0 0,-31.2 -6.04,0 0,7.64 0.24,3.52 c -1.64,-1.48 -3.28,-2.44 -5.8,-2.44 -4.84,0 -9.48,4.32 -9.48,11.52 z m 6.2,-0.08 c 0,-4.28 2.2,-6.48 4.8,-6.48 1.4,0 2.72,0.44 4.04,1.64 l 0,9.2 c -1.28,1.6 -2.64,2.24 -4.24,2.24 -2.88,0 -4.6,-2.12 -4.6,-6.6 z m 36.038,18.96 3.36,-2.72 c -5.44,-5.12 -7.76,-10.48 -7.76,-17.56 0,-7.08 2.32,-12.4 7.76,-17.52 l -3.36,-2.72 c -5.84,5.04 -9.48,11.88 -9.48,20.24 0,8.4 3.64,15.24 9.48,20.28 z m 17.92,0 c 5.88,-5.04 9.48,-11.88 9.48,-20.28 0,-8.36 -3.6,-15.2 -9.48,-20.24 l -3.36,2.72 c 5.44,5.12 7.76,10.44 7.76,17.52 0,7.08 -2.32,12.44 -7.76,17.56 l 3.36,2.72 z m 55.036,-7.4 c 0,4.76 2.56,6.24 8.24,6.24 l 3.32,0 0,-3.24 -1.92,0 c -3.84,0 -4.68,-0.72 -4.68,-3.28 0,-2.44 0.2,-4.64 0.2,-7.36 0,-3.28 -1.2,-4.6 -4.36,-5.12 l 0,-0.2 c 3.16,-0.52 4.36,-1.84 4.36,-5.12 0,-2.64 -0.2,-5 -0.2,-7.36 0,-2.56 0.84,-3.28 4.68,-3.28 l 1.92,0 0,-3.24 -3.32,0 c -5.68,0 -8.24,1.48 -8.24,6.24 0,3.12 0.44,5 0.44,7.76 0,1.6 -1.32,3.24 -6.16,3.32 l 0,3.56 c 4.84,0.08 6.16,1.72 6.16,3.32 0,2.84 -0.44,4.6 -0.44,7.76 z m -754.045,103 0,3.24 3.32,0 c 5.68,0 8.24,-1.48 8.24,-6.24 0,-3.16 -0.48,-4.92 -0.48,-7.76 0,-1.6 1.32,-3.24 6.16,-3.32 l 0,-3.56 c -4.84,-0.08 -6.16,-1.72 -6.16,-3.32 0,-2.76 0.48,-4.64 0.48,-7.76 0,-4.76 -2.56,-6.24 -8.24,-6.24 l -3.32,0 0,3.24 1.92,0 c 3.8,0 4.64,0.72 4.64,3.28 0,2.36 -0.16,4.72 -0.16,7.36 0,3.28 1.2,4.6 4.36,5.12 l 0,0.2 c -3.16,0.52 -4.36,1.84 -4.36,5.12 0,2.72 0.16,4.92 0.16,7.36 0,2.56 -0.84,3.28 -4.64,3.28 l -1.92,0 z m -2.4,35.52 c 0,7.28 5.32,11.48 11.12,11.48 5.8,0 11.12,-4.2 11.12,-11.48 0,-7.32 -5.32,-11.52 -11.12,-11.52 -5.8,0 -11.12,4.2 -11.12,11.52 z m 6.2,0 c 0,-4 1.72,-6.64 4.92,-6.64 3.2,0 4.92,2.64 4.92,6.64 0,4 -1.72,6.6 -4.92,6.6 -3.2,0 -4.92,-2.6 -4.92,-6.6 z m 28.28,10.96 6.92,0 8.2,-21.96 -5.76,0 -3.72,10.72 c -0.72,2.16 -1.36,4.44 -2.04,6.68 l -0.2,0 c -0.64,-2.24 -1.28,-4.52 -2.04,-6.68 l -3.68,-10.72 -6.08,0 8.4,21.96 z m 19.317,-10.96 c 0,7.28 5.32,11.48 12.08,11.48 3.04,0 6.2,-1 8.64,-2.52 l -2,-3.68 c -1.96,1 -3.76,1.56 -5.8,1.56 -3.52,0 -6.32,-1.64 -6.72,-5.12 l 15.2,0 c 0.08,-0.52 0.24,-1.64 0.24,-2.76 0,-5.96 -3.6,-10.48 -10.28,-10.48 -5.8,0 -11.36,4.32 -11.36,11.52 z m 6.16,-2.32 c 0.52,-3.08 2.76,-4.56 5.36,-4.56 3.12,0 4.6,1.76 4.6,4.56 l -9.96,0 z m 23.358,13.28 6.04,0 0,-11.64 c 2,-4.08 4.88,-5.52 7.68,-5.52 1.6,0 2.52,0.24 3.92,0.68 l 1.24,-5.12 c -1.28,-0.56 -2.36,-0.88 -4.24,-0.88 -3.6,0 -6.88,1.84 -9.04,5.4 l -0.16,0 -0.48,-4.88 -4.96,0 0,21.96 z m 26.72,0 6.04,0 0,-11.64 c 2,-4.08 4.88,-5.52 7.68,-5.52 1.6,0 2.52,0.24 3.92,0.68 l 1.24,-5.12 c -1.28,-0.56 -2.36,-0.88 -4.24,-0.88 -3.6,0 -6.88,1.84 -9.04,5.4 l -0.16,0 -0.48,-4.88 -4.96,0 0,21.96 z m 24.92,-17.2 9.08,0 0,17.2 6.04,0 0,-21.96 -15.12,0 0,4.76 z m 11.8,-8.2 c 2.36,0 4.08,-1.48 4.08,-3.76 0,-2.28 -1.72,-3.88 -4.08,-3.88 -2.4,0 -4.12,1.6 -4.12,3.88 0,2.28 1.72,3.76 4.12,3.76 z m 13.557,14.44 c 0,7.2 3.68,11.48 9.32,11.48 2.28,0 4.6,-1.24 6.24,-2.88 l 0.12,0 0.48,2.36 4.92,0 0,-31.2 -6.04,0 0,7.64 0.24,3.52 c -1.64,-1.48 -3.28,-2.44 -5.8,-2.44 -4.84,0 -9.48,4.32 -9.48,11.52 z m 6.2,-0.08 c 0,-4.28 2.2,-6.48 4.8,-6.48 1.4,0 2.72,0.44 4.04,1.64 l 0,9.2 c -1.28,1.6 -2.64,2.24 -4.24,2.24 -2.88,0 -4.6,-2.12 -4.6,-6.6 z m 20.88,0.08 c 0,7.28 5.32,11.48 12.08,11.48 3.04,0 6.2,-1 8.64,-2.52 l -2,-3.68 c -1.96,1 -3.76,1.56 -5.8,1.56 -3.52,0 -6.32,-1.64 -6.72,-5.12 l 15.2,0 c 0.08,-0.52 0.24,-1.64 0.24,-2.76 0,-5.96 -3.6,-10.48 -10.28,-10.48 -5.8,0 -11.36,4.32 -11.36,11.52 z m 6.16,-2.32 c 0.52,-3.08 2.76,-4.56 5.36,-4.56 3.12,0 4.6,1.76 4.6,4.56 l -9.96,0 z m 70.637,-17.24 c -1.88,-0.68 -4.16,-1.2 -6.56,-1.2 -6.76,0 -9.68,3.88 -9.68,9 l 0,0.76 -5.88,0.28 0,4.48 5.88,0 0,17.2 6.04,0 0,-17.2 7.84,0 0,-4.76 -7.84,0 0,-0.8 c 0,-2.84 1.36,-4.2 4.32,-4.2 1.72,0 3.24,0.32 4.68,0.88 l 1.2,-4.44 z m 23.96,8.56 -6.04,0 0,14.56 c -1.64,2.08 -2.92,2.76 -4.72,2.76 -2.6,0 -3.48,-1.4 -3.48,-4.52 l 0,-12.8 -6.04,0 0,13.56 c 0,5.6 2.16,8.92 7.2,8.92 3.16,0 5.52,-1.52 7.48,-3.8 l 0.2,0 0.44,3.28 4.96,0 0,-21.96 z m 6.916,21.96 6.04,0 0,-14.76 c 1.72,-1.68 2.96,-2.56 4.88,-2.56 2.56,0 3.52,1.4 3.52,4.56 l 0,12.76 6.04,0 0,-13.56 c 0,-5.6 -2.24,-8.92 -7.2,-8.92 -3.32,0 -5.76,1.64 -7.72,3.6 l -0.16,0 -0.48,-3.08 -4.92,0 0,21.96 z m 26.44,-10.96 c 0,7.28 5.28,11.48 12.2,11.48 3.04,0 6.36,-1.04 9,-3.28 l -2.48,-3.8 c -1.64,1.16 -3.6,2.2 -6,2.2 -3.84,0 -6.52,-2.6 -6.52,-6.6 0,-4 2.76,-6.64 6.72,-6.64 1.8,0 3.36,0.64 5.04,1.92 l 2.84,-3.8 c -1.84,-1.72 -4.68,-3 -8.2,-3 -6.72,0 -12.6,4.2 -12.6,11.52 z m 52.558,0 c 0,7.2 3.68,11.48 9.32,11.48 2.28,0 4.6,-1.24 6.24,-2.88 l 0.12,0 0.48,2.36 4.92,0 0,-31.2 -6.04,0 0,7.64 0.24,3.52 c -1.64,-1.48 -3.28,-2.44 -5.8,-2.44 -4.84,0 -9.48,4.32 -9.48,11.52 z m 6.2,-0.08 c 0,-4.28 2.2,-6.48 4.8,-6.48 1.4,0 2.72,0.44 4.04,1.64 l 0,9.2 c -1.28,1.6 -2.64,2.24 -4.24,2.24 -2.88,0 -4.6,-2.12 -4.6,-6.6 z m 21.878,-6.16 9.08,0 0,17.2 6.04,0 0,-21.96 -15.12,0 0,4.76 z m 11.8,-8.2 c 2.36,0 4.08,-1.48 4.08,-3.76 0,-2.28 -1.72,-3.88 -4.08,-3.88 -2.4,0 -4.12,1.6 -4.12,3.88 0,2.28 1.72,3.76 4.12,3.76 z m 13.56,14.44 c 0,7.2 3.68,11.48 9.32,11.48 2.28,0 4.6,-1.24 6.24,-2.88 l 0.12,0 0.48,2.36 4.92,0 0,-31.2 -6.04,0 0,7.64 0.24,3.52 c -1.64,-1.48 -3.28,-2.44 -5.8,-2.44 -4.84,0 -9.48,4.32 -9.48,11.52 z m 6.2,-0.08 c 0,-4.28 2.2,-6.48 4.8,-6.48 1.4,0 2.72,0.44 4.04,1.64 l 0,9.2 c -1.28,1.6 -2.64,2.24 -4.24,2.24 -2.88,0 -4.6,-2.12 -4.6,-6.6 z m 27.678,-13.12 3.52,0 c 3.6,0 5.56,1.04 5.56,4.08 0,3 -1.96,4.52 -5.56,4.52 l -3.52,0 0,-8.6 z m 16.36,24.16 -6.68,-11.72 c 3.2,-1.36 5.36,-4.04 5.36,-8.36 0,-6.76 -4.92,-8.92 -11,-8.92 l -10.08,0 0,29 6.04,0 0,-10.72 3.76,0 5.76,10.72 6.84,0 z m 3.56,-10.96 c 0,7.28 5.32,11.48 12.08,11.48 3.04,0 6.2,-1 8.64,-2.52 l -2,-3.68 c -1.96,1 -3.76,1.56 -5.8,1.56 -3.52,0 -6.32,-1.64 -6.72,-5.12 l 15.2,0 c 0.08,-0.52 0.24,-1.64 0.24,-2.76 0,-5.96 -3.6,-10.48 -10.28,-10.48 -5.8,0 -11.36,4.32 -11.36,11.52 z m 6.16,-2.32 c 0.52,-3.08 2.76,-4.56 5.36,-4.56 3.12,0 4.6,1.76 4.6,4.56 l -9.96,0 z m 21.076,2.32 c 0,7.28 5.28,11.48 12.2,11.48 3.04,0 6.36,-1.04 9,-3.28 l -2.48,-3.8 c -1.64,1.16 -3.6,2.2 -6,2.2 -3.84,0 -6.52,-2.6 -6.52,-6.6 0,-4 2.76,-6.64 6.72,-6.64 1.8,0 3.36,0.64 5.04,1.92 l 2.84,-3.8 c -1.84,-1.72 -4.68,-3 -8.2,-3 -6.72,0 -12.6,4.2 -12.6,11.52 z m 26.2,0 c 0,7.28 5.32,11.48 12.08,11.48 3.04,0 6.2,-1 8.64,-2.52 l -2,-3.68 c -1.96,1 -3.76,1.56 -5.8,1.56 -3.52,0 -6.32,-1.64 -6.72,-5.12 l 15.2,0 c 0.08,-0.52 0.24,-1.64 0.24,-2.76 0,-5.96 -3.6,-10.48 -10.28,-10.48 -5.8,0 -11.36,4.32 -11.36,11.52 z m 6.16,-2.32 c 0.52,-3.08 2.76,-4.56 5.36,-4.56 3.12,0 4.6,1.76 4.6,4.56 l -9.96,0 z m 21.56,-3.92 9.08,0 0,17.2 6.04,0 0,-21.96 -15.12,0 0,4.76 z m 11.8,-8.2 c 2.36,0 4.08,-1.48 4.08,-3.76 0,-2.28 -1.72,-3.88 -4.08,-3.88 -2.4,0 -4.12,1.6 -4.12,3.88 0,2.28 1.72,3.76 4.12,3.76 z m 21.318,25.4 6.92,0 8.2,-21.96 -5.76,0 -3.72,10.72 c -0.72,2.16 -1.36,4.44 -2.04,6.68 l -0.2,0 c -0.64,-2.24 -1.28,-4.52 -2.04,-6.68 l -3.68,-10.72 -6.08,0 8.4,21.96 z m 19.318,-10.96 c 0,7.28 5.32,11.48 12.08,11.48 3.04,0 6.2,-1 8.64,-2.52 l -2,-3.68 c -1.96,1 -3.76,1.56 -5.8,1.56 -3.52,0 -6.32,-1.64 -6.72,-5.12 l 15.2,0 c 0.08,-0.52 0.24,-1.64 0.24,-2.76 0,-5.96 -3.6,-10.48 -10.28,-10.48 -5.8,0 -11.36,4.32 -11.36,11.52 z m 6.16,-2.32 c 0.52,-3.08 2.76,-4.56 5.36,-4.56 3.12,0 4.6,1.76 4.6,4.56 l -9.96,0 z m 20.96,13.28 4.88,0 0,-10.6 c 0,-3 -0.48,-9.44 -0.76,-12.4 l 0.16,0 2.12,7.64 2.52,7.6 2.76,0 2.52,-7.6 2.2,-7.64 0.12,0 c -0.28,2.96 -0.8,9.4 -0.8,12.4 l 0,10.6 5,0 0,-29 -6.16,0 -3.04,10.64 -1.04,4.12 -0.12,0 -1.08,-4.12 -3.12,-10.64 -6.16,0 0,29 z m 26.318,-10.96 c 0,7.28 5.32,11.48 12.08,11.48 3.04,0 6.2,-1 8.64,-2.52 l -2,-3.68 c -1.96,1 -3.76,1.56 -5.8,1.56 -3.52,0 -6.32,-1.64 -6.72,-5.12 l 15.2,0 c 0.08,-0.52 0.24,-1.64 0.24,-2.76 0,-5.96 -3.6,-10.48 -10.28,-10.48 -5.8,0 -11.36,4.32 -11.36,11.52 z m 6.16,-2.32 c 0.52,-3.08 2.76,-4.56 5.36,-4.56 3.12,0 4.6,1.76 4.6,4.56 l -9.96,0 z m 19.76,13.28 5.72,0 0,-15 c 0.68,-1.56 1.32,-2.32 2.24,-2.32 0.96,0 1.48,0.76 1.48,2.32 l 0,15 4.64,0 0,-15 c 0.68,-1.56 1.44,-2.32 2.36,-2.32 1,0 1.4,0.76 1.4,2.32 l 0,15 5.72,0 0,-15.44 c 0,-4.4 -1.8,-7.04 -4.88,-7.04 -2.44,0 -4,1.6 -4.88,3.6 -0.48,-2.36 -1.92,-3.6 -3.88,-3.6 -2.52,0 -3.84,1.44 -4.76,3.32 l -0.16,0 -0.44,-2.8 -4.56,0 0,21.96 z M 827.4,222.08 c 0,7.28 5.32,11.48 11.12,11.48 5.8,0 11.12,-4.2 11.12,-11.48 0,-7.32 -5.32,-11.52 -11.12,-11.52 -5.8,0 -11.12,4.2 -11.12,11.52 z m 6.2,0 c 0,-4 1.72,-6.64 4.92,-6.64 3.2,0 4.92,2.64 4.92,6.64 0,4 -1.72,6.6 -4.92,6.6 -3.2,0 -4.92,-2.6 -4.92,-6.6 z m 23.68,10.96 6.04,0 0,-11.64 c 2,-4.08 4.88,-5.52 7.68,-5.52 1.6,0 2.52,0.24 3.92,0.68 l 1.24,-5.12 c -1.28,-0.56 -2.36,-0.88 -4.24,-0.88 -3.6,0 -6.88,1.84 -9.04,5.4 l -0.16,0 -0.48,-4.88 -4.96,0 0,21.96 z m 25.44,3.64 -1.12,4.64 c 0.92,0.28 2.04,0.44 3.28,0.44 5.48,0 8.08,-2.92 10.16,-8.24 l 8.8,-22.44 -5.72,0 -3.48,9.88 c -0.68,2.12 -1.44,4.4 -2.08,6.56 l -0.16,0 c -0.76,-2.28 -1.48,-4.52 -2.28,-6.56 l -3.96,-9.88 -6,0 9.6,21.48 -0.44,1.24 c -0.8,1.88 -2.24,3.16 -4.84,3.16 -0.6,0 -1.2,-0.08 -1.76,-0.28 z m 26.798,-3.64 6.28,0 1.96,-9.6 c 0.4,-1.84 0.68,-3.76 0.88,-5.52 l 0.12,0 c 0.16,1.76 0.48,3.68 0.84,5.52 l 2.08,9.6 6.4,0 3.72,-29 -5.76,0 -1.12,15.92 c -0.08,2.36 -0.16,4.84 -0.24,7.32 l -0.16,0 c -0.48,-2.48 -1.16,-4.96 -1.6,-7.32 l -2.12,-8.52 -3.72,0 -2.2,8.52 c -0.48,2.4 -1.12,4.88 -1.56,7.32 l -0.16,0 c -0.08,-2.44 -0.2,-4.88 -0.28,-7.32 l -1.08,-15.92 -6.2,0 3.92,29 z M 934.956,227 c 0,3.76 2.84,6.56 7.24,6.56 2.88,0 5.68,-1.4 7.92,-3.08 l 0.16,0 0.44,2.56 4.96,0 0,-12.72 c 0,-6.52 -3.6,-9.76 -9.72,-9.76 -3.76,0 -7.32,1.28 -10.2,3 l 2.16,3.96 c 2.4,-1.24 4.64,-2.12 6.84,-2.12 3.16,0 4.68,1.4 4.88,3.52 -10.52,0.72 -14.68,3.16 -14.68,8.08 z m 5.8,-0.44 c 0,-2.08 1.92,-3.52 8.88,-3.92 l 0,3.96 c -1.72,1.32 -3.52,2.28 -5.56,2.28 -1.96,0 -3.32,-0.76 -3.32,-2.32 z m 23.4,6.48 6.04,0 0,-11.64 c 2,-4.08 4.88,-5.52 7.68,-5.52 1.6,0 2.52,0.24 3.92,0.68 l 1.24,-5.12 c -1.28,-0.56 -2.36,-0.88 -4.24,-0.88 -3.6,0 -6.88,1.84 -9.04,5.4 l -0.16,0 -0.48,-4.88 -4.96,0 0,21.96 z m 24.718,0 6.04,0 0,-14.76 c 1.72,-1.68 2.96,-2.56 4.88,-2.56 2.56,0 3.52,1.4 3.52,4.56 l 0,12.76 6.04,0 0,-13.56 c 0,-5.6 -2.24,-8.92 -7.2,-8.92 -3.32,0 -5.76,1.64 -7.72,3.6 l -0.16,0 -0.48,-3.08 -4.92,0 0,21.96 z m 26.92,-17.2 9.08,0 0,17.2 6.04,0 0,-21.96 -15.12,0 0,4.76 z m 11.8,-8.2 c 2.36,0 4.08,-1.48 4.08,-3.76 0,-2.28 -1.72,-3.88 -4.08,-3.88 -2.4,0 -4.12,1.6 -4.12,3.88 0,2.28 1.72,3.76 4.12,3.76 z m 14.716,25.4 6.04,0 0,-14.76 c 1.72,-1.68 2.96,-2.56 4.88,-2.56 2.56,0 3.52,1.4 3.52,4.56 l 0,12.76 6.04,0 0,-13.56 c 0,-5.6 -2.24,-8.92 -7.2,-8.92 -3.32,0 -5.76,1.64 -7.72,3.6 l -0.16,0 -0.48,-3.08 -4.92,0 0,21.96 z m 30.76,2.88 c 0,-0.88 0.52,-1.64 1.76,-2.4 0.84,0.2 1.84,0.32 3.36,0.32 l 3.04,0 c 2.6,0 4,0.32 4,1.84 0,1.64 -2.52,3 -6.28,3 -3.68,0 -5.88,-1.04 -5.88,-2.76 z m -4.96,0.88 c 0,3.92 4.16,5.72 10,5.72 7.88,0 12.92,-3.36 12.92,-7.88 0,-3.88 -3.08,-5.52 -8.84,-5.52 l -4.2,0 c -2.6,0 -3.84,-0.52 -3.84,-1.76 0,-0.8 0.36,-1.28 1.08,-1.76 1.16,0.32 2.2,0.52 3.16,0.52 5,0 8.92,-2.44 8.92,-7.44 0,-1.28 -0.52,-2.44 -1.12,-3.16 l 4.68,0 0,-4.44 -8.96,0 c -1,-0.36 -2.24,-0.52 -3.52,-0.52 -4.96,0 -9.28,2.76 -9.28,7.96 0,2.56 1.28,4.52 2.88,5.64 l 0,0.16 c -1.6,1.08 -2.64,2.68 -2.64,4.16 0,1.8 1,2.96 2.2,3.68 l 0,0.16 c -2.24,1.16 -3.44,2.72 -3.44,4.48 z m 10.28,-14.44 c -1.96,0 -3.56,-1.36 -3.56,-3.84 0,-2.44 1.6,-3.88 3.56,-3.88 1.96,0 3.6,1.44 3.6,3.88 0,2.48 -1.64,3.84 -3.6,3.84 z m 31.72,18.6 3.36,-2.72 c -5.44,-5.12 -7.76,-10.48 -7.76,-17.56 0,-7.08 2.32,-12.4 7.76,-17.52 l -3.36,-2.72 c -5.84,5.04 -9.48,11.88 -9.48,20.24 0,8.4 3.64,15.24 9.48,20.28 z m 17.918,0 c 5.88,-5.04 9.48,-11.88 9.48,-20.28 0,-8.36 -3.6,-15.2 -9.48,-20.24 l -3.36,2.72 c 5.44,5.12 7.76,10.44 7.76,17.52 0,7.08 -2.32,12.44 -7.76,17.56 l 3.36,2.72 z m 55.037,-7.4 c 0,4.76 2.56,6.24 8.24,6.24 l 3.32,0 0,-3.24 -1.92,0 c -3.84,0 -4.68,-0.72 -4.68,-3.28 0,-2.44 0.2,-4.64 0.2,-7.36 0,-3.28 -1.2,-4.6 -4.36,-5.12 l 0,-0.2 c 3.16,-0.52 4.36,-1.84 4.36,-5.12 0,-2.64 -0.2,-5 -0.2,-7.36 0,-2.56 0.84,-3.28 4.68,-3.28 l 1.92,0 0,-3.24 -3.32,0 c -5.68,0 -8.24,1.48 -8.24,6.24 0,3.12 0.44,5 0.44,7.76 0,1.6 -1.32,3.24 -6.16,3.32 l 0,3.56 c 4.84,0.08 6.16,1.72 6.16,3.32 0,2.84 -0.44,4.6 -0.44,7.76 z"
         style="-inkscape-font-specification:'Source Han Code JP Bold'"
         id="path14"
         inkscape:connector-curvature="0" />
      <path
         d="m 213.19,280.2 c 2.72,1.84 6.72,3.36 10.72,3.36 6.88,0 10.64,-3.08 10.64,-6.96 0,-3.76 -3.6,-5.4 -8.2,-6.6 -3.28,-0.84 -5.8,-1.56 -5.8,-2.96 0,-1.24 1.08,-1.96 4.04,-1.96 2.4,0 4.56,0.88 6.56,2.12 l 2.72,-3.68 c -2.28,-1.44 -5.56,-2.96 -9.36,-2.96 -6.28,0 -10,2.76 -10,6.76 0,3.44 3.96,5.28 7.92,6.4 3.84,1 6.08,1.84 6.08,3.2 0,1.28 -1.32,2.12 -4.44,2.12 -3.12,0 -5.64,-1 -8.16,-2.64 l -2.72,3.8 z m 47.36,-19.12 -6.04,0 0,14.56 c -1.64,2.08 -2.92,2.76 -4.72,2.76 -2.6,0 -3.48,-1.4 -3.48,-4.52 l 0,-12.8 -6.04,0 0,13.56 c 0,5.6 2.16,8.92 7.2,8.92 3.16,0 5.52,-1.52 7.48,-3.8 l 0.2,0 0.44,3.28 4.96,0 0,-21.96 z m 12.757,20.04 c 1.68,1.56 3.68,2.44 5.64,2.44 5,0 9.6,-4.28 9.6,-11.84 0,-6.76 -3.28,-11.16 -8.84,-11.16 -2.4,0 -4.92,1.2 -6.72,2.84 l -0.12,0 -0.48,-2.32 -4.92,0 0,30.28 6.04,0 0,-6.6 -0.2,-3.64 z m 0.2,-4.16 0,-9.2 c 1.52,-1.6 2.96,-2.24 4.48,-2.24 3,0 4.36,2.2 4.36,6.28 0,4.68 -2.08,6.8 -4.72,6.8 -1.2,0 -2.76,-0.44 -4.12,-1.64 z m 19.88,-4.88 c 0,7.28 5.32,11.48 12.08,11.48 3.04,0 6.2,-1 8.64,-2.52 l -2,-3.68 c -1.96,1 -3.76,1.56 -5.8,1.56 -3.52,0 -6.32,-1.64 -6.72,-5.12 l 15.2,0 c 0.08,-0.52 0.24,-1.64 0.24,-2.76 0,-5.96 -3.6,-10.48 -10.28,-10.48 -5.8,0 -11.36,4.32 -11.36,11.52 z m 6.16,-2.32 c 0.52,-3.08 2.76,-4.56 5.36,-4.56 3.12,0 4.6,1.76 4.6,4.56 l -9.96,0 z m 23.358,13.28 6.04,0 0,-11.64 c 2,-4.08 4.88,-5.52 7.68,-5.52 1.6,0 2.52,0.24 3.92,0.68 l 1.24,-5.12 c -1.28,-0.56 -2.36,-0.88 -4.24,-0.88 -3.6,0 -6.88,1.84 -9.04,5.4 l -0.16,0 -0.48,-4.88 -4.96,0 0,21.96 z"
         style="-inkscape-font-specification:'Source Han Code JP Bold';fill:#c09090"
         id="path16"
         inkscape:connector-curvature="0" />
      <path
         d="m 352.704,278.6 c 0,2.84 2,4.96 4.88,4.96 2.88,0 4.88,-2.12 4.88,-4.96 0,-2.8 -2,-4.96 -4.88,-4.96 -2.88,0 -4.88,2.16 -4.88,4.96 z m 20.48,-6.52 c 0,7.2 3.68,11.48 9.32,11.48 2.28,0 4.6,-1.24 6.24,-2.88 l 0.12,0 0.48,2.36 4.92,0 0,-31.2 -6.04,0 0,7.64 0.24,3.52 c -1.64,-1.48 -3.28,-2.44 -5.8,-2.44 -4.84,0 -9.48,4.32 -9.48,11.52 z m 6.2,-0.08 c 0,-4.28 2.2,-6.48 4.8,-6.48 1.4,0 2.72,0.44 4.04,1.64 l 0,9.2 c -1.28,1.6 -2.64,2.24 -4.24,2.24 -2.88,0 -4.6,-2.12 -4.6,-6.6 z m 21.876,-6.16 9.08,0 0,17.2 6.04,0 0,-21.96 -15.12,0 0,4.76 z m 11.8,-8.2 c 2.36,0 4.08,-1.48 4.08,-3.76 0,-2.28 -1.72,-3.88 -4.08,-3.88 -2.4,0 -4.12,1.6 -4.12,3.88 0,2.28 1.72,3.76 4.12,3.76 z m 13.56,14.44 c 0,7.2 3.68,11.48 9.32,11.48 2.28,0 4.6,-1.24 6.24,-2.88 l 0.12,0 0.48,2.36 4.92,0 0,-31.2 -6.04,0 0,7.64 0.24,3.52 c -1.64,-1.48 -3.28,-2.44 -5.8,-2.44 -4.84,0 -9.48,4.32 -9.48,11.52 z m 6.2,-0.08 c 0,-4.28 2.2,-6.48 4.8,-6.48 1.4,0 2.72,0.44 4.04,1.64 l 0,9.2 c -1.28,1.6 -2.64,2.24 -4.24,2.24 -2.88,0 -4.6,-2.12 -4.6,-6.6 z m 27.68,-13.12 3.52,0 c 3.6,0 5.56,1.04 5.56,4.08 0,3 -1.96,4.52 -5.56,4.52 l -3.52,0 0,-8.6 z m 16.36,24.16 -6.68,-11.72 c 3.2,-1.36 5.36,-4.04 5.36,-8.36 0,-6.76 -4.92,-8.92 -11,-8.92 l -10.08,0 0,29 6.04,0 0,-10.72 3.76,0 5.76,10.72 6.84,0 z m 3.558,-10.96 c 0,7.28 5.32,11.48 12.08,11.48 3.04,0 6.2,-1 8.64,-2.52 l -2,-3.68 c -1.96,1 -3.76,1.56 -5.8,1.56 -3.52,0 -6.32,-1.64 -6.72,-5.12 l 15.2,0 c 0.08,-0.52 0.24,-1.64 0.24,-2.76 0,-5.96 -3.6,-10.48 -10.28,-10.48 -5.8,0 -11.36,4.32 -11.36,11.52 z m 6.16,-2.32 c 0.52,-3.08 2.76,-4.56 5.36,-4.56 3.12,0 4.6,1.76 4.6,4.56 l -9.96,0 z m 21.078,2.32 c 0,7.28 5.28,11.48 12.2,11.48 3.04,0 6.36,-1.04 9,-3.28 l -2.48,-3.8 c -1.64,1.16 -3.6,2.2 -6,2.2 -3.84,0 -6.52,-2.6 -6.52,-6.6 0,-4 2.76,-6.64 6.72,-6.64 1.8,0 3.36,0.64 5.04,1.92 l 2.84,-3.8 c -1.84,-1.72 -4.68,-3 -8.2,-3 -6.72,0 -12.6,4.2 -12.6,11.52 z m 26.2,0 c 0,7.28 5.32,11.48 12.08,11.48 3.04,0 6.2,-1 8.64,-2.52 l -2,-3.68 c -1.96,1 -3.76,1.56 -5.8,1.56 -3.52,0 -6.32,-1.64 -6.72,-5.12 l 15.2,0 c 0.08,-0.52 0.24,-1.64 0.24,-2.76 0,-5.96 -3.6,-10.48 -10.28,-10.48 -5.8,0 -11.36,4.32 -11.36,11.52 z m 6.16,-2.32 c 0.52,-3.08 2.76,-4.56 5.36,-4.56 3.12,0 4.6,1.76 4.6,4.56 l -9.96,0 z m 21.558,-3.92 9.08,0 0,17.2 6.04,0 0,-21.96 -15.12,0 0,4.76 z m 11.8,-8.2 c 2.36,0 4.08,-1.48 4.08,-3.76 0,-2.28 -1.72,-3.88 -4.08,-3.88 -2.4,0 -4.12,1.6 -4.12,3.88 0,2.28 1.72,3.76 4.12,3.76 z m 21.32,25.4 6.92,0 8.2,-21.96 -5.76,0 -3.72,10.72 c -0.72,2.16 -1.36,4.44 -2.04,6.68 l -0.2,0 c -0.64,-2.24 -1.28,-4.52 -2.04,-6.68 l -3.68,-10.72 -6.08,0 8.4,21.96 z m 19.316,-10.96 c 0,7.28 5.32,11.48 12.08,11.48 3.04,0 6.2,-1 8.64,-2.52 l -2,-3.68 c -1.96,1 -3.76,1.56 -5.8,1.56 -3.52,0 -6.32,-1.64 -6.72,-5.12 l 15.2,0 c 0.08,-0.52 0.24,-1.64 0.24,-2.76 0,-5.96 -3.6,-10.48 -10.28,-10.48 -5.8,0 -11.36,4.32 -11.36,11.52 z m 6.16,-2.32 c 0.52,-3.08 2.76,-4.56 5.36,-4.56 3.12,0 4.6,1.76 4.6,4.56 l -9.96,0 z m 20.96,13.28 4.88,0 0,-10.6 c 0,-3 -0.48,-9.44 -0.76,-12.4 l 0.16,0 2.12,7.64 2.52,7.6 2.76,0 2.52,-7.6 2.2,-7.64 0.12,0 c -0.28,2.96 -0.8,9.4 -0.8,12.4 l 0,10.6 5,0 0,-29 -6.16,0 -3.04,10.64 -1.04,4.12 -0.12,0 -1.08,-4.12 -3.12,-10.64 -6.16,0 0,29 z m 26.32,-10.96 c 0,7.28 5.32,11.48 12.08,11.48 3.04,0 6.2,-1 8.64,-2.52 l -2,-3.68 c -1.96,1 -3.76,1.56 -5.8,1.56 -3.52,0 -6.32,-1.64 -6.72,-5.12 l 15.2,0 c 0.08,-0.52 0.24,-1.64 0.24,-2.76 0,-5.96 -3.6,-10.48 -10.28,-10.48 -5.8,0 -11.36,4.32 -11.36,11.52 z m 6.16,-2.32 c 0.52,-3.08 2.76,-4.56 5.36,-4.56 3.12,0 4.6,1.76 4.6,4.56 l -9.96,0 z m 19.758,13.28 5.72,0 0,-15 c 0.68,-1.56 1.32,-2.32 2.24,-2.32 0.96,0 1.48,0.76 1.48,2.32 l 0,15 4.64,0 0,-15 c 0.68,-1.56 1.44,-2.32 2.36,-2.32 1,0 1.4,0.76 1.4,2.32 l 0,15 5.72,0 0,-15.44 c 0,-4.4 -1.8,-7.04 -4.88,-7.04 -2.44,0 -4,1.6 -4.88,3.6 -0.48,-2.36 -1.92,-3.6 -3.88,-3.6 -2.52,0 -3.84,1.44 -4.76,3.32 l -0.16,0 -0.44,-2.8 -4.56,0 0,21.96 z m 27.158,-10.96 c 0,7.28 5.32,11.48 11.12,11.48 5.8,0 11.12,-4.2 11.12,-11.48 0,-7.32 -5.32,-11.52 -11.12,-11.52 -5.8,0 -11.12,4.2 -11.12,11.52 z m 6.2,0 c 0,-4 1.72,-6.64 4.92,-6.64 3.2,0 4.92,2.64 4.92,6.64 0,4 -1.72,6.6 -4.92,6.6 -3.2,0 -4.92,-2.6 -4.92,-6.6 z m 23.68,10.96 6.04,0 0,-11.64 c 2,-4.08 4.88,-5.52 7.68,-5.52 1.6,0 2.52,0.24 3.92,0.68 l 1.24,-5.12 c -1.28,-0.56 -2.36,-0.88 -4.24,-0.88 -3.6,0 -6.88,1.84 -9.04,5.4 l -0.16,0 -0.48,-4.88 -4.96,0 0,21.96 z m 25.438,3.64 -1.12,4.64 c 0.92,0.28 2.04,0.44 3.28,0.44 5.48,0 8.08,-2.92 10.16,-8.24 l 8.8,-22.44 -5.72,0 -3.48,9.88 c -0.68,2.12 -1.44,4.4 -2.08,6.56 l -0.16,0 c -0.76,-2.28 -1.48,-4.52 -2.28,-6.56 l -3.96,-9.88 -6,0 9.6,21.48 -0.44,1.24 c -0.8,1.88 -2.24,3.16 -4.84,3.16 -0.6,0 -1.2,-0.08 -1.76,-0.28 z m 26.8,-3.64 6.28,0 1.96,-9.6 c 0.4,-1.84 0.68,-3.76 0.88,-5.52 l 0.12,0 c 0.16,1.76 0.48,3.68 0.84,5.52 l 2.08,9.6 6.4,0 3.72,-29 -5.76,0 -1.12,15.92 c -0.08,2.36 -0.16,4.84 -0.24,7.32 l -0.16,0 c -0.48,-2.48 -1.16,-4.96 -1.6,-7.32 l -2.12,-8.52 -3.72,0 -2.2,8.52 c -0.48,2.4 -1.12,4.88 -1.56,7.32 l -0.16,0 c -0.08,-2.44 -0.2,-4.88 -0.28,-7.32 l -1.08,-15.92 -6.2,0 3.92,29 z M 828.08,277 c 0,3.76 2.84,6.56 7.24,6.56 2.88,0 5.68,-1.4 7.92,-3.08 l 0.16,0 0.44,2.56 4.96,0 0,-12.72 c 0,-6.52 -3.6,-9.76 -9.72,-9.76 -3.76,0 -7.32,1.28 -10.2,3 l 2.16,3.96 c 2.4,-1.24 4.64,-2.12 6.84,-2.12 3.16,0 4.68,1.4 4.88,3.52 -10.52,0.72 -14.68,3.16 -14.68,8.08 z m 5.8,-0.44 c 0,-2.08 1.92,-3.52 8.88,-3.92 l 0,3.96 c -1.72,1.32 -3.52,2.28 -5.56,2.28 -1.96,0 -3.32,-0.76 -3.32,-2.32 z m 23.4,6.48 6.04,0 0,-11.64 c 2,-4.08 4.88,-5.52 7.68,-5.52 1.6,0 2.52,0.24 3.92,0.68 l 1.24,-5.12 c -1.28,-0.56 -2.36,-0.88 -4.24,-0.88 -3.6,0 -6.88,1.84 -9.04,5.4 l -0.16,0 -0.48,-4.88 -4.96,0 0,21.96 z m 24.72,0 6.04,0 0,-14.76 c 1.72,-1.68 2.96,-2.56 4.88,-2.56 2.56,0 3.52,1.4 3.52,4.56 l 0,12.76 6.04,0 0,-13.56 c 0,-5.6 -2.24,-8.92 -7.2,-8.92 -3.32,0 -5.76,1.64 -7.72,3.6 l -0.16,0 -0.48,-3.08 -4.92,0 0,21.96 z m 26.918,-17.2 9.08,0 0,17.2 6.04,0 0,-21.96 -15.12,0 0,4.76 z m 11.8,-8.2 c 2.36,0 4.08,-1.48 4.08,-3.76 0,-2.28 -1.72,-3.88 -4.08,-3.88 -2.4,0 -4.12,1.6 -4.12,3.88 0,2.28 1.72,3.76 4.12,3.76 z m 14.718,25.4 6.04,0 0,-14.76 c 1.72,-1.68 2.96,-2.56 4.88,-2.56 2.56,0 3.52,1.4 3.52,4.56 l 0,12.76 6.04,0 0,-13.56 c 0,-5.6 -2.24,-8.92 -7.2,-8.92 -3.32,0 -5.76,1.64 -7.72,3.6 l -0.16,0 -0.48,-3.08 -4.92,0 0,21.96 z m 30.76,2.88 c 0,-0.88 0.52,-1.64 1.76,-2.4 0.84,0.2 1.84,0.32 3.36,0.32 l 3.04,0 c 2.6,0 4,0.32 4,1.84 0,1.64 -2.52,3 -6.28,3 -3.68,0 -5.88,-1.04 -5.88,-2.76 z m -4.96,0.88 c 0,3.92 4.16,5.72 10,5.72 7.88,0 12.92,-3.36 12.92,-7.88 0,-3.88 -3.08,-5.52 -8.84,-5.52 l -4.2,0 c -2.6,0 -3.84,-0.52 -3.84,-1.76 0,-0.8 0.36,-1.28 1.08,-1.76 1.16,0.32 2.2,0.52 3.16,0.52 5,0 8.92,-2.44 8.92,-7.44 0,-1.28 -0.52,-2.44 -1.12,-3.16 l 4.68,0 0,-4.44 -8.96,0 c -1,-0.36 -2.24,-0.52 -3.52,-0.52 -4.96,0 -9.28,2.76 -9.28,7.96 0,2.56 1.28,4.52 2.88,5.64 l 0,0.16 c -1.6,1.08 -2.64,2.68 -2.64,4.16 0,1.8 1,2.96 2.2,3.68 l 0,0.16 c -2.24,1.16 -3.44,2.72 -3.44,4.48 z m 10.28,-14.44 c -1.96,0 -3.56,-1.36 -3.56,-3.84 0,-2.44 1.6,-3.88 3.56,-3.88 1.96,0 3.6,1.44 3.6,3.88 0,2.48 -1.64,3.84 -3.6,3.84 z m 31.718,18.6 3.36,-2.72 c -5.44,-5.12 -7.76,-10.48 -7.76,-17.56 0,-7.08 2.32,-12.4 7.76,-17.52 l -3.36,-2.72 c -5.84,5.04 -9.48,11.88 -9.48,20.24 0,8.4 3.64,15.24 9.48,20.28 z m 17.92,0 c 5.88,-5.04 9.48,-11.88 9.48,-20.28 0,-8.36 -3.6,-15.2 -9.48,-20.24 l -3.36,2.72 c 5.44,5.12 7.76,10.44 7.76,17.52 0,7.08 -2.32,12.44 -7.76,17.56 l 3.36,2.72 z m -912.76,45.6 0,3.24 3.32,0 c 5.68,0 8.24,-1.48 8.24,-6.24 0,-3.16 -0.48,-4.92 -0.48,-7.76 0,-1.6 1.32,-3.24 6.16,-3.32 l 0,-3.56 c -4.84,-0.08 -6.16,-1.72 -6.16,-3.32 0,-2.76 0.48,-4.64 0.48,-7.76 0,-4.76 -2.56,-6.24 -8.24,-6.24 l -3.32,0 0,3.24 1.92,0 c 3.8,0 4.64,0.72 4.64,3.28 0,2.36 -0.16,4.72 -0.16,7.36 0,3.28 1.2,4.6 4.36,5.12 l 0,0.2 c -3.16,0.52 -4.36,1.84 -4.36,5.12 0,2.72 0.16,4.92 0.16,7.36 0,2.56 -0.84,3.28 -4.64,3.28 l -1.92,0 z m -106.874,50 0,3.24 3.32,0 c 5.68,0 8.24,-1.48 8.24,-6.24 0,-3.16 -0.48,-4.92 -0.48,-7.76 0,-1.6 1.32,-3.24 6.16,-3.32 l 0,-3.56 c -4.84,-0.08 -6.16,-1.72 -6.16,-3.32 0,-2.76 0.48,-4.64 0.48,-7.76 0,-4.76 -2.56,-6.24 -8.24,-6.24 l -3.32,0 0,3.24 1.92,0 c 3.8,0 4.64,0.72 4.64,3.28 0,2.36 -0.16,4.72 -0.16,7.36 0,3.28 1.2,4.6 4.36,5.12 l 0,0.2 c -3.16,0.52 -4.36,1.84 -4.36,5.12 0,2.72 0.16,4.92 0.16,7.36 0,2.56 -0.84,3.28 -4.64,3.28 l -1.92,0 z"
         style="-inkscape-font-specification:'Source Han Code JP Bold'"
         id="path18"
         inkscape:connector-curvature="0" />
    </g>
    <path
       d="m 180.292,115.61 c 0,10.628 8.57,19.27 13.885,19.347 l 693.583,0.136 c 6.588,0.058 15.542,-8.614 15.542,-19.31 0,-10.7 -8.954,-19.37 -15.226,-19.34 L 195.75,96.353 c -6.783,-0.118 -15.458,8.556 -15.458,19.257 z"
       id="path20"
       inkscape:connector-curvature="0"
       style="fill:#909060" />
  </g>
</svg>
