<?xml version="1.0" encoding="UTF-8" standalone="no"?>
<!-- Created with Inkscape (http://www.inkscape.org/) -->

<svg
   xmlns:dc="http://purl.org/dc/elements/1.1/"
   xmlns:cc="http://creativecommons.org/ns#"
   xmlns:rdf="http://www.w3.org/1999/02/22-rdf-syntax-ns#"
   xmlns:svg="http://www.w3.org/2000/svg"
   xmlns="http://www.w3.org/2000/svg"
   xmlns:sodipodi="http://sodipodi.sourceforge.net/DTD/sodipodi-0.dtd"
   xmlns:inkscape="http://www.inkscape.org/namespaces/inkscape"
   width="213.23636mm"
   height="27.458611mm"
   viewBox="0 0 755.5619 97.294289"
   id="svg2"
   version="1.1"
   inkscape:version="0.91 r13725"
   sodipodi:docname="NowLoading.svg">
  <defs
     id="defs4" />
  <sodipodi:namedview
     id="base"
     pagecolor="#ffffff"
     bordercolor="#666666"
     borderopacity="1.0"
     inkscape:pageopacity="0.0"
     inkscape:pageshadow="2"
     inkscape:zoom="0.35"
     inkscape:cx="94.092049"
     inkscape:cy="-267.81813"
     inkscape:document-units="px"
     inkscape:current-layer="layer1"
     showgrid="false"
     fit-margin-top="0"
     fit-margin-left="0"
     fit-margin-right="0"
     fit-margin-bottom="0"
     inkscape:window-width="1474"
     inkscape:window-height="841"
     inkscape:window-x="54"
     inkscape:window-y="-8"
     inkscape:window-maximized="1" />
  <metadata
     id="metadata7">
    <rdf:RDF>
      <cc:Work
         rdf:about="">
        <dc:format>image/svg+xml</dc:format>
        <dc:type
           rdf:resource="http://purl.org/dc/dcmitype/StillImage" />
        <dc:title></dc:title>
      </cc:Work>
    </rdf:RDF>
  </metadata>
  <g
     inkscape:label="レイヤー 1"
     inkscape:groupmode="layer"
     id="layer1"
     transform="translate(67.087598,-191.93739)">
    <g
       style="font-style:normal;font-weight:normal;font-size:40px;line-height:125%;font-family:sans-serif;letter-spacing:0px;word-spacing:0px;fill:#000000;fill-opacity:1;stroke:none;stroke-width:1px;stroke-linecap:butt;stroke-linejoin:miter;stroke-opacity:1"
       id="flowRoot4140">
      <path
         d="m -67.087598,278.32754 13.050007,0 c 0,0 0.243692,-23.06999 0.627629,-34.59824 0.335339,-10.06903 1.463619,-30.18838 1.463619,-30.18838 0,0 9.661156,14.63092 12.900458,22.45107 4.874239,11.36917 12.172857,36.07286 12.172857,36.07286 l 14.574286,1.07143 4.2931478,-74.52521 -13.0499998,0 c 0,0 0.722648,16.61624 0.757615,24.93 0.03643,8.66089 -0.570763,25.97663 -0.570763,25.97663 0,0 -4.812963,-5.92657 -8.62,-14.84428 -5.111969,-12.76001 -16.989029,-39.5725 -16.989029,-39.5725 l -18.502857,0.71429 z"
         style="font-style:normal;font-variant:normal;font-weight:bold;font-stretch:normal;font-size:90px;font-family:'Source Han Code JP';-inkscape-font-specification:'Source Han Code JP Bold';fill:#ffffff;fill-opacity:0.78431373"
         id="path4149"
         inkscape:connector-curvature="0"
         sodipodi:nodetypes="ccaccccccaccccc" />
      <path
         d="m -0.24155421,245.26199 c 0,16.38 11.97000021,25.83 25.02000021,25.83 13.05,0 25.02,-9.45 25.02,-25.83 0,-16.47 -11.97,-25.92 -25.02,-25.92 -13.05,0 -25.02000021,9.45 -25.02000021,25.92 z m 13.95000021,0 c 0,-9 3.87,-14.94 11.07,-14.94 7.2,0 11.069999,5.94 11.069999,14.94 0,9 -3.869999,14.85 -11.069999,14.85 -7.2,0 -11.07,-5.85 -11.07,-14.85 z"
         style="font-style:normal;font-variant:normal;font-weight:bold;font-stretch:normal;font-size:90px;font-family:'Source Han Code JP';-inkscape-font-specification:'Source Han Code JP Bold';fill:#ffffff;fill-opacity:0.78431373"
         id="path4151"
         inkscape:connector-curvature="0" />
      <path
         d="m 64.015633,269.92199 15.57,0 3.15,-17.82 c 0.99,-6.57 2.955229,-13.32538 3.495229,-17.01538 l 0.36,0 c 0.72,5.22 1.37365,11.33524 1.943731,17.01538 0.714725,7.12135 1.85104,21.39143 1.85104,21.39143 l 15.929997,0 4.81701,-56.26443 -12.420003,0 c 0,0 -0.07314,17.19772 -0.540819,25.78031 -0.288452,5.29351 -0.676185,10.89269 -1.396185,15.84269 l -0.36,0 c -0.81,-4.95 -1.911034,-9.69247 -2.61,-14.58 -0.961343,-6.72221 -2.174771,-20.25538 -2.174771,-20.25538 l -9.72,0 -5.115229,20.25538 c -1.08,4.68 -1.8,9.63 -2.43,14.58 l -0.36,0 c -0.63,-4.95 -0.99,-9.63 -1.71,-14.58 l -3.51,-23.76 -13.41,0 z"
         style="font-style:normal;font-variant:normal;font-weight:bold;font-stretch:normal;font-size:90px;font-family:'Source Han Code JP';-inkscape-font-specification:'Source Han Code JP Bold';fill:#ffffff;fill-opacity:0.78431373"
         id="path4153"
         inkscape:connector-curvature="0"
         sodipodi:nodetypes="cccccaccccaccaccccccccc" />
      <path
         d="m 145.91391,267.90168 43.11,0 0,-11.52 -29.61,0 -4.64286,-64.44429 -13.5,0 z"
         style="font-style:normal;font-variant:normal;font-weight:bold;font-stretch:normal;font-size:90px;font-family:'Source Han Code JP';-inkscape-font-specification:'Source Han Code JP Bold';fill:#ffffff;fill-opacity:0.78431373"
         id="path4155"
         inkscape:connector-curvature="0"
         sodipodi:nodetypes="ccccccc" />
      <path
         d="m 199.82109,243.24168 c 0,16.38 11.97,25.83 25.02,25.83 13.05,0 25.02,-9.45 25.02,-25.83 0,-16.47 -11.97,-25.92 -25.02,-25.92 -13.05,0 -25.02,9.45 -25.02,25.92 z m 13.95,0 c 0,-9 3.87,-14.94 11.07,-14.94 7.2,0 11.07,5.94 11.07,14.94 0,9 -3.87,14.85 -11.07,14.85 -7.2,0 -11.07,-5.85 -11.07,-14.85 z"
         style="font-style:normal;font-variant:normal;font-weight:bold;font-stretch:normal;font-size:90px;font-family:'Source Han Code JP';-inkscape-font-specification:'Source Han Code JP Bold';fill:#ffffff;fill-opacity:0.78431373"
         id="path4157"
         inkscape:connector-curvature="0" />
      <path
         d="m 261.46828,254.31168 c -0.85174,7.27776 6.39,14.76 16.29,14.76 6.48,0 12.78,-3.15 17.82,-6.93 l 0.36,0 0.99,5.76 11.16,0 0,-28.62 c 0,-14.67 -8.1,-21.96 -21.87,-21.96 -8.46,0 -16.47,2.88 -22.95,6.75 l 4.86,8.91 c 5.4,-2.79 10.44,-4.77 15.39,-4.77 7.11,0 14.29303,4.85585 10.98,7.92 -4.55252,4.21054 -31.56915,5.69763 -33.03,18.18 z m 13.05,-0.99 c 0,-4.68 13.88071,-12.79466 19.98,-8.82 2.48829,1.62152 1.65441,6.44346 0,8.91 -2.51058,3.74299 -7.92,5.13 -12.51,5.13 -4.41,0 -7.47,-1.71 -7.47,-5.22 z"
         style="font-style:normal;font-variant:normal;font-weight:bold;font-stretch:normal;font-size:90px;font-family:'Source Han Code JP';-inkscape-font-specification:'Source Han Code JP Bold';fill:#ffffff;fill-opacity:0.78431373"
         id="path4159"
         inkscape:connector-curvature="0"
         sodipodi:nodetypes="asccccssccssasaass" />
      <path
         d="m 320.05547,243.24168 c 0,16.2 8.28,25.83 20.97,25.83 5.13,0 10.35,-2.79 14.04,-6.48 l 0.27,0 4.65143,8.16714 11.07,0 3.57143,-76.62857 -13.59,0 c 0,0 -4.3576,13.71299 -5.71429,20.76143 -0.50212,2.60868 -0.88857,7.92 -0.88857,7.92 -3.69,-3.33 -7.38,-5.49 -13.05,-5.49 -10.89,0 -21.33,9.72 -21.33,25.92 z m 13.95,-0.18 c 0,-9.63 4.95,-14.58 10.8,-14.58 3.15,0 7.26359,0.97743 9.09,3.69 3.85373,5.72353 3.56163,14.79028 0,20.7 -1.85643,3.08033 -5.94,5.04 -9.54,5.04 -6.48,0 -10.35,-4.77 -10.35,-14.85 z"
         style="font-style:normal;font-variant:normal;font-weight:bold;font-stretch:normal;font-size:90px;font-family:'Source Han Code JP';-inkscape-font-specification:'Source Han Code JP Bold';fill:#ffffff;fill-opacity:0.78431373"
         id="path4161"
         inkscape:connector-curvature="0"
         sodipodi:nodetypes="ssccccccacssssaass" />
      <path
         d="m 383.23266,229.20168 c 0,0 15.6146,-4.8154 20.43,0 9.12168,9.12168 0,38.7 0,38.7 l 13.59,0 0,-49.41 -34.02,0 z m 26.55,-18.45 c 5.31,0 9.18,-3.33 9.18,-8.46 0,-5.13 -3.87,-8.73 -9.18,-8.73 -5.4,0 -9.27,3.6 -9.27,8.73 0,5.13 3.87,8.46 9.27,8.46 z"
         style="font-style:normal;font-variant:normal;font-weight:bold;font-stretch:normal;font-size:90px;font-family:'Source Han Code JP';-inkscape-font-specification:'Source Han Code JP Bold';fill:#ffffff;fill-opacity:0.78431373"
         id="path4163"
         inkscape:connector-curvature="0"
         sodipodi:nodetypes="cscccccsssss" />
      <path
         d="m 442.89984,267.90168 13.59,0 c 0,0 -5.72786,-23.73706 0,-33.21 2.13852,-3.53677 6.66,-5.76 10.98,-5.76 5.76,0 7.92,3.15 7.92,10.26 l 0,28.71 13.59,0 0,-30.51 c 0,-12.6 -5.04,-20.07 -16.2,-20.07 -7.47,0 -12.96,3.69 -17.37,8.1 l -0.36,0 -1.08,-6.93 -11.07,0 z"
         style="font-style:normal;font-variant:normal;font-weight:bold;font-stretch:normal;font-size:90px;font-family:'Source Han Code JP';-inkscape-font-specification:'Source Han Code JP Bold';fill:#ffffff;fill-opacity:0.78431373"
         id="path4165"
         inkscape:connector-curvature="0"
         sodipodi:nodetypes="ccassccssccccc" />
      <path
         d="m 512.10703,274.38168 c 0,-1.98 1.17,-3.69 3.96,-5.4 1.89,0.45 4.14,0.72 7.56,0.72 l 6.84,0 c 5.85,0 9,0.72 9,4.14 0,3.69 -5.67,6.75 -14.13,6.75 -8.28,0 -13.23,-2.34 -13.23,-6.21 z m -11.16,1.98 c 0,8.82 9.36,12.87 22.5,12.87 17.73,0 31.1262,-0.31561 31.1262,-10.48561 0,-8.73 -8.9862,-19.66439 -21.9462,-19.66439 l -9.45,0 c -5.85,0 -8.64,-1.17 -8.64,-3.96 0,-1.8 0.81,-2.88 2.43,-3.96 2.61,0.72 4.95,1.17 7.11,1.17 11.25,0 20.07,-5.49 20.07,-16.74 0,-2.88 -3.09001,-4.661 -2.52,-7.11 0.73444,-3.15547 6.95857,-6.78571 6.95857,-6.78571 l 0,-9.99 -16.58857,6.78571 c -2.25,-0.81 -5.04,-1.17 -7.92,-1.17 -11.16,0 -20.88,6.21 -20.88,17.91 0,5.76 2.88,10.17 6.48,12.69 l 0,0.36 c -3.6,2.43 -5.94,6.03 -5.94,9.36 0,4.05 2.25,6.66 4.95,8.28 l 0,0.36 c -5.04,2.61 -7.74,6.12 -7.74,10.08 z m 23.13,-32.49 c -4.41,0 -8.01,-3.06 -8.01,-8.64 0,-5.49 3.6,-8.73 8.01,-8.73 4.41,0 8.1,3.24 8.1,8.73 0,5.58 -3.69,8.64 -8.1,8.64 z"
         style="font-style:normal;font-variant:normal;font-weight:bold;font-stretch:normal;font-size:90px;font-family:'Source Han Code JP';-inkscape-font-specification:'Source Han Code JP Bold';fill:#ffffff;fill-opacity:0.78431373"
         id="path4167"
         inkscape:connector-curvature="0"
         sodipodi:nodetypes="scssssssssssscssacccssccsccssssss" />
      <path
         d="m 574.56422,257.91168 c 0,6.39 4.5,11.16 10.98,11.16 6.48,0 10.98,-4.77 10.98,-11.16 0,-6.3 -4.5,-11.16 -10.98,-11.16 -6.48,0 -10.98,4.86 -10.98,11.16 z"
         style="font-style:normal;font-variant:normal;font-weight:bold;font-stretch:normal;font-size:90px;font-family:'Source Han Code JP';-inkscape-font-specification:'Source Han Code JP Bold';fill:#ffffff;fill-opacity:0.78431373"
         id="path4169"
         inkscape:connector-curvature="0" />
      <path
         d="m 618.51897,261.70719 c 0,6.39 4.5,11.16 10.98,11.16 6.48,0 10.98,-4.77 10.98,-11.16 0,-6.3 -4.5,-11.16 -10.98,-11.16 -6.48,0 -10.98,4.86 -10.98,11.16 z"
         style="font-style:normal;font-variant:normal;font-weight:bold;font-stretch:normal;font-size:90px;font-family:'Source Han Code JP';-inkscape-font-specification:'Source Han Code JP Bold';fill:#ffffff;fill-opacity:0.78431373"
         id="path4171"
         inkscape:connector-curvature="0" />
      <path
         d="m 666.51432,257.91168 c 0,6.39 4.5,11.16 10.98,11.16 6.48,0 10.98,-4.77 10.98,-11.16 0,-6.3 -4.5,-11.16 -10.98,-11.16 -6.48,0 -10.98,4.86 -10.98,11.16 z"
         style="font-style:normal;font-variant:normal;font-weight:bold;font-stretch:normal;font-size:90px;font-family:'Source Han Code JP';-inkscape-font-specification:'Source Han Code JP Bold';fill:#ffffff;fill-opacity:0.78431373"
         id="path4173"
         inkscape:connector-curvature="0" />
    </g>
  </g>
</svg>
