<svg xmlns="http://www.w3.org/2000/svg" width="242.85643mm" height="19.67692mm" viewBox="0 0 860.515 69.721">
  <path fill="none" stroke="#fff" stroke-opacity="0.58823529" stroke-width="5" d="M2.535 24.76S70.3 39.91 104.18 39.91c33.884 0 67.766-15.15 101.648-15.15 33.882 0 67.764 15.15 101.647 15.15 33.882 0 67.764-15.15 101.646-15.15 33.883 0 67.766 15.15 101.648 15.15 33.882 0 67.764-15.15 101.646-15.15 33.883 0 67.765 15.15 101.647 15.15 33.883 0 101.648-15.15 101.648-15.15" stroke-linecap="round"/>
  <path fill="#fff" fill-opacity="0.58823529" d="M807.208 16.32c-3.627 3.944-7.834 5.455-10.56 3.012-2.77-2.483-1.754-7.06 1.874-11.002 3.627-3.943 12.856-5.01 12.856-5.01s-.542 9.058-4.17 13zM718.68 22.093c-3.63 3.943-7.836 5.453-10.56 3.01-2.77-2.483-1.755-7.058 1.872-11 3.628-3.945 12.857-5.012 12.857-5.012s-.544 9.06-4.17 13.003zM611.603 13c-3.628 3.944-7.835 5.455-10.56 3.012-2.77-2.483-1.754-7.06 1.873-11.002C606.544 1.067 615.772 0 615.772 0s-.542 9.058-4.17 13zM765.146 47.63c-3.628-3.944-7.835-5.455-10.56-3.012-2.77 2.483-1.754 7.06 1.873 11.002 3.627 3.943 12.856 5.01 12.856 5.01s-.543-9.058-4.17-13zM659.08 50.66c-3.628-3.944-7.835-5.454-10.56-3.01-2.77 2.482-1.754 7.057 1.873 11 3.628 3.943 12.857 5.01 12.857 5.01s-.543-9.058-4.17-13zM563.115 56.72c-3.627-3.943-7.834-5.454-10.56-3.01-2.77 2.483-1.754 7.058 1.874 11 3.626 3.944 12.855 5.01 12.855 5.01s-.542-9.057-4.17-13zM851.695 19.23c-4.86 2.26-9.324 2.048-10.91-1.25-1.61-3.354 1.076-7.194 5.935-9.452 4.858-2.258 13.795.28 13.795.28s-3.962 8.165-8.82 10.423zM506.547 26.133c-3.628 3.943-7.835 5.454-10.56 3.01-2.77-2.482-1.754-7.058 1.873-11 3.628-3.944 12.857-5.01 12.857-5.01s-.543 9.057-4.17 13zM824.963 31.99c-5.168-1.414-9.535-.46-10.546 3.06-1.027 3.574 2.264 6.91 7.433 8.324 5.168 1.413 13.553-2.586 13.553-2.586s-5.272-7.386-10.44-8.8z"/>
</svg>
