<svg xmlns="http://www.w3.org/2000/svg" viewBox="0 0 1194.625 389.8">
  <g fill-opacity=".784">
    <g fill="#fff" style="line-height:125%" font-size="40" font-family="Source Han Code JP" letter-spacing="0" word-spacing="0" font-weight="bold">
      <path fill="#c09090" d="M0 22.08c0 7.28 5.28 11.48 12.2 11.48 3.04 0 6.36-1.04 9-3.28l-2.48-3.8c-1.64 1.16-3.6 2.2-6 2.2-3.84 0-6.52-2.6-6.52-6.6 0-4 2.76-6.64 6.72-6.64 1.8 0 3.36.64 5.04 1.92l2.84-3.8c-1.84-1.72-4.68-3-8.2-3-6.72 0-12.6 4.2-12.6 11.52zM26.52 6.6h6.56v18.04c0 5.56 2.8 8.92 8.2 8.92 2.68 0 4.24-.48 6.44-1.2l-1.36-4.44c-1.4.52-2.52.76-3.56.76-1.96 0-3.68-.96-3.68-3.76V1.84h-12.6V6.6zM53.237 27c0 3.76 2.84 6.56 7.24 6.56 2.88 0 5.68-1.4 7.92-3.08h.16l.44 2.56h4.96V20.32c0-6.52-3.6-9.76-9.72-9.76-3.76 0-7.32 1.28-10.2 3l2.16 3.96c2.4-1.24 4.64-2.12 6.84-2.12 3.16 0 4.68 1.4 4.88 3.52-10.52.72-14.68 3.16-14.68 8.08zm5.8-.44c0-2.08 1.92-3.52 8.88-3.92v3.96c-1.72 1.32-3.52 2.28-5.56 2.28-1.96 0-3.32-.76-3.32-2.32zm20.56 3.64c2.72 1.84 6.72 3.36 10.72 3.36 6.88 0 10.64-3.08 10.64-6.96 0-3.76-3.6-5.4-8.2-6.6-3.28-.84-5.8-1.56-5.8-2.96 0-1.24 1.08-1.96 4.04-1.96 2.4 0 4.56.88 6.56 2.12l2.72-3.68c-2.28-1.44-5.56-2.96-9.36-2.96-6.28 0-10 2.76-10 6.76 0 3.44 3.96 5.28 7.92 6.4 3.84 1 6.08 1.84 6.08 3.2 0 1.28-1.32 2.12-4.44 2.12s-5.64-1-8.16-2.64l-2.72 3.8zm26.718 0c2.72 1.84 6.72 3.36 10.72 3.36 6.88 0 10.64-3.08 10.64-6.96 0-3.76-3.6-5.4-8.2-6.6-3.28-.84-5.8-1.56-5.8-2.96 0-1.24 1.08-1.96 4.04-1.96 2.4 0 4.56.88 6.56 2.12l2.72-3.68c-2.28-1.44-5.56-2.96-9.36-2.96-6.28 0-10 2.76-10 6.76 0 3.44 3.96 5.28 7.92 6.4 3.84 1 6.08 1.84 6.08 3.2 0 1.28-1.32 2.12-4.44 2.12s-5.64-1-8.16-2.64l-2.72 3.8z" style="-inkscape-font-specification:'Source Han Code JP Bold'"/>
      <path d="M166.952 33.04h7.24l8.84-29h-6.24l-3.6 13.88c-.88 3.2-1.48 6.12-2.4 9.32h-.2c-.92-3.2-1.48-6.12-2.4-9.32l-3.68-13.88h-6.44l8.88 29zm20.558-17.2h9.08v17.2h6.04V11.08h-15.12v4.76zm11.8-8.2c2.36 0 4.08-1.48 4.08-3.76S201.67 0 199.31 0c-2.4 0-4.12 1.6-4.12 3.88s1.72 3.76 4.12 3.76zm13.92 14.44c0 7.28 5.32 11.48 12.08 11.48 3.04 0 6.2-1 8.64-2.52l-2-3.68c-1.96 1-3.76 1.56-5.8 1.56-3.52 0-6.32-1.64-6.72-5.12h15.2c.08-.52.24-1.64.24-2.76 0-5.96-3.6-10.48-10.28-10.48-5.8 0-11.36 4.32-11.36 11.52zm6.16-2.32c.52-3.08 2.76-4.56 5.36-4.56 3.12 0 4.6 1.76 4.6 4.56h-9.96zm22.04 13.28h6.92l1.4-7.92c.44-2.92.64-4.8.88-6.44h.16c.32 2.32.6 4.4.92 6.44l1.44 7.92h7.08l3.6-21.96h-5.52l-1.56 10.56c-.32 2.2-.44 4.28-.76 6.48h-.16c-.36-2.2-.72-4.28-1.16-6.48l-1.64-7.88h-4.32l-1.6 7.88c-.48 2.08-.8 4.28-1.08 6.48h-.16c-.28-2.2-.44-4.28-.76-6.48l-1.56-10.56h-5.96l3.84 21.96zm25.197-14.36c0 9.72 6.08 14.88 13.52 14.88 3.64 0 6.72-1.44 9.12-4.2l-3.36-3.72c-1.48 1.64-3.2 2.68-5.4 2.68-4.56 0-7.64-3.64-7.64-9.84 0-6.04 3.08-9.72 7.44-9.72 2.16 0 3.72.88 5.12 2.2l3.32-3.76c-1.88-1.92-4.8-3.68-8.44-3.68-7.72 0-13.68 5.6-13.68 15.16zm26.4 3.4c0 7.28 5.32 11.48 11.12 11.48 5.8 0 11.12-4.2 11.12-11.48 0-7.32-5.32-11.52-11.12-11.52-5.8 0-11.12 4.2-11.12 11.52zm6.2 0c0-4 1.72-6.64 4.92-6.64s4.92 2.64 4.92 6.64c0 4-1.72 6.6-4.92 6.6s-4.92-2.6-4.92-6.6zm21.678 10.96h6.04V18.28c1.72-1.68 2.96-2.56 4.88-2.56 2.56 0 3.52 1.4 3.52 4.56v12.76h6.04V19.48c0-5.6-2.24-8.92-7.2-8.92-3.32 0-5.76 1.64-7.72 3.6h-.16l-.48-3.08h-4.92v21.96zm31.36-9c0 5.68 2.4 9.52 9.24 9.52 2.76 0 5.2-.56 7.16-1.2l-1.12-4.36c-1.36.48-2.8.8-4.52.8-3.36 0-4.72-1.4-4.72-4.84v-8.12h9.52v-4.76h-9.52V5.2h-5.04l-.76 5.88-5.88.28v4.48h5.64v8.2zm24.078 9h6.04V21.4c2-4.08 4.88-5.52 7.68-5.52 1.6 0 2.52.24 3.92.68l1.24-5.12c-1.28-.56-2.36-.88-4.24-.88-3.6 0-6.88 1.84-9.04 5.4h-.16l-.48-4.88h-4.96v21.96zM399.9 22.08c0 7.28 5.32 11.48 11.12 11.48 5.8 0 11.12-4.2 11.12-11.48 0-7.32-5.32-11.52-11.12-11.52-5.8 0-11.12 4.2-11.12 11.52zm6.2 0c0-4 1.72-6.64 4.92-6.64s4.92 2.64 4.92 6.64c0 4-1.72 6.6-4.92 6.6s-4.92-2.6-4.92-6.6zM427.3 6.6h6.56v18.04c0 5.56 2.8 8.92 8.2 8.92 2.68 0 4.24-.48 6.44-1.2l-1.36-4.44c-1.4.52-2.52.76-3.56.76-1.96 0-3.68-.96-3.68-3.76V1.84h-12.6V6.6zm26.72 0h6.56v18.04c0 5.56 2.8 8.92 8.2 8.92 2.68 0 4.24-.48 6.44-1.2l-1.36-4.44c-1.4.52-2.52.76-3.56.76-1.96 0-3.68-.96-3.68-3.76V1.84h-12.6V6.6zm26.398 15.48c0 7.28 5.32 11.48 12.08 11.48 3.04 0 6.2-1 8.64-2.52l-2-3.68c-1.96 1-3.76 1.56-5.8 1.56-3.52 0-6.32-1.64-6.72-5.12h15.2c.08-.52.24-1.64.24-2.76 0-5.96-3.6-10.48-10.28-10.48-5.8 0-11.36 4.32-11.36 11.52zm6.16-2.32c.52-3.08 2.76-4.56 5.36-4.56 3.12 0 4.6 1.76 4.6 4.56h-9.96zm23.358 13.28h6.04V21.4c2-4.08 4.88-5.52 7.68-5.52 1.6 0 2.52.24 3.92.68l1.24-5.12c-1.28-.56-2.36-.88-4.24-.88-3.6 0-6.88 1.84-9.04 5.4h-.16l-.48-4.88h-4.96v21.96z" style="-inkscape-font-specification:'Source Han Code JP Bold'"/>
      <path fill="#c09090" d="M539.735 14c0 2.8 2 4.96 4.88 4.96s4.88-2.16 4.88-4.96-2-4.96-4.88-4.96-4.88 2.16-4.88 4.96zm0 14.6c0 2.84 2 4.96 4.88 4.96s4.88-2.12 4.88-4.96c0-2.8-2-4.96-4.88-4.96s-4.88 2.16-4.88 4.96z" style="-inkscape-font-specification:'Source Han Code JP Bold'"/>
      <path d="M587.693 21.92c0 7.64 3.64 11.64 10.4 11.64 6.84 0 10.32-4 10.32-11.64V4.04h-5.84v18.44c0 3.92-1.6 5.84-4.48 5.84-2.84 0-4.32-1.92-4.32-5.84V4.04h-6.08v17.88zm27.197 11.12h19.76v-5.12h-6.84V9.16h6.84V4.04h-19.76v5.12h6.84v18.76h-6.84v5.12zm33 0h7.24l8.84-29h-6.24l-3.6 13.88c-.88 3.2-1.48 6.12-2.4 9.32h-.2c-.92-3.2-1.48-6.12-2.4-9.32l-3.68-13.88h-6.44l8.88 29zm20.56-17.2h9.08v17.2h6.04V11.08h-15.12v4.76zm11.8-8.2c2.36 0 4.08-1.48 4.08-3.76S682.61 0 680.25 0c-2.4 0-4.12 1.6-4.12 3.88s1.72 3.76 4.12 3.76zm13.918 14.44c0 7.28 5.32 11.48 12.08 11.48 3.04 0 6.2-1 8.64-2.52l-2-3.68c-1.96 1-3.76 1.56-5.8 1.56-3.52 0-6.32-1.64-6.72-5.12h15.2c.08-.52.24-1.64.24-2.76 0-5.96-3.6-10.48-10.28-10.48-5.8 0-11.36 4.32-11.36 11.52zm6.16-2.32c.52-3.08 2.76-4.56 5.36-4.56 3.12 0 4.6 1.76 4.6 4.56h-9.96zm22.038 13.28h6.92l1.4-7.92c.44-2.92.64-4.8.88-6.44h.16c.32 2.32.6 4.4.92 6.44l1.44 7.92h7.08l3.6-21.96h-5.52l-1.56 10.56c-.32 2.2-.44 4.28-.76 6.48h-.16c-.36-2.2-.72-4.28-1.16-6.48l-1.64-7.88h-4.32l-1.6 7.88c-.48 2.08-.8 4.28-1.08 6.48h-.16c-.28-2.2-.44-4.28-.76-6.48l-1.56-10.56h-5.96l3.84 21.96zm25.2-14.36c0 9.72 6.08 14.88 13.52 14.88 3.64 0 6.72-1.44 9.12-4.2l-3.36-3.72c-1.48 1.64-3.2 2.68-5.4 2.68-4.56 0-7.64-3.64-7.64-9.84 0-6.04 3.08-9.72 7.44-9.72 2.16 0 3.72.88 5.12 2.2l3.32-3.76c-1.88-1.92-4.8-3.68-8.44-3.68-7.72 0-13.68 5.6-13.68 15.16zm26.398 3.4c0 7.28 5.32 11.48 11.12 11.48 5.8 0 11.12-4.2 11.12-11.48 0-7.32-5.32-11.52-11.12-11.52-5.8 0-11.12 4.2-11.12 11.52zm6.2 0c0-4 1.72-6.64 4.92-6.64s4.92 2.64 4.92 6.64c0 4-1.72 6.6-4.92 6.6s-4.92-2.6-4.92-6.6zm21.68 10.96h6.04V18.28c1.72-1.68 2.96-2.56 4.88-2.56 2.56 0 3.52 1.4 3.52 4.56v12.76h6.04V19.48c0-5.6-2.24-8.92-7.2-8.92-3.32 0-5.76 1.64-7.72 3.6h-.16l-.48-3.08h-4.92v21.96zm31.356-9c0 5.68 2.4 9.52 9.24 9.52 2.76 0 5.2-.56 7.16-1.2L848.48 28c-1.36.48-2.8.8-4.52.8-3.36 0-4.72-1.4-4.72-4.84v-8.12h9.52v-4.76h-9.52V5.2h-5.04l-.76 5.88-5.88.28v4.48h5.64v8.2zm24.08 9h6.04V21.4c2-4.08 4.88-5.52 7.68-5.52 1.6 0 2.52.24 3.92.68l1.24-5.12c-1.28-.56-2.36-.88-4.24-.88-3.6 0-6.88 1.84-9.04 5.4h-.16l-.48-4.88h-4.96v21.96zm23.56-10.96c0 7.28 5.32 11.48 11.12 11.48 5.8 0 11.12-4.2 11.12-11.48 0-7.32-5.32-11.52-11.12-11.52-5.8 0-11.12 4.2-11.12 11.52zm6.2 0c0-4 1.72-6.64 4.92-6.64s4.92 2.64 4.92 6.64c0 4-1.72 6.6-4.92 6.6s-4.92-2.6-4.92-6.6zM908.238 6.6h6.56v18.04c0 5.56 2.8 8.92 8.2 8.92 2.68 0 4.24-.48 6.44-1.2l-1.36-4.44c-1.4.52-2.52.76-3.56.76-1.96 0-3.68-.96-3.68-3.76V1.84h-12.6V6.6zm26.718 0h6.56v18.04c0 5.56 2.8 8.92 8.2 8.92 2.68 0 4.24-.48 6.44-1.2l-1.36-4.44c-1.4.52-2.52.76-3.56.76-1.96 0-3.68-.96-3.68-3.76V1.84h-12.6V6.6zm26.4 15.48c0 7.28 5.32 11.48 12.08 11.48 3.04 0 6.2-1 8.64-2.52l-2-3.68c-1.96 1-3.76 1.56-5.8 1.56-3.52 0-6.32-1.64-6.72-5.12h15.2c.08-.52.24-1.64.24-2.76 0-5.96-3.6-10.48-10.28-10.48-5.8 0-11.36 4.32-11.36 11.52zm6.16-2.32c.52-3.08 2.76-4.56 5.36-4.56 3.12 0 4.6 1.76 4.6 4.56h-9.96zm23.358 13.28h6.04V21.4c2-4.08 4.88-5.52 7.68-5.52 1.6 0 2.52.24 3.92.68l1.24-5.12c-1.28-.56-2.36-.88-4.24-.88-3.6 0-6.88 1.84-9.04 5.4h-.16l-.48-4.88h-4.96v21.96zm58.596.52c0 4.76 2.56 6.24 8.24 6.24h3.32v-3.24h-1.92c-3.84 0-4.68-.72-4.68-3.28 0-2.44.2-4.64.2-7.36 0-3.28-1.2-4.6-4.36-5.12v-.2c3.16-.52 4.36-1.84 4.36-5.12 0-2.64-.2-5-.2-7.36 0-2.56.84-3.28 4.68-3.28h1.92V1.6h-3.32c-5.68 0-8.24 1.48-8.24 6.24 0 3.12.44 5 .44 7.76 0 1.6-1.32 3.24-6.16 3.32v3.56c4.84.08 6.16 1.72 6.16 3.32 0 2.84-.44 4.6-.44 7.76zM105.995 72.08c0 7.28 5.32 11.48 11.12 11.48 5.8 0 11.12-4.2 11.12-11.48 0-7.32-5.32-11.52-11.12-11.52-5.8 0-11.12 4.2-11.12 11.52zm6.2 0c0-4 1.72-6.64 4.92-6.64s4.92 2.64 4.92 6.64c0 4-1.72 6.6-4.92 6.6s-4.92-2.6-4.92-6.6zm28.28 10.96h6.92l8.2-21.96h-5.76l-3.72 10.72c-.72 2.16-1.36 4.44-2.04 6.68h-.2c-.64-2.24-1.28-4.52-2.04-6.68l-3.68-10.72h-6.08l8.4 21.96zm19.317-10.96c0 7.28 5.32 11.48 12.08 11.48 3.04 0 6.2-1 8.64-2.52l-2-3.68c-1.96 1-3.76 1.56-5.8 1.56-3.52 0-6.32-1.64-6.72-5.12h15.2c.08-.52.24-1.64.24-2.76 0-5.96-3.6-10.48-10.28-10.48-5.8 0-11.36 4.32-11.36 11.52zm6.16-2.32c.52-3.08 2.76-4.56 5.36-4.56 3.12 0 4.6 1.76 4.6 4.56h-9.96zm23.358 13.28h6.04V71.4c2-4.08 4.88-5.52 7.68-5.52 1.6 0 2.52.24 3.92.68l1.24-5.12c-1.28-.56-2.36-.88-4.24-.88-3.6 0-6.88 1.84-9.04 5.4h-.16l-.48-4.88h-4.96v21.96zm26.72 0h6.04V71.4c2-4.08 4.88-5.52 7.68-5.52 1.6 0 2.52.24 3.92.68l1.24-5.12c-1.28-.56-2.36-.88-4.24-.88-3.6 0-6.88 1.84-9.04 5.4h-.16l-.48-4.88h-4.96v21.96zm24.92-17.2h9.08v17.2h6.04V61.08h-15.12v4.76zm11.8-8.2c2.36 0 4.08-1.48 4.08-3.76S255.11 50 252.75 50c-2.4 0-4.12 1.6-4.12 3.88s1.72 3.76 4.12 3.76zm13.557 14.44c0 7.2 3.68 11.48 9.32 11.48 2.28 0 4.6-1.24 6.24-2.88h.12l.48 2.36h4.92v-31.2h-6.04v7.64l.24 3.52c-1.64-1.48-3.28-2.44-5.8-2.44-4.84 0-9.48 4.32-9.48 11.52zm6.2-.08c0-4.28 2.2-6.48 4.8-6.48 1.4 0 2.72.44 4.04 1.64v9.2c-1.28 1.6-2.64 2.24-4.24 2.24-2.88 0-4.6-2.12-4.6-6.6zm20.88.08c0 7.28 5.32 11.48 12.08 11.48 3.04 0 6.2-1 8.64-2.52l-2-3.68c-1.96 1-3.76 1.56-5.8 1.56-3.52 0-6.32-1.64-6.72-5.12h15.2c.08-.52.24-1.64.24-2.76 0-5.96-3.6-10.48-10.28-10.48-5.8 0-11.36 4.32-11.36 11.52zm6.16-2.32c.52-3.08 2.76-4.56 5.36-4.56 3.12 0 4.6 1.76 4.6 4.56h-9.96zm70.637-17.24c-1.88-.68-4.16-1.2-6.56-1.2-6.76 0-9.68 3.88-9.68 9v.76l-5.88.28v4.48h5.88v17.2h6.04v-17.2h7.84v-4.76h-7.84v-.8c0-2.84 1.36-4.2 4.32-4.2 1.72 0 3.24.32 4.68.88l1.2-4.44zm23.96 8.56h-6.04v14.56c-1.64 2.08-2.92 2.76-4.72 2.76-2.6 0-3.48-1.4-3.48-4.52v-12.8h-6.04v13.56c0 5.6 2.16 8.92 7.2 8.92 3.16 0 5.52-1.52 7.48-3.8h.2l.44 3.28h4.96V61.08zm6.916 21.96h6.04V68.28c1.72-1.68 2.96-2.56 4.88-2.56 2.56 0 3.52 1.4 3.52 4.56v12.76h6.04V69.48c0-5.6-2.24-8.92-7.2-8.92-3.32 0-5.76 1.64-7.72 3.6h-.16l-.48-3.08h-4.92v21.96zm26.44-10.96c0 7.28 5.28 11.48 12.2 11.48 3.04 0 6.36-1.04 9-3.28l-2.48-3.8c-1.64 1.16-3.6 2.2-6 2.2-3.84 0-6.52-2.6-6.52-6.6 0-4 2.76-6.64 6.72-6.64 1.8 0 3.36.64 5.04 1.92l2.84-3.8c-1.84-1.72-4.68-3-8.2-3-6.72 0-12.6 4.2-12.6 11.52zm60.318 10.96h6.92l8.2-21.96h-5.76l-3.72 10.72c-.72 2.16-1.36 4.44-2.04 6.68h-.2c-.64-2.24-1.28-4.52-2.04-6.68l-3.68-10.72h-6.08l8.4 21.96zm20.318-17.2h9.08v17.2h6.04V61.08h-15.12v4.76zm11.8-8.2c2.36 0 4.08-1.48 4.08-3.76s-1.72-3.88-4.08-3.88c-2.4 0-4.12 1.6-4.12 3.88s1.72 3.76 4.12 3.76zm13.92 14.44c0 7.28 5.32 11.48 12.08 11.48 3.04 0 6.2-1 8.64-2.52l-2-3.68c-1.96 1-3.76 1.56-5.8 1.56-3.52 0-6.32-1.64-6.72-5.12h15.2c.08-.52.24-1.64.24-2.76 0-5.96-3.6-10.48-10.28-10.48-5.8 0-11.36 4.32-11.36 11.52zm6.16-2.32c.52-3.08 2.76-4.56 5.36-4.56 3.12 0 4.6 1.76 4.6 4.56h-9.96zm22.038 13.28h6.92l1.4-7.92c.44-2.92.64-4.8.88-6.44h.16c.32 2.32.6 4.4.92 6.44l1.44 7.92h7.08l3.6-21.96h-5.52l-1.56 10.56c-.32 2.2-.44 4.28-.76 6.48h-.16c-.36-2.2-.72-4.28-1.16-6.48l-1.64-7.88h-4.32l-1.6 7.88c-.48 2.08-.8 4.28-1.08 6.48h-.16c-.28-2.2-.44-4.28-.76-6.48l-1.56-10.56h-5.96l3.84 21.96zm25.72 0h8.08c8.12 0 13.48-4.8 13.48-14.6 0-9.84-5.36-14.4-13.8-14.4h-7.76v29zm6.08-4.88v-19.2h1.32c4.88 0 7.96 2.48 7.96 9.48s-3.08 9.72-7.96 9.72h-1.32zm21.156-12.32h9.08v17.2h6.04V61.08h-15.12v4.76zm11.8-8.2c2.36 0 4.08-1.48 4.08-3.76S629.17 50 626.81 50c-2.4 0-4.12 1.6-4.12 3.88s1.72 3.76 4.12 3.76zm13.56 14.44c0 7.2 3.68 11.48 9.32 11.48 2.28 0 4.6-1.24 6.24-2.88h.12l.48 2.36h4.92v-31.2h-6.04v7.64l.24 3.52c-1.64-1.48-3.28-2.44-5.8-2.44-4.84 0-9.48 4.32-9.48 11.52zm6.2-.08c0-4.28 2.2-6.48 4.8-6.48 1.4 0 2.72.44 4.04 1.64v9.2c-1.28 1.6-2.64 2.24-4.24 2.24-2.88 0-4.6-2.12-4.6-6.6zm23.28 11.04h19.16v-5.12h-13.16V54.04h-6v29zm23.958-10.96c0 7.28 5.32 11.48 11.12 11.48 5.8 0 11.12-4.2 11.12-11.48 0-7.32-5.32-11.52-11.12-11.52-5.8 0-11.12 4.2-11.12 11.52zm6.2 0c0-4 1.72-6.64 4.92-6.64s4.92 2.64 4.92 6.64c0 4-1.72 6.6-4.92 6.6s-4.92-2.6-4.92-6.6zM721.206 77c0 3.76 2.84 6.56 7.24 6.56 2.88 0 5.68-1.4 7.92-3.08h.16l.44 2.56h4.96V70.32c0-6.52-3.6-9.76-9.72-9.76-3.76 0-7.32 1.28-10.2 3l2.16 3.96c2.4-1.24 4.64-2.12 6.84-2.12 3.16 0 4.68 1.4 4.88 3.52-10.52.72-14.68 3.16-14.68 8.08zm5.8-.44c0-2.08 1.92-3.52 8.88-3.92v3.96c-1.72 1.32-3.52 2.28-5.56 2.28-1.96 0-3.32-.76-3.32-2.32zm20.24-4.48c0 7.2 3.68 11.48 9.32 11.48 2.28 0 4.6-1.24 6.24-2.88h.12l.48 2.36h4.92v-31.2h-6.04v7.64l.24 3.52c-1.64-1.48-3.28-2.44-5.8-2.44-4.84 0-9.48 4.32-9.48 11.52zm6.2-.08c0-4.28 2.2-6.48 4.8-6.48 1.4 0 2.72.44 4.04 1.64v9.2c-1.28 1.6-2.64 2.24-4.24 2.24-2.88 0-4.6-2.12-4.6-6.6zm36.038 18.96l3.36-2.72c-5.44-5.12-7.76-10.48-7.76-17.56 0-7.08 2.32-12.4 7.76-17.52l-3.36-2.72c-5.84 5.04-9.48 11.88-9.48 20.24 0 8.4 3.64 15.24 9.48 20.28zm17.92 0c5.88-5.04 9.48-11.88 9.48-20.28 0-8.36-3.6-15.2-9.48-20.24l-3.36 2.72c5.44 5.12 7.76 10.44 7.76 17.52s-2.32 12.44-7.76 17.56l3.36 2.72zm55.036-7.4c0 4.76 2.56 6.24 8.24 6.24H874v-3.24h-1.92c-3.84 0-4.68-.72-4.68-3.28 0-2.44.2-4.64.2-7.36 0-3.28-1.2-4.6-4.36-5.12v-.2c3.16-.52 4.36-1.84 4.36-5.12 0-2.64-.2-5-.2-7.36 0-2.56.84-3.28 4.68-3.28H874V51.6h-3.32c-5.68 0-8.24 1.48-8.24 6.24 0 3.12.44 5 .44 7.76 0 1.6-1.32 3.24-6.16 3.32v3.56c4.84.08 6.16 1.72 6.16 3.32 0 2.84-.44 4.6-.44 7.76zm-754.045 103v3.24h3.32c5.68 0 8.24-1.48 8.24-6.24 0-3.16-.48-4.92-.48-7.76 0-1.6 1.32-3.24 6.16-3.32v-3.56c-4.84-.08-6.16-1.72-6.16-3.32 0-2.76.48-4.64.48-7.76 0-4.76-2.56-6.24-8.24-6.24h-3.32v3.24h1.92c3.8 0 4.64.72 4.64 3.28 0 2.36-.16 4.72-.16 7.36 0 3.28 1.2 4.6 4.36 5.12v.2c-3.16.52-4.36 1.84-4.36 5.12 0 2.72.16 4.92.16 7.36 0 2.56-.84 3.28-4.64 3.28h-1.92zm-2.4 35.52c0 7.28 5.32 11.48 11.12 11.48 5.8 0 11.12-4.2 11.12-11.48 0-7.32-5.32-11.52-11.12-11.52-5.8 0-11.12 4.2-11.12 11.52zm6.2 0c0-4 1.72-6.64 4.92-6.64s4.92 2.64 4.92 6.64c0 4-1.72 6.6-4.92 6.6s-4.92-2.6-4.92-6.6zm28.28 10.96h6.92l8.2-21.96h-5.76l-3.72 10.72c-.72 2.16-1.36 4.44-2.04 6.68h-.2c-.64-2.24-1.28-4.52-2.04-6.68l-3.68-10.72h-6.08l8.4 21.96zm19.317-10.96c0 7.28 5.32 11.48 12.08 11.48 3.04 0 6.2-1 8.64-2.52l-2-3.68c-1.96 1-3.76 1.56-5.8 1.56-3.52 0-6.32-1.64-6.72-5.12h15.2c.08-.52.24-1.64.24-2.76 0-5.96-3.6-10.48-10.28-10.48-5.8 0-11.36 4.32-11.36 11.52zm6.16-2.32c.52-3.08 2.76-4.56 5.36-4.56 3.12 0 4.6 1.76 4.6 4.56h-9.96zm23.358 13.28h6.04V221.4c2-4.08 4.88-5.52 7.68-5.52 1.6 0 2.52.24 3.92.68l1.24-5.12c-1.28-.56-2.36-.88-4.24-.88-3.6 0-6.88 1.84-9.04 5.4h-.16l-.48-4.88h-4.96v21.96zm26.72 0h6.04V221.4c2-4.08 4.88-5.52 7.68-5.52 1.6 0 2.52.24 3.92.68l1.24-5.12c-1.28-.56-2.36-.88-4.24-.88-3.6 0-6.88 1.84-9.04 5.4h-.16l-.48-4.88h-4.96v21.96zm24.92-17.2h9.08v17.2h6.04v-21.96h-15.12v4.76zm11.8-8.2c2.36 0 4.08-1.48 4.08-3.76s-1.72-3.88-4.08-3.88c-2.4 0-4.12 1.6-4.12 3.88s1.72 3.76 4.12 3.76zm13.557 14.44c0 7.2 3.68 11.48 9.32 11.48 2.28 0 4.6-1.24 6.24-2.88h.12l.48 2.36h4.92v-31.2h-6.04v7.64l.24 3.52c-1.64-1.48-3.28-2.44-5.8-2.44-4.84 0-9.48 4.32-9.48 11.52zm6.2-.08c0-4.28 2.2-6.48 4.8-6.48 1.4 0 2.72.44 4.04 1.64v9.2c-1.28 1.6-2.64 2.24-4.24 2.24-2.88 0-4.6-2.12-4.6-6.6zm20.88.08c0 7.28 5.32 11.48 12.08 11.48 3.04 0 6.2-1 8.64-2.52l-2-3.68c-1.96 1-3.76 1.56-5.8 1.56-3.52 0-6.32-1.64-6.72-5.12h15.2c.08-.52.24-1.64.24-2.76 0-5.96-3.6-10.48-10.28-10.48-5.8 0-11.36 4.32-11.36 11.52zm6.16-2.32c.52-3.08 2.76-4.56 5.36-4.56 3.12 0 4.6 1.76 4.6 4.56h-9.96zm70.637-17.24c-1.88-.68-4.16-1.2-6.56-1.2-6.76 0-9.68 3.88-9.68 9v.76l-5.88.28v4.48h5.88v17.2h6.04v-17.2h7.84v-4.76h-7.84v-.8c0-2.84 1.36-4.2 4.32-4.2 1.72 0 3.24.32 4.68.88l1.2-4.44zm23.96 8.56h-6.04v14.56c-1.64 2.08-2.92 2.76-4.72 2.76-2.6 0-3.48-1.4-3.48-4.52v-12.8h-6.04v13.56c0 5.6 2.16 8.92 7.2 8.92 3.16 0 5.52-1.52 7.48-3.8h.2l.44 3.28h4.96v-21.96zm6.916 21.96h6.04v-14.76c1.72-1.68 2.96-2.56 4.88-2.56 2.56 0 3.52 1.4 3.52 4.56v12.76h6.04v-13.56c0-5.6-2.24-8.92-7.2-8.92-3.32 0-5.76 1.64-7.72 3.6h-.16l-.48-3.08h-4.92v21.96zm26.44-10.96c0 7.28 5.28 11.48 12.2 11.48 3.04 0 6.36-1.04 9-3.28l-2.48-3.8c-1.64 1.16-3.6 2.2-6 2.2-3.84 0-6.52-2.6-6.52-6.6 0-4 2.76-6.64 6.72-6.64 1.8 0 3.36.64 5.04 1.92l2.84-3.8c-1.84-1.72-4.68-3-8.2-3-6.72 0-12.6 4.2-12.6 11.52zm52.558 0c0 7.2 3.68 11.48 9.32 11.48 2.28 0 4.6-1.24 6.24-2.88h.12l.48 2.36h4.92v-31.2h-6.04v7.64l.24 3.52c-1.64-1.48-3.28-2.44-5.8-2.44-4.84 0-9.48 4.32-9.48 11.52zm6.2-.08c0-4.28 2.2-6.48 4.8-6.48 1.4 0 2.72.44 4.04 1.64v9.2c-1.28 1.6-2.64 2.24-4.24 2.24-2.88 0-4.6-2.12-4.6-6.6zm21.878-6.16h9.08v17.2h6.04v-21.96h-15.12v4.76zm11.8-8.2c2.36 0 4.08-1.48 4.08-3.76s-1.72-3.88-4.08-3.88c-2.4 0-4.12 1.6-4.12 3.88s1.72 3.76 4.12 3.76zm13.56 14.44c0 7.2 3.68 11.48 9.32 11.48 2.28 0 4.6-1.24 6.24-2.88h.12l.48 2.36h4.92v-31.2h-6.04v7.64l.24 3.52c-1.64-1.48-3.28-2.44-5.8-2.44-4.84 0-9.48 4.32-9.48 11.52zm6.2-.08c0-4.28 2.2-6.48 4.8-6.48 1.4 0 2.72.44 4.04 1.64v9.2c-1.28 1.6-2.64 2.24-4.24 2.24-2.88 0-4.6-2.12-4.6-6.6zm27.678-13.12h3.52c3.6 0 5.56 1.04 5.56 4.08 0 3-1.96 4.52-5.56 4.52h-3.52v-8.6zm16.36 24.16l-6.68-11.72c3.2-1.36 5.36-4.04 5.36-8.36 0-6.76-4.92-8.92-11-8.92h-10.08v29h6.04v-10.72h3.76l5.76 10.72h6.84zm3.56-10.96c0 7.28 5.32 11.48 12.08 11.48 3.04 0 6.2-1 8.64-2.52l-2-3.68c-1.96 1-3.76 1.56-5.8 1.56-3.52 0-6.32-1.64-6.72-5.12h15.2c.08-.52.24-1.64.24-2.76 0-5.96-3.6-10.48-10.28-10.48-5.8 0-11.36 4.32-11.36 11.52zm6.16-2.32c.52-3.08 2.76-4.56 5.36-4.56 3.12 0 4.6 1.76 4.6 4.56h-9.96zm21.076 2.32c0 7.28 5.28 11.48 12.2 11.48 3.04 0 6.36-1.04 9-3.28l-2.48-3.8c-1.64 1.16-3.6 2.2-6 2.2-3.84 0-6.52-2.6-6.52-6.6 0-4 2.76-6.64 6.72-6.64 1.8 0 3.36.64 5.04 1.92l2.84-3.8c-1.84-1.72-4.68-3-8.2-3-6.72 0-12.6 4.2-12.6 11.52zm26.2 0c0 7.28 5.32 11.48 12.08 11.48 3.04 0 6.2-1 8.64-2.52l-2-3.68c-1.96 1-3.76 1.56-5.8 1.56-3.52 0-6.32-1.64-6.72-5.12h15.2c.08-.52.24-1.64.24-2.76 0-5.96-3.6-10.48-10.28-10.48-5.8 0-11.36 4.32-11.36 11.52zm6.16-2.32c.52-3.08 2.76-4.56 5.36-4.56 3.12 0 4.6 1.76 4.6 4.56h-9.96zm21.56-3.92h9.08v17.2h6.04v-21.96h-15.12v4.76zm11.8-8.2c2.36 0 4.08-1.48 4.08-3.76s-1.72-3.88-4.08-3.88c-2.4 0-4.12 1.6-4.12 3.88s1.72 3.76 4.12 3.76zm21.318 25.4h6.92l8.2-21.96h-5.76l-3.72 10.72c-.72 2.16-1.36 4.44-2.04 6.68h-.2c-.64-2.24-1.28-4.52-2.04-6.68l-3.68-10.72h-6.08l8.4 21.96zm19.318-10.96c0 7.28 5.32 11.48 12.08 11.48 3.04 0 6.2-1 8.64-2.52l-2-3.68c-1.96 1-3.76 1.56-5.8 1.56-3.52 0-6.32-1.64-6.72-5.12h15.2c.08-.52.24-1.64.24-2.76 0-5.96-3.6-10.48-10.28-10.48-5.8 0-11.36 4.32-11.36 11.52zm6.16-2.32c.52-3.08 2.76-4.56 5.36-4.56 3.12 0 4.6 1.76 4.6 4.56h-9.96zm20.96 13.28h4.88v-10.6c0-3-.48-9.44-.76-12.4h.16l2.12 7.64 2.52 7.6h2.76l2.52-7.6 2.2-7.64h.12c-.28 2.96-.8 9.4-.8 12.4v10.6h5v-29h-6.16l-3.04 10.64-1.04 4.12h-.12l-1.08-4.12-3.12-10.64h-6.16v29zm26.318-10.96c0 7.28 5.32 11.48 12.08 11.48 3.04 0 6.2-1 8.64-2.52l-2-3.68c-1.96 1-3.76 1.56-5.8 1.56-3.52 0-6.32-1.64-6.72-5.12h15.2c.08-.52.24-1.64.24-2.76 0-5.96-3.6-10.48-10.28-10.48-5.8 0-11.36 4.32-11.36 11.52zm6.16-2.32c.52-3.08 2.76-4.56 5.36-4.56 3.12 0 4.6 1.76 4.6 4.56h-9.96zm19.76 13.28h5.72v-15c.68-1.56 1.32-2.32 2.24-2.32.96 0 1.48.76 1.48 2.32v15h4.64v-15c.68-1.56 1.44-2.32 2.36-2.32 1 0 1.4.76 1.4 2.32v15h5.72V217.6c0-4.4-1.8-7.04-4.88-7.04-2.44 0-4 1.6-4.88 3.6-.48-2.36-1.92-3.6-3.88-3.6-2.52 0-3.84 1.44-4.76 3.32h-.16l-.44-2.8h-4.56v21.96zm27.156-10.96c0 7.28 5.32 11.48 11.12 11.48 5.8 0 11.12-4.2 11.12-11.48 0-7.32-5.32-11.52-11.12-11.52-5.8 0-11.12 4.2-11.12 11.52zm6.2 0c0-4 1.72-6.64 4.92-6.64s4.92 2.64 4.92 6.64c0 4-1.72 6.6-4.92 6.6s-4.92-2.6-4.92-6.6zm23.68 10.96h6.04V221.4c2-4.08 4.88-5.52 7.68-5.52 1.6 0 2.52.24 3.92.68l1.24-5.12c-1.28-.56-2.36-.88-4.24-.88-3.6 0-6.88 1.84-9.04 5.4h-.16l-.48-4.88h-4.96v21.96zm25.44 3.64l-1.12 4.64c.92.28 2.04.44 3.28.44 5.48 0 8.08-2.92 10.16-8.24l8.8-22.44h-5.72l-3.48 9.88c-.68 2.12-1.44 4.4-2.08 6.56h-.16c-.76-2.28-1.48-4.52-2.28-6.56l-3.96-9.88h-6l9.6 21.48-.44 1.24c-.8 1.88-2.24 3.16-4.84 3.16-.6 0-1.2-.08-1.76-.28zm26.798-3.64h6.28l1.96-9.6c.4-1.84.68-3.76.88-5.52h.12c.16 1.76.48 3.68.84 5.52l2.08 9.6h6.4l3.72-29h-5.76l-1.12 15.92c-.08 2.36-.16 4.84-.24 7.32h-.16c-.48-2.48-1.16-4.96-1.6-7.32l-2.12-8.52h-3.72l-2.2 8.52c-.48 2.4-1.12 4.88-1.56 7.32h-.16c-.08-2.44-.2-4.88-.28-7.32l-1.08-15.92h-6.2l3.92 29zm25.438-6.04c0 3.76 2.84 6.56 7.24 6.56 2.88 0 5.68-1.4 7.92-3.08h.16l.44 2.56h4.96v-12.72c0-6.52-3.6-9.76-9.72-9.76-3.76 0-7.32 1.28-10.2 3l2.16 3.96c2.4-1.24 4.64-2.12 6.84-2.12 3.16 0 4.68 1.4 4.88 3.52-10.52.72-14.68 3.16-14.68 8.08zm5.8-.44c0-2.08 1.92-3.52 8.88-3.92v3.96c-1.72 1.32-3.52 2.28-5.56 2.28-1.96 0-3.32-.76-3.32-2.32zm23.4 6.48h6.04V221.4c2-4.08 4.88-5.52 7.68-5.52 1.6 0 2.52.24 3.92.68l1.24-5.12c-1.28-.56-2.36-.88-4.24-.88-3.6 0-6.88 1.84-9.04 5.4h-.16l-.48-4.88h-4.96v21.96zm24.718 0h6.04v-14.76c1.72-1.68 2.96-2.56 4.88-2.56 2.56 0 3.52 1.4 3.52 4.56v12.76h6.04v-13.56c0-5.6-2.24-8.92-7.2-8.92-3.32 0-5.76 1.64-7.72 3.6h-.16l-.48-3.08h-4.92v21.96zm26.92-17.2h9.08v17.2h6.04v-21.96h-15.12v4.76zm11.8-8.2c2.36 0 4.08-1.48 4.08-3.76s-1.72-3.88-4.08-3.88c-2.4 0-4.12 1.6-4.12 3.88s1.72 3.76 4.12 3.76zm14.716 25.4h6.04v-14.76c1.72-1.68 2.96-2.56 4.88-2.56 2.56 0 3.52 1.4 3.52 4.56v12.76h6.04v-13.56c0-5.6-2.24-8.92-7.2-8.92-3.32 0-5.76 1.64-7.72 3.6h-.16l-.48-3.08h-4.92v21.96zm30.76 2.88c0-.88.52-1.64 1.76-2.4.84.2 1.84.32 3.36.32h3.04c2.6 0 4 .32 4 1.84 0 1.64-2.52 3-6.28 3-3.68 0-5.88-1.04-5.88-2.76zm-4.96.88c0 3.92 4.16 5.72 10 5.72 7.88 0 12.92-3.36 12.92-7.88 0-3.88-3.08-5.52-8.84-5.52h-4.2c-2.6 0-3.84-.52-3.84-1.76 0-.8.36-1.28 1.08-1.76 1.16.32 2.2.52 3.16.52 5 0 8.92-2.44 8.92-7.44 0-1.28-.52-2.44-1.12-3.16h4.68v-4.44h-8.96c-1-.36-2.24-.52-3.52-.52-4.96 0-9.28 2.76-9.28 7.96 0 2.56 1.28 4.52 2.88 5.64v.16c-1.6 1.08-2.64 2.68-2.64 4.16 0 1.8 1 2.96 2.2 3.68v.16c-2.24 1.16-3.44 2.72-3.44 4.48zm10.28-14.44c-1.96 0-3.56-1.36-3.56-3.84 0-2.44 1.6-3.88 3.56-3.88s3.6 1.44 3.6 3.88c0 2.48-1.64 3.84-3.6 3.84zm31.72 18.6l3.36-2.72c-5.44-5.12-7.76-10.48-7.76-17.56 0-7.08 2.32-12.4 7.76-17.52l-3.36-2.72c-5.84 5.04-9.48 11.88-9.48 20.24 0 8.4 3.64 15.24 9.48 20.28zm17.918 0c5.88-5.04 9.48-11.88 9.48-20.28 0-8.36-3.6-15.2-9.48-20.24l-3.36 2.72c5.44 5.12 7.76 10.44 7.76 17.52s-2.32 12.44-7.76 17.56l3.36 2.72zm55.037-7.4c0 4.76 2.56 6.24 8.24 6.24h3.32v-3.24h-1.92c-3.84 0-4.68-.72-4.68-3.28 0-2.44.2-4.64.2-7.36 0-3.28-1.2-4.6-4.36-5.12v-.2c3.16-.52 4.36-1.84 4.36-5.12 0-2.64-.2-5-.2-7.36 0-2.56.84-3.28 4.68-3.28h1.92v-3.24h-3.32c-5.68 0-8.24 1.48-8.24 6.24 0 3.12.44 5 .44 7.76 0 1.6-1.32 3.24-6.16 3.32v3.56c4.84.08 6.16 1.72 6.16 3.32 0 2.84-.44 4.6-.44 7.76z" style="-inkscape-font-specification:'Source Han Code JP Bold'"/>
      <path fill="#c09090" d="M213.19 280.2c2.72 1.84 6.72 3.36 10.72 3.36 6.88 0 10.64-3.08 10.64-6.96 0-3.76-3.6-5.4-8.2-6.6-3.28-.84-5.8-1.56-5.8-2.96 0-1.24 1.08-1.96 4.04-1.96 2.4 0 4.56.88 6.56 2.12l2.72-3.68c-2.28-1.44-5.56-2.96-9.36-2.96-6.28 0-10 2.76-10 6.76 0 3.44 3.96 5.28 7.92 6.4 3.84 1 6.08 1.84 6.08 3.2 0 1.28-1.32 2.12-4.44 2.12s-5.64-1-8.16-2.64l-2.72 3.8zm47.36-19.12h-6.04v14.56c-1.64 2.08-2.92 2.76-4.72 2.76-2.6 0-3.48-1.4-3.48-4.52v-12.8h-6.04v13.56c0 5.6 2.16 8.92 7.2 8.92 3.16 0 5.52-1.52 7.48-3.8h.2l.44 3.28h4.96v-21.96zm12.757 20.04c1.68 1.56 3.68 2.44 5.64 2.44 5 0 9.6-4.28 9.6-11.84 0-6.76-3.28-11.16-8.84-11.16-2.4 0-4.92 1.2-6.72 2.84h-.12l-.48-2.32h-4.92v30.28h6.04v-6.6l-.2-3.64zm.2-4.16v-9.2c1.52-1.6 2.96-2.24 4.48-2.24 3 0 4.36 2.2 4.36 6.28 0 4.68-2.08 6.8-4.72 6.8-1.2 0-2.76-.44-4.12-1.64zm19.88-4.88c0 7.28 5.32 11.48 12.08 11.48 3.04 0 6.2-1 8.64-2.52l-2-3.68c-1.96 1-3.76 1.56-5.8 1.56-3.52 0-6.32-1.64-6.72-5.12h15.2c.08-.52.24-1.64.24-2.76 0-5.96-3.6-10.48-10.28-10.48-5.8 0-11.36 4.32-11.36 11.52zm6.16-2.32c.52-3.08 2.76-4.56 5.36-4.56 3.12 0 4.6 1.76 4.6 4.56h-9.96zm23.358 13.28h6.04V271.4c2-4.08 4.88-5.52 7.68-5.52 1.6 0 2.52.24 3.92.68l1.24-5.12c-1.28-.56-2.36-.88-4.24-.88-3.6 0-6.88 1.84-9.04 5.4h-.16l-.48-4.88h-4.96v21.96z" style="-inkscape-font-specification:'Source Han Code JP Bold'"/>
      <path d="M352.704 278.6c0 2.84 2 4.96 4.88 4.96s4.88-2.12 4.88-4.96c0-2.8-2-4.96-4.88-4.96s-4.88 2.16-4.88 4.96zm20.48-6.52c0 7.2 3.68 11.48 9.32 11.48 2.28 0 4.6-1.24 6.24-2.88h.12l.48 2.36h4.92v-31.2h-6.04v7.64l.24 3.52c-1.64-1.48-3.28-2.44-5.8-2.44-4.84 0-9.48 4.32-9.48 11.52zm6.2-.08c0-4.28 2.2-6.48 4.8-6.48 1.4 0 2.72.44 4.04 1.64v9.2c-1.28 1.6-2.64 2.24-4.24 2.24-2.88 0-4.6-2.12-4.6-6.6zm21.876-6.16h9.08v17.2h6.04v-21.96h-15.12v4.76zm11.8-8.2c2.36 0 4.08-1.48 4.08-3.76s-1.72-3.88-4.08-3.88c-2.4 0-4.12 1.6-4.12 3.88s1.72 3.76 4.12 3.76zm13.56 14.44c0 7.2 3.68 11.48 9.32 11.48 2.28 0 4.6-1.24 6.24-2.88h.12l.48 2.36h4.92v-31.2h-6.04v7.64l.24 3.52c-1.64-1.48-3.28-2.44-5.8-2.44-4.84 0-9.48 4.32-9.48 11.52zm6.2-.08c0-4.28 2.2-6.48 4.8-6.48 1.4 0 2.72.44 4.04 1.64v9.2c-1.28 1.6-2.64 2.24-4.24 2.24-2.88 0-4.6-2.12-4.6-6.6zm27.68-13.12h3.52c3.6 0 5.56 1.04 5.56 4.08 0 3-1.96 4.52-5.56 4.52h-3.52v-8.6zm16.36 24.16l-6.68-11.72c3.2-1.36 5.36-4.04 5.36-8.36 0-6.76-4.92-8.92-11-8.92h-10.08v29h6.04v-10.72h3.76l5.76 10.72h6.84zm3.558-10.96c0 7.28 5.32 11.48 12.08 11.48 3.04 0 6.2-1 8.64-2.52l-2-3.68c-1.96 1-3.76 1.56-5.8 1.56-3.52 0-6.32-1.64-6.72-5.12h15.2c.08-.52.24-1.64.24-2.76 0-5.96-3.6-10.48-10.28-10.48-5.8 0-11.36 4.32-11.36 11.52zm6.16-2.32c.52-3.08 2.76-4.56 5.36-4.56 3.12 0 4.6 1.76 4.6 4.56h-9.96zm21.078 2.32c0 7.28 5.28 11.48 12.2 11.48 3.04 0 6.36-1.04 9-3.28l-2.48-3.8c-1.64 1.16-3.6 2.2-6 2.2-3.84 0-6.52-2.6-6.52-6.6 0-4 2.76-6.64 6.72-6.64 1.8 0 3.36.64 5.04 1.92l2.84-3.8c-1.84-1.72-4.68-3-8.2-3-6.72 0-12.6 4.2-12.6 11.52zm26.2 0c0 7.28 5.32 11.48 12.08 11.48 3.04 0 6.2-1 8.64-2.52l-2-3.68c-1.96 1-3.76 1.56-5.8 1.56-3.52 0-6.32-1.64-6.72-5.12h15.2c.08-.52.24-1.64.24-2.76 0-5.96-3.6-10.48-10.28-10.48-5.8 0-11.36 4.32-11.36 11.52zm6.16-2.32c.52-3.08 2.76-4.56 5.36-4.56 3.12 0 4.6 1.76 4.6 4.56h-9.96zm21.558-3.92h9.08v17.2h6.04v-21.96h-15.12v4.76zm11.8-8.2c2.36 0 4.08-1.48 4.08-3.76s-1.72-3.88-4.08-3.88c-2.4 0-4.12 1.6-4.12 3.88s1.72 3.76 4.12 3.76zm21.32 25.4h6.92l8.2-21.96h-5.76l-3.72 10.72c-.72 2.16-1.36 4.44-2.04 6.68h-.2c-.64-2.24-1.28-4.52-2.04-6.68l-3.68-10.72h-6.08l8.4 21.96zm19.316-10.96c0 7.28 5.32 11.48 12.08 11.48 3.04 0 6.2-1 8.64-2.52l-2-3.68c-1.96 1-3.76 1.56-5.8 1.56-3.52 0-6.32-1.64-6.72-5.12h15.2c.08-.52.24-1.64.24-2.76 0-5.96-3.6-10.48-10.28-10.48-5.8 0-11.36 4.32-11.36 11.52zm6.16-2.32c.52-3.08 2.76-4.56 5.36-4.56 3.12 0 4.6 1.76 4.6 4.56h-9.96zm20.96 13.28h4.88v-10.6c0-3-.48-9.44-.76-12.4h.16l2.12 7.64 2.52 7.6h2.76l2.52-7.6 2.2-7.64h.12c-.28 2.96-.8 9.4-.8 12.4v10.6h5v-29h-6.16l-3.04 10.64-1.04 4.12h-.12l-1.08-4.12-3.12-10.64h-6.16v29zm26.32-10.96c0 7.28 5.32 11.48 12.08 11.48 3.04 0 6.2-1 8.64-2.52l-2-3.68c-1.96 1-3.76 1.56-5.8 1.56-3.52 0-6.32-1.64-6.72-5.12h15.2c.08-.52.24-1.64.24-2.76 0-5.96-3.6-10.48-10.28-10.48-5.8 0-11.36 4.32-11.36 11.52zm6.16-2.32c.52-3.08 2.76-4.56 5.36-4.56 3.12 0 4.6 1.76 4.6 4.56h-9.96zm19.758 13.28h5.72v-15c.68-1.56 1.32-2.32 2.24-2.32.96 0 1.48.76 1.48 2.32v15h4.64v-15c.68-1.56 1.44-2.32 2.36-2.32 1 0 1.4.76 1.4 2.32v15h5.72V267.6c0-4.4-1.8-7.04-4.88-7.04-2.44 0-4 1.6-4.88 3.6-.48-2.36-1.92-3.6-3.88-3.6-2.52 0-3.84 1.44-4.76 3.32h-.16l-.44-2.8h-4.56v21.96zm27.158-10.96c0 7.28 5.32 11.48 11.12 11.48 5.8 0 11.12-4.2 11.12-11.48 0-7.32-5.32-11.52-11.12-11.52-5.8 0-11.12 4.2-11.12 11.52zm6.2 0c0-4 1.72-6.64 4.92-6.64s4.92 2.64 4.92 6.64c0 4-1.72 6.6-4.92 6.6s-4.92-2.6-4.92-6.6zm23.68 10.96h6.04V271.4c2-4.08 4.88-5.52 7.68-5.52 1.6 0 2.52.24 3.92.68l1.24-5.12c-1.28-.56-2.36-.88-4.24-.88-3.6 0-6.88 1.84-9.04 5.4h-.16l-.48-4.88h-4.96v21.96zm25.438 3.64l-1.12 4.64c.92.28 2.04.44 3.28.44 5.48 0 8.08-2.92 10.16-8.24l8.8-22.44h-5.72l-3.48 9.88c-.68 2.12-1.44 4.4-2.08 6.56h-.16c-.76-2.28-1.48-4.52-2.28-6.56l-3.96-9.88h-6l9.6 21.48-.44 1.24c-.8 1.88-2.24 3.16-4.84 3.16-.6 0-1.2-.08-1.76-.28zm26.8-3.64h6.28l1.96-9.6c.4-1.84.68-3.76.88-5.52h.12c.16 1.76.48 3.68.84 5.52l2.08 9.6h6.4l3.72-29h-5.76l-1.12 15.92c-.08 2.36-.16 4.84-.24 7.32h-.16c-.48-2.48-1.16-4.96-1.6-7.32l-2.12-8.52h-3.72l-2.2 8.52c-.48 2.4-1.12 4.88-1.56 7.32h-.16c-.08-2.44-.2-4.88-.28-7.32l-1.08-15.92h-6.2l3.92 29zM828.08 277c0 3.76 2.84 6.56 7.24 6.56 2.88 0 5.68-1.4 7.92-3.08h.16l.44 2.56h4.96v-12.72c0-6.52-3.6-9.76-9.72-9.76-3.76 0-7.32 1.28-10.2 3l2.16 3.96c2.4-1.24 4.64-2.12 6.84-2.12 3.16 0 4.68 1.4 4.88 3.52-10.52.72-14.68 3.16-14.68 8.08zm5.8-.44c0-2.08 1.92-3.52 8.88-3.92v3.96c-1.72 1.32-3.52 2.28-5.56 2.28-1.96 0-3.32-.76-3.32-2.32zm23.4 6.48h6.04V271.4c2-4.08 4.88-5.52 7.68-5.52 1.6 0 2.52.24 3.92.68l1.24-5.12c-1.28-.56-2.36-.88-4.24-.88-3.6 0-6.88 1.84-9.04 5.4h-.16l-.48-4.88h-4.96v21.96zm24.72 0h6.04v-14.76c1.72-1.68 2.96-2.56 4.88-2.56 2.56 0 3.52 1.4 3.52 4.56v12.76h6.04v-13.56c0-5.6-2.24-8.92-7.2-8.92-3.32 0-5.76 1.64-7.72 3.6h-.16l-.48-3.08H882v21.96zm26.918-17.2h9.08v17.2h6.04v-21.96h-15.12v4.76zm11.8-8.2c2.36 0 4.08-1.48 4.08-3.76s-1.72-3.88-4.08-3.88c-2.4 0-4.12 1.6-4.12 3.88s1.72 3.76 4.12 3.76zm14.718 25.4h6.04v-14.76c1.72-1.68 2.96-2.56 4.88-2.56 2.56 0 3.52 1.4 3.52 4.56v12.76h6.04v-13.56c0-5.6-2.24-8.92-7.2-8.92-3.32 0-5.76 1.64-7.72 3.6h-.16l-.48-3.08h-4.92v21.96zm30.76 2.88c0-.88.52-1.64 1.76-2.4.84.2 1.84.32 3.36.32h3.04c2.6 0 4 .32 4 1.84 0 1.64-2.52 3-6.28 3-3.68 0-5.88-1.04-5.88-2.76zm-4.96.88c0 3.92 4.16 5.72 10 5.72 7.88 0 12.92-3.36 12.92-7.88 0-3.88-3.08-5.52-8.84-5.52h-4.2c-2.6 0-3.84-.52-3.84-1.76 0-.8.36-1.28 1.08-1.76 1.16.32 2.2.52 3.16.52 5 0 8.92-2.44 8.92-7.44 0-1.28-.52-2.44-1.12-3.16h4.68v-4.44h-8.96c-1-.36-2.24-.52-3.52-.52-4.96 0-9.28 2.76-9.28 7.96 0 2.56 1.28 4.52 2.88 5.64v.16c-1.6 1.08-2.64 2.68-2.64 4.16 0 1.8 1 2.96 2.2 3.68v.16c-2.24 1.16-3.44 2.72-3.44 4.48zm10.28-14.44c-1.96 0-3.56-1.36-3.56-3.84 0-2.44 1.6-3.88 3.56-3.88s3.6 1.44 3.6 3.88c0 2.48-1.64 3.84-3.6 3.84zm31.718 18.6l3.36-2.72c-5.44-5.12-7.76-10.48-7.76-17.56 0-7.08 2.32-12.4 7.76-17.52l-3.36-2.72c-5.84 5.04-9.48 11.88-9.48 20.24 0 8.4 3.64 15.24 9.48 20.28zm17.92 0c5.88-5.04 9.48-11.88 9.48-20.28 0-8.36-3.6-15.2-9.48-20.24l-3.36 2.72c5.44 5.12 7.76 10.44 7.76 17.52s-2.32 12.44-7.76 17.56l3.36 2.72zm-912.76 45.6v3.24h3.32c5.68 0 8.24-1.48 8.24-6.24 0-3.16-.48-4.92-.48-7.76 0-1.6 1.32-3.24 6.16-3.32v-3.56c-4.84-.08-6.16-1.72-6.16-3.32 0-2.76.48-4.64.48-7.76 0-4.76-2.56-6.24-8.24-6.24h-3.32v3.24h1.92c3.8 0 4.64.72 4.64 3.28 0 2.36-.16 4.72-.16 7.36 0 3.28 1.2 4.6 4.36 5.12v.2c-3.16.52-4.36 1.84-4.36 5.12 0 2.72.16 4.92.16 7.36 0 2.56-.84 3.28-4.64 3.28h-1.92zm-106.874 50v3.24h3.32c5.68 0 8.24-1.48 8.24-6.24 0-3.16-.48-4.92-.48-7.76 0-1.6 1.32-3.24 6.16-3.32v-3.56c-4.84-.08-6.16-1.72-6.16-3.32 0-2.76.48-4.64.48-7.76 0-4.76-2.56-6.24-8.24-6.24H1.52v3.24h1.92c3.8 0 4.64.72 4.64 3.28 0 2.36-.16 4.72-.16 7.36 0 3.28 1.2 4.6 4.36 5.12v.2c-3.16.52-4.36 1.84-4.36 5.12 0 2.72.16 4.92.16 7.36 0 2.56-.84 3.28-4.64 3.28H1.52z" style="-inkscape-font-specification:'Source Han Code JP Bold'"/>
    </g>
    <path fill="#909060" d="M180.292 115.61c0 10.628 8.57 19.27 13.885 19.347l693.583.136c6.588.058 15.542-8.614 15.542-19.31 0-10.7-8.954-19.37-15.226-19.34l-692.326-.09c-6.783-.118-15.458 8.556-15.458 19.257z"/>
  </g>
</svg>
