<svg xmlns="http://www.w3.org/2000/svg" viewBox="0 0 1032.376 139.8">
  <g fill="#fff" fill-opacity=".784">
    <g style="line-height:125%" font-size="40" font-family="Source Han Code JP" letter-spacing="0" word-spacing="0" font-weight="bold">
      <path d="M22.12 2.52c-1.88-.68-4.16-1.2-6.56-1.2-6.76 0-9.68 3.88-9.68 9v.76L0 11.36v4.48h5.88v17.2h6.04v-17.2h7.84v-4.76h-7.84v-.8c0-2.84 1.36-4.2 4.32-4.2 1.72 0 3.24.32 4.68.88l1.2-4.44zm3 19.56c0 7.28 5.32 11.48 11.12 11.48 5.8 0 11.12-4.2 11.12-11.48 0-7.32-5.32-11.52-11.12-11.52-5.8 0-11.12 4.2-11.12 11.52zm6.2 0c0-4 1.72-6.64 4.92-6.64s4.92 2.64 4.92 6.64c0 4-1.72 6.6-4.92 6.6s-4.92-2.6-4.92-6.6zm23.677 10.96h6.04V21.4c2-4.08 4.88-5.52 7.68-5.52 1.6 0 2.52.24 3.92.68l1.24-5.12c-1.28-.56-2.36-.88-4.24-.88-3.6 0-6.88 1.84-9.04 5.4h-.16l-.48-4.88h-4.96v21.96zm65.798 7.92l3.36-2.72c-5.44-5.12-7.76-10.48-7.76-17.56 0-7.08 2.32-12.4 7.76-17.52l-3.36-2.72c-5.84 5.04-9.48 11.88-9.48 20.24 0 8.4 3.64 15.24 9.48 20.28z" style="-inkscape-font-specification:'Source Han Code JP Bold'"/>
      <path fill="#909060" d="M133.354 15.84h9.08v17.2h6.04V11.08h-15.12v4.76zm11.8-8.2c2.36 0 4.08-1.48 4.08-3.76S147.514 0 145.154 0c-2.4 0-4.12 1.6-4.12 3.88s1.72 3.76 4.12 3.76zm14.718 25.4h6.04V18.28c1.72-1.68 2.96-2.56 4.88-2.56 2.56 0 3.52 1.4 3.52 4.56v12.76h6.04V19.48c0-5.6-2.24-8.92-7.2-8.92-3.32 0-5.76 1.64-7.72 3.6h-.16l-.48-3.08h-4.92v21.96zm31.358-9c0 5.68 2.4 9.52 9.24 9.52 2.76 0 5.2-.56 7.16-1.2L206.51 28c-1.36.48-2.8.8-4.52.8-3.36 0-4.72-1.4-4.72-4.84v-8.12h9.52v-4.76h-9.52V5.2h-5.04l-.76 5.88-5.88.28v4.48h5.64v8.2z" style="-inkscape-font-specification:'Source Han Code JP Bold'"/>
      <path d="M240.23 15.84h9.08v17.2h6.04V11.08h-15.12v4.76zm11.8-8.2c2.36 0 4.08-1.48 4.08-3.76S254.39 0 252.03 0c-2.4 0-4.12 1.6-4.12 3.88s1.72 3.76 4.12 3.76zm41.316 7.8h20.16v-4.32h-20.16v4.32zm0 10.2h20.16v-4.32h-20.16v4.32zm63.518 7.92c6.48 0 10.72-5.2 10.72-14.76 0-9.56-4.24-14.52-10.72-14.52s-10.72 4.96-10.72 14.52c0 9.56 4.24 14.76 10.72 14.76zm0-24.6c3 0 5.32 2.36 5.32 9.84s-2.32 10.08-5.32 10.08c-3 0-5.32-2.6-5.32-10.08s2.32-9.84 5.32-9.84zm0 13.04c1.8 0 3.24-1.28 3.24-3.32 0-2-1.44-3.28-3.24-3.28-1.8 0-3.24 1.28-3.24 3.28 0 2.04 1.44 3.32 3.24 3.32zm26.718-3.04c2.88 0 4.88-2.16 4.88-4.96s-2-4.96-4.88-4.96-4.88 2.16-4.88 4.96 2 4.96 4.88 4.96zm-3.6 23.68c5.92-1.88 9.12-5.84 9.12-11.4 0-4.56-1.84-7.28-5.28-7.28-2.64 0-4.76 1.68-4.76 4.32 0 2.84 2.16 4.4 4.6 4.4.16 0 .36 0 .52-.04-.04 2.88-1.92 5.04-5.72 6.44l1.52 3.56zm47.278-26.8h9.08v17.2h6.04V11.08h-15.12v4.76zm11.8-8.2c2.36 0 4.08-1.48 4.08-3.76S441.42 0 439.06 0c-2.4 0-4.12 1.6-4.12 3.88s1.72 3.76 4.12 3.76zm43.277 12.76l17.04 11.12V26l-12.04-7.6v-.2l12.04-7.6V5.08l-17.04 11.12v4.2z" style="-inkscape-font-specification:'Source Han Code JP Bold'"/>
      <path fill="#c09090" d="M532.335 33.04h5.72v-15c.68-1.56 1.32-2.32 2.24-2.32.96 0 1.48.76 1.48 2.32v15h4.64v-15c.68-1.56 1.44-2.32 2.36-2.32 1 0 1.4.76 1.4 2.32v15h5.72V17.6c0-4.4-1.8-7.04-4.88-7.04-2.44 0-4 1.6-4.88 3.6-.48-2.36-1.92-3.6-3.88-3.6-2.52 0-3.84 1.44-4.76 3.32h-.16l-.44-2.8h-4.56v21.96zm27.84-6.04c0 3.76 2.84 6.56 7.24 6.56 2.88 0 5.68-1.4 7.92-3.08h.16l.44 2.56h4.96V20.32c0-6.52-3.6-9.76-9.72-9.76-3.76 0-7.32 1.28-10.2 3l2.16 3.96c2.4-1.24 4.64-2.12 6.84-2.12 3.16 0 4.68 1.4 4.88 3.52-10.52.72-14.68 3.16-14.68 8.08zm5.8-.44c0-2.08 1.92-3.52 8.88-3.92v3.96c-1.72 1.32-3.52 2.28-5.56 2.28-1.96 0-3.32-.76-3.32-2.32zm19.877 6.48h6.36l2.4-3.84c.68-1.32 1.44-2.6 2.16-3.88h.16c.84 1.24 1.76 2.64 2.6 3.84l2.72 3.88h6.52l-7.76-10.72 7.28-11.24h-6.36l-2.12 3.76c-.64 1.2-1.36 2.52-1.96 3.76h-.2c-.72-1.24-1.64-2.52-2.28-3.76l-2.48-3.76h-6.52l7.2 10.56-7.72 11.4z" style="-inkscape-font-specification:'Source Han Code JP Bold'"/>
      <path d="M624.05 18.96c2.88 0 4.88-2.16 4.88-4.96s-2-4.96-4.88-4.96-4.88 2.16-4.88 4.96 2 4.96 4.88 4.96zm-3.6 23.68c5.92-1.88 9.12-5.84 9.12-11.4 0-4.56-1.84-7.28-5.28-7.28-2.64 0-4.76 1.68-4.76 4.32 0 2.84 2.16 4.4 4.6 4.4.16 0 .36 0 .52-.04-.04 2.88-1.92 5.04-5.72 6.44l1.52 3.56zm47.28-26.8h9.08v17.2h6.04V11.08h-15.12v4.76zm11.8-8.2c2.36 0 4.08-1.48 4.08-3.76S681.89 0 679.53 0c-2.4 0-4.12 1.6-4.12 3.88s1.72 3.76 4.12 3.76zm22.437 21.16h4.48v-8.28h7.84v-4.28h-7.84V7.96h-4.48v8.28h-7.84v4.28h7.84v8.28zm26.72 0h4.48v-8.28h7.84v-4.28h-7.84V7.96h-4.48v8.28h-7.84v4.28h7.84v8.28zm24.558 12.16c5.88-5.04 9.48-11.88 9.48-20.28 0-8.36-3.6-15.2-9.48-20.24l-3.36 2.72c5.44 5.12 7.76 10.44 7.76 17.52s-2.32 12.44-7.76 17.56l3.36 2.72zm55.037-7.4c0 4.76 2.56 6.24 8.24 6.24h3.32v-3.24h-1.92c-3.84 0-4.68-.72-4.68-3.28 0-2.44.2-4.64.2-7.36 0-3.28-1.2-4.6-4.36-5.12v-.2c3.16-.52 4.36-1.84 4.36-5.12 0-2.64-.2-5-.2-7.36 0-2.56.84-3.28 4.68-3.28h1.92V1.6h-3.32c-5.68 0-8.24 1.48-8.24 6.24 0 3.12.44 5 .44 7.76 0 1.6-1.32 3.24-6.16 3.32v3.56c4.84.08 6.16 1.72 6.16 3.32 0 2.84-.44 4.6-.44 7.76zM.8 136.56v3.24h3.32c5.68 0 8.24-1.48 8.24-6.24 0-3.16-.48-4.92-.48-7.76 0-1.6 1.32-3.24 6.16-3.32v-3.56c-4.84-.08-6.16-1.72-6.16-3.32 0-2.76.48-4.64.48-7.76 0-4.76-2.56-6.24-8.24-6.24H.8v3.24h1.92c3.8 0 4.64.72 4.64 3.28 0 2.36-.16 4.72-.16 7.36 0 3.28 1.2 4.6 4.36 5.12v.2c-3.16.52-4.36 1.84-4.36 5.12 0 2.72.16 4.92.16 7.36 0 2.56-.84 3.28-4.64 3.28H.8z" style="-inkscape-font-specification:'Source Han Code JP Bold'"/>
    </g>
    <path d="M64.34 71.027c.01 10.628 8.57 19.27 13.885 19.347l938.61.136c6.586.058 15.54-8.614 15.54-19.31 0-10.7-8.954-19.37-15.226-19.34l-937.354-.09c-6.783-.118-15.458 8.556-15.458 19.257z"/>
  </g>
</svg>
