<svg xmlns="http://www.w3.org/2000/svg" viewBox="0 0 1663.355 144.16">
  <g fill-opacity=".784">
    <g fill="#fff" style="line-height:125%" font-size="40" font-family="Source Han Code JP" letter-spacing="0" word-spacing="0" font-weight="bold">
      <path d="M0 27c0 3.76 2.84 6.56 7.24 6.56 2.88 0 5.68-1.4 7.92-3.08h.16l.44 2.56h4.96V20.32c0-6.52-3.6-9.76-9.72-9.76-3.76 0-7.32 1.28-10.2 3l2.16 3.96c2.4-1.24 4.64-2.12 6.84-2.12 3.16 0 4.68 1.4 4.88 3.52C4.16 19.64 0 22.08 0 27zm5.8-.44c0-2.08 1.92-3.52 8.88-3.92v3.96c-1.72 1.32-3.52 2.28-5.56 2.28-1.96 0-3.32-.76-3.32-2.32zm20.56 3.64c2.72 1.84 6.72 3.36 10.72 3.36 6.88 0 10.64-3.08 10.64-6.96 0-3.76-3.6-5.4-8.2-6.6-3.28-.84-5.8-1.56-5.8-2.96 0-1.24 1.08-1.96 4.04-1.96 2.4 0 4.56.88 6.56 2.12l2.72-3.68c-2.28-1.44-5.56-2.96-9.36-2.96-6.28 0-10 2.76-10 6.76 0 3.44 3.96 5.28 7.92 6.4 3.84 1 6.08 1.84 6.08 3.2 0 1.28-1.32 2.12-4.44 2.12s-5.64-1-8.16-2.64l-2.72 3.8zm28.278 6.48l-1.12 4.64c.92.28 2.04.44 3.28.44 5.48 0 8.08-2.92 10.16-8.24l8.8-22.44h-5.72l-3.48 9.88c-.68 2.12-1.44 4.4-2.08 6.56h-.16c-.76-2.28-1.48-4.52-2.28-6.56l-3.96-9.88h-6l9.6 21.48-.44 1.24c-.8 1.88-2.24 3.16-4.84 3.16-.6 0-1.2-.08-1.76-.28zm25.998-3.64h6.04V18.28c1.72-1.68 2.96-2.56 4.88-2.56 2.56 0 3.52 1.4 3.52 4.56v12.76h6.04V19.48c0-5.6-2.24-8.92-7.2-8.92-3.32 0-5.76 1.64-7.72 3.6h-.16l-.48-3.08h-4.92v21.96zm26.44-10.96c0 7.28 5.28 11.48 12.2 11.48 3.04 0 6.36-1.04 9-3.28l-2.48-3.8c-1.64 1.16-3.6 2.2-6 2.2-3.84 0-6.52-2.6-6.52-6.6 0-4 2.76-6.64 6.72-6.64 1.8 0 3.36.64 5.04 1.92l2.84-3.8c-1.84-1.72-4.68-3-8.2-3-6.72 0-12.6 4.2-12.6 11.52zm60.877 11.48c0 4.76 2.56 6.24 8.24 6.24h3.32v-3.24h-1.92c-3.84 0-4.68-.72-4.68-3.28 0-2.44.2-4.64.2-7.36 0-3.28-1.2-4.6-4.36-5.12v-.2c3.16-.52 4.36-1.84 4.36-5.12 0-2.64-.2-5-.2-7.36 0-2.56.84-3.28 4.68-3.28h1.92V1.6h-3.32c-5.68 0-8.24 1.48-8.24 6.24 0 3.12.44 5 .44 7.76 0 1.6-1.32 3.24-6.16 3.32v3.56c4.84.08 6.16 1.72 6.16 3.32 0 2.84-.44 4.6-.44 7.76z" style="-inkscape-font-specification:'Source Han Code JP Bold'"/>
      <path fill="#c09090" d="M213.75 6.6h6.56v18.04c0 5.56 2.8 8.92 8.2 8.92 2.68 0 4.24-.48 6.44-1.2l-1.36-4.44c-1.4.52-2.52.76-3.56.76-1.96 0-3.68-.96-3.68-3.76V1.84h-12.6V6.6zm26.4 15.48c0 7.28 5.32 11.48 12.08 11.48 3.04 0 6.2-1 8.64-2.52l-2-3.68c-1.96 1-3.76 1.56-5.8 1.56-3.52 0-6.32-1.64-6.72-5.12h15.2c.08-.52.24-1.64.24-2.76 0-5.96-3.6-10.48-10.28-10.48-5.8 0-11.36 4.32-11.36 11.52zm6.16-2.32c.52-3.08 2.76-4.56 5.36-4.56 3.12 0 4.6 1.76 4.6 4.56h-9.96zm25.998 4.28c0 5.68 2.4 9.52 9.24 9.52 2.76 0 5.2-.56 7.16-1.2l-1.12-4.36c-1.36.48-2.8.8-4.52.8-3.36 0-4.72-1.4-4.72-4.84v-8.12h9.52v-4.76h-9.52V5.2h-5.04l-.76 5.88-5.88.28v4.48h5.64v8.2zm30.038-2.16h4l.84-12.96.16-5.64h-6l.16 5.64.84 12.96zm-2.24 7.36c0 2.56 1.84 4.32 4.24 4.32 2.4 0 4.24-1.76 4.24-4.32 0-2.56-1.84-4.28-4.24-4.28-2.4 0-4.24 1.72-4.24 4.28z" style="-inkscape-font-specification:'Source Han Code JP Bold'"/>
      <path d="M347.824 33.04h6.04V18.28c1.72-1.68 2.96-2.56 4.88-2.56 2.56 0 3.52 1.4 3.52 4.56v12.76h6.04V19.48c0-5.6-2.24-8.92-7.2-8.92-3.32 0-5.76 1.64-7.56 3.44l.32-4.4V1.84h-6.04v31.2zm31.36-9c0 5.68 2.4 9.52 9.24 9.52 2.76 0 5.2-.56 7.16-1.2l-1.12-4.36c-1.36.48-2.8.8-4.52.8-3.36 0-4.72-1.4-4.72-4.84v-8.12h9.52v-4.76h-9.52V5.2h-5.04l-.76 5.88-5.88.28v4.48h5.64v8.2zm20.476 9h5.72v-15c.68-1.56 1.32-2.32 2.24-2.32.96 0 1.48.76 1.48 2.32v15h4.64v-15c.68-1.56 1.44-2.32 2.36-2.32 1 0 1.4.76 1.4 2.32v15h5.72V17.6c0-4.4-1.8-7.04-4.88-7.04-2.44 0-4 1.6-4.88 3.6-.48-2.36-1.92-3.6-3.88-3.6-2.52 0-3.84 1.44-4.76 3.32h-.16l-.44-2.8h-4.56v21.96zM427.5 6.6h6.56v18.04c0 5.56 2.8 8.92 8.2 8.92 2.68 0 4.24-.48 6.44-1.2l-1.36-4.44c-1.4.52-2.52.76-3.56.76-1.96 0-3.68-.96-3.68-3.76V1.84h-12.6V6.6zm53.798 8.84h20.16v-4.32h-20.16v4.32zm0 10.2h20.16v-4.32h-20.16v4.32zm53.157 7.4h6.08V20.72h8.56v12.32h6.08v-29h-6.08V15.4h-8.56V4.04h-6.08v29zm31.76-9c0 5.68 2.4 9.52 9.24 9.52 2.76 0 5.2-.56 7.16-1.2l-1.12-4.36c-1.36.48-2.8.8-4.52.8-3.36 0-4.72-1.4-4.72-4.84v-8.12h9.52v-4.76h-9.52V5.2h-5.04l-.76 5.88-5.88.28v4.48h5.64v8.2zm26.718 0c0 5.68 2.4 9.52 9.24 9.52 2.76 0 5.2-.56 7.16-1.2l-1.12-4.36c-1.36.48-2.8.8-4.52.8-3.36 0-4.72-1.4-4.72-4.84v-8.12h9.52v-4.76h-9.52V5.2h-5.04l-.76 5.88-5.88.28v4.48h5.64v8.2zm27.917 7.08c1.68 1.56 3.68 2.44 5.64 2.44 5 0 9.6-4.28 9.6-11.84 0-6.76-3.28-11.16-8.84-11.16-2.4 0-4.92 1.2-6.72 2.84h-.12l-.48-2.32h-4.92v30.28h6.04v-6.6l-.2-3.64zm.2-4.16v-9.2c1.52-1.6 2.96-2.24 4.48-2.24 3 0 4.36 2.2 4.36 6.28 0 4.68-2.08 6.8-4.72 6.8-1.2 0-2.76-.44-4.12-1.64zm25.76 1.64c0 2.84 2 4.96 4.88 4.96s4.88-2.12 4.88-4.96c0-2.8-2-4.96-4.88-4.96s-4.88 2.16-4.88 4.96zm28.2-7.52l.8-2.96c.8-2.96 1.64-6.32 2.36-9.4h.2c.8 3.08 1.64 6.44 2.4 9.4l.8 2.96h-6.56zm9.72 11.96h6.44l-9.16-29h-7.2l-9.16 29h6.2l1.92-7.2h9.04l1.92 7.2zm9.598-2.84c2.72 1.84 6.72 3.36 10.72 3.36 6.88 0 10.64-3.08 10.64-6.96 0-3.76-3.6-5.4-8.2-6.6-3.28-.84-5.8-1.56-5.8-2.96 0-1.24 1.08-1.96 4.04-1.96 2.4 0 4.56.88 6.56 2.12l2.72-3.68c-2.28-1.44-5.56-2.96-9.36-2.96-6.28 0-10 2.76-10 6.76 0 3.44 3.96 5.28 7.92 6.4 3.84 1 6.08 1.84 6.08 3.2 0 1.28-1.32 2.12-4.44 2.12s-5.64-1-8.16-2.64l-2.72 3.8zm28.278 6.48l-1.12 4.64c.92.28 2.04.44 3.28.44 5.48 0 8.08-2.92 10.16-8.24l8.8-22.44h-5.72l-3.48 9.88c-.68 2.12-1.44 4.4-2.08 6.56h-.16c-.76-2.28-1.48-4.52-2.28-6.56l-3.96-9.88h-6l9.6 21.48-.44 1.24c-.8 1.88-2.24 3.16-4.84 3.16-.6 0-1.2-.08-1.76-.28zm26-3.64h6.04V18.28c1.72-1.68 2.96-2.56 4.88-2.56 2.56 0 3.52 1.4 3.52 4.56v12.76h6.04V19.48c0-5.6-2.24-8.92-7.2-8.92-3.32 0-5.76 1.64-7.72 3.6h-.16l-.48-3.08h-4.92v21.96zm26.438-10.96c0 7.28 5.28 11.48 12.2 11.48 3.04 0 6.36-1.04 9-3.28l-2.48-3.8c-1.64 1.16-3.6 2.2-6 2.2-3.84 0-6.52-2.6-6.52-6.6 0-4 2.76-6.64 6.72-6.64 1.8 0 3.36.64 5.04 1.92l2.84-3.8c-1.84-1.72-4.68-3-8.2-3-6.72 0-12.6 4.2-12.6 11.52zm33-13.2h3.52c3.6 0 5.56 1.04 5.56 4.08 0 3-1.96 4.52-5.56 4.52h-3.52v-8.6zm16.36 24.16l-6.68-11.72c3.2-1.36 5.36-4.04 5.36-8.36 0-6.76-4.92-8.92-11-8.92h-10.08v29h6.04V22.32h3.76l5.76 10.72h6.84zm3.556-10.96c0 7.28 5.32 11.48 12.08 11.48 3.04 0 6.2-1 8.64-2.52l-2-3.68c-1.96 1-3.76 1.56-5.8 1.56-3.52 0-6.32-1.64-6.72-5.12h15.2c.08-.52.24-1.64.24-2.76 0-5.96-3.6-10.48-10.28-10.48-5.8 0-11.36 4.32-11.36 11.52zm6.16-2.32c.52-3.08 2.76-4.56 5.36-4.56 3.12 0 4.6 1.76 4.6 4.56h-9.96zm20.2 2.32c0 7.2 3.68 11.48 9.32 11.48 2.12 0 4.36-1.12 5.96-2.64l-.24 3.48v6.96h6.04V11.08h-4.76l-.48 2.28H870c-1.84-1.92-3.72-2.8-6.2-2.8-4.84 0-9.48 4.32-9.48 11.52zm6.2-.08c0-4.28 2.2-6.48 4.8-6.48 1.4 0 2.72.44 4.04 1.64v9.2c-1.28 1.6-2.64 2.24-4.24 2.24-2.88 0-4.6-2.12-4.6-6.6zM902 11.08h-6.04v14.56c-1.64 2.08-2.92 2.76-4.72 2.76-2.6 0-3.48-1.4-3.48-4.52v-12.8h-6.04v13.56c0 5.6 2.16 8.92 7.2 8.92 3.16 0 5.52-1.52 7.48-3.8h.2l.44 3.28H902V11.08zm6.118 11c0 7.28 5.32 11.48 12.08 11.48 3.04 0 6.2-1 8.64-2.52l-2-3.68c-1.96 1-3.76 1.56-5.8 1.56-3.52 0-6.32-1.64-6.72-5.12h15.2c.08-.52.24-1.64.24-2.76 0-5.96-3.6-10.48-10.28-10.48-5.8 0-11.36 4.32-11.36 11.52zm6.16-2.32c.52-3.08 2.76-4.56 5.36-4.56 3.12 0 4.6 1.76 4.6 4.56h-9.96zm20.518 10.44c2.72 1.84 6.72 3.36 10.72 3.36 6.88 0 10.64-3.08 10.64-6.96 0-3.76-3.6-5.4-8.2-6.6-3.28-.84-5.8-1.56-5.8-2.96 0-1.24 1.08-1.96 4.04-1.96 2.4 0 4.56.88 6.56 2.12l2.72-3.68c-2.28-1.44-5.56-2.96-9.36-2.96-6.28 0-10 2.76-10 6.76 0 3.44 3.96 5.28 7.92 6.4 3.84 1 6.08 1.84 6.08 3.2 0 1.28-1.32 2.12-4.44 2.12s-5.64-1-8.16-2.64l-2.72 3.8zm32.2-6.16c0 5.68 2.4 9.52 9.24 9.52 2.76 0 5.2-.56 7.16-1.2l-1.12-4.36c-1.36.48-2.8.8-4.52.8-3.36 0-4.72-1.4-4.72-4.84v-8.12h9.52v-4.76h-9.52V5.2h-5.04l-.76 5.88-5.88.28v4.48h5.64v8.2zm21.078 5.32c3 2.76 6.96 4.2 10.96 4.2 7 0 11.04-4.04 11.04-8.84 0-4.12-2.48-6.44-6.24-7.84l-3.64-1.56c-2.72-1.04-4.76-1.72-4.76-3.68 0-1.8 1.56-2.88 4.28-2.88 2.52 0 4.4.88 6.4 2.4l3.08-3.84c-2.56-2.44-6-3.8-9.48-3.8-6.2 0-10.44 3.76-10.44 8.48 0 4.24 3 6.64 6.16 7.84l3.8 1.64c2.84 1.04 4.64 1.72 4.64 3.72 0 1.92-1.52 3.12-4.72 3.12-2.64 0-5.4-1.28-7.56-3.12l-3.52 4.16zm32.36-5.32c0 5.68 2.4 9.52 9.24 9.52 2.76 0 5.2-.56 7.16-1.2l-1.12-4.36c-1.36.48-2.8.8-4.52.8-3.36 0-4.72-1.4-4.72-4.84v-8.12h9.52v-4.76h-9.52V5.2h-5.04l-.76 5.88-5.88.28v4.48h5.64v8.2zm24.076 9h6.04V21.4c2-4.08 4.88-5.52 7.68-5.52 1.6 0 2.52.24 3.92.68l1.24-5.12c-1.28-.56-2.36-.88-4.24-.88-3.6 0-6.88 1.84-9.04 5.4h-.16l-.48-4.88h-4.96v21.96zm24.92-17.2h9.08v17.2h6.04V11.08h-15.12v4.76zm11.8-8.2c2.36 0 4.08-1.48 4.08-3.76S1083.59 0 1081.23 0c-2.4 0-4.12 1.6-4.12 3.88s1.72 3.76 4.12 3.76zm14.72 25.4h6.04V18.28c1.72-1.68 2.96-2.56 4.88-2.56 2.56 0 3.52 1.4 3.52 4.56v12.76h6.04V19.48c0-5.6-2.24-8.92-7.2-8.92-3.32 0-5.76 1.64-7.72 3.6h-.16l-.48-3.08h-4.92v21.96zm30.758 2.88c0-.88.52-1.64 1.76-2.4.84.2 1.84.32 3.36.32h3.04c2.6 0 4 .32 4 1.84 0 1.64-2.52 3-6.28 3-3.68 0-5.88-1.04-5.88-2.76zm-4.96.88c0 3.92 4.16 5.72 10 5.72 7.88 0 12.92-3.36 12.92-7.88 0-3.88-3.08-5.52-8.84-5.52h-4.2c-2.6 0-3.84-.52-3.84-1.76 0-.8.36-1.28 1.08-1.76 1.16.32 2.2.52 3.16.52 5 0 8.92-2.44 8.92-7.44 0-1.28-.52-2.44-1.12-3.16h4.68v-4.44h-8.96c-1-.36-2.24-.52-3.52-.52-4.96 0-9.28 2.76-9.28 7.96 0 2.56 1.28 4.52 2.88 5.64v.16c-1.6 1.08-2.64 2.68-2.64 4.16 0 1.8 1 2.96 2.2 3.68v.16c-2.24 1.16-3.44 2.72-3.44 4.48zm10.28-14.44c-1.96 0-3.56-1.36-3.56-3.84 0-2.44 1.6-3.88 3.56-3.88s3.6 1.44 3.6 3.88c0 2.48-1.64 3.84-3.6 3.84zm31.718 18.6l3.36-2.72c-5.44-5.12-7.76-10.48-7.76-17.56 0-7.08 2.32-12.4 7.76-17.52l-3.36-2.72c-5.84 5.04-9.48 11.88-9.48 20.24 0 8.4 3.64 15.24 9.48 20.28z" style="-inkscape-font-specification:'Source Han Code JP Bold'"/>
      <path fill="#6197a6" d="M1178.425 19.24h3.76l1.48-10.48.16-6.12h-7.08l.2 6.12 1.48 10.48zm11.52 0h3.76l1.48-10.48.2-6.12h-7.08l.2 6.12 1.44 10.48zm12.88 13.8h6.04V18.28c1.72-1.68 2.96-2.56 4.88-2.56 2.56 0 3.52 1.4 3.52 4.56v12.76h6.04V19.48c0-5.6-2.24-8.92-7.2-8.92-3.32 0-5.76 1.64-7.56 3.44l.32-4.4V1.84h-6.04v31.2zm31.358-9c0 5.68 2.4 9.52 9.24 9.52 2.76 0 5.2-.56 7.16-1.2l-1.12-4.36c-1.36.48-2.8.8-4.52.8-3.36 0-4.72-1.4-4.72-4.84v-8.12h9.52v-4.76h-9.52V5.2h-5.04l-.76 5.88-5.88.28v4.48h5.64v8.2zm26.717 0c0 5.68 2.4 9.52 9.24 9.52 2.76 0 5.2-.56 7.16-1.2l-1.12-4.36c-1.36.48-2.8.8-4.52.8-3.36 0-4.72-1.4-4.72-4.84v-8.12h9.52v-4.76h-9.52V5.2h-5.04l-.76 5.88-5.88.28v4.48h5.64v8.2zm27.92 7.08c1.68 1.56 3.68 2.44 5.64 2.44 5 0 9.6-4.28 9.6-11.84 0-6.76-3.28-11.16-8.84-11.16-2.4 0-4.92 1.2-6.72 2.84h-.12l-.48-2.32h-4.92v30.28h6.04v-6.6l-.2-3.64zm.2-4.16v-9.2c1.52-1.6 2.96-2.24 4.48-2.24 3 0 4.36 2.2 4.36 6.28 0 4.68-2.08 6.8-4.72 6.8-1.2 0-2.76-.44-4.12-1.64zM1314.78 14c0 2.8 2 4.96 4.88 4.96s4.88-2.16 4.88-4.96-2-4.96-4.88-4.96-4.88 2.16-4.88 4.96zm0 14.6c0 2.84 2 4.96 4.88 4.96s4.88-2.12 4.88-4.96c0-2.8-2-4.96-4.88-4.96s-4.88 2.16-4.88 4.96zm41.438-27.08h-5.08l-14.6 38.64h5.08l14.6-38.64zm26.718 0h-5.08l-14.6 38.64h5.08l14.6-38.64zm240.98 17.72h3.76l1.48-10.48.16-6.12h-7.08l.2 6.12zm11.52 0h3.76l1.48-10.48.2-6.12h-7.08l.2 6.12z" style="-inkscape-font-specification:'Source Han Code JP Bold'"/>
      <path d="M1653.875 40.96c5.88-5.04 9.48-11.88 9.48-20.28 0-8.36-3.6-15.2-9.48-20.24l-3.36 2.72c5.44 5.12 7.76 10.44 7.76 17.52s-2.32 12.44-7.76 17.56zM220.07 81.12c1.68 1.56 3.68 2.44 5.64 2.44 5 0 9.6-4.28 9.6-11.84 0-6.76-3.28-11.16-8.84-11.16-2.4 0-4.92 1.2-6.72 2.84h-.12l-.48-2.32h-4.92v30.28h6.04v-6.6l-.2-3.64zm.2-4.16v-9.2c1.52-1.6 2.96-2.24 4.48-2.24 3 0 4.36 2.2 4.36 6.28 0 4.68-2.08 6.8-4.72 6.8-1.2 0-2.76-.44-4.12-1.64zm22.68 6.08h6.04V71.4c2-4.08 4.88-5.52 7.68-5.52 1.6 0 2.52.24 3.92.68l1.24-5.12c-1.28-.56-2.36-.88-4.24-.88-3.6 0-6.88 1.84-9.04 5.4h-.16l-.48-4.88h-4.96v21.96zm24.918-17.2h9.08v17.2h6.04V61.08h-15.12v4.76zm11.8-8.2c2.36 0 4.08-1.48 4.08-3.76s-1.72-3.88-4.08-3.88c-2.4 0-4.12 1.6-4.12 3.88s1.72 3.76 4.12 3.76zm14.718 25.4h6.04V68.28c1.72-1.68 2.96-2.56 4.88-2.56 2.56 0 3.52 1.4 3.52 4.56v12.76h6.04V69.48c0-5.6-2.24-8.92-7.2-8.92-3.32 0-5.76 1.64-7.72 3.6h-.16l-.48-3.08h-4.92v21.96zm31.36-9c0 5.68 2.4 9.52 9.24 9.52 2.76 0 5.2-.56 7.16-1.2l-1.12-4.36c-1.36.48-2.8.8-4.52.8-3.36 0-4.72-1.4-4.72-4.84v-8.12h9.52v-4.76h-9.52V55.2h-5.04l-.76 5.88-5.88.28v4.48h5.64v8.2zm44.638-21.52c-1.88-.68-4.16-1.2-6.56-1.2-6.76 0-9.68 3.88-9.68 9v.76l-5.88.28v4.48h5.88v17.2h6.04v-17.2h7.84v-4.76h-7.84v-.8c0-2.84 1.36-4.2 4.32-4.2 1.72 0 3.24.32 4.68.88l1.2-4.44zm4.16 30.52h6.04V68.28c1.72-1.68 2.96-2.56 4.88-2.56 2.56 0 3.52 1.4 3.52 4.56v12.76h6.04V69.48c0-5.6-2.24-8.92-7.2-8.92-3.32 0-5.76 1.64-7.72 3.6h-.16l-.48-3.08h-4.92v21.96zm55.756-13.8h3.76l1.48-10.48.16-6.12h-7.08l.2 6.12 1.48 10.48zm11.52 0h3.76l1.48-10.48.2-6.12h-7.08l.2 6.12 1.44 10.48zm17.12-.12c3.72 0 6.52-2.88 6.52-7.52 0-4.56-2.8-7.32-6.52-7.32-3.72 0-6.52 2.76-6.52 7.32 0 4.64 2.8 7.52 6.52 7.52zm0-3.28c-1.24 0-2.36-1.12-2.36-4.24s1.12-4.04 2.36-4.04c1.24 0 2.32.92 2.32 4.04s-1.08 4.24-2.32 4.24zm-3.6 15.92l7.24-8.88-2.12-1.96-8.28 7.84 3.16 3zm18.68-26.44l-7.2 8.88 2.12 2 8.24-7.8-3.16-3.08zm-3.64 28.24c3.72 0 6.52-2.88 6.52-7.48 0-4.6-2.8-7.36-6.52-7.36-3.72 0-6.52 2.76-6.52 7.36 0 4.6 2.8 7.48 6.52 7.48zm0-3.28c-1.24 0-2.32-1.12-2.32-4.2 0-3.16 1.08-4.08 2.32-4.08 1.24 0 2.36.92 2.36 4.08 0 3.08-1.12 4.2-2.36 4.2zm9.878-8.2c0 7.2 3.68 11.48 9.32 11.48 2.28 0 4.6-1.24 6.24-2.88h.12l.48 2.36h4.92v-31.2h-6.04v7.64l.24 3.52c-1.64-1.48-3.28-2.44-5.8-2.44-4.84 0-9.48 4.32-9.48 11.52zm6.2-.08c0-4.28 2.2-6.48 4.8-6.48 1.4 0 2.72.44 4.04 1.64v9.2c-1.28 1.6-2.64 2.24-4.24 2.24-2.88 0-4.6-2.12-4.6-6.6zm23.998-2.76h3.76l1.48-10.48.16-6.12h-7.08l.2 6.12 1.48 10.48zm11.52 0h3.76l1.48-10.48.2-6.12h-7.08l.2 6.12 1.44 10.48zm39.598 13.8h6.04V68.28c1.72-1.68 2.96-2.56 4.88-2.56 2.56 0 3.52 1.4 3.52 4.56v12.76h6.04V69.48c0-5.6-2.24-8.92-7.2-8.92-3.32 0-5.76 1.64-7.56 3.44l.32-4.4v-7.76h-6.04v31.2zm31.36-9c0 5.68 2.4 9.52 9.24 9.52 2.76 0 5.2-.56 7.16-1.2l-1.12-4.36c-1.36.48-2.8.8-4.52.8-3.36 0-4.72-1.4-4.72-4.84v-8.12h9.52v-4.76h-9.52V55.2h-5.04l-.76 5.88-5.88.28v4.48h5.64v8.2zm20.476 9h5.72v-15c.68-1.56 1.32-2.32 2.24-2.32.96 0 1.48.76 1.48 2.32v15h4.64v-15c.68-1.56 1.44-2.32 2.36-2.32 1 0 1.4.76 1.4 2.32v15h5.72V67.6c0-4.4-1.8-7.04-4.88-7.04-2.44 0-4 1.6-4.88 3.6-.48-2.36-1.92-3.6-3.88-3.6-2.52 0-3.84 1.44-4.76 3.32h-.16l-.44-2.8h-4.56v21.96zm27.84-26.44h6.56v18.04c0 5.56 2.8 8.92 8.2 8.92 2.68 0 4.24-.48 6.44-1.2l-1.36-4.44c-1.4.52-2.52.76-3.56.76-1.96 0-3.68-.96-3.68-3.76V51.84h-12.6v4.76zm32.28 22c0 2.84 2 4.96 4.88 4.96s4.88-2.12 4.88-4.96c0-2.8-2-4.96-4.88-4.96s-4.88 2.16-4.88 4.96zm23.238 4.44h19.16v-5.12h-13.16V54.04h-6v29zm24.318-10.96c0 7.28 5.32 11.48 12.08 11.48 3.04 0 6.2-1 8.64-2.52l-2-3.68c-1.96 1-3.76 1.56-5.8 1.56-3.52 0-6.32-1.64-6.72-5.12h15.2c.08-.52.24-1.64.24-2.76 0-5.96-3.6-10.48-10.28-10.48-5.8 0-11.36 4.32-11.36 11.52zm6.16-2.32c.52-3.08 2.76-4.56 5.36-4.56 3.12 0 4.6 1.76 4.6 4.56h-9.96zm21.36 13.28h6.04V68.28c1.72-1.68 2.96-2.56 4.88-2.56 2.56 0 3.52 1.4 3.52 4.56v12.76h6.04V69.48c0-5.6-2.24-8.92-7.2-8.92-3.32 0-5.76 1.64-7.72 3.6h-.16l-.48-3.08h-4.92v21.96zm30.758 2.88c0-.88.52-1.64 1.76-2.4.84.2 1.84.32 3.36.32h3.04c2.6 0 4 .32 4 1.84 0 1.64-2.52 3-6.28 3-3.68 0-5.88-1.04-5.88-2.76zm-4.96.88c0 3.92 4.16 5.72 10 5.72 7.88 0 12.92-3.36 12.92-7.88 0-3.88-3.08-5.52-8.84-5.52h-4.2c-2.6 0-3.84-.52-3.84-1.76 0-.8.36-1.28 1.08-1.76 1.16.32 2.2.52 3.16.52 5 0 8.92-2.44 8.92-7.44 0-1.28-.52-2.44-1.12-3.16h4.68v-4.44h-8.96c-1-.36-2.24-.52-3.52-.52-4.96 0-9.28 2.76-9.28 7.96 0 2.56 1.28 4.52 2.88 5.64v.16c-1.6 1.08-2.64 2.68-2.64 4.16 0 1.8 1 2.96 2.2 3.68v.16c-2.24 1.16-3.44 2.72-3.44 4.48zm10.28-14.44c-1.96 0-3.56-1.36-3.56-3.84 0-2.44 1.6-3.88 3.56-3.88s3.6 1.44 3.6 3.88c0 2.48-1.64 3.84-3.6 3.84zm22 1.68c0 5.68 2.4 9.52 9.24 9.52 2.76 0 5.2-.56 7.16-1.2l-1.12-4.36c-1.36.48-2.8.8-4.52.8-3.36 0-4.72-1.4-4.72-4.84v-8.12h9.52v-4.76h-9.52V55.2h-5.04l-.76 5.88-5.88.28v4.48h5.64v8.2zm22.076 9h6.04V68.28c1.72-1.68 2.96-2.56 4.88-2.56 2.56 0 3.52 1.4 3.52 4.56v12.76h6.04V69.48c0-5.6-2.24-8.92-7.2-8.92-3.32 0-5.76 1.64-7.56 3.44l.32-4.4v-7.76h-6.04v31.2zm54.68 3.52v3.24h3.32c5.68 0 8.24-1.48 8.24-6.24 0-3.16-.48-4.92-.48-7.76 0-1.6 1.32-3.24 6.16-3.32v-3.56c-4.84-.08-6.16-1.72-6.16-3.32 0-2.76.48-4.64.48-7.76 0-4.76-2.56-6.24-8.24-6.24h-3.32v3.24h1.92c3.8 0 4.64.72 4.64 3.28 0 2.36-.16 4.72-.16 7.36 0 3.28 1.2 4.6 4.36 5.12v.2c-3.16.52-4.36 1.84-4.36 5.12 0 2.72.16 4.92.16 7.36 0 2.56-.84 3.28-4.64 3.28h-1.92z" style="-inkscape-font-specification:'Source Han Code JP Bold'"/>
      <path fill="#909060" d="M7.76 144.16h5.36V99.72H7.76v44.44zm37.52-27.96l-17.04-11.12v5.52l12.04 7.6v.2L28.24 126v5.52l17.04-11.12v-4.2z" style="-inkscape-font-specification:'Source Han Code JP Bold'"/>
      <path d="M87.196 121.08l.8-2.96c.8-2.96 1.64-6.32 2.36-9.4h.2c.8 3.08 1.64 6.44 2.4 9.4l.8 2.96h-6.56zm9.72 11.96h6.44l-9.16-29h-7.2l-9.16 29h6.2l1.92-7.2h9.04l1.92 7.2zm9.6-2.84c2.72 1.84 6.72 3.36 10.72 3.36 6.88 0 10.64-3.08 10.64-6.96 0-3.76-3.6-5.4-8.2-6.6-3.28-.84-5.8-1.56-5.8-2.96 0-1.24 1.08-1.96 4.04-1.96 2.4 0 4.56.88 6.56 2.12l2.72-3.68c-2.28-1.44-5.56-2.96-9.36-2.96-6.28 0-10 2.76-10 6.76 0 3.44 3.96 5.28 7.92 6.4 3.84 1 6.08 1.84 6.08 3.2 0 1.28-1.32 2.12-4.44 2.12s-5.64-1-8.16-2.64l-2.72 3.8zm28.278 6.48l-1.12 4.64c.92.28 2.04.44 3.28.44 5.48 0 8.08-2.92 10.16-8.24l8.8-22.44h-5.72l-3.48 9.88c-.68 2.12-1.44 4.4-2.08 6.56h-.16c-.76-2.28-1.48-4.52-2.28-6.56l-3.96-9.88h-6l9.6 21.48-.44 1.24c-.8 1.88-2.24 3.16-4.84 3.16-.6 0-1.2-.08-1.76-.28zm26-3.64h6.04v-14.76c1.72-1.68 2.96-2.56 4.88-2.56 2.56 0 3.52 1.4 3.52 4.56v12.76h6.04v-13.56c0-5.6-2.24-8.92-7.2-8.92-3.32 0-5.76 1.64-7.72 3.6h-.16l-.48-3.08h-4.92v21.96zm26.436-10.96c0 7.28 5.28 11.48 12.2 11.48 3.04 0 6.36-1.04 9-3.28l-2.48-3.8c-1.64 1.16-3.6 2.2-6 2.2-3.84 0-6.52-2.6-6.52-6.6 0-4 2.76-6.64 6.72-6.64 1.8 0 3.36.64 5.04 1.92l2.84-3.8c-1.84-1.72-4.68-3-8.2-3-6.72 0-12.6 4.2-12.6 11.52zm32.08 6.52c0 2.84 2 4.96 4.88 4.96s4.88-2.12 4.88-4.96c0-2.8-2-4.96-4.88-4.96s-4.88 2.16-4.88 4.96zm20.64.76c3 2.76 6.96 4.2 10.96 4.2 7 0 11.04-4.04 11.04-8.84 0-4.12-2.48-6.44-6.24-7.84l-3.64-1.56c-2.72-1.04-4.76-1.72-4.76-3.68 0-1.8 1.56-2.88 4.28-2.88 2.52 0 4.4.88 6.4 2.4l3.08-3.84c-2.56-2.44-6-3.8-9.48-3.8-6.2 0-10.44 3.76-10.44 8.48 0 4.24 3 6.64 6.16 7.84l3.8 1.64c2.84 1.04 4.64 1.72 4.64 3.72 0 1.92-1.52 3.12-4.72 3.12-2.64 0-5.4-1.28-7.56-3.12l-3.52 4.16zm32.358-5.32c0 5.68 2.4 9.52 9.24 9.52 2.76 0 5.2-.56 7.16-1.2l-1.12-4.36c-1.36.48-2.8.8-4.52.8-3.36 0-4.72-1.4-4.72-4.84v-8.12h9.52v-4.76h-9.52v-5.88h-5.04l-.76 5.88-5.88.28v4.48h5.64v8.2zm21.598 2.96c0 3.76 2.84 6.56 7.24 6.56 2.88 0 5.68-1.4 7.92-3.08h.16l.44 2.56h4.96v-12.72c0-6.52-3.6-9.76-9.72-9.76-3.76 0-7.32 1.28-10.2 3l2.16 3.96c2.4-1.24 4.64-2.12 6.84-2.12 3.16 0 4.68 1.4 4.88 3.52-10.52.72-14.68 3.16-14.68 8.08zm5.8-.44c0-2.08 1.92-3.52 8.88-3.92v3.96c-1.72 1.32-3.52 2.28-5.56 2.28-1.96 0-3.32-.76-3.32-2.32zm23.4 6.48h6.04V121.4c2-4.08 4.88-5.52 7.68-5.52 1.6 0 2.52.24 3.92.68l1.24-5.12c-1.28-.56-2.36-.88-4.24-.88-3.6 0-6.88 1.84-9.04 5.4h-.16l-.48-4.88h-4.96v21.96zm29.358-9c0 5.68 2.4 9.52 9.24 9.52 2.76 0 5.2-.56 7.16-1.2l-1.12-4.36c-1.36.48-2.8.8-4.52.8-3.36 0-4.72-1.4-4.72-4.84v-8.12h9.52v-4.76h-9.52v-5.88h-5.04l-.76 5.88-5.88.28v4.48h5.64v8.2z" style="-inkscape-font-specification:'Source Han Code JP Bold'"/>
    </g>
    <path fill="#6197a6" d="M1388.23 20.54c.005 10.627 8.57 19.268 13.885 19.346l198.608.136c6.588.058 15.542-8.614 15.542-19.31 0-10.7-8.954-19.37-15.226-19.34l-197.355-.09c-6.783-.118-15.457 8.556-15.457 19.257z"/>
  </g>
</svg>
