<svg xmlns="http://www.w3.org/2000/svg" viewBox="0 0 1244.543 44.064">
  <g fill-opacity=".784">
    <g fill="#fff" style="line-height:125%" font-size="40" font-family="Source Han Code JP" letter-spacing="0" word-spacing="0" font-weight="bold">
      <path d="M5.84 31.12c1.68 1.56 3.68 2.44 5.64 2.44 5 0 9.6-4.28 9.6-11.84 0-6.76-3.28-11.16-8.84-11.16-2.4 0-4.92 1.2-6.72 2.84H5.4l-.48-2.32H0v30.28h6.04v-6.6l-.2-3.64zm.2-4.16v-9.2c1.52-1.6 2.96-2.24 4.48-2.24 3 0 4.36 2.2 4.36 6.28 0 4.68-2.08 6.8-4.72 6.8-1.2 0-2.76-.44-4.12-1.64zm40.48-15.88h-6.04v14.56c-1.64 2.08-2.92 2.76-4.72 2.76-2.6 0-3.48-1.4-3.48-4.52v-12.8h-6.04v13.56c0 5.6 2.16 8.92 7.2 8.92 3.16 0 5.52-1.52 7.48-3.8h.2l.44 3.28h4.96V11.08zm6.917 21.96h4.76l.48-2.4h.16c1.84 1.92 4.08 2.92 6.12 2.92 4.96 0 9.56-4.28 9.56-11.84 0-6.76-3.32-11.16-8.88-11.16-2.2 0-4.52 1-6.28 2.64l.12-3.6V1.84h-6.04v31.2zm6.04-6.08v-9.2c1.52-1.6 2.96-2.24 4.48-2.24 3 0 4.36 2.2 4.36 6.28 0 4.68-2.08 6.8-4.72 6.8-1.2 0-2.76-.44-4.12-1.64zm20.2-20.36h6.56v18.04c0 5.56 2.8 8.92 8.2 8.92 2.68 0 4.24-.48 6.44-1.2l-1.36-4.44c-1.4.52-2.52.76-3.56.76-1.96 0-3.68-.96-3.68-3.76V1.84h-12.6V6.6zm27.398 9.24h9.08v17.2h6.04V11.08h-15.12v4.76zm11.8-8.2c2.36 0 4.08-1.48 4.08-3.76S121.235 0 118.875 0c-2.4 0-4.12 1.6-4.12 3.88s1.72 3.76 4.12 3.76zm14.44 14.44c0 7.28 5.28 11.48 12.2 11.48 3.04 0 6.36-1.04 9-3.28l-2.48-3.8c-1.64 1.16-3.6 2.2-6 2.2-3.84 0-6.52-2.6-6.52-6.6 0-4 2.76-6.64 6.72-6.64 1.8 0 3.36.64 5.04 1.92l2.84-3.8c-1.84-1.72-4.68-3-8.2-3-6.72 0-12.6 4.2-12.6 11.52zm52.875 8.12c2.72 1.84 6.72 3.36 10.72 3.36 6.88 0 10.64-3.08 10.64-6.96 0-3.76-3.6-5.4-8.2-6.6-3.28-.84-5.8-1.56-5.8-2.96 0-1.24 1.08-1.96 4.04-1.96 2.4 0 4.56.88 6.56 2.12l2.72-3.68c-2.28-1.44-5.56-2.96-9.36-2.96-6.28 0-10 2.76-10 6.76 0 3.44 3.96 5.28 7.92 6.4 3.84 1 6.08 1.84 6.08 3.2 0 1.28-1.32 2.12-4.44 2.12s-5.64-1-8.16-2.64l-2.72 3.8zm32.2-6.16c0 5.68 2.4 9.52 9.24 9.52 2.76 0 5.2-.56 7.16-1.2L233.67 28c-1.36.48-2.8.8-4.52.8-3.36 0-4.72-1.4-4.72-4.84v-8.12h9.52v-4.76h-9.52V5.2h-5.04l-.76 5.88-5.88.28v4.48h5.64v8.2zm24.08 9h6.04V21.4c2-4.08 4.88-5.52 7.68-5.52 1.6 0 2.52.24 3.92.68l1.24-5.12c-1.28-.56-2.36-.88-4.24-.88-3.6 0-6.88 1.84-9.04 5.4h-.16l-.48-4.88h-4.96v21.96zm24.917-17.2h9.08v17.2h6.04V11.08h-15.12v4.76zm11.8-8.2c2.36 0 4.08-1.48 4.08-3.76S281.547 0 279.187 0c-2.4 0-4.12 1.6-4.12 3.88s1.72 3.76 4.12 3.76zm14.72 25.4h6.04V18.28c1.72-1.68 2.96-2.56 4.88-2.56 2.56 0 3.52 1.4 3.52 4.56v12.76h6.04V19.48c0-5.6-2.24-8.92-7.2-8.92-3.32 0-5.76 1.64-7.72 3.6h-.16l-.48-3.08h-4.92v21.96zm30.758 2.88c0-.88.52-1.64 1.76-2.4.84.2 1.84.32 3.36.32h3.04c2.6 0 4 .32 4 1.84 0 1.64-2.52 3-6.28 3-3.68 0-5.88-1.04-5.88-2.76zm-4.96.88c0 3.92 4.16 5.72 10 5.72 7.88 0 12.92-3.36 12.92-7.88 0-3.88-3.08-5.52-8.84-5.52h-4.2c-2.6 0-3.84-.52-3.84-1.76 0-.8.36-1.28 1.08-1.76 1.16.32 2.2.52 3.16.52 5 0 8.92-2.44 8.92-7.44 0-1.28-.52-2.44-1.12-3.16h4.68v-4.44h-8.96c-1-.36-2.24-.52-3.52-.52-4.96 0-9.28 2.76-9.28 7.96 0 2.56 1.28 4.52 2.88 5.64v.16c-1.6 1.08-2.64 2.68-2.64 4.16 0 1.8 1 2.96 2.2 3.68v.16c-2.24 1.16-3.44 2.72-3.44 4.48zm10.28-14.44c-1.96 0-3.56-1.36-3.56-3.84 0-2.44 1.6-3.88 3.56-3.88s3.6 1.44 3.6 3.88c0 2.48-1.64 3.84-3.6 3.84zm318.425 11.2c0 4.76 2.56 6.24 8.24 6.24h3.32v-3.24h-1.92c-3.84 0-4.68-.72-4.68-3.28 0-2.44.2-4.64.2-7.36 0-3.28-1.2-4.6-4.36-5.12v-.2c3.16-.52 4.36-1.84 4.36-5.12 0-2.64-.2-5-.2-7.36 0-2.56.84-3.28 4.68-3.28h1.92V1.6h-3.32c-5.68 0-8.24 1.48-8.24 6.24 0 3.12.44 5 .44 7.76 0 1.6-1.32 3.24-6.16 3.32v3.56c4.84.08 6.16 1.72 6.16 3.32 0 2.84-.44 4.6-.44 7.76zm50.317 2.36c0-.88.52-1.64 1.76-2.4.84.2 1.84.32 3.36.32h3.04c2.6 0 4 .32 4 1.84 0 1.64-2.52 3-6.28 3-3.68 0-5.88-1.04-5.88-2.76zm-4.96.88c0 3.92 4.16 5.72 10 5.72 7.88 0 12.92-3.36 12.92-7.88 0-3.88-3.08-5.52-8.84-5.52h-4.2c-2.6 0-3.84-.52-3.84-1.76 0-.8.36-1.28 1.08-1.76 1.16.32 2.2.52 3.16.52 5 0 8.92-2.44 8.92-7.44 0-1.28-.52-2.44-1.12-3.16h4.68v-4.44h-8.96c-1-.36-2.24-.52-3.52-.52-4.96 0-9.28 2.76-9.28 7.96 0 2.56 1.28 4.52 2.88 5.64v.16c-1.6 1.08-2.64 2.68-2.64 4.16 0 1.8 1 2.96 2.2 3.68v.16c-2.24 1.16-3.44 2.72-3.44 4.48zm10.28-14.44c-1.96 0-3.56-1.36-3.56-3.84 0-2.44 1.6-3.88 3.56-3.88s3.6 1.44 3.6 3.88c0 2.48-1.64 3.84-3.6 3.84zm16.56-.28c0 7.28 5.32 11.48 12.08 11.48 3.04 0 6.2-1 8.64-2.52l-2-3.68c-1.96 1-3.76 1.56-5.8 1.56-3.52 0-6.32-1.64-6.72-5.12h15.2c.08-.52.24-1.64.24-2.76 0-5.96-3.6-10.48-10.28-10.48-5.8 0-11.36 4.32-11.36 11.52zm6.16-2.32c.52-3.08 2.76-4.56 5.36-4.56 3.12 0 4.6 1.76 4.6 4.56h-9.96zm25.998 4.28c0 5.68 2.4 9.52 9.24 9.52 2.76 0 5.2-.56 7.16-1.2l-1.12-4.36c-1.36.48-2.8.8-4.52.8-3.36 0-4.72-1.4-4.72-4.84v-8.12h9.52v-4.76h-9.52V5.2h-5.04l-.76 5.88-5.88.28v4.48h5.64v8.2zm32.04-5.08c2.88 0 4.88-2.16 4.88-4.96s-2-4.96-4.88-4.96-4.88 2.16-4.88 4.96 2 4.96 4.88 4.96zm-3.6 23.68c5.92-1.88 9.12-5.84 9.12-11.4 0-4.56-1.84-7.28-5.28-7.28-2.64 0-4.76 1.68-4.76 4.32 0 2.84 2.16 4.4 4.6 4.4.16 0 .36 0 .52-.04-.04 2.88-1.92 5.04-5.72 6.44l1.52 3.56zM827.44 30.2c2.72 1.84 6.72 3.36 10.72 3.36 6.88 0 10.64-3.08 10.64-6.96 0-3.76-3.6-5.4-8.2-6.6-3.28-.84-5.8-1.56-5.8-2.96 0-1.24 1.08-1.96 4.04-1.96 2.4 0 4.56.88 6.56 2.12l2.72-3.68c-2.28-1.44-5.56-2.96-9.36-2.96-6.28 0-10 2.76-10 6.76 0 3.44 3.96 5.28 7.92 6.4 3.84 1 6.08 1.84 6.08 3.2 0 1.28-1.32 2.12-4.44 2.12s-5.64-1-8.16-2.64l-2.72 3.8zm26.76-8.12c0 7.28 5.32 11.48 12.08 11.48 3.04 0 6.2-1 8.64-2.52l-2-3.68c-1.96 1-3.76 1.56-5.8 1.56-3.52 0-6.32-1.64-6.72-5.12h15.2c.08-.52.24-1.64.24-2.76 0-5.96-3.6-10.48-10.28-10.48-5.8 0-11.36 4.32-11.36 11.52zm6.16-2.32c.52-3.08 2.76-4.56 5.36-4.56 3.12 0 4.6 1.76 4.6 4.56h-9.96zm26 4.28c0 5.68 2.4 9.52 9.24 9.52 2.76 0 5.2-.56 7.16-1.2L901.64 28c-1.36.48-2.8.8-4.52.8-3.36 0-4.72-1.4-4.72-4.84v-8.12h9.52v-4.76h-9.52V5.2h-5.04l-.76 5.88-5.88.28v4.48h5.64v8.2zm32.037-5.08c2.88 0 4.88-2.16 4.88-4.96s-2-4.96-4.88-4.96-4.88 2.16-4.88 4.96 2 4.96 4.88 4.96zm-3.6 23.68c5.92-1.88 9.12-5.84 9.12-11.4 0-4.56-1.84-7.28-5.28-7.28-2.64 0-4.76 1.68-4.76 4.32 0 2.84 2.16 4.4 4.6 4.4.16 0 .36 0 .52-.04-.04 2.88-1.92 5.04-5.72 6.44l1.52 3.56zm48.318-6.08v3.24h3.32c5.68 0 8.24-1.48 8.24-6.24 0-3.16-.48-4.92-.48-7.76 0-1.6 1.32-3.24 6.16-3.32v-3.56c-4.84-.08-6.16-1.72-6.16-3.32 0-2.76.48-4.64.48-7.76 0-4.76-2.56-6.24-8.24-6.24h-3.32v3.24h1.92c3.8 0 4.64.72 4.64 3.28 0 2.36-.16 4.72-.16 7.36 0 3.28 1.2 4.6 4.36 5.12v.2c-3.16.52-4.36 1.84-4.36 5.12 0 2.72.16 4.92.16 7.36 0 2.56-.84 3.28-4.64 3.28h-1.92zm52.077-21.12h20.16v-4.32h-20.16v4.32zm0 10.2h20.16v-4.32h-20.16v4.32z" style="-inkscape-font-specification:'Source Han Code JP Bold'"/>
      <path fill="#909060" d="M1071.07 19.24h3.76l1.48-10.48.16-6.12h-7.08l.2 6.12 1.48 10.48zm11.52 0h3.76l1.48-10.48.2-6.12h-7.08l.2 6.12 1.44 10.48zm122.074 0h3.76l1.48-10.48.16-6.12h-7.08l.2 6.12 1.48 10.48zm11.52 0h3.76l1.48-10.48.2-6.12h-7.08l.2 6.12 1.44 10.48z" style="-inkscape-font-specification:'Source Han Code JP Bold'"/>
      <path d="M1239.022 18.96c2.88 0 4.88-2.16 4.88-4.96s-2-4.96-4.88-4.96-4.88 2.16-4.88 4.96 2 4.96 4.88 4.96zm-3.6 23.68c5.92-1.88 9.12-5.84 9.12-11.4 0-4.56-1.84-7.28-5.28-7.28-2.64 0-4.76 1.68-4.76 4.32 0 2.84 2.16 4.4 4.6 4.4.16 0 .36 0 .52-.04-.04 2.88-1.92 5.04-5.72 6.44l1.52 3.56z" style="-inkscape-font-specification:'Source Han Code JP Bold'"/>
    </g>
    <path fill="#c09090" d="M371.537 20.54c.01 10.628 8.57 19.268 13.885 19.347l198.608.136c6.587.057 15.542-8.615 15.542-19.312 0-10.694-8.955-19.366-15.226-19.34-.5.004-197.352-.086-197.352-.086-6.783-.118-15.457 8.557-15.457 19.257z"/>
    <path fill="#909060" d="M1094.3 24.58c.01 10.628 8.572 19.27 13.886 19.347l73.854.136c6.588.058 15.542-8.614 15.542-19.31 0-10.7-8.954-19.37-15.226-19.34l-72.598-.09c-6.783-.118-15.457 8.556-15.457 19.257z"/>
  </g>
</svg>
